<?xml version="1.0" encoding="UTF-8" standalone="no"?>
<svg
   xmlns:dc="http://purl.org/dc/elements/1.1/"
   xmlns:cc="http://creativecommons.org/ns#"
   xmlns:rdf="http://www.w3.org/1999/02/22-rdf-syntax-ns#"
   xmlns:svg="http://www.w3.org/2000/svg"
   xmlns="http://www.w3.org/2000/svg"
   xmlns:sodipodi="http://sodipodi.sourceforge.net/DTD/sodipodi-0.dtd"
   xmlns:inkscape="http://www.inkscape.org/namespaces/inkscape"
   version="1.1"
   id="svg2"
   xml:space="preserve"
   width="566.93335"
   height="566.93335"
   viewBox="0 0 566.93335 566.93335"
   sodipodi:docname="1.eps"><metadata
     id="metadata8"><rdf:RDF><cc:Work
         rdf:about=""><dc:format>image/svg+xml</dc:format><dc:type
           rdf:resource="http://purl.org/dc/dcmitype/StillImage" /></cc:Work></rdf:RDF></metadata><defs
     id="defs6" /><sodipodi:namedview
     pagecolor="#ffffff"
     bordercolor="#666666"
     borderopacity="1"
     objecttolerance="10"
     gridtolerance="10"
     guidetolerance="10"
     inkscape:pageopacity="0"
     inkscape:pageshadow="2"
     inkscape:window-width="640"
     inkscape:window-height="480"
     id="namedview4" /><g
     id="g10"
     inkscape:groupmode="layer"
     inkscape:label="ink_ext_XXXXXX"
     transform="matrix(1.3333333,0,0,-1.3333333,0,566.93333)"><g
       id="g12"
       transform="scale(0.1)"><path
         d="M 0.0234375,0 V 4251.97 H 4251.94 V 0 H 0.0234375"
         style="fill:#ffffff;fill-opacity:1;fill-rule:evenodd;stroke:none"
         id="path14" /><path
         d="m 113.453,4161.46 c 18.711,0.2 36.723,5.63 55.379,6.17 5.973,0.16 18.16,-4.53 23.277,-0.9 6.719,4.69 14.575,6.68 22.657,7 19.882,0.81 40.668,-1.1 60.312,-3.76 20.899,-2.77 39.688,4.93 60.43,4.57 20.355,-0.31 39.644,-8.2 59.844,-7.96 20.277,0.19 40.746,5.62 60.855,7.89 44.344,4.92 88.168,1.52 132.578,3.79 43.078,2.14 86.016,2.26 129.223,1.52 46.441,-0.82 93.398,2.54 139.68,0.43 42.742,-1.95 85.316,-6.21 128.042,-7.43 90.9,-2.57 181.29,0.74 271.99,0.28 168.44,-0.86 336.34,-7.97 504.89,-5.47 24.14,0.36 48.09,4.46 72.23,4.46 20.82,0 41.53,-3.68 62.43,-3.84 43.08,-0.31 86.09,2.16 129.2,0.63 44.46,-1.61 88.95,-4.06 133.36,-6.84 40.09,-2.5 80.36,2.43 120.28,-3.2 17.03,-2.4 36.84,1.93 55.32,4.34 9.82,-0.29 19.64,-0.45 29.42,-0.29 17.28,0.24 34.6,0.13 51.92,-0.2 4.63,-0.37 9.27,-0.69 13.9,-0.8 v 0.47 c 50.15,-1.28 100.41,-4.15 150.27,-5.7 75.94,-2.39 152.04,-3.21 227.97,-3.76 70.35,-0.54 138.87,1.8 209.18,-6.24 79.33,-9.07 158.09,-4.66 238.32,-2.47 44.68,1.25 89.13,7.08 133.9,2.77 40.19,-3.82 83.12,0.4 123.41,4.07 45.42,4.22 90.81,-1.83 136.31,0 38.02,1.52 75.8,4.72 113.72,4.84 22.69,0.04 45.51,4.89 68.26,4.46 19.67,-0.36 38.62,-3.29 58.39,-2.74 37.19,0.98 74.29,-6.21 110.74,2.89 11.95,3.01 22.26,-3.63 34.14,-3.95 8.83,-0.22 17.54,1.14 26.29,1.49 19.02,0.74 37.54,-0.78 56.4,-3.12 40.2,-5 78.83,3.98 118.99,3.9 5,-0.01 10.01,0.21 15.01,0.49 v 30.6 c -81,-0.87 -161.63,-8.16 -242.86,-5.93 -86.18,2.34 -172.11,3.24 -258.33,1.8 -45.7,-0.82 -91.84,-6.02 -137.78,-6.76 -41.32,-0.67 -82.25,0.27 -123.59,-0.78 -90.5,-2.34 -180.81,-2.93 -271.28,-5.63 -89.38,-2.73 -177.2,5.2 -266.17,10.32 -90.78,5.23 -181.71,0.73 -272.5,2.88 -93.34,2.21 -187.75,5.92 -280.41,6.18 -16.91,0.03 -33.72,-0.65 -50.6,-0.87 -73.45,-0.93 -146.51,1.75 -220.06,3.01 -90.39,1.57 -180.47,6.57 -270.89,6.93 -86.41,0.3 -173.12,-8.05 -259.49,-4.73 -87.46,3.36 -175.67,3.91 -263.18,4.29 -89.61,0.44 -180.07,1.72 -269.48,-2.97 -87.19,-4.53 -174.342,9.04 -261.534,7.89 -89.328,-1.2 -178.621,-0.46 -267.961,0.43 -45.078,0.43 -89.41,-5.42 -134.328,-6.75 -40.32,-1.17 -81.8,0.43 -122.039,1.55 -85.273,2.43 -170.207,-11.28 -255.5232,-10.74 -7.9882,0.06 -15.97261,-0.03 -23.9648,-0.12 v -30.6 c 18.8398,1.04 37.6055,3.55 56.4648,4.12 19.0235,0.59 37.9727,-2.11 56.9882,-1.91"
         style="fill:#000000;fill-opacity:1;fill-rule:nonzero;stroke:none"
         id="path16" /><path
         d="m 351.832,3261.44 c 45.086,-0.89 91.055,-1.47 135.926,3.64 47.547,5.33 95.89,1.58 143.683,2.18 44.161,0.51 88.332,1.55 132.5,3.32 39.157,1.58 78.34,2.47 117.477,3.24 l -0.164,14.69 c 0.047,-4.69 0.215,-9.38 0.5,-13.92 66.242,-9.24 139.046,-1.88 206.086,-1.23 67.56,0.66 135.13,1.77 202.75,2.08 137.16,0.58 274.16,4.24 411.27,7.72 161.48,4.18 323.26,6.77 484.66,-2.13 64.53,-3.71 128.94,-2.35 193.5,-2.48 39.31,-0.02 79.78,-2.86 118.37,-10.25 39.18,-7.46 82.51,-0.32 122.79,-4.45 43.37,-4.43 87.14,-6.24 130.69,-9.29 30.33,-2.14 60.72,-3.47 91.11,-4.42 14.83,-0.46 30.28,2.99 44.89,0.63 10.77,-1.72 20.86,-6.34 31.6,-8.17 30.23,-5.16 64.45,0.07 95.01,0.93 69.29,1.93 138.55,4.26 207.82,7.02 56.09,2.23 112.17,4.74 168.23,7.53 89.57,4.44 180.29,10.55 269.85,7.7 88.01,-2.83 176.59,-10.55 264.55,-11.17 89.34,-0.64 178.66,-5.14 267.98,-3.85 19.72,0.3 39.4,0.8 59.06,1.33 v 30.98 c -69.66,-1.14 -138.87,-1.53 -208.92,1.54 -46.95,2.08 -93.35,-2.34 -140.13,2.54 -20.28,2.1 -40.64,-0.36 -61.18,1.81 -21.2,2.33 -42.75,3.63 -64.07,4.73 -44.29,2.28 -91.32,4.11 -135.57,2.61 -18.35,-0.59 -34.64,-9.32 -53.28,-7.38 -22.82,2.44 -45.56,5.66 -68.49,6.79 -27.2,1.42 -52.54,-4.16 -79.37,-6.08 -22.3,-1.58 -44.71,-0.25 -66.93,-2.84 -39.45,-4.49 -83.53,-7.58 -123.15,-4.47 -31.34,2.47 -62.63,-0.53 -93.86,-3.06 -12.17,-0.99 -20.77,1.52 -32.37,3.08 -14.34,1.96 -30.01,-1.5 -44.38,-2.31 -34.22,-1.93 -68.25,-1.41 -102.59,-1.9 -24.64,-0.35 -48.23,-1.1 -72.96,-0.33 -20.36,0.58 -40.67,3.81 -61.04,1.61 -18.54,-1.96 -36.6,3.93 -55,4.1 -17.51,0.21 -27.7,-3.29 -44.57,2.58 -20.55,7.14 -45.73,5.2 -67.18,7.01 -22.65,1.77 -45.31,3.67 -67.99,4.4 -44.54,1.52 -88.93,2.69 -133.33,7.3 -50.92,5.32 -101.99,-0.11 -152.98,1.11 -68.34,1.71 -136.25,9.82 -204.44,11.87 -70.57,2.08 -141.08,-2.49 -211.57,-4.26 -84.28,-2.05 -168.37,0.75 -252.68,-3 -83.2,-3.7 -167.43,-10.25 -250.72,-6.58 -81.33,3.68 -162.09,-2.24 -243.36,2.67 -46.19,2.77 -92.45,3.21 -138.66,2.37 -44.876,-0.88 -95.927,2.64 -139.739,-6.52 -0.184,-4.56 -0.262,-9.23 -0.207,-13.92 l -0.156,14.74 c -4.77,-0.08 -9.571,-0.24 -14.336,-0.32 -88.157,-1.58 -176.949,-9.58 -265.09,-6.74 -92.274,2.93 -183.879,-7.47 -276.277,-3.26 -43.34,1.92 -86.465,-8.21 -129.625,-6.58 -44.356,1.74 -87.141,-1.31 -131.5669,-2.14 C 42.7344,3283.82 21.3516,3283.42 0,3283.07 v -30.99 c 71.0703,1.96 141.836,5.03 213.07,6.33 46.434,0.86 92.297,3.93 138.762,3.03"
         style="fill:#000000;fill-opacity:1;fill-rule:nonzero;stroke:none"
         id="path18" /><path
         d="m 132.488,2621 c 42.703,-2.32 85.242,-6.96 127.973,-8.58 90.871,-3.42 181.297,-0.92 271.988,-2.2 168.426,-2.41 336.219,-11.04 504.791,-10.08 24.16,0.16 48.13,4.02 72.26,3.81 20.81,-0.18 41.5,-4.07 62.37,-4.39 43.12,-0.71 86.15,1.33 129.21,-0.57 44.44,-1.99 88.95,-4.85 133.3,-8.05 40.05,-2.86 80.41,1.69 120.24,-4.29 21.92,-3.3 48.52,4.56 70.9,5.1 20.71,0.5 41.45,0.06 62.02,-2.24 40.39,-4.49 80.57,3.21 121.24,2.76 90.06,-0.96 179.63,5.31 269.84,7.11 167.3,3.36 333.41,-1.26 500.87,3.27 82.6,2.25 166.7,-6.73 248.93,1.31 44.84,4.36 89.95,0.28 134.91,3.01 40.53,2.48 80.95,0.88 121.44,0.13 42.67,-0.75 84.55,0.08 126.95,-1.18 53.04,-1.59 105.41,-3.08 158.45,-1.45 21.51,0.66 43.01,-2.05 64.31,-1.25 25.72,0.98 51.3,4.58 77.07,4.29 23.92,-0.27 47.62,3.48 71.5,3.98 19.03,0.38 37.93,-2.46 56.96,-2.44 18.73,0.01 36.78,5.28 55.47,5.65 5.95,0.1 18.1,-4.68 23.25,-1.09 6.78,4.61 14.62,6.55 22.73,6.78 19.87,0.62 40.65,-1.49 60.29,-4.3 20.84,-2.98 39.7,4.55 60.46,4.02 20.32,-0.49 39.55,-8.56 59.77,-8.53 20.26,0.04 40.77,5.27 60.94,7.35 44.33,4.53 88.14,0.73 132.57,2.57 43.13,1.78 86.05,1.51 129.24,0.35 2.41,-0.07 4.83,-0.03 7.24,-0.06 v 25.14 c -63.05,0.43 -126.09,1.52 -189.14,2.73 -45.06,0.84 -89.46,-4.64 -134.41,-5.54 -40.33,-0.82 -81.76,1.15 -122,2.66 -85.22,3.21 -170.34,-9.74 -255.62,-8.4 -74.98,1.19 -149.67,-4.46 -224.65,-4.33 -4.94,0.34 -9.9,0.7 -14.83,1.03 -41.3,2.67 -83.79,3.71 -125.23,3.95 -86.51,0.47 -173.38,-6.45 -260.08,-3.78 -45.25,1.42 -88.93,-3.07 -134.02,-3.6 -40.72,-0.46 -81.35,2.88 -121.99,0.91 -44.13,-2.13 -88.88,-1.47 -133.1,-1.95 -37.9,-0.42 -78.21,-4.21 -115.72,0.19 -45.85,5.31 -93.72,-1.61 -139.96,-0.04 -40.85,1.39 -81.57,0.43 -122.38,1.25 -84.95,1.74 -170.67,-8.62 -255.47,-11.05 -87.29,-2.53 -174.96,-3.23 -262.15,-0.06 -21.28,0.77 -39.84,-0.02 -60.86,-3.48 -18.3,-3 -35.68,1.89 -54,2.56 -40.95,1.51 -82.09,2.25 -123.09,3.34 -90.41,2.36 -180.44,8.19 -270.87,9.36 -86.36,1.09 -173.166,-6.45 -259.486,-2.35 -87.426,4.16 -175.641,5.51 -263.105,6.7 -89.598,1.24 -180.059,3.31 -269.532,-0.52 -87.234,-3.76 -174.226,10.62 -261.4489,10.26 -26.2734,-0.11 -52.5547,-0.02 -78.8281,0.16 v -25.14 c 44.0977,-0.8 88.6094,1.63 132.488,-0.79"
         style="fill:#000000;fill-opacity:1;fill-rule:nonzero;stroke:none"
         id="path20" /><path
         d="m 348.359,501.41 c 43.653,-4.051 88.461,-2.75 132.243,-1 88.187,3.391 175.882,-4.75 263.961,-6.808 93.265,-2.223 185.949,2.589 279.227,2.918 181.65,0.511 363.56,3.871 545.18,10.089 89.62,3.02 180.43,7.743 269.94,3.5 87.96,-4.211 176.42,-13.289 264.31,-15.281 89.37,-2.039 178.6,-7.918 267.95,-8.008 66.56,-0.058 132.7,1.621 199,2.52 4.56,0.051 9.12,0.23 13.66,0.308 19.82,0.262 39.63,0.5 59.5,0.551 20.93,0.063 40.13,5.012 60.86,5.91 41.99,1.832 83.33,3 125.36,7.2 93.92,9.371 189.17,3.511 283.34,9.339 48.33,2.911 96.6,-1.847 144.97,0.114 42.12,1.687 84,7 126.31,7.328 89.43,0.629 179.01,-3.488 268.33,-7.879 48.62,-2.301 96.95,-7.621 145.08,-15.043 40.89,-6.258 80.46,-2.59 121.14,-7.938 45.67,-6.011 90.35,-2.05 136.06,-4.941 44.8,-2.828 88.51,-0.277 133.15,4.352 21.29,2.199 42.63,3.828 64.04,5.109 v 31.359 c -70.59,-3.199 -140.88,-10.218 -211.94,-11.398 -49.01,-0.793 -96.26,2.93 -145.03,7.508 -43.1,4.082 -86.08,3.031 -129.22,7.16 -47.5,4.48 -91.85,13.492 -140.01,12.723 -44.38,-0.723 -87.23,8.16 -131.29,9.628 -23.9,0.77 -47.27,-2.699 -71.07,-3.98 -21.13,-1.16 -41.81,3.512 -63.06,3.07 -45.02,-0.961 -88.23,-11.429 -133.54,-10.82 -23.75,0.27 -47.66,-1.02 -70.96,4.449 -16.73,3.832 -26.68,-1.168 -43.53,-1.539 -40.93,-0.89 -81.73,-12.879 -122.73,-8.152 24.57,-2.848 -11.53,-1.469 0,0 -35.37,-4.617 -74.44,2.023 -110.66,-0.668 -41.12,-3.07 -81.85,-7.051 -123.14,-8.371 -49.22,-1.59 -98.51,-4.117 -147.8,-5.688 -37.82,1.047 -74.91,-0.562 -113.11,-0.66 -91.49,-0.351 -181.57,-0.832 -273.03,4.629 -46.9,2.809 -93.41,-0.91 -140.07,4.711 -20.25,2.391 -40.68,0.269 -61.17,2.758 -21.16,2.633 -42.66,4.301 -64,5.703 -44.23,2.988 -91.21,5.527 -135.48,4.738 -18.36,-0.301 -34.78,-8.769 -53.39,-6.539 -22.8,2.777 -45.48,6.359 -68.4,7.84 -27.17,1.848 -52.58,-3.352 -79.44,-4.84 -22.32,-1.223 -44.72,0.457 -66.97,-1.793 -39.51,-3.887 -83.61,-6.308 -123.2,-2.558 -45.52,4.371 -90,-2.829 -135.54,-3.661 -43.88,-0.75 -87.54,0.481 -131.49,-0.828 -91.46,-2.711 -183.13,-3.281 -274.591,-3.453 -182.964,-0.469 -365.863,2.301 -548.589,7.5 -26.985,0.801 -53.899,-1.098 -80.707,-3.937 -20.692,-2.2 -41.368,1.449 -62.059,-0.161 C 152.34,524.988 107.75,526.73 63.168,526.73 42.0703,526.73 21.0273,526.07 0,525.109 V 493.75 c 68.0273,4.031 136.492,4.102 204.801,4.379 47.328,0.242 96.465,7.699 143.558,3.281"
         style="fill:#000000;fill-opacity:1;fill-rule:nonzero;stroke:none"
         id="path22" /><path
         d="m 37.1328,801.148 c 45.0977,-0.886 91.0662,-1.449 135.9262,3.641 47.546,5.352 95.89,1.582 143.679,2.18 44.164,0.511 88.34,1.562 132.504,3.32 39.164,1.59 78.336,2.481 117.473,3.262 l -0.156,14.5 c 0.058,-4.621 0.214,-9.223 0.496,-13.711 66.242,-9.262 139.058,-1.871 206.082,-1.199 67.578,0.648 135.14,1.757 202.758,2.097 137.155,0.582 274.135,4.231 411.265,7.742 161.49,4.18 323.26,6.782 484.68,-2.121 64.53,-3.679 128.92,-2.328 193.5,-2.418 39.3,-0.043 79.75,-2.851 118.36,-10.261 39.19,-7.461 82.51,-0.321 122.79,-4.41 43.36,-4.418 87.13,-6.262 130.68,-9.301 34.12,-2.399 70.96,0.351 104.46,-5.68 32.09,-5.777 64.65,-0.148 96.42,-4.711 30.47,-4.379 62.6,-1 93.53,-0.066 69.16,2.047 138.3,4.508 207.43,7.398 45.61,1.899 91.23,3.981 136.82,6.262 89.58,4.437 180.3,10.566 269.85,7.699 88.02,-2.812 176.6,-10.531 264.55,-11.109 89.35,-0.684 178.66,-5.121 267.99,-3.852 91,1.36 181.16,6 272.08,7.68 34.05,0.629 67.78,2.449 101.67,3.031 v 31.649 c -39.77,0.109 -79.34,-8.192 -118.97,-6.731 -44.34,1.762 -87.13,-1.289 -131.56,-2.117 -91.49,-1.754 -181.55,-3.652 -273.1,0.359 -46.93,2.071 -93.33,-2.402 -140.1,2.481 -20.29,2.129 -40.67,-0.321 -61.19,1.847 -21.21,2.321 -42.76,3.59 -64.09,4.7 -44.28,2.3 -91.3,4.089 -135.55,2.609 -18.36,-0.59 -34.65,-9.316 -53.29,-7.379 -22.81,2.41 -45.56,5.652 -68.48,6.781 -27.21,1.418 -52.54,-4.16 -79.38,-6.09 -22.31,-1.609 -44.71,-0.25 -66.93,-2.82 -39.43,-4.531 -83.51,-7.609 -123.13,-4.5 -36.66,2.891 -73.23,-1.699 -109.75,-4.34 -30.68,-2.23 -61.62,-0.601 -92.37,-0.66 -23.74,-0.019 -47.41,1.508 -71.1,1.149 -24.64,-0.387 -48.23,-1.11 -72.97,-0.321 -20.35,0.571 -40.66,3.742 -61.03,1.582 -18.53,-1.961 -36.6,3.899 -55,4.098 -17.51,0.23 -27.7,-3.309 -44.56,2.594 -20.55,7.129 -45.73,5.179 -67.19,6.988 -22.64,1.738 -45.32,3.699 -67.99,4.422 -44.54,1.508 -88.94,2.668 -133.32,7.277 -50.91,5.281 -101.99,-0.148 -152.99,1.102 -68.34,1.687 -136.24,9.777 -204.42,11.789 -70.59,2.14 -141.09,-2.5 -211.59,-4.262 -84.28,-2.039 -168.38,0.731 -252.67,-3.008 -83.21,-3.718 -167.44,-10.23 -250.71,-6.57 -81.34,3.629 -162.102,-2.289 -243.364,2.621 -46.215,2.758 -92.477,3.238 -138.676,2.348 -44.875,-0.867 -95.926,2.64 -139.738,-6.508 -0.196,-4.492 -0.246,-9.133 -0.203,-13.75 l -0.157,14.57 c -4.757,-0.082 -9.57,-0.25 -14.339,-0.34 -88.145,-1.582 -176.958,-9.55 -265.09,-6.761 -92.262,2.922 -183.875,-7.512 -276.266,-3.309 C 7.13672,832.789 3.5625,832.762 0,832.77 v -31.649 c 12.3438,0.219 24.7227,0.277 37.1328,0.027"
         style="fill:#000000;fill-opacity:1;fill-rule:nonzero;stroke:none"
         id="path24" /><path
         d="m 233.34,3492.4 c 43.398,-2.15 85.351,1.71 128.512,3.94 44.578,2.27 89.066,4 133.593,6.99 42.504,2.85 84.301,10.58 126.84,12.23 92.418,3.55 184.274,6.05 276.735,7.35 90.421,1.32 180.54,6.13 270.35,15.54 93.87,9.84 189.14,4.46 283.28,10.7 48.32,3.2 96.6,-1.31 144.95,0.87 42.11,1.91 83.99,7.41 126.29,7.97 89.42,1.05 179.02,-2.63 268.36,-6.57 48.63,-2.11 97,-7.15 145.16,-14.33 40.94,-6.06 80.47,-2.2 121.17,-7.35 45.71,-5.78 90.36,-1.6 136.1,-4.29 44.81,-2.59 88.52,0.19 133.12,5.03 88.91,9.61 178.98,10 268.76,10.78 47.33,0.51 96.43,8.17 143.54,4.03 32.93,-2.88 66.47,-2.66 99.74,-1.55 36.78,-0.71 73.54,-0.78 110.35,-1.23 39.3,-0.46 79.73,-3.71 118.24,-11.52 39.1,-7.89 82.5,-1.22 122.75,-5.75 43.32,-4.88 87.06,-7.18 130.58,-10.69 91.91,-7.46 183.9,-7.55 275.82,-11.84 48.86,-2.26 98.47,-2.74 147.3,-0.39 45.05,2.15 89.09,-6.29 134.18,-5.36 45.22,0.98 90.43,-3.78 135.74,-3.29 12.46,0.12 24.79,0.25 37.17,0.37 v 30.67 c -167.59,8.21 -336.59,11.82 -504.16,11 -24.65,-0.11 -48.24,-0.58 -72.97,0.48 -20.35,0.77 -40.63,4.18 -61.02,2.22 -18.54,-1.76 -36.56,4.31 -54.96,4.69 -17.5,0.43 -27.72,-3.01 -44.53,3.09 -20.47,7.33 -45.66,5.65 -67.1,7.69 -22.63,1.99 -45.28,4.17 -67.94,5.16 -44.52,1.99 -88.89,3.63 -133.24,8.71 -31.2,3.59 -62.65,3.1 -93.98,2.64 -26.4,-0.4 -51.85,1.32 -77.83,1.49 -15.77,0.11 -32.37,1.41 -48.11,2.64 -29.51,2.29 -61.86,9.61 -90.9,2.59 -13.56,-3.27 -26.05,-1.76 -39.89,-1.27 -15.1,0.54 -30.46,-2.14 -44.93,-3.75 -20.66,-2.31 -41.35,1.24 -62.07,-0.47 -44.37,-3.71 -88.97,-2.19 -133.54,-2.46 -91.95,-0.43 -182.82,-12.35 -275,-14.34 -49.03,-1.02 -96.3,2.46 -145.08,6.8 -43.12,3.86 -86.09,2.58 -129.26,6.52 -47.54,4.25 -91.92,13.02 -140.09,12.03 -44.37,-0.94 -87.25,7.73 -131.32,8.98 -23.9,0.62 -47.27,-2.96 -71.06,-4.33 -21.13,-1.26 -41.84,3.27 -63.08,2.77 -45,-1.21 -88.16,-11.87 -133.47,-11.52 -23.75,0.19 -47.66,-1.21 -70.98,4.14 -16.76,3.75 -26.68,-1.29 -43.52,-1.76 -40.93,-1.1 -81.68,-13.28 -122.7,-8.75 24.57,-2.73 -11.52,-1.56 0,0 -35.34,-4.8 -74.45,1.64 -110.65,-1.25 -41.1,-3.24 -81.8,-7.42 -123.09,-8.94 -90.35,-3.4 -180.934,-10.2 -271.215,-7.78 -48.172,1.25 -94.937,-1.79 -142.867,-5.31 -42.223,-3.08 -84.563,-1.6 -126.672,-4.57 -88.012,-6.25 -177.035,-12.19 -264.687,-21.6 -22.036,-2.4 -42.887,4.26 -64.688,2.59 -22.34,-1.73 -44.965,0.22 -67.418,1.75 -41.918,2.8 -83.2069,-3.6 -124.8905,-1.38 -11.0039,0.59 -22.0469,0.96 -33.0625,1.5 v -30.67 c 29.8281,0.31 59.5508,0.66 89.5547,1.4 47.8513,1.17 95.9373,-0.7 143.7853,-3.04"
         style="fill:#000000;fill-opacity:1;fill-rule:nonzero;stroke:none"
         id="path26" /><path
         d="m 20.4844,3802.43 c 38.0156,1.54 75.789,4.74 113.7186,4.85 22.692,0.04 45.504,4.88 68.242,4.45 19.68,-0.35 38.629,-3.28 58.399,-2.72 37.183,0.96 74.293,-6.22 110.734,2.88 11.957,3.01 22.274,-3.62 34.141,-3.94 8.828,-0.24 17.539,1.13 26.289,1.49 19.027,0.74 37.543,-0.77 56.414,-3.13 40.195,-5.01 78.824,3.98 118.976,3.9 23.907,-0.08 47.579,3.91 71.45,4.61 19.011,0.59 37.965,-2.11 56.992,-1.91 18.711,0.19 36.711,5.62 55.367,6.17 5.973,0.16 18.168,-4.53 23.285,-0.9 6.719,4.69 14.567,6.69 22.656,6.99 19.872,0.82 40.661,-1.1 60.301,-3.74 20.903,-2.77 39.696,4.91 60.434,4.56 20.355,-0.31 39.652,-8.2 59.837,-7.97 20.28,0.19 40.75,5.65 60.87,7.89 44.33,4.93 88.16,1.52 132.57,3.79 43.09,2.15 86.01,2.26 129.22,1.52 46.45,-0.81 93.4,2.55 139.69,0.44 42.73,-1.96 85.31,-6.21 128.04,-7.43 90.9,-2.58 181.29,0.75 272,0.27 168.42,-0.83 336.33,-7.96 504.89,-5.46 24.13,0.35 48.08,4.45 72.21,4.45 20.82,0 41.53,-3.67 62.42,-3.82 43.09,-0.32 86.1,2.14 129.23,0.62 44.45,-1.6 88.95,-4.06 133.35,-6.83 40.08,-2.51 80.35,2.42 120.28,-3.2 17.01,-2.4 36.78,1.9 55.25,4.31 18.24,-0.53 35.8,-3.58 54.1,-2.97 30.62,1.01 59.64,1.73 90.17,0.52 33.77,-1.35 67.53,-3 101.31,-4.06 75.93,-2.38 152.04,-3.2 227.97,-3.74 70.35,-0.56 138.87,1.79 209.17,-6.26 79.35,-9.06 158.09,-4.65 238.32,-2.46 44.68,1.25 89.14,7.07 133.91,2.78 40.2,-3.84 83.13,0.39 123.4,4.05 38.62,3.6 77.22,-0.21 115.88,-0.3 v 28.88 c -5.53,-0.19 -11.07,-0.51 -16.59,-0.6 -41.32,-0.67 -82.26,0.27 -123.59,-0.79 -90.51,-2.34 -180.82,-2.93 -271.29,-5.62 -89.37,-2.73 -177.17,5.19 -266.17,10.31 -90.78,5.24 -181.71,0.74 -272.5,2.9 -85.96,2.05 -173.06,0.09 -258.44,7.1 -18.02,1.49 -36.57,0.5 -54.65,0.98 -23.19,0.64 -46.19,-0.97 -69.29,-0.87 -12.82,0.04 -25.7,-5.21 -38.53,-3.76 -12.96,1.46 -25.3,3.14 -38.73,3.42 -30.47,0.6 -60.94,0.93 -91.42,1.44 -90.39,1.56 -180.46,6.57 -270.9,6.91 -86.4,0.32 -173.13,-8.04 -259.48,-4.72 -87.47,3.36 -175.68,3.9 -263.18,4.3 -89.61,0.42 -180.08,1.72 -269.49,-2.97 -87.19,-4.52 -174.33,9.02 -261.52,7.89 -89.33,-1.22 -178.63,-0.47 -267.96,0.43 -45.09,0.43 -89.42,-5.43 -134.34,-6.76 -40.306,-1.17 -81.798,0.43 -122.029,1.56 -85.269,2.43 -170.215,-11.29 -255.531,-10.74 -89.059,0.62 -177.574,-8.52 -266.793,-6.05 -86.172,2.35 -172.109,3.24 -258.317,1.79 C 81.0117,3836.44 40.4609,3832.5 0,3831.01 v -28.88 c 6.83203,-0.02 13.6523,0.03 20.4844,0.3"
         style="fill:#000000;fill-opacity:1;fill-rule:nonzero;stroke:none"
         id="path28" /><path
         d="m 279.609,2892.15 c 91,1.34 181.161,5.98 272.09,7.66 46.43,0.85 92.293,3.96 138.762,3.04 45.098,-0.88 91.055,-1.44 135.926,3.65 47.543,5.35 95.886,1.58 143.679,2.19 44.164,0.51 88.334,1.55 132.504,3.33 39.17,1.57 78.34,2.45 117.47,3.25 l -0.16,14.49 c 0.06,-4.62 0.22,-9.23 0.5,-13.73 66.25,-9.24 139.05,-1.86 206.08,-1.19 67.57,0.65 135.14,1.75 202.76,2.11 137.16,0.57 274.15,4.22 411.26,7.72 161.5,4.19 323.27,6.79 484.67,-2.1 64.53,-3.71 128.94,-2.33 193.52,-2.44 39.3,-0.04 79.75,-2.85 118.35,-10.25 39.19,-7.48 82.51,-0.33 122.79,-4.43 43.37,-4.42 87.14,-6.26 130.69,-9.31 41.03,-2.88 85.68,0.73 125.66,-7.44 30.46,-6.24 61.97,-8.21 92.97,-6.02 31.33,2.2 62.54,2.62 94.11,3.61 69.22,2.13 138.43,4.66 207.62,7.64 39.45,1.68 78.87,3.5 118.31,5.46 89.56,4.44 180.27,10.56 269.84,7.71 84.13,-2.69 168.81,-9.78 252.96,-10.94 v 31.49 c -3.47,0.26 -6.95,0.49 -10.4,0.85 -20.31,2.1 -40.68,-0.34 -61.19,1.82 -21.21,2.31 -42.76,3.62 -64.09,4.72 -44.28,2.28 -91.31,4.09 -135.55,2.59 -18.36,-0.59 -34.65,-9.31 -53.29,-7.36 -22.81,2.41 -45.57,5.65 -68.48,6.77 -27.22,1.42 -52.55,-4.16 -79.38,-6.09 -22.32,-1.57 -44.7,-0.24 -66.93,-2.82 -39.45,-4.53 -83.52,-7.62 -123.13,-4.48 -35.53,2.81 -70.99,-1.43 -106.39,-4.1 -29.03,-2.2 -57.5,-0.39 -86.55,-0.15 -26.8,0.22 -53.49,0.73 -80.29,0.34 -24.63,-0.37 -48.23,-1.11 -72.96,-0.3 -20.36,0.55 -40.66,3.74 -61.03,1.55 -18.55,-1.93 -36.6,3.92 -55.01,4.1 -17.5,0.25 -27.7,-3.28 -44.57,2.61 -20.55,7.12 -45.71,5.18 -67.18,6.98 -22.64,1.76 -45.31,3.69 -67.98,4.42 -44.55,1.53 -88.94,2.7 -133.32,7.3 -50.92,5.28 -102,-0.17 -153,1.09 -68.33,1.68 -136.24,9.8 -204.43,11.81 -70.58,2.1 -141.08,-2.49 -211.57,-4.26 -84.28,-2.06 -168.38,0.73 -252.68,-3.03 -83.2,-3.7 -167.43,-10.24 -250.72,-6.56 -81.34,3.65 -162.09,-2.28 -243.36,2.63 -46.2,2.75 -92.46,3.22 -138.67,2.36 -44.87,-0.9 -95.92,2.62 -139.75,-6.52 -0.17,-4.5 -0.23,-9.12 -0.19,-13.74 l -0.15,14.56 c -4.77,-0.1 -9.57,-0.27 -14.34,-0.33 -88.15,-1.6 -176.96,-9.57 -265.093,-6.76 -92.262,2.91 -183.875,-7.5 -276.274,-3.3 -43.339,1.95 -86.457,-8.2 -129.625,-6.58 -44.355,1.74 -87.128,-1.31 -131.55,-2.12 -91.504,-1.76 -181.571,-3.68 -273.098,0.34 -43.4844,1.92 -86.4727,-1.66 -129.75,1.66 v -31.49 c 3.86719,-0.04 7.75781,-0.17 11.6211,-0.18 89.3399,-0.67 178.6599,-5.12 267.9879,-3.83"
         style="fill:#000000;fill-opacity:1;fill-rule:nonzero;stroke:none"
         id="path30" /><path
         d="m 260.258,219.129 c 87.941,-4.149 176.426,-13.16 264.32,-15.078 89.375,-1.981 178.606,-7.793 267.938,-7.801 91.031,-0.031 181.222,3.27 272.164,3.578 46.44,0.172 92.37,2.602 138.8,1 45.07,-1.558 91,-2.808 135.94,1.621 47.64,4.653 95.9,0.141 143.72,0.071 44.17,-0.149 88.34,0.21 132.54,1.351 39.18,0.969 78.32,1.277 117.46,1.508 l 0.13,29.449 c -4.77,-0.019 -9.57,-0.117 -14.34,-0.098 -88.16,-0.289 -177.05,-6.96 -265.13,-2.839 -92.21,4.289 -183.97,-4.731 -276.29,0.828 -43.35,2.562 -86.59,-6.938 -129.75,-4.649 -44.32,2.379 -87.139,-0.011 -131.549,-0.191 -91.484,-0.391 -181.566,-0.961 -273.027,4.422 -46.914,2.777 -93.411,-0.973 -140.063,4.609 -20.269,2.379 -40.68,0.25 -61.183,2.719 -21.157,2.621 -42.676,4.269 -64.004,5.652 -44.243,2.957 -91.219,5.457 -135.489,4.629 -18.347,-0.308 -34.785,-8.801 -53.382,-6.57 -22.801,2.75 -45.477,6.32 -68.411,7.781 -27.1715,1.84 -52.5661,-3.383 -79.4254,-4.902 C 27.4961,245.461 13.7305,245.73 0,245.57 v -29.8 c 86.4805,3.082 173.961,7.371 260.258,3.359"
         style="fill:#000000;fill-opacity:1;fill-rule:nonzero;stroke:none"
         id="path32" /><path
         d="m 4102.98,241.738 c -45.5,4.332 -90,-2.91 -135.53,-3.769 -43.9,-0.789 -87.54,0.402 -131.49,-0.938 -91.44,-2.781 -183.14,-3.429 -274.58,-3.66 -182.98,-0.609 -365.88,2.027 -548.6,7.09 -26.99,0.777 -53.92,-1.16 -80.7,-4.012 -20.7,-2.199 -41.4,1.43 -62.08,-0.199 -44.41,-3.531 -88.99,-1.82 -133.58,-1.871 -32.85,-0.027 -65.58,-1.57 -98.27,-3.539 -43.98,0.621 -87.94,1.101 -132,-0.211 -83.24,-2.469 -167.57,-7.777 -250.8,-2.859 -81.27,4.871 -162.1,0.128 -243.28,6.25 -46.17,3.441 -92.41,4.601 -138.62,4.441 -44.89,-0.242 -95.88,4.039 -139.83,-4.449 -0.51,-9.141 -0.55,-18.762 -0.11,-27.891 66.08,-10.203 139,-3.941 206.04,-4.262 67.57,-0.359 135.16,-0.25 202.76,-0.918 68.43,-0.691 136.84,-0.703 205.25,-0.293 34.55,0.192 69.1,0.493 103.65,0.821 17.29,0.172 34.56,0.351 51.83,0.543 7.81,0.078 16.84,1.449 24.52,0.179 5.98,-0.98 10.95,-3.562 17.22,-3.98 12.16,-0.82 24.3,1.301 36.45,0.578 19.87,-1.187 39.62,-1.859 59.54,-1.859 18.56,0 37.05,0.851 55.55,0.82 15.51,-0.039 31.62,-1.25 47.03,0.738 9.88,1.274 19.16,4.942 29.06,6.071 34.54,3.921 70.92,1.171 105.67,1.339 47.33,0.282 96.46,7.774 143.55,3.391 43.66,-4.008 88.46,-2.668 132.26,-0.898 88.19,3.449 175.88,-4.61 263.96,-6.621 93.27,-2.129 185.94,2.761 279.23,3.14 181.64,0.649 363.56,4.149 545.17,10.508 3.22,0.102 6.49,0.23 9.72,0.352 v 29.8 c -8.62,-0.09 -17.2,-0.32 -25.77,-1.191 -39.52,-3.93 -83.63,-6.367 -123.22,-2.641"
         style="fill:#000000;fill-opacity:1;fill-rule:nonzero;stroke:none"
         id="path34" /><path
         d="m 193.824,4021.09 c 168.422,-2.41 336.227,-11.02 504.785,-10.04 24.164,0.17 48.129,4.02 72.258,3.8 20.813,-0.19 41.504,-4.05 62.371,-4.35 43.125,-0.7 86.153,1.33 129.219,-0.59 44.443,-1.96 88.953,-4.86 133.293,-8.04 40.06,-2.85 80.4,1.7 120.23,-4.28 21.93,-3.29 48.52,4.55 70.91,5.08 20.71,0.53 41.45,0.07 62.01,-2.23 40.4,-4.46 80.58,3.26 121.24,2.81 90.08,-0.97 179.63,5.3 269.85,7.14 167.3,3.31 333.41,-1.25 500.87,3.28 82.6,2.26 166.7,-6.74 248.92,1.31 44.86,4.4 89.97,0.27 134.92,3.04 40.54,2.48 80.96,0.87 121.45,0.14 42.66,-0.74 84.54,0.07 126.95,-1.18 51.15,-1.48 102.27,-3.71 153.44,-4.64 48.91,-0.88 97.43,6.52 146.38,5.96 23.93,-0.27 47.62,3.47 71.51,3.94 19.02,0.43 37.93,-2.41 56.94,-2.36 18.75,-0.03 36.79,5.23 55.47,5.61 5.97,0.11 18.12,-4.7 23.25,-1.06 6.79,4.59 14.63,6.5 22.74,6.73 19.87,0.65 40.66,-1.45 60.28,-4.24 20.85,-3.02 39.72,4.51 60.48,4.01 20.32,-0.49 39.54,-8.55 59.75,-8.55 20.28,0.07 40.78,5.26 60.93,7.35 44.36,4.52 88.16,0.78 132.59,2.59 43.13,1.76 86.06,1.48 129.25,0.36 46.43,-1.24 93.42,1.73 139.69,-0.85 42.68,-2.33 85.22,-6.94 127.96,-8.56 26.11,-0.98 52.16,-1.42 78.21,-1.64 v 25.73 c -86.69,-3.54 -173.16,10.63 -259.84,10.25 -89.34,-0.41 -178.6,1.18 -267.93,2.89 -45.07,0.84 -89.45,-4.66 -134.4,-5.57 -40.33,-0.82 -81.77,1.14 -122.02,2.64 -85.22,3.2 -170.33,-9.75 -255.62,-8.38 -73.5,1.13 -146.72,-4.26 -220.2,-4.37 -6.43,0.46 -12.85,0.94 -19.26,1.34 -41.32,2.62 -83.8,3.68 -125.24,3.91 -86.53,0.47 -173.38,-6.44 -260.08,-3.79 -45.27,1.42 -88.94,-3.05 -134.03,-3.59 -40.71,-0.45 -81.34,2.83 -121.99,0.89 -44.11,-2.12 -88.87,-1.44 -133.09,-1.98 -37.91,-0.4 -78.21,-4.18 -115.72,0.19 -45.86,5.33 -93.73,-1.58 -139.97,-0.04 -40.85,1.39 -81.55,0.43 -122.38,1.23 -84.94,1.75 -170.67,-8.61 -255.45,-11.05 -87.3,-2.53 -174.96,-3.2 -262.17,-0.09 -21.28,0.79 -39.83,-0.03 -60.84,-3.46 -18.31,-3.01 -35.7,1.87 -54.01,2.53 -40.97,1.52 -82.1,2.25 -123.09,3.32 -90.417,2.38 -180.441,8.18 -270.867,9.35 -86.363,1.11 -173.168,-6.44 -259.488,-2.38 -87.426,4.21 -175.637,5.53 -263.101,6.72 -89.618,1.21 -180.0629,3.31 -269.53947,-0.53 C 1.09375,4047.37 0.558594,4047.38 0,4047.36 v -25.73 c 64.6484,-0.58 129.164,0.37 193.824,-0.54"
         style="fill:#000000;fill-opacity:1;fill-rule:nonzero;stroke:none"
         id="path36" /><path
         d="m 99.3867,3057.63 c 40.1913,-3.84 83.1293,0.36 123.4023,4.06 45.426,4.19 90.82,-1.87 136.32,-0.01 38.02,1.51 75.793,4.72 113.723,4.82 22.691,0.04 45.504,4.93 68.242,4.5 19.688,-0.37 38.629,-3.3 58.399,-2.77 37.183,1.01 74.293,-6.19 110.73,2.93 11.961,2.97 22.277,-3.66 34.149,-3.99 8.824,-0.24 17.539,1.12 26.293,1.48 19.019,0.76 37.535,-0.77 56.406,-3.12 40.195,-5 78.824,4.02 118.984,3.93 23.899,-0.07 47.57,3.9 71.445,4.6 19.02,0.57 37.96,-2.09 56.99,-1.88 18.71,0.16 36.72,5.6 55.36,6.14 5.98,0.15 18.17,-4.53 23.29,-0.88 6.72,4.66 14.57,6.66 22.66,6.98 19.88,0.81 40.66,-1.12 60.3,-3.75 20.9,-2.79 39.69,4.92 60.43,4.58 20.36,-0.31 39.65,-8.21 59.84,-7.98 20.28,0.21 40.75,5.61 60.87,7.89 44.33,4.91 88.16,1.53 132.58,3.76 43.08,2.18 86,2.28 129.21,1.53 46.45,-0.82 93.4,2.56 139.69,0.42 42.73,-1.92 85.3,-6.18 128.05,-7.42 90.89,-2.57 181.28,0.75 271.99,0.26 168.43,-0.84 336.32,-7.95 504.89,-5.43 24.13,0.38 48.08,4.42 72.21,4.42 20.83,0.04 41.53,-3.64 62.43,-3.78 43.09,-0.31 86.09,2.1 129.22,0.6 44.44,-1.58 88.94,-4.05 133.35,-6.83 40.08,-2.5 80.35,2.42 120.27,-3.19 16.99,-2.42 36.74,1.88 55.17,4.3 9.89,-0.3 19.75,-0.45 29.57,-0.31 16.45,0.25 33.38,1.05 49.2,-1.95 13.08,-2.46 24.95,3.79 37.71,2.91 12.25,-0.82 24.59,-3.01 37.13,-3.52 30.68,-1.25 61.36,-2.67 92.06,-3.63 75.94,-2.38 152.03,-3.18 227.97,-3.76 70.35,-0.52 138.86,1.81 209.19,-6.21 79.32,-9.07 158.07,-4.68 238.3,-2.47 11.54,0.31 23.05,0.93 34.56,1.62 v 28.54 c -24.28,-0.49 -48.55,-1.07 -72.83,-1.8 -89.38,-2.7 -177.19,5.22 -266.18,10.32 -90.79,5.24 -181.71,0.77 -272.5,2.9 -90.11,2.13 -180.5,5.74 -270.49,7.22 -14.21,0.24 -28.4,0.46 -42.6,0.85 -11.67,0.33 -22.51,0.12 -33.38,-0.68 -11.91,0.69 -23.82,1.68 -35.76,3.26 -15.31,2.02 -29.82,-4.94 -45.67,-4.52 -41.01,1.14 -82.12,1.49 -123.17,2.19 -90.38,1.55 -180.46,6.57 -270.89,6.9 -86.4,0.31 -173.12,-8 -259.49,-4.7 -87.46,3.38 -175.68,3.92 -263.18,4.3 -89.59,0.42 -180.06,1.68 -269.48,-2.96 -87.19,-4.55 -174.33,9.03 -261.52,7.85 -89.34,-1.19 -178.63,-0.43 -267.96,0.47 -45.08,0.41 -89.42,-5.46 -134.34,-6.75 -40.31,-1.2 -81.8,0.4 -122.03,1.54 -85.27,2.41 -170.22,-11.3 -255.535,-10.74 -89.059,0.62 -177.57,-8.54 -266.789,-6.07 -86.164,2.35 -172.113,3.24 -258.317,1.77 -45.695,-0.79 -91.839,-5.98 -137.773,-6.74 -41.34,-0.66 -82.277,0.27 -123.602,-0.79 C 132.266,3087.17 66.1563,3086.38 0,3085.02 v -28.54 c 33.1055,1.95 66.1563,4.34 99.3867,1.15"
         style="fill:#000000;fill-opacity:1;fill-rule:nonzero;stroke:none"
         id="path38" /><path
         d="m 456.172,1544.62 c 20.797,-0.16 41.504,-4.03 62.359,-4.38 43.125,-0.74 86.149,1.31 129.219,-0.6 44.441,-2.04 88.945,-4.89 133.289,-8.11 40.051,-2.87 80.41,1.68 120.234,-4.34 21.926,-3.32 48.528,4.56 70.915,5.08 20.703,0.49 41.442,0.06 62.012,-2.26 40.39,-4.51 80.58,3.2 121.24,2.73 90.06,-0.99 179.63,5.22 269.84,7.03 167.31,3.3 333.41,-1.4 500.87,3.09 82.61,2.21 166.7,-6.8 248.94,1.23 44.84,4.34 89.96,0.23 134.91,2.95 40.54,2.46 80.95,0.84 121.46,0.12 42.64,-0.79 84.52,0.02 126.94,-1.25 46.25,-1.39 92.75,-6.25 138.71,-1.51 11.73,1.23 23.69,2.87 35.46,3.42 18.65,0.86 36.45,-3.93 55.17,-2.91 23.51,1.27 46.91,4.2 70.49,3.93 23.92,-0.28 47.6,3.49 71.5,3.96 19.03,0.37 37.93,-2.46 56.95,-2.44 18.74,0 36.78,5.25 55.47,5.62 5.96,0.1 18.1,-4.68 23.26,-1.09 6.77,4.63 14.61,6.54 22.72,6.77 19.88,0.62 40.66,-1.52 60.28,-4.33 20.85,-2.99 39.71,4.54 60.48,4.01 20.32,-0.51 39.54,-8.58 59.76,-8.56 20.28,0.02 40.77,5.27 60.93,7.32 44.36,4.53 88.15,0.71 132.58,2.51 43.13,1.79 86.07,1.51 129.26,0.32 46.43,-1.27 93.41,1.69 139.68,-0.9 42.69,-2.32 85.22,-6.98 127.97,-8.64 90.86,-3.42 181.3,-0.96 271.99,-2.29 40.33,-0.59 80.62,-1.54 120.91,-2.64 v 28.8 c -14.53,0.23 -29.05,0.45 -43.56,0.66 -89.59,1.27 -180.04,3.36 -269.53,-0.42 -87.21,-3.73 -174.22,10.66 -261.43,10.33 -89.33,-0.34 -178.61,1.24 -267.92,2.97 -45.08,0.88 -89.47,-4.59 -134.42,-5.47 -40.32,-0.81 -81.77,1.17 -122.01,2.69 -85.22,3.25 -170.34,-9.7 -255.62,-8.31 -85.31,1.39 -170.24,-6.07 -255.62,-3.79 -36.18,1.98 -73.02,2.88 -109.09,3.11 -86.52,0.5 -173.38,-6.42 -260.09,-3.69 -45.25,1.43 -88.93,-3.03 -134.02,-3.57 -40.7,-0.45 -81.34,2.92 -121.98,0.96 -44.13,-2.12 -88.88,-1.43 -133.11,-1.9 -37.89,-0.44 -78.2,-4.16 -115.71,0.23 -45.85,5.32 -93.73,-1.58 -139.97,0 -40.85,1.4 -81.56,0.46 -122.38,1.31 -84.94,1.74 -170.67,-8.56 -255.46,-11 -87.29,-2.46 -174.96,-3.14 -262.152,0.03 -21.281,0.79 -39.847,0.03 -60.867,-3.42 -18.304,-3.01 -35.676,1.89 -53.996,2.57 -40.961,1.53 -82.09,2.28 -123.094,3.37 -90.414,2.39 -180.437,8.26 -270.863,9.44 -86.351,1.13 -173.172,-6.37 -259.476,-2.23 -72.965,3.5 -146.434,5 -219.602,6.13 v -28.8 c 127.926,-3.43 255.703,-8.3 383.91,-7.57 24.164,0.13 48.117,3.96 72.262,3.73"
         style="fill:#000000;fill-opacity:1;fill-rule:nonzero;stroke:none"
         id="path40" /><path
         d="m 284.965,1418.38 c 71.883,1.05 144.383,-3.95 216.082,-6.19 75.933,-2.37 152.023,-3.2 227.961,-3.74 70.355,-0.55 138.867,1.8 209.18,-6.26 79.332,-9.06 158.072,-4.63 238.322,-2.45 44.68,1.25 89.14,7.07 133.9,2.78 40.2,-3.84 83.13,0.35 123.4,4.06 45.43,4.18 90.82,-1.88 136.32,0 38.01,1.52 75.78,4.73 113.71,4.8 22.7,0.04 45.51,4.92 68.25,4.5 19.7,-0.36 38.63,-3.29 58.4,-2.78 37.19,1.01 74.3,-6.17 110.75,2.93 11.95,3.01 22.26,-3.63 34.13,-3.98 8.84,-0.24 17.54,1.13 26.3,1.47 19.01,0.79 37.53,-0.74 56.4,-3.08 40.2,-5.03 78.82,3.99 118.99,3.91 23.89,-0.08 47.56,3.91 71.44,4.61 19.02,0.54 37.96,-2.11 56.98,-1.91 18.72,0.19 36.73,5.6 55.39,6.17 5.98,0.16 18.18,-4.53 23.3,-0.9 6.71,4.67 14.56,6.68 22.65,6.98 19.87,0.83 40.66,-1.12 60.3,-3.74 20.9,-2.77 39.69,4.92 60.43,4.57 20.37,-0.32 39.66,-8.21 59.85,-7.96 20.27,0.19 40.74,5.62 60.87,7.89 33.16,3.73 67.22,3.77 100.46,5.14 15.26,0.64 30.64,1.74 45.91,1.56 11.65,-0.11 22.08,-4.34 33.86,-4.58 32.75,-0.66 65.54,0.41 98.29,0.73 21.7,0.23 43.08,-1.1 64.73,-2.19 10.78,-0.55 21.6,-0.75 32.38,-0.06 7.62,0.57 13.94,6.82 21.91,3.6 20.89,-8.47 48.29,-3.81 70.32,-3.97 20.27,-0.16 39.95,-4.02 60.08,-5.47 40.46,-2.85 81.11,3.13 121.71,0.62 22.56,-1.36 44.8,-8.47 67.52,-7.61 20.96,0.78 38.96,-0.31 59.8,-2.89 43.31,-5.44 87.22,-3.79 130.77,-3.28 88.21,0.98 177.02,-1.5 265.23,2.37 45.54,2 90.83,5.21 136.44,5.95 19.14,0.31 38.16,-0.86 57.24,-2.08 21.68,-1.4 43.36,-2.84 65.16,-2.49 64.47,1.1 127.9,4.05 191.89,9.1 v 31 c -45.71,-2.53 -91.4,-5.86 -137.02,-7.65 -39.99,-1.55 -80.03,-0.69 -120.03,0.52 -43.25,1.31 -86.48,2.99 -129.74,2.49 -85.43,-0.89 -172.38,-3.55 -257.71,-8.31 -43.15,-2.39 -87.32,2.46 -130.57,2.77 -40.87,0.23 -83.42,-1.64 -124.09,2.42 -85.19,8.48 -169.23,11.41 -254.95,11.25 -64.9,-0.12 -129.8,1.11 -194.67,2.61 -33.14,0.77 -66.26,1.6 -99.41,2.38 -13.2,0.3 -25.68,3.44 -38.78,2.69 -15.12,-0.87 -30.1,-3.29 -45.23,-3.98 -14.56,-0.65 -29.15,0.5 -43.66,-0.75 -20.29,-1.74 -40.58,-3.07 -60.93,-4.22 -54.7,-3.1 -108.67,-2.99 -163.63,-1.42 -85.28,2.42 -170.25,-11.29 -255.55,-10.75 -89.07,0.63 -177.58,-8.58 -266.79,-6.05 -86.17,2.34 -172.11,3.23 -258.33,1.76 -45.7,-0.78 -91.84,-5.98 -137.77,-6.77 -41.34,-0.66 -82.27,0.28 -123.6,-0.77 -90.5,-2.31 -180.82,-2.89 -271.29,-5.63 -89.36,-2.69 -177.181,5.22 -266.165,10.34 -90.782,5.21 -181.723,0.76 -272.492,2.89 -84.575,1.99 -168.743,2.94 -253.301,5.25 -43.282,1.17 -85.907,-0.27 -128.953,5.38 -72.27,9.55 -144.7934,7.57 -217.309,3.55 v -31.02 c 10.1367,0.8 20.2695,1.52 30.4492,2.44 84.1288,7.54 170.0708,-9.8 254.5158,-8.55"
         style="fill:#000000;fill-opacity:1;fill-rule:nonzero;stroke:none"
         id="path42" /><path
         d="m 56.8906,1700.21 c 11.9492,3.01 22.2657,-3.63 34.1289,-3.95 8.8399,-0.24 17.5395,1.12 26.3005,1.47 19.012,0.74 37.535,-0.75 56.407,-3.09 40.195,-5.03 78.824,3.97 118.984,3.86 23.906,-0.05 47.578,3.95 71.437,4.64 19.032,0.58 37.977,-2.11 56.989,-1.9 18.718,0.16 36.722,5.6 55.371,6.14 5.98,0.16 18.172,-4.5 23.289,-0.88 6.719,4.69 14.574,6.69 22.652,7 19.887,0.8 40.66,-1.11 60.321,-3.75 20.898,-2.8 39.671,4.91 60.421,4.56 20.348,-0.3 39.645,-8.19 59.844,-7.97 20.27,0.21 40.738,5.63 60.856,7.89 44.336,4.93 88.16,1.54 132.586,3.78 43.078,2.16 86.011,2.29 129.203,1.52 46.45,-0.82 93.4,2.56 139.69,0.43 42.74,-1.93 85.32,-6.18 128.05,-7.41 90.9,-2.58 181.29,0.74 271.99,0.27 168.43,-0.86 336.33,-8 504.89,-5.47 24.13,0.37 48.08,4.45 72.21,4.45 20.83,0.02 41.53,-3.68 62.43,-3.8 43.09,-0.34 86.09,2.12 129.22,0.6 44.46,-1.6 88.95,-4.05 133.35,-6.84 40.09,-2.5 80.37,2.45 120.28,-3.21 16.98,-2.38 36.75,1.93 55.18,4.34 9.87,-0.3 19.73,-0.46 29.57,-0.31 15.6,0.24 31.96,1.35 47.44,-0.4 26.82,-3.06 53.77,-1.18 80.62,-2.29 29.36,-1.22 58.67,-2.58 88.03,-3.5 75.95,-2.4 152.03,-3.2 227.97,-3.78 70.34,-0.51 138.86,1.81 209.18,-6.22 79.32,-9.06 158.07,-4.65 238.32,-2.47 44.67,1.23 89.14,7.08 133.89,2.78 40.2,-3.87 83.14,0.37 123.39,4.07 45.44,4.19 90.83,-1.87 136.34,-0.02 38.02,1.51 75.79,4.74 113.72,4.84 22.7,0.03 45.51,4.91 68.24,4.48 19.68,-0.38 38.64,-3.3 58.4,-2.77 18,0.49 35.99,-0.93 53.89,-1.5 v 29.35 c -64.49,1.19 -128.93,1.42 -193.5,0.33 -45.71,-0.83 -91.84,-6 -137.78,-6.77 -41.33,-0.67 -82.26,0.27 -123.6,-0.77 -90.49,-2.33 -180.82,-2.91 -271.28,-5.63 -89.38,-2.72 -177.18,5.2 -266.17,10.31 -90.78,5.22 -181.72,0.76 -272.51,2.91 -59.81,1.41 -119.65,2.31 -179.49,3.54 -56.64,1.16 -113.32,-5.24 -169.91,-3 -22.41,0.89 -44.98,1.11 -67.33,3.13 -14.66,1.31 -29.35,-0.5 -44.01,0.07 -12.25,0.48 -23.89,3.56 -36.43,3.75 -17.95,0.29 -35.92,0.51 -53.89,0.82 -90.39,1.55 -180.46,6.56 -270.9,6.91 -86.4,0.3 -173.11,-8.03 -259.49,-4.72 -87.45,3.36 -175.67,3.92 -263.16,4.3 -89.61,0.43 -180.08,1.7 -269.5,-2.97 -87.19,-4.55 -174.33,9.03 -261.52,7.87 -89.34,-1.18 -178.629,-0.44 -267.961,0.43 -45.078,0.45 -89.418,-5.42 -134.336,-6.73 -40.308,-1.19 -81.801,0.4 -122.031,1.54 -85.27,2.44 -170.215,-11.31 -255.516,-10.73 -89.074,0.62 -177.578,-8.53 -266.7966,-6.07 -21.6328,0.59 -43.25,1.09 -64.8594,1.48 v -29.35 c 19.0859,-0.63 38.0781,-0.28 56.8906,4.41"
         style="fill:#000000;fill-opacity:1;fill-rule:nonzero;stroke:none"
         id="path44" /><path
         d="m 180.758,1232.22 c 42.496,2.89 84.293,10.63 126.832,12.28 92.414,3.52 184.269,6 276.73,7.33 90.438,1.31 180.551,6.14 270.36,15.52 93.855,9.83 189.13,4.44 283.27,10.73 48.32,3.16 96.6,-1.37 144.96,0.84 42.1,1.9 83.98,7.41 126.28,7.95 89.42,1.06 179.03,-2.61 268.36,-6.54 48.64,-2.09 97.01,-7.17 145.17,-14.36 40.93,-6.05 80.47,-2.17 121.17,-7.32 45.7,-5.78 90.35,-1.62 136.09,-4.28 44.81,-2.6 88.52,0.16 133.12,5.02 88.92,9.61 178.98,9.98 268.75,10.8 47.34,0.47 96.45,8.17 143.56,3.97 32.96,-2.87 66.54,-2.62 99.87,-1.52 36.72,-0.7 73.45,-0.77 110.23,-1.24 39.29,-0.47 79.72,-3.71 118.24,-11.52 39.09,-7.89 82.5,-1.19 122.73,-5.73 43.31,-4.89 87.06,-7.2 130.59,-10.72 91.9,-7.44 183.89,-7.51 275.82,-11.79 48.85,-2.31 98.46,-2.78 147.29,-0.43 45.05,2.15 89.1,-6.25 134.18,-5.31 45.23,0.93 90.44,-3.83 135.75,-3.34 42.49,0.41 84.24,0.75 126.68,1.81 47.85,1.15 95.94,-0.72 143.79,-3.05 27.48,-1.37 54.39,-0.33 81.39,1.2 v 29.04 c -8.22,-0.82 -16.48,-1.54 -24.67,-2.42 -22.04,-2.4 -42.89,4.26 -64.69,2.62 -22.34,-1.76 -44.96,0.23 -67.42,1.7 -41.92,2.85 -83.19,-3.54 -124.89,-1.31 -178.35,9.41 -358.63,13.31 -537.18,12.48 -24.66,-0.1 -48.24,-0.59 -72.98,0.45 -20.34,0.78 -40.62,4.21 -61.01,2.22 -18.55,-1.72 -36.56,4.34 -54.96,4.69 -17.5,0.43 -27.73,-2.97 -44.53,3.09 -20.47,7.36 -45.66,5.68 -67.11,7.69 -22.62,2.03 -45.28,4.17 -67.94,5.16 -44.52,1.99 -88.89,3.62 -133.23,8.71 -50.86,5.86 -101.98,0.94 -152.97,2.72 -15.25,0.55 -29.92,0.88 -45.24,0.88 -10.62,0 -21.2,-0.22 -31.79,0.64 -16.52,1.31 -33.02,1.04 -49.61,1.04 -38.34,0 -78.1,3.27 -116.03,-0.95 -20.66,-2.28 -41.37,1.26 -62.07,-0.47 -44.38,-3.69 -88.98,-2.18 -133.55,-2.42 -91.95,-0.48 -182.82,-12.38 -275,-14.37 -49.02,-1.02 -96.28,2.43 -145.08,6.81 -43.13,3.87 -86.09,2.6 -129.25,6.53 -47.55,4.24 -91.92,13.03 -140.09,12.03 -44.38,-0.95 -87.27,7.73 -131.32,8.98 -23.92,0.65 -47.27,-2.95 -71.06,-4.35 -21.14,-1.26 -41.84,3.32 -63.08,2.76 -45.01,-1.17 -88.17,-11.86 -133.48,-11.47 -23.75,0.17 -47.66,-1.23 -70.98,4.09 -16.75,3.74 -26.68,-1.28 -43.51,-1.74 -40.94,-1.11 -81.67,-13.29 -122.69,-8.76 24.56,-2.73 -11.53,-1.52 0,0 -35.365,-4.8 -74.455,1.64 -110.669,-1.21 -41.098,-3.28 -81.801,-7.44 -123.09,-8.97 -90.34,-3.37 -180.934,-10.21 -271.199,-7.79 -48.184,1.28 -94.946,-1.79 -142.868,-5.28 -42.226,-3.12 -84.578,-1.62 -126.683,-4.56 C 160.254,1265.11 79.6914,1259.54 0,1251.56 v -29.04 c 15.6484,0.89 31.3281,1.93 47.1641,2.74 44.5703,2.26 89.0589,3.98 133.5939,6.96"
         style="fill:#000000;fill-opacity:1;fill-rule:nonzero;stroke:none"
         id="path46" /><path
         d="m 20.4844,3382.02 c 38.0156,1.49 75.789,4.71 113.7186,4.79 22.692,0.04 45.504,4.92 68.242,4.49 19.68,-0.37 38.629,-3.28 58.399,-2.77 37.183,1.01 74.293,-6.17 110.734,2.93 11.957,3.01 22.274,-3.6 34.141,-3.98 8.828,-0.24 17.539,1.13 26.289,1.48 19.027,0.76 37.543,-0.73 56.414,-3.08 40.195,-5.04 78.824,3.98 118.976,3.89 23.907,-0.07 47.579,3.92 71.45,4.62 19.011,0.56 37.965,-2.11 56.992,-1.92 18.711,0.18 36.711,5.59 55.367,6.14 5.973,0.15 18.168,-4.49 23.285,-0.86 6.719,4.69 14.567,6.68 22.656,6.99 19.872,0.78 40.661,-1.13 60.301,-3.75 20.903,-2.81 39.696,4.89 60.434,4.57 20.355,-0.3 39.652,-8.19 59.837,-8.01 20.28,0.24 40.75,5.66 60.87,7.9 44.33,4.96 88.16,1.57 132.57,3.78 43.09,2.19 86.01,2.31 129.22,1.52 46.45,-0.82 93.4,2.59 139.69,0.43 42.73,-1.91 85.31,-6.16 128.04,-7.41 90.9,-2.59 181.29,0.74 272,0.27 168.42,-0.86 336.33,-7.97 504.89,-5.47 24.13,0.4 48.08,4.45 72.21,4.45 20.82,0.04 41.53,-3.67 62.42,-3.79 43.09,-0.31 86.1,2.11 129.23,0.59 44.45,-1.57 88.95,-4.02 133.35,-6.82 19.21,-1.19 38.45,-0.66 57.69,-0.45 9.27,0.1 18.62,0.43 27.87,-0.33 7.17,-0.57 13.36,0.72 20.63,0.61 10.36,-0.14 20.38,-2.68 30.5,-3.42 12.58,-0.91 26.21,3.06 38.64,4.71 9.93,-0.3 19.81,-0.45 29.69,-0.32 17.6,0.27 35.26,0.14 52.92,-0.19 4.29,-0.33 8.6,-0.64 12.89,-0.75 v 0.38 c 50.15,-1.25 100.41,-4.06 150.28,-5.6 75.93,-2.4 152.04,-3.21 227.97,-3.78 70.35,-0.53 138.87,1.8 209.17,-6.23 79.35,-9.06 158.09,-4.65 238.32,-2.46 44.68,1.23 89.14,7.07 133.91,2.77 40.2,-3.84 83.13,0.35 123.4,4.08 38.62,3.54 77.22,-0.27 115.88,-0.35 v 28.88 c -5.53,-0.2 -11.07,-0.51 -16.59,-0.62 -41.32,-0.66 -82.26,0.29 -123.59,-0.77 -90.51,-2.3 -180.82,-2.89 -271.29,-5.63 -89.37,-2.69 -177.17,5.2 -266.17,10.31 -90.78,5.23 -181.71,0.78 -272.5,2.93 -47.07,1.12 -94.15,1.91 -141.22,2.79 -23.53,0.44 -47.06,0.89 -70.6,1.43 -10.31,0.24 -20.9,1.06 -31.01,-0.06 -10.29,-1.13 -17.13,1.66 -27.31,3.05 -13.85,1.89 -28.96,0.47 -42.95,0.84 -50.09,1.34 -99.67,-2.1 -149.75,-1.14 -29.41,0.58 -58.82,0.91 -88.22,1.41 -90.39,1.52 -180.46,6.53 -270.9,6.88 -86.4,0.31 -173.13,-8 -259.48,-4.69 -87.47,3.36 -175.68,3.92 -263.18,4.29 -89.61,0.43 -180.08,1.68 -269.49,-2.96 -87.19,-4.57 -174.33,9.02 -261.52,7.85 -89.33,-1.17 -178.63,-0.43 -267.96,0.47 -45.09,0.43 -89.42,-5.47 -134.34,-6.76 -40.306,-1.21 -81.798,0.39 -122.029,1.53 -85.269,2.46 -170.215,-11.3 -255.531,-10.71 -89.059,0.58 -177.574,-8.56 -266.793,-6.08 -86.172,2.37 -172.109,3.28 -258.317,1.79 -40.2183,-0.73 -80.7691,-4.65 -121.23,-6.15 v -28.88 c 6.83203,-0.02 13.6523,0.05 20.4844,0.35"
         style="fill:#000000;fill-opacity:1;fill-rule:nonzero;stroke:none"
         id="path48" /><path
         d="m 165.754,2295.21 c 45.23,0.94 90.422,-3.83 135.734,-3.34 42.504,0.41 84.258,0.74 126.696,1.81 47.851,1.16 95.937,-0.71 143.785,-3.04 43.398,-2.19 85.351,1.71 128.519,3.95 44.571,2.24 89.059,3.97 133.594,6.96 42.496,2.88 84.293,10.61 126.832,12.26 92.416,3.54 184.276,6.02 276.736,7.33 90.43,1.32 180.54,6.15 270.34,15.54 93.88,9.84 189.14,4.45 283.28,10.71 48.33,3.2 96.61,-1.33 144.96,0.85 42.11,1.89 83.98,7.4 126.29,7.97 89.42,1.05 179.02,-2.62 268.36,-6.57 48.64,-2.08 97,-7.16 145.17,-14.33 40.93,-6.05 80.46,-2.21 121.16,-7.35 45.71,-5.78 90.35,-1.6 136.1,-4.27 44.8,-2.6 88.51,0.16 133.12,5.02 88.91,9.61 178.99,9.99 268.75,10.79 47.34,0.5 96.45,8.17 143.55,4.01 32.95,-2.89 66.52,-2.65 99.84,-1.54 36.74,-0.71 73.48,-0.79 110.25,-1.25 39.31,-0.45 79.73,-3.72 118.25,-11.5 39.1,-7.89 82.51,-1.21 122.73,-5.77 43.32,-4.88 87.08,-7.16 130.59,-10.68 91.91,-7.47 183.9,-7.54 275.82,-11.82 38.37,-1.8 77.2,-2.42 115.76,-1.48 v 33.71 c -55.27,0.66 -110.49,1.03 -165.54,0.76 -24.64,-0.1 -48.23,-0.59 -72.96,0.45 -20.35,0.79 -40.62,4.23 -61.01,2.24 -18.56,-1.74 -36.57,4.32 -54.96,4.69 -17.5,0.42 -27.74,-3 -44.53,3.07 -20.47,7.37 -45.67,5.69 -67.12,7.72 -22.61,2 -45.27,4.16 -67.92,5.14 -44.53,1.98 -88.91,3.63 -133.24,8.7 -38.7,4.45 -77.66,0.79 -116.47,1.6 -19.53,0.42 -38.25,3.97 -57.59,5.67 -15.21,1.33 -30.78,-0.77 -46.13,-0.48 -23.1,1.79 -46.22,3.58 -69.28,5.68 -20,1.81 -38.57,-5.09 -58.41,-6.32 -16.19,-1.01 -31.37,0.03 -47.76,-1.81 -20.68,-2.29 -41.37,1.27 -62.07,-0.46 -44.39,-3.7 -88.99,-2.2 -133.56,-2.43 -91.95,-0.45 -182.81,-12.36 -274.99,-14.36 -49.02,-1.05 -96.3,2.45 -145.09,6.79 -43.12,3.88 -86.09,2.6 -129.24,6.53 -47.55,4.24 -91.93,13.03 -140.09,12.04 -44.38,-0.94 -87.27,7.73 -131.33,8.98 -23.91,0.64 -47.26,-2.95 -71.06,-4.34 -21.13,-1.27 -41.83,3.29 -63.08,2.76 -45,-1.17 -88.16,-11.86 -133.48,-11.49 -23.75,0.18 -47.65,-1.23 -70.97,4.11 -16.77,3.76 -26.68,-1.3 -43.51,-1.76 -40.94,-1.07 -81.69,-13.28 -122.7,-8.74 24.57,-2.75 -11.53,-1.54 0,0 -35.36,-4.8 -74.46,1.62 -110.66,-1.23 -41.1,-3.26 -81.8,-7.43 -123.09,-8.96 -90.35,-3.38 -180.94,-10.21 -271.2,-7.8 -48.19,1.3 -94.95,-1.77 -142.89,-5.28 -42.22,-3.11 -84.556,-1.61 -126.665,-4.56 -88.016,-6.25 -177.035,-12.21 -264.687,-21.64 -22.024,-2.4 -42.887,4.26 -64.688,2.63 -22.34,-1.75 -44.961,0.22 -67.418,1.73 -41.918,2.81 -83.207,-3.57 -124.894,-1.35 C 248.297,2327.98 124.016,2331.7 0,2333.18 v -33.71 c 10.5508,0.26 21.0938,0.56 31.5742,1.07 45.043,2.15 89.1058,-6.27 134.1798,-5.33"
         style="fill:#000000;fill-opacity:1;fill-rule:nonzero;stroke:none"
         id="path50" /><path
         d="m 165.754,2447.66 c 45.23,0.98 90.422,-3.8 135.734,-3.32 42.504,0.43 84.258,0.74 126.696,1.81 47.851,1.15 95.937,-0.72 143.785,-3.04 43.398,-2.18 85.351,1.69 128.519,3.94 44.571,2.25 89.059,3.96 133.594,6.97 42.496,2.88 84.293,10.61 126.832,12.25 92.416,3.53 184.276,6.03 276.736,7.34 90.43,1.31 180.54,6.13 270.34,15.53 93.88,9.85 189.14,4.46 283.28,10.73 48.33,3.17 96.61,-1.36 144.96,0.83 42.11,1.91 83.98,7.43 126.29,7.97 89.42,1.06 179.02,-2.62 268.36,-6.56 48.64,-2.1 97,-7.15 145.17,-14.34 40.93,-6.05 80.46,-2.19 121.16,-7.34 45.71,-5.78 90.35,-1.6 136.1,-4.28 44.8,-2.59 88.51,0.18 133.12,5.01 88.91,9.62 178.99,10 268.75,10.81 47.34,0.49 96.45,8.16 143.55,4 32.95,-2.88 66.54,-2.64 99.86,-1.54 36.72,-0.7 73.46,-0.78 110.23,-1.23 39.31,-0.47 79.73,-3.71 118.25,-11.52 39.1,-7.89 82.51,-1.21 122.73,-5.75 43.32,-4.88 87.08,-7.18 130.59,-10.69 91.91,-7.46 183.9,-7.54 275.82,-11.83 38.37,-1.79 77.2,-2.4 115.76,-1.47 v 33.71 c -55.27,0.66 -110.49,1.01 -165.54,0.75 -24.64,-0.09 -48.23,-0.58 -72.96,0.48 -20.35,0.78 -40.62,4.19 -61.01,2.22 -18.56,-1.73 -36.57,4.32 -54.96,4.69 -17.5,0.43 -27.74,-2.99 -44.53,3.09 -20.47,7.34 -45.67,5.66 -67.12,7.7 -22.61,2 -45.27,4.17 -67.92,5.15 -44.53,1.99 -88.91,3.63 -133.24,8.71 -33.17,3.8 -66.61,3.02 -99.91,2.56 -17.01,-0.26 -34.06,-0.61 -51.05,0.09 -12.52,0.52 -22.27,2.78 -34.46,5.17 -11.11,2.18 -22.91,-1.28 -34.55,-1.07 -18.86,1.47 -38.29,1.91 -56.99,4.69 -14.82,2.21 -26.06,4.63 -41.63,2.97 -25.96,-2.75 -51.18,-7.22 -77.05,-10.08 -20.68,-2.3 -41.37,1.25 -62.07,-0.46 -44.39,-3.71 -88.99,-2.19 -133.56,-2.45 -91.95,-0.45 -182.81,-12.37 -274.99,-14.36 -49.02,-1.01 -96.3,2.47 -145.09,6.81 -43.12,3.85 -86.09,2.59 -129.24,6.51 -47.55,4.26 -91.93,13.03 -140.09,12.04 -44.38,-0.94 -87.27,7.74 -131.33,8.97 -23.91,0.66 -47.26,-2.94 -71.06,-4.33 -21.13,-1.24 -41.83,3.31 -63.08,2.78 -45,-1.19 -88.16,-11.87 -133.48,-11.5 -23.75,0.17 -47.65,-1.23 -70.97,4.12 -16.77,3.75 -26.68,-1.29 -43.51,-1.76 -40.94,-1.1 -81.69,-13.28 -122.7,-8.75 24.57,-2.74 -11.53,-1.55 0,0 -35.36,-4.8 -74.46,1.64 -110.66,-1.23 -41.1,-3.25 -81.8,-7.44 -123.09,-8.96 -90.35,-3.38 -180.94,-10.2 -271.2,-7.78 -48.19,1.27 -94.95,-1.79 -142.89,-5.31 -42.22,-3.08 -84.556,-1.61 -126.665,-4.55 -88.016,-6.25 -177.035,-12.21 -264.687,-21.62 -22.024,-2.44 -42.887,4.25 -64.688,2.59 -22.34,-1.73 -44.961,0.24 -67.418,1.74 -41.918,2.82 -83.207,-3.57 -124.894,-1.34 -123.391,6.5 -247.672,10.22 -371.688,11.72 v -33.71 c 10.5508,0.24 21.0938,0.56 31.5742,1.07 45.043,2.15 89.1058,-6.27 134.1798,-5.35"
         style="fill:#000000;fill-opacity:1;fill-rule:nonzero;stroke:none"
         id="path52" /><path
         d="m 193.844,3701.59 c 168.422,-2.14 336.238,-10.52 504.801,-9.29 24.152,0.2 48.117,4.09 72.257,3.88 20.786,-0.15 41.504,-3.97 62.368,-4.24 43.117,-0.66 86.156,1.45 129.21,-0.4 44.44,-1.9 88.96,-4.75 133.31,-7.86 40.06,-2.8 80.41,1.81 120.25,-4.12 21.92,-3.24 48.52,4.63 70.9,5.22 20.71,0.54 41.43,0.11 62.02,-2.15 40.39,-4.43 80.57,3.37 121.23,2.97 90.07,-0.83 179.61,5.56 269.82,7.52 167.3,3.57 333.41,-0.78 500.87,4.01 82.6,2.39 166.71,-6.49 248.93,1.68 44.83,4.46 89.96,0.39 134.91,3.21 40.53,2.56 80.95,1.01 121.45,0.34 28.47,-0.45 56.94,-0.21 85.42,-0.37 12.95,-0.08 26.41,4 38.94,3.54 10.44,-0.37 19.97,-4.83 30.03,-7.08 11.08,-2.48 19.92,1.37 31.03,0.96 8.94,-0.33 17.9,-0.59 26.83,-0.89 4.18,-1.09 8.4,-2.13 12.85,-2.29 7.61,-0.26 15.18,0.66 22.76,1.09 2.15,-0.05 4.29,-0.16 6.44,-0.21 13.27,-0.36 26.57,-0.93 39.87,-1.51 4.52,-0.49 9.05,-1.03 13.59,-1.63 40.19,-5.31 78.86,3.42 119.02,2.98 23.93,-0.2 47.6,3.55 71.5,4.08 19.01,0.45 37.92,-2.37 56.94,-2.3 18.74,0 36.8,5.29 55.46,5.71 5.97,0.1 18.11,-4.68 23.25,-1.04 6.78,4.58 14.62,6.51 22.74,6.79 19.86,0.67 40.66,-1.4 60.28,-4.18 20.86,-2.96 39.71,4.58 60.47,4.12 20.33,-0.47 39.55,-8.51 59.77,-8.47 20.28,0.07 40.77,5.32 60.91,7.42 44.36,4.59 88.16,0.9 132.59,2.8 43.13,1.81 86.06,1.61 129.25,0.51 46.43,-1.15 93.42,1.88 139.69,-0.62 42.68,-2.26 85.23,-6.82 127.98,-8.39 26.09,-0.93 52.15,-1.33 78.19,-1.52 v 25.74 c -86.69,-3.67 -173.18,10.37 -259.86,9.86 -89.35,-0.52 -178.61,0.94 -267.94,2.5 -45.08,0.78 -89.46,-4.79 -134.41,-5.72 -40.32,-0.91 -81.78,1 -122.01,2.43 -85.24,3.07 -170.32,-9.99 -255.61,-8.74 -41.12,0.59 -82.23,-0.91 -123.34,-2.37 -38.42,-1.37 -77.49,2.68 -116.13,5.12 -41.3,2.58 -83.8,3.57 -125.24,3.73 -86.53,0.34 -173.37,-6.7 -260.08,-4.16 -45.26,1.36 -88.93,-3.2 -134.02,-3.8 -40.71,-0.5 -81.34,2.74 -121.99,0.73 -44.12,-2.19 -88.86,-1.57 -133.09,-2.18 -37.9,-0.46 -78.2,-4.29 -115.71,0.02 -45.87,5.27 -93.74,-1.73 -139.98,-0.23 -40.84,1.34 -81.56,0.33 -122.37,1.05 -84.95,1.61 -170.66,-8.86 -255.44,-11.42 -87.29,-2.65 -174.96,-3.48 -262.17,-0.47 -21.28,0.73 -39.83,-0.09 -60.84,-3.56 -18.31,-3.03 -35.7,1.83 -54.01,2.48 -40.97,1.44 -82.1,2.11 -123.09,3.11 -90.425,2.26 -180.464,7.95 -270.886,8.99 -86.367,0.96 -173.156,-6.69 -259.477,-2.76 -87.437,4.07 -175.64,5.29 -263.121,6.34 -89.597,1.07 -180.0662,3.06 -269.531,-0.92 C 1.07422,3727.6 0.558594,3727.61 0,3727.6 v -25.74 c 64.6484,-0.48 129.18,0.56 193.844,-0.27"
         style="fill:#000000;fill-opacity:1;fill-rule:nonzero;stroke:none"
         id="path54" /><path
         d="m 99.3867,2699.08 c 40.1913,-3.85 83.1293,0.35 123.4023,4.06 45.426,4.18 90.82,-1.87 136.32,-0.01 38.02,1.52 75.793,4.71 113.723,4.82 22.691,0.04 45.504,4.92 68.242,4.49 19.688,-0.37 38.629,-3.3 58.399,-2.77 37.183,1 74.293,-6.18 110.73,2.92 11.961,2.99 22.277,-3.65 34.149,-3.98 8.824,-0.23 17.539,1.13 26.293,1.48 19.019,0.77 37.535,-0.75 56.406,-3.1 40.195,-5.02 78.824,4.01 118.984,3.91 23.899,-0.06 47.57,3.91 71.445,4.6 19.02,0.57 37.96,-2.08 56.99,-1.89 18.71,0.18 36.72,5.6 55.36,6.16 5.98,0.15 18.17,-4.53 23.29,-0.89 6.72,4.67 14.57,6.67 22.66,6.97 19.88,0.83 40.66,-1.1 60.3,-3.73 20.9,-2.78 39.69,4.9 60.43,4.58 20.36,-0.32 39.65,-8.21 59.84,-7.99 20.28,0.21 40.75,5.62 60.87,7.88 44.33,4.93 88.16,1.55 132.58,3.78 43.08,2.17 86,2.28 129.21,1.52 46.45,-0.82 93.4,2.58 139.69,0.43 42.73,-1.94 85.3,-6.18 128.05,-7.42 90.89,-2.57 181.28,0.74 271.99,0.28 168.43,-0.86 336.32,-7.97 504.89,-5.46 24.13,0.37 48.08,4.44 72.21,4.44 20.83,0.01 41.53,-3.66 62.43,-3.79 43.09,-0.31 86.09,2.11 129.22,0.6 44.44,-1.58 88.94,-4.05 133.35,-6.83 40.08,-2.5 80.35,2.42 120.27,-3.2 16.99,-2.41 36.73,1.89 55.16,4.31 9.88,-0.3 19.74,-0.45 29.58,-0.31 17.54,0.25 34.5,0.35 51.66,-2.31 13.97,-2.14 27.1,1.97 40.92,2.07 11.92,0.11 24.31,-2.02 36.46,-2.52 29.02,-1.21 58.03,-2.51 87.06,-3.43 75.94,-2.39 152.03,-3.19 227.97,-3.75 70.35,-0.53 138.86,1.79 209.19,-6.23 79.32,-9.07 158.07,-4.67 238.3,-2.46 11.54,0.3 23.05,0.93 34.56,1.62 v 28.53 c -24.28,-0.48 -48.55,-1.06 -72.83,-1.79 -89.38,-2.7 -177.19,5.21 -266.18,10.32 -90.79,5.22 -181.71,0.77 -272.5,2.9 -104.63,2.46 -208.79,5.18 -313.09,8.06 -11.68,0.33 -22.55,0.13 -33.43,-0.67 -27.43,1.57 -54.09,-2.04 -81.38,-1.26 -41.01,1.13 -82.12,1.48 -123.17,2.19 -90.38,1.54 -180.46,6.56 -270.89,6.9 -86.4,0.3 -173.12,-8.02 -259.49,-4.71 -87.46,3.38 -175.68,3.92 -263.18,4.31 -89.59,0.41 -180.06,1.68 -269.48,-2.96 -87.19,-4.56 -174.33,9.02 -261.52,7.86 -89.34,-1.21 -178.63,-0.44 -267.96,0.46 -45.08,0.42 -89.42,-5.46 -134.34,-6.76 -40.31,-1.2 -81.8,0.41 -122.03,1.53 -85.27,2.43 -170.22,-11.28 -255.535,-10.71 -89.059,0.61 -177.57,-8.56 -266.789,-6.08 -86.164,2.35 -172.113,3.25 -258.317,1.78 -45.695,-0.8 -91.839,-5.99 -137.773,-6.76 -41.34,-0.66 -82.277,0.26 -123.602,-0.77 C 132.266,2728.62 66.1563,2727.82 0,2726.46 v -28.53 c 33.1055,1.95 66.1563,4.33 99.3867,1.15"
         style="fill:#000000;fill-opacity:1;fill-rule:nonzero;stroke:none"
         id="path56" /><path
         d="m 284.965,319.031 c 71.883,1.059 144.383,-3.941 216.082,-6.172 75.933,-2.379 152.023,-3.199 227.961,-3.75 70.355,-0.55 138.867,1.801 209.18,-6.25 79.332,-9.058 158.072,-4.66 238.322,-2.461 44.68,1.25 89.14,7.071 133.9,2.77 40.2,-3.828 83.13,0.352 123.4,4.062 45.43,4.18 90.82,-1.871 136.32,0 38.01,1.528 75.78,4.731 113.71,4.809 22.7,0.039 45.51,4.922 68.25,4.492 19.7,-0.351 38.63,-3.281 58.4,-2.773 37.19,1.012 74.3,-6.168 110.75,2.933 11.95,3 22.26,-3.64 34.13,-3.992 8.84,-0.23 17.54,1.141 26.3,1.492 19.01,0.778 37.53,-0.75 56.4,-3.089 40.2,-5.043 78.82,3.988 118.99,3.906 23.89,-0.078 47.56,3.902 71.44,4.613 19.02,0.539 37.96,-2.113 56.98,-1.922 18.72,0.199 36.73,5.629 55.39,6.172 5.98,0.16 18.18,-4.531 23.3,-0.891 6.71,4.68 14.56,6.68 22.65,6.989 19.87,0.82 40.66,-1.129 60.3,-3.75 20.9,-2.778 39.69,4.922 60.43,4.57 20.37,-0.309 39.66,-8.199 59.85,-7.969 20.27,0.192 40.74,5.621 60.87,7.891 15.37,1.699 30.55,2.07 45.9,1.91 15.82,-0.172 31.37,3.52 47.15,4.129 29.43,1.09 59.53,-0.73 88.54,-3.93 31.48,-3.48 65.25,0.391 96.93,0.739 21.7,0.242 43.08,-1.09 64.73,-2.188 10.78,-0.543 21.6,-0.742 32.38,-0.031 7.62,0.539 13.94,6.789 21.91,3.59 20.89,-8.481 48.29,-3.828 70.32,-3.989 20.27,-0.152 39.95,-4.023 60.08,-5.461 40.46,-2.859 81.11,3.122 121.71,0.622 22.56,-1.372 44.8,-8.481 67.52,-7.622 20.96,0.782 38.96,-0.312 59.8,-2.89 43.31,-5.43 87.22,-3.789 130.77,-3.281 88.21,1.019 177.02,-1.481 265.23,2.382 45.54,2 90.83,5.2 136.44,5.938 19.14,0.312 38.16,-0.859 57.24,-2.07 21.68,-1.399 43.36,-2.848 65.16,-2.5 64.47,1.121 127.9,4.062 191.89,9.101 v 31 c -45.71,-2.519 -91.4,-5.84 -137.02,-7.64 -39.99,-1.559 -80.03,-0.7 -120.03,0.511 -43.25,1.328 -86.48,3.008 -129.74,2.5 -85.43,-0.902 -172.38,-3.551 -257.71,-8.32 -43.15,-2.383 -87.32,2.457 -130.57,2.769 -40.87,0.239 -83.42,-1.64 -124.09,2.43 -85.19,8.469 -169.23,11.399 -254.95,11.25 -7.6,0 -15.18,0 -22.77,0.02 -69.03,0.191 -138.05,1.769 -207.07,3.41 -34.5,0.859 -69,1.699 -103.5,2.422 -31.83,0.648 -63.18,-1.934 -95.04,-1.934 -17.81,0 -35.67,0.391 -53.41,-0.637 -19.26,-1.121 -38.57,-3.601 -57.86,-3.523 -16.96,0.082 -32.08,-1.949 -48.64,-3.957 -18.55,-2.293 -39.36,0.969 -58.02,1.5 -85.28,2.418 -170.25,-11.293 -255.55,-10.742 -89.07,0.621 -177.58,-8.559 -266.79,-6.059 -86.17,2.348 -172.11,3.25 -258.33,1.758 -45.7,-0.777 -91.84,-5.977 -137.77,-6.758 -41.34,-0.66 -82.27,0.281 -123.6,-0.781 -90.5,-2.301 -180.82,-2.891 -271.29,-5.621 -89.36,-2.699 -177.181,5.23 -266.165,10.351 -90.782,5.192 -181.723,0.743 -272.492,2.891 -84.575,1.988 -168.743,2.93 -253.301,5.23 -43.282,1.18 -85.907,-0.269 -128.953,5.391 C 145.039,362.18 72.5156,360.16 0,356.16 v -31 c 10.1367,0.801 20.2695,1.508 30.4492,2.43 84.1288,7.531 170.0708,-9.809 254.5158,-8.559"
         style="fill:#000000;fill-opacity:1;fill-rule:nonzero;stroke:none"
         id="path58" /><path
         d="m 284.965,67.6719 c 71.883,1.0586 144.383,-3.9414 216.082,-6.1602 75.933,-2.3906 152.023,-3.2109 227.961,-3.7617 70.355,-0.5508 138.867,1.8008 209.18,-6.25 79.332,-9.0586 158.072,-4.6484 238.322,-2.4609 44.68,1.25 89.14,7.0703 133.9,2.7695 40.2,-3.8203 83.13,0.3594 123.4,4.0625 45.43,4.1875 90.82,-1.8711 136.32,0 38.01,1.5273 75.78,4.7305 113.71,4.8086 22.7,0.0391 45.51,4.9297 68.25,4.4922 19.7,-0.3516 38.63,-3.2813 58.4,-2.7735 37.19,1.0196 74.3,-6.1679 110.75,2.9297 11.95,3.0117 22.26,-3.6289 34.13,-3.9883 8.84,-0.2304 17.54,1.1407 26.3,1.4883 19.01,0.7813 37.53,-0.7265 56.4,-3.0781 40.2,-5.0391 78.82,3.9805 118.99,3.8984 23.89,-0.0781 47.56,3.9102 71.44,4.6133 19.02,0.5586 37.96,-2.1133 56.98,-1.9219 18.72,0.211 36.73,5.629 55.39,6.1797 5.98,0.1524 18.18,-4.5312 23.3,-0.8984 6.71,4.6875 14.56,6.6797 22.65,7 19.87,0.8086 40.66,-1.1406 60.3,-3.7617 20.9,-2.7696 39.69,4.9219 60.43,4.5703 20.37,-0.3086 39.66,-8.1992 59.85,-7.9688 20.27,0.211 40.74,5.6289 60.87,7.8907 32.78,3.6484 67.08,6.7187 100.06,6.7304 10.52,0 20.98,1.8399 31.53,1.4297 5.39,-0.2226 9.67,-1.2812 14.72,-2.7422 7.74,-2.2109 14.88,-2.9101 23.48,-3.0898 36.24,-0.8399 72.49,0.1406 108.73,0.5195 21.7,0.2422 43.08,-1.0898 64.73,-2.1797 10.78,-0.5507 21.6,-0.75 32.38,-0.039 7.62,0.539 13.94,6.789 21.91,3.6015 20.89,-8.4804 48.29,-3.8437 70.32,-3.9922 20.27,-0.1601 39.95,-4.0312 60.08,-5.4687 40.46,-2.8516 81.11,3.1172 121.71,0.6172 22.56,-1.3594 44.8,-8.4688 67.52,-7.5977 20.96,0.7696 38.96,-0.332 59.8,-2.9023 43.31,-5.4297 87.22,-3.7891 130.77,-3.2891 88.21,1.0196 177.02,-1.4804 265.23,2.3906 45.54,1.9883 90.83,5.1915 136.44,5.9297 19.14,0.3203 38.16,-0.8515 57.24,-2.0586 21.68,-1.4101 43.36,-2.8711 65.16,-2.5117 64.47,1.1211 127.9,4.0625 191.89,9.1094 v 31.0004 c -45.71,-2.52 -91.4,-5.8676 -137.02,-7.6293 -39.99,-1.5781 -80.03,-0.7188 -120.03,0.5 -43.25,1.3203 -86.48,3.0003 -129.74,2.4923 -85.43,-0.9025 -172.38,-3.5509 -257.71,-8.3204 -43.15,-2.3828 -87.32,2.4687 -130.57,2.7773 -40.87,0.2305 -83.42,-1.6406 -124.09,2.4219 -85.19,8.4692 -169.23,11.3982 -254.95,11.2502 -24.2,-0.051 -48.41,0.097 -72.62,0.371 -69.18,0.789 -138.34,2.656 -207.5,4.289 -33.16,0.801 -66.02,1.461 -99.07,0.098 -33.08,-1.34 -66,-5.059 -99.1,-6.168 -19.43,-0.641 -39.01,0.019 -58.45,0.019 -15.49,0 -30.94,-2.941 -46.44,-2.89 -21.04,0.07 -42.11,0.992 -63.13,1.582 -85.28,2.418 -170.25,-11.2817 -255.55,-10.7426 -89.07,0.6211 -177.58,-8.5508 -266.79,-6.0508 -86.17,2.3398 -172.11,3.25 -258.33,1.75 -45.7,-0.7695 -91.84,-5.957 -137.77,-6.75 -41.34,-0.6602 -82.27,0.2812 -123.6,-0.7891 -90.5,-2.289 -180.82,-2.8789 -271.29,-5.6211 -89.36,-2.6992 -177.181,5.2305 -266.165,10.3516 -90.782,5.1992 -181.723,0.7383 -272.492,2.8906 -84.575,2 -168.743,2.9297 -253.301,5.2383 C 302.98,97.0508 260.355,95.6016 217.309,101.27 145.039,110.809 72.5156,108.828 0,104.801 V 73.8008 c 10.1367,0.8008 20.2695,1.5195 30.4492,2.4297 84.1288,7.539 170.0708,-9.8086 254.5158,-8.5586"
         style="fill:#000000;fill-opacity:1;fill-rule:nonzero;stroke:none"
         id="path60" /><path
         d="m 279.602,2161.79 c 91.007,1.33 181.168,5.9 272.086,7.53 46.441,0.85 92.304,3.91 138.773,2.99 45.086,-0.9 91.055,-1.49 135.926,3.61 47.543,5.3 95.886,1.52 143.679,2.09 44.164,0.49 88.334,1.5 132.504,3.26 39.17,1.58 78.34,2.45 117.47,3.2 l -0.3,29.47 c -4.77,-0.09 -9.57,-0.23 -14.33,-0.32 -88.15,-1.55 -176.96,-9.48 -265.101,-6.64 -92.262,2.95 -183.879,-7.41 -276.27,-3.16 -43.34,1.96 -86.457,-8.18 -129.629,-6.52 -44.355,1.75 -87.129,-1.25 -131.562,-2.06 -91.504,-1.73 -181.571,-3.59 -273.098,0.47 -43.4766,1.94 -86.4727,-1.64 -129.75,1.71 v -31.48 c 3.86719,-0.05 7.74219,-0.16 11.6094,-0.19 89.3516,-0.71 178.6606,-5.21 267.9926,-3.96"
         style="fill:#000000;fill-opacity:1;fill-rule:nonzero;stroke:none"
         id="path62" /><path
         d="m 4180.39,2200.13 c -21.21,2.34 -42.76,3.65 -64.09,4.75 -44.27,2.3 -91.3,4.13 -135.55,2.68 -18.35,-0.6 -34.65,-9.33 -53.29,-7.36 -22.82,2.41 -45.57,5.67 -68.49,6.8 -27.22,1.43 -52.54,-4.13 -79.38,-6.05 -22.31,-1.58 -44.7,-0.23 -66.93,-2.79 -39.44,-4.51 -83.51,-7.58 -123.13,-4.43 -45.6,3.67 -89.97,-4.2 -135.46,-5.73 -15.45,-0.49 -31.23,0.19 -46.58,-0.87 -15.26,-1.03 -28.85,2.76 -44.01,3.18 -15.4,0.43 -31.49,-2.09 -47.16,-2.33 -24.65,-0.38 -48.23,-1.08 -72.98,-0.31 -20.36,0.58 -40.66,3.79 -61.02,1.6 -18.55,-1.92 -36.61,3.95 -55.01,4.13 -17.5,0.25 -27.71,-3.27 -44.56,2.64 -20.56,7.15 -45.72,5.21 -67.19,7.01 -22.64,1.77 -45.31,3.71 -67.98,4.45 -44.56,1.55 -88.93,2.72 -133.32,7.34 -50.92,5.32 -102,-0.1 -152.98,1.17 -68.35,1.73 -136.25,9.85 -204.44,11.92 -70.58,2.15 -141.07,-2.43 -211.57,-4.16 -84.28,-2.01 -168.38,0.81 -252.68,-2.91 -83.2,-3.66 -167.44,-10.17 -250.72,-6.45 -81.34,3.67 -162.1,-2.19 -243.37,2.74 -46.2,2.77 -92.45,3.28 -138.65,2.42 -44.88,-0.84 -95.94,2.67 -139.75,-6.44 -0.37,-9.14 -0.27,-18.77 0.28,-27.9 66.25,-9.26 139.05,-1.93 206.08,-1.28 67.58,0.64 135.15,1.7 202.76,2 137.16,0.52 274.15,4.09 411.27,7.55 161.5,4.11 323.27,6.63 484.66,-2.34 64.54,-3.75 128.94,-2.39 193.52,-2.53 39.3,-0.06 79.75,-2.91 118.35,-10.31 39.18,-7.47 82.51,-0.35 122.79,-4.49 43.37,-4.44 87.14,-6.3 130.67,-9.36 40.12,-2.83 81.91,-7.05 122.11,-5.2 39.59,1.8 79.84,2.41 119.54,-0.68 14.39,-1.11 28.71,-2.6 43.1,-3.36 25.14,-1.3 50.61,2.01 75.9,2.86 31.13,1.01 62.26,2.1 93.4,3.29 61.55,2.33 123.1,5.02 184.64,8.04 89.56,4.39 180.27,10.47 269.84,7.59 84.15,-2.74 168.81,-9.88 252.96,-11.07 v 31.48 c -3.47,0.27 -6.94,0.5 -10.39,0.86 -20.3,2.11 -40.67,-0.31 -61.19,1.85"
         style="fill:#000000;fill-opacity:1;fill-rule:nonzero;stroke:none"
         id="path64" /><path
         d="m 37.1328,1843.74 c 45.086,-0.9 91.0512,-1.48 135.9262,3.58 47.546,5.33 95.89,1.53 143.679,2.14 44.164,0.5 88.352,1.5 132.504,3.28 39.18,1.53 78.336,2.4 117.473,3.19 l -0.305,29.46 c -4.765,-0.08 -9.57,-0.27 -14.336,-0.3 -88.133,-1.59 -176.957,-9.51 -265.094,-6.66 -92.257,2.94 -183.875,-7.42 -276.2573,-3.17 -3.58598,0.17 -7.14848,0.13 -10.7227,0.14 v -31.67 c 12.3438,0.2 24.7227,0.25 37.1328,0.01"
         style="fill:#000000;fill-opacity:1;fill-rule:nonzero;stroke:none"
         id="path66" /><path
         d="m 4133.02,1868.73 c -44.35,1.75 -87.15,-1.28 -131.58,-2.09 -91.48,-1.71 -181.55,-3.59 -273.07,0.48 -46.95,2.08 -93.36,-2.34 -140.12,2.57 -20.3,2.1 -40.67,-0.33 -61.19,1.83 -21.21,2.32 -42.76,3.65 -64.09,4.74 -44.27,2.32 -91.3,4.15 -135.55,2.66 -18.36,-0.56 -34.66,-9.29 -53.29,-7.34 -22.81,2.42 -45.56,5.67 -68.48,6.8 -27.21,1.44 -52.55,-4.13 -79.38,-6.06 -22.31,-1.55 -44.71,-0.22 -66.93,-2.79 -39.44,-4.51 -83.52,-7.59 -123.14,-4.44 -45.6,3.69 -89.96,-4.19 -135.45,-5.72 -21.15,-0.72 -41.59,-1.61 -62.65,-1.61 -25.23,0 -49.77,2.07 -75.11,1.74 -24.65,-0.34 -48.23,-1.08 -72.96,-0.28 -20.37,0.57 -40.68,3.79 -61.04,1.6 -18.54,-1.95 -36.61,3.95 -55,4.11 -17.51,0.24 -27.71,-3.24 -44.56,2.63 -20.55,7.13 -45.73,5.19 -67.19,7.01 -22.64,1.78 -45.31,3.72 -67.99,4.46 -44.54,1.51 -88.92,2.71 -133.32,7.32 -50.91,5.35 -101.99,-0.1 -152.98,1.17 -68.34,1.73 -136.24,9.85 -204.43,11.92 -70.59,2.12 -141.08,-2.43 -211.58,-4.17 -84.27,-2.04 -168.36,0.81 -252.68,-2.91 -83.21,-3.66 -167.43,-10.18 -250.72,-6.47 -81.33,3.68 -162.095,-2.23 -243.364,2.72 -46.192,2.76 -92.449,3.27 -138.656,2.44 -44.875,-0.89 -95.922,2.65 -139.747,-6.47 -0.371,-9.14 -0.273,-18.76 0.282,-27.89 66.23,-9.24 139.058,-1.93 206.082,-1.27 67.586,0.6 135.148,1.69 202.765,1.99 137.148,0.52 274.148,4.11 411.268,7.55 161.49,4.14 323.26,6.69 484.67,-2.28 64.53,-3.75 128.92,-2.37 193.51,-2.53 39.29,-0.06 79.74,-2.9 118.35,-10.32 39.18,-7.49 82.51,-0.36 122.79,-4.48 43.36,-4.43 87.13,-6.29 130.67,-9.36 41.98,-2.97 83.16,-3.81 125.03,-2.35 17.71,0.61 34.35,-3.72 51.71,-4.29 16.05,-0.51 32.35,3.3 48.44,3.43 25.74,0.21 52.53,-5.9 76.35,-5.19 112.42,3.34 224.84,7.66 337.14,13.21 89.58,4.39 180.3,10.48 269.85,7.61 88.02,-2.88 176.59,-10.6 264.54,-11.27 89.36,-0.68 178.66,-5.18 267.99,-3.92 90.99,1.28 181.17,5.9 272.09,7.53 34.05,0.6 67.78,2.4 101.67,2.98 v 31.67 c -39.75,0.11 -79.33,-8.2 -118.95,-6.67"
         style="fill:#000000;fill-opacity:1;fill-rule:nonzero;stroke:none"
         id="path68" /><path
         d="m 180.758,1973.01 c 42.496,2.87 84.293,10.6 126.832,12.24 92.414,3.54 184.269,6.04 276.73,7.34 90.438,1.31 180.551,6.14 270.36,15.53 93.855,9.85 189.13,4.46 283.27,10.72 48.32,3.2 96.6,-1.33 144.96,0.85 42.1,1.92 83.98,7.42 126.28,7.97 89.42,1.05 179.03,-2.62 268.36,-6.57 48.64,-2.09 97.01,-7.15 145.17,-14.33 40.93,-6.05 80.47,-2.18 121.17,-7.35 45.7,-5.78 90.35,-1.6 136.09,-4.27 44.81,-2.6 88.52,0.17 133.12,5.01 88.92,9.62 178.98,10 268.75,10.8 47.34,0.49 96.45,8.17 143.56,4.01 32.95,-2.89 66.53,-2.64 99.85,-1.53 36.61,1.2 73.64,-0.79 110.25,-1.25 39.29,-0.45 79.72,-3.71 118.24,-11.52 39.09,-7.89 82.5,-1.2 122.73,-5.73 43.31,-4.89 87.06,-7.2 130.59,-10.71 91.9,-7.46 183.89,-7.54 275.82,-11.81 48.85,-2.3 98.46,-2.76 147.29,-0.42 45.05,2.15 89.1,-6.27 134.18,-5.33 45.23,0.95 90.44,-3.81 135.75,-3.34 42.49,0.43 84.24,0.74 126.68,1.81 47.85,1.16 95.94,-0.72 143.79,-3.04 27.48,-1.37 54.4,-0.27 81.39,1.26 v 28.99 c -8.22,-0.82 -16.48,-1.54 -24.67,-2.42 -22.04,-2.42 -42.89,4.25 -64.69,2.61 -22.34,-1.75 -44.96,0.22 -67.42,1.73 -41.92,2.81 -83.19,-3.58 -124.89,-1.35 -178.35,9.41 -358.63,13.35 -537.18,12.48 -24.66,-0.09 -48.24,-0.59 -72.98,0.47 -20.34,0.78 -40.62,4.21 -61.01,2.22 -18.55,-1.74 -36.56,4.32 -54.96,4.69 -17.5,0.43 -27.73,-2.99 -44.53,3.09 -20.47,7.35 -45.66,5.67 -67.11,7.69 -22.62,2.01 -45.28,4.19 -67.94,5.16 -44.52,1.99 -88.89,3.63 -133.23,8.71 -31.82,3.65 -63.92,3.09 -95.9,2.62 -14.9,-0.23 -29.97,0.32 -44.52,-1.78 -13.48,-1.96 -25.72,1.18 -39.17,1.83 -28.81,1.34 -59.77,4.99 -88.06,11.09 -23.57,5.1 -47.83,-3.77 -71.62,-4.37 -10.37,-0.25 -19.8,-0.95 -30.07,-2.43 -8.71,-1.25 -17.5,-1.65 -26.3,-2.62 -20.66,-2.31 -41.37,1.25 -62.07,-0.47 -44.38,-3.71 -88.98,-2.19 -133.55,-2.44 -91.95,-0.44 -182.82,-12.36 -275,-14.36 -49.02,-1.02 -96.28,2.46 -145.08,6.8 -43.13,3.86 -86.09,2.59 -129.25,6.53 -47.55,4.25 -91.92,13.02 -140.09,12.01 -44.38,-0.93 -87.27,7.75 -131.32,9 -23.92,0.64 -47.27,-2.95 -71.06,-4.34 -21.14,-1.25 -41.84,3.3 -63.08,2.78 -45.01,-1.2 -88.17,-11.88 -133.48,-11.51 -23.75,0.17 -47.66,-1.22 -70.98,4.12 -16.75,3.75 -26.68,-1.29 -43.51,-1.75 -40.94,-1.09 -81.67,-13.3 -122.69,-8.76 24.56,-2.72 -11.53,-1.54 0,0 -35.365,-4.8 -74.455,1.64 -110.669,-1.23 -41.098,-3.26 -81.801,-7.44 -123.09,-8.97 -90.34,-3.37 -180.934,-10.19 -271.199,-7.77 -48.184,1.26 -94.946,-1.79 -142.868,-5.31 -42.226,-3.08 -84.578,-1.6 -126.683,-4.55 C 160.254,2005.89 79.6914,2000.33 0,1992.34 v -28.99 c 15.6484,0.89 31.3281,1.86 47.1641,2.68 44.5703,2.25 89.0589,3.98 133.5939,6.98"
         style="fill:#000000;fill-opacity:1;fill-rule:nonzero;stroke:none"
         id="path70" /><path
         d="m 284.965,1059.82 c 71.883,1.05 144.383,-3.94 216.082,-6.18 75.933,-2.37 152.023,-3.2 227.961,-3.75 70.355,-0.55 138.867,1.8 209.18,-6.25 79.332,-9.06 158.072,-4.65 238.322,-2.45 44.68,1.25 89.14,7.06 133.9,2.77 40.2,-3.84 83.13,0.34 123.4,4.05 45.43,4.18 90.82,-1.87 136.32,0 38.01,1.53 75.78,4.73 113.71,4.81 22.7,0.04 45.51,4.92 68.25,4.49 19.7,-0.34 38.63,-3.28 58.4,-2.77 37.19,1.01 74.3,-6.17 110.75,2.93 11.95,3 22.26,-3.63 34.13,-3.99 8.84,-0.22 17.54,1.14 26.3,1.49 19.01,0.78 37.53,-0.74 56.4,-3.09 40.2,-5.04 78.82,4 118.99,3.92 23.89,-0.09 47.56,3.89 71.44,4.61 19.02,0.53 37.96,-2.12 56.98,-1.93 18.72,0.2 36.73,5.63 55.39,6.18 5.98,0.15 18.18,-4.54 23.3,-0.89 6.71,4.68 14.56,6.67 22.65,6.98 19.87,0.82 40.66,-1.12 60.3,-3.75 20.9,-2.77 39.69,4.92 60.43,4.57 20.37,-0.31 39.66,-8.2 59.85,-7.97 20.27,0.2 40.74,5.63 60.87,7.89 37.29,4.2 74.72,2.91 112.06,7.15 24.12,2.75 46.49,-4.35 70.15,-5.05 32.06,-0.95 64.25,0.41 96.31,0.75 21.7,0.25 43.08,-1.09 64.73,-2.18 10.78,-0.55 21.6,-0.75 32.38,-0.04 7.62,0.54 13.94,6.79 21.91,3.59 20.89,-8.48 48.29,-3.83 70.32,-3.97 20.27,-0.17 39.95,-4.03 60.08,-5.47 40.46,-2.86 81.11,3.12 121.71,0.61 22.56,-1.36 44.8,-8.47 67.52,-7.62 20.96,0.79 38.96,-0.31 59.8,-2.88 43.31,-5.44 87.22,-3.79 130.77,-3.28 88.21,1.02 177.02,-1.49 265.23,2.38 45.54,1.99 90.83,5.19 136.44,5.93 19.14,0.33 38.16,-0.85 57.24,-2.07 21.68,-1.4 43.36,-2.85 65.16,-2.5 64.47,1.12 127.9,4.06 191.89,9.09 v 31.02 c -45.71,-2.53 -91.4,-5.85 -137.02,-7.65 -39.99,-1.55 -80.03,-0.7 -120.03,0.51 -43.25,1.33 -86.48,3.01 -129.74,2.5 -85.43,-0.9 -172.38,-3.54 -257.71,-8.32 -43.15,-2.38 -87.32,2.46 -130.57,2.77 -40.87,0.25 -83.42,-1.64 -124.09,2.44 -85.19,8.46 -169.23,11.4 -254.95,11.24 -6.23,-0.01 -12.47,-0.01 -18.72,0 -69.36,0.13 -138.72,1.71 -208.05,3.39 -34.68,0.82 -69.36,1.68 -104.01,2.41 -29.16,0.6 -58.85,7.6 -87.82,2.13 -14.95,-2.82 -29.45,-5.12 -44.62,-6.22 -20.88,-1.52 -41.49,-2.84 -62.39,-3.52 -17.88,-0.61 -34.94,-2.91 -52.89,-2.63 -22.62,0.34 -45.21,1.11 -67.81,1.75 -85.28,2.42 -170.25,-11.3 -255.55,-10.74 -89.07,0.61 -177.58,-8.56 -266.79,-6.07 -86.17,2.35 -172.11,3.25 -258.33,1.76 -45.7,-0.78 -91.84,-5.97 -137.77,-6.76 -41.34,-0.66 -82.27,0.28 -123.6,-0.77 -90.5,-2.31 -180.82,-2.9 -271.29,-5.64 -89.36,-2.69 -177.181,5.24 -266.165,10.36 -90.782,5.2 -181.723,0.74 -272.492,2.89 -84.575,1.99 -168.743,2.93 -253.301,5.23 -43.282,1.19 -85.907,-0.26 -128.953,5.4 -72.27,9.54 -144.7934,7.55 -217.309,3.54 v -31.02 c 10.1367,0.81 20.2695,1.52 30.4492,2.45 84.1288,7.53 170.0708,-9.82 254.5158,-8.56"
         style="fill:#000000;fill-opacity:1;fill-rule:nonzero;stroke:none"
         id="path72" /><path
         d="m 56.8906,630.871 c 11.9492,3 22.2657,-3.633 34.1289,-3.98 8.8399,-0.243 17.5395,1.121 26.3005,1.488 19.012,0.73 37.535,-0.75 56.407,-3.09 40.195,-5.039 78.824,3.973 118.984,3.871 23.906,-0.051 47.578,3.942 71.437,4.641 19.032,0.551 37.977,-2.11 56.989,-1.91 18.718,0.148 36.722,5.589 55.371,6.129 5.98,0.148 18.172,-4.489 23.289,-0.86 6.719,4.68 14.574,6.68 22.652,7 19.887,0.781 40.66,-1.148 60.321,-3.75 20.898,-2.82 39.671,4.871 60.421,4.559 20.348,-0.301 39.645,-8.199 59.844,-8 20.27,0.23 40.738,5.652 60.856,7.89 44.336,4.95 88.16,1.563 132.586,3.782 43.078,2.187 86.011,2.308 129.203,1.519 46.45,-0.82 93.4,2.59 139.69,0.43 42.74,-1.899 85.32,-6.16 128.05,-7.41 90.9,-2.59 181.29,0.742 271.99,0.261 168.43,-0.851 336.33,-7.961 504.89,-5.461 24.13,0.399 48.08,4.45 72.21,4.45 20.83,0.05 41.53,-3.672 62.43,-3.782 43.09,-0.32 86.09,2.102 129.22,0.59 44.46,-1.578 88.95,-4.027 133.35,-6.847 40.09,-2.493 80.37,2.468 120.28,-3.2 16.95,-2.382 36.67,1.899 55.09,4.321 9.89,-0.274 19.79,-0.453 29.66,-0.301 22.73,0.348 45.09,2.828 67.81,2.828 11.44,0 23.66,1.973 34.93,-0.43 9.7,-2.07 17.68,-4.75 27.86,-5.211 28.49,-1.32 56.98,-2.457 85.49,-3.347 75.95,-2.422 152.03,-3.211 227.97,-3.789 70.34,-0.524 138.86,1.797 209.18,-6.211 79.32,-9.063 158.07,-4.66 238.32,-2.473 44.67,1.223 89.14,7.082 133.89,2.774 40.2,-3.872 83.14,0.359 123.39,4.07 45.44,4.18 90.83,-1.883 136.34,-0.051 38.02,1.527 75.79,4.777 113.72,4.859 22.7,0.028 45.51,4.918 68.24,4.489 19.68,-0.391 38.64,-3.289 58.4,-2.77 18,0.481 35.99,-0.937 53.89,-1.5 v 29.352 c -64.49,1.199 -128.93,1.418 -193.5,0.308 -45.71,-0.828 -91.84,-5.98 -137.78,-6.769 -41.33,-0.649 -82.26,0.289 -123.6,-0.781 -90.49,-2.289 -180.82,-2.879 -271.28,-5.618 -89.38,-2.691 -177.18,5.188 -266.17,10.309 -90.78,5.23 -181.72,0.781 -272.51,2.941 -45.31,1.059 -90.63,1.829 -135.96,2.668 -36.45,0.692 -74.71,-1.039 -110.75,4.672 -22.49,3.578 -43.75,0.071 -66.38,0.707 -23.56,0.653 -45.63,3.153 -69.39,0.371 -55.36,-6.5 -112.51,-1.07 -168.58,-0.109 -90.39,1.52 -180.46,6.531 -270.9,6.871 -86.4,0.328 -173.11,-7.992 -259.49,-4.68 -87.45,3.36 -175.67,3.911 -263.16,4.289 -89.61,0.43 -180.08,1.68 -269.5,-2.96 -87.19,-4.571 -174.33,9.031 -261.52,7.859 -89.34,-1.18 -178.629,-0.43 -267.961,0.461 -45.078,0.422 -89.418,-5.461 -134.336,-6.75 -40.308,-1.219 -81.801,0.379 -122.031,1.519 -85.27,2.45 -170.215,-11.3 -255.516,-10.711 C 242.582,660.98 154.078,651.84 64.8594,654.309 43.2266,654.91 21.6094,655.41 0,655.801 v -29.352 c 19.0859,-0.621 38.0781,-0.269 56.8906,4.422"
         style="fill:#000000;fill-opacity:1;fill-rule:nonzero;stroke:none"
         id="path74" /><path
         d="m 180.758,883.641 c 42.496,2.898 84.293,10.621 126.832,12.269 92.414,3.508 184.269,6.008 276.73,7.34 90.438,1.289 180.551,6.129 270.36,15.508 93.855,9.844 189.13,4.453 283.27,10.742 48.32,3.172 96.6,-1.359 144.96,0.828 42.1,1.902 83.98,7.41 126.28,7.973 89.42,1.039 179.03,-2.633 268.36,-6.571 48.64,-2.062 97.01,-7.152 145.17,-14.339 40.93,-6.051 80.47,-2.192 121.17,-7.34 45.7,-5.789 90.35,-1.61 136.09,-4.262 44.81,-2.621 88.52,0.152 133.12,5 88.92,9.609 178.98,10 268.75,10.832 47.34,0.457 96.45,8.149 143.56,3.969 35.38,-3.129 70.71,0.879 106.11,-0.09 34.43,-0.98 69.28,-2.238 103.99,-2.68 39.29,-0.461 79.72,-3.711 118.24,-11.519 39.09,-7.891 82.5,-1.211 122.73,-5.75 43.31,-4.883 87.06,-7.18 130.59,-10.699 91.9,-7.461 183.89,-7.543 275.82,-11.801 48.85,-2.301 98.46,-2.77 147.29,-0.43 45.05,2.149 89.1,-6.242 134.18,-5.312 45.23,0.941 90.44,-3.829 135.75,-3.36 42.49,0.43 84.24,0.75 126.68,1.852 47.85,1.117 95.94,-0.75 143.79,-3.051 27.48,-1.398 54.4,-0.289 81.39,1.238 v 29 c -8.22,-0.828 -16.48,-1.558 -24.67,-2.437 -22.04,-2.422 -42.89,4.269 -64.69,2.617 -22.34,-1.758 -44.96,0.242 -67.42,1.73 -41.92,2.801 -83.19,-3.558 -124.89,-1.328 -178.35,9.41 -358.63,13.321 -537.18,12.45 -24.66,-0.079 -48.24,-0.579 -72.98,0.468 -20.34,0.782 -40.62,4.223 -61.01,2.231 -18.55,-1.719 -36.56,4.332 -54.96,4.691 -17.5,0.43 -27.73,-2.969 -44.53,3.078 -20.47,7.352 -45.66,5.672 -67.11,7.711 -22.62,2.02 -45.28,4.18 -67.94,5.141 -44.52,2 -88.89,3.64 -133.23,8.711 -32.81,3.758 -65.88,3.058 -98.84,2.59 -14.64,-0.211 -29.01,-0.539 -43.44,1.218 -12.91,1.571 -25.73,-1.097 -38.63,-0.23 -30.95,2.062 -61.74,4.422 -92.52,8.59 -16.13,2.191 -34.56,-1.18 -50.96,-2.219 -23.72,-1.5 -47.71,-2.98 -71.25,-5.602 -20.66,-2.308 -41.37,1.243 -62.07,-0.48 -44.38,-3.707 -88.98,-2.188 -133.55,-2.418 -91.95,-0.461 -182.82,-12.371 -275,-14.379 -49.02,-1 -96.28,2.469 -145.08,6.797 -43.13,3.871 -86.09,2.621 -129.25,6.531 -47.55,4.25 -91.92,13.039 -140.09,12.031 -44.38,-0.929 -87.27,7.731 -131.32,8.981 -23.92,0.66 -47.27,-2.93 -71.06,-4.34 -21.14,-1.25 -41.84,3.32 -63.08,2.777 -45.01,-1.168 -88.17,-11.878 -133.48,-11.488 -23.75,0.16 -47.66,-1.238 -70.98,4.102 -16.75,3.75 -26.68,-1.282 -43.51,-1.754 -40.94,-1.086 -81.67,-13.278 -122.69,-8.75 24.56,-2.727 -11.53,-1.528 0,0 -35.365,-4.809 -74.455,1.652 -110.669,-1.199 -41.098,-3.289 -81.801,-7.469 -123.09,-8.989 -90.34,-3.359 -180.934,-10.199 -271.199,-7.781 -48.184,1.289 -94.946,-1.789 -142.868,-5.301 -42.226,-3.097 -84.578,-1.609 -126.683,-4.539 C 160.254,916.531 79.6914,910.961 0,902.988 v -29 c 15.6484,0.883 31.3281,1.871 47.1641,2.711 44.5703,2.211 89.0589,3.942 133.5939,6.942"
         style="fill:#000000;fill-opacity:1;fill-rule:nonzero;stroke:none"
         id="path76" /></g></g></svg>
