<?xml version="1.0" encoding="UTF-8" standalone="no"?>
<svg
   xmlns:dc="http://purl.org/dc/elements/1.1/"
   xmlns:cc="http://creativecommons.org/ns#"
   xmlns:rdf="http://www.w3.org/1999/02/22-rdf-syntax-ns#"
   xmlns:svg="http://www.w3.org/2000/svg"
   xmlns="http://www.w3.org/2000/svg"
   xmlns:sodipodi="http://sodipodi.sourceforge.net/DTD/sodipodi-0.dtd"
   xmlns:inkscape="http://www.inkscape.org/namespaces/inkscape"
   version="1.1"
   id="svg2"
   xml:space="preserve"
   width="566.93335"
   height="566.93335"
   viewBox="0 0 566.93335 566.93335"
   sodipodi:docname="17.eps"><metadata
     id="metadata8"><rdf:RDF><cc:Work
         rdf:about=""><dc:format>image/svg+xml</dc:format><dc:type
           rdf:resource="http://purl.org/dc/dcmitype/StillImage" /></cc:Work></rdf:RDF></metadata><defs
     id="defs6" /><sodipodi:namedview
     pagecolor="#ffffff"
     bordercolor="#666666"
     borderopacity="1"
     objecttolerance="10"
     gridtolerance="10"
     guidetolerance="10"
     inkscape:pageopacity="0"
     inkscape:pageshadow="2"
     inkscape:window-width="640"
     inkscape:window-height="480"
     id="namedview4" /><g
     id="g10"
     inkscape:groupmode="layer"
     inkscape:label="ink_ext_XXXXXX"
     transform="matrix(1.3333333,0,0,-1.3333333,0,566.93333)"><g
       id="g12"
       transform="scale(0.1)"><path
         d="M 4251.97,0 H 0.0234375 V 4251.95 H 4251.97 V 0"
         style="fill:#ffffff;fill-opacity:1;fill-rule:nonzero;stroke:none"
         id="path14" /><path
         d="m 42.7539,2867.74 c 15.3008,2.93 33.0195,4.26 47.4649,-0.14 27.8792,-8.47 55.5512,-5.11 82.2582,-1.3 39.91,5.67 79.734,3.36 119.535,4.39 22.605,0.6 45.797,-2.42 68.308,-0.78 55.895,4.14 111.672,4.75 167.539,2.06 54.477,-2.63 108.899,-6.31 163.395,-7.49 47.961,-1.04 96.101,-0.79 143.965,1.89 26.683,1.49 53.234,0.36 79.824,1.13 37.75,1.1 75.609,1.33 113.077,5.24 38.01,3.98 76.03,-0.86 113.87,2.97 24.03,2.42 46.83,-6.01 70.74,-6.79 42.13,-1.36 84.16,0.11 126.17,-0.7 22.06,-0.42 42.86,6.04 64.39,7.11 55.34,2.83 110.76,5.25 166.23,6.52 54.22,1.25 108.49,1.31 162.71,4.46 38,2.2 76.27,1.03 114.4,0.82 29.05,-0.11 57.92,-0.75 87.02,2.18 27.13,2.72 54.92,-0.58 82.14,1.62 28.06,2.24 55.22,11.06 82.92,13.04 53.18,3.79 106.75,-10.38 160.3,-7.7 39.44,2.02 79.04,-2.11 118.41,4.33 8.59,1.38 18.46,2.05 28.23,-1.43 47.02,-16.73 95.49,-28.01 145.38,-34.71 37.76,-5.05 75.85,-6.58 113.67,-9.53 39.39,-3.07 79.46,-0.24 119.28,-1.08 33.54,-0.73 67.14,-1.13 100.85,0.51 37.48,1.83 75.1,-3.3 112.79,-4.25 55.97,-1.43 111.14,5.61 166.61,9.15 37.45,2.39 74.44,10.13 112.03,12.74 42.12,2.95 84.04,7.64 126.41,7.73 17.02,0.02 33.79,1.64 50.95,-0.67 14.51,-1.94 28.76,5.14 44.04,3.55 57.29,-5.96 115.05,-5.17 171.93,0.19 42.94,4.04 85.58,7.76 128.6,7.54 29.56,-0.15 59.05,2.75 88.5,3.05 37.17,0.37 74.08,-6.78 111.53,-6.48 28.85,0.21 57.73,-3.8 86.64,-4.6 48.34,-1.34 96.18,-8.5 144.4,-10.52 7.62,-0.32 15.16,-1.45 22.71,-2.6 v 70.58 c -3.01,-0.36 -6.04,-0.63 -9.01,-0.62 -32.26,0.17 -64.76,-4.11 -96.57,5.24 -6.81,2 -14.86,-0.04 -22.25,0.5 -22.68,1.61 -45.82,-2.33 -68.02,4.8 -24.99,8.03 -51.11,14.22 -76.91,14.83 -61.12,1.46 -121.54,10.54 -182.96,9.89 -64.47,-0.66 -129.02,-3.17 -192.26,-11.85 -59.14,-8.09 -118.7,-13.79 -177.86,-20.96 -54.63,-6.63 -110.27,-10.29 -165.6,-13.66 -26.87,-1.64 -53.53,-5.74 -80.37,-7.76 -27.7,-2.08 -56.1,-6.93 -83.14,-3.4 -33.58,4.39 -67.83,5.56 -100.87,14.06 -33.38,8.58 -67.75,5.61 -101.77,7.33 -39.52,2.01 -78.89,3.94 -118.44,2.99 -31.01,-0.77 -62.06,-0.62 -93.1,-0.65 -33.29,-0.01 -65.45,4.24 -94.07,22.13 -23.49,14.68 -49.44,23.76 -77.01,28.73 -20.01,3.61 -40.5,5.31 -60.2,9.9 -42.57,9.92 -84.01,24.31 -128.63,25.28 -40.46,0.87 -77.08,-2.84 -114.08,-17.68 -35.62,-14.27 -82.27,-11.76 -120.65,-16.86 -27.94,-3.73 -54.29,-15.09 -82.48,-17.61 -23.22,-2.07 -50.91,1.97 -74.44,3.52 -30.4,2.02 -61.03,-0.08 -90.28,-4.25 -36.29,-5.16 -72.84,-9.04 -109.11,-14.58 -53.38,-8.15 -107.7,-10.39 -161.16,-17.49 -53.86,-7.14 -108.04,-8.08 -161.95,-12.89 -39.14,-3.49 -78.63,-5.3 -117.26,-11.7 -22.01,-3.64 -40.09,-0.87 -58.48,9.64 -9.62,5.49 -18.59,13.69 -28.6,16.53 -40.25,11.4 -81.18,22.49 -123.45,22.54 -49.5,0.04 -98.877,3.07 -148.455,2.6 -75.543,-0.69 -151.133,-2.52 -226.742,-1.08 -40.859,0.78 -81.137,-7.61 -122.563,-6.9 -33.394,0.56 -67.628,-0.74 -101.476,-3.79 -57.223,-5.14 -114.625,2.38 -172.004,3.21 -49.152,0.69 -98.555,3.99 -147.82,6.59 -12.645,0.65 -26.051,3.9 -38.965,-0.29 C 88.2813,2954.79 51.2734,2953.02 16.25,2943.09 11,2941.6 5.52344,2940.44 0,2939.77 v -70.56 c 14.0195,-2.12 28.0352,-4.29 42.7539,-1.47"
         style="fill:#000000;fill-opacity:1;fill-rule:nonzero;stroke:none"
         id="path16" /><path
         d="m 203.035,3441.73 c 23.981,-0.11 47.848,2.26 71.668,2.01 40.977,-0.44 81.18,-10.2 121.93,-11.8 19.965,-0.8 39.39,-7.9 59.336,-4.47 20.441,3.5 41.261,2.46 61.277,1.07 44.332,-3.07 88.684,-3.34 133.012,-4.47 9.039,-0.23 17.691,2.43 27.137,1.64 56.382,-4.74 112.414,-5.25 167.875,9.31 28.894,7.55 59.089,15.12 88.617,14.91 39.531,-0.27 79.353,-3.67 118.773,-9.62 31.39,-4.73 63.3,-8.02 95.05,-8.65 50.6,-1.03 101.29,0.3 151.9,1.42 25.42,0.55 51.07,0.99 76.22,2.77 46.63,3.35 93.06,4.33 139.69,3.27 43.23,-0.99 86.47,-3.73 129.76,-2.04 6.81,0.27 13.62,2 20.4,1.83 38.43,-0.95 76.85,-2.17 115.28,-3.49 23.91,-0.83 48.18,-4.91 71.57,-2.26 34.13,3.89 67.26,12.41 102.37,13.07 42.57,0.77 85.26,1.25 127.92,4.68 25.75,2.05 51.81,4.03 77.84,4.79 37.93,1.12 75.83,4.69 113.68,-2.13 43.06,-7.75 86.99,-8.73 130.48,-13.21 44.17,-4.56 89,-4.18 132.99,-9.72 30.81,-3.85 61.87,-2.79 92.45,-7.77 37.75,-6.14 76.18,-2.84 114.15,-6.08 37.28,-3.23 74.69,-10.78 111.87,-7.97 50.96,3.87 101.74,1.57 152.37,0.06 25.52,-0.77 51.01,0.74 76.5,1.7 25.64,0.99 53.07,-2.81 78.36,-0.3 16.85,1.68 31.93,11.01 48.27,15.29 25.83,6.78 52.19,14.18 78.88,17.3 29.18,3.4 58.62,0.88 87.51,-1.62 28.33,-2.41 57.27,-0.22 85.84,-1.85 31.94,-1.81 63.87,-5.7 95.78,-5.72 68.97,0 137.91,3.3 206.63,-6.05 44.8,-6.1 89.92,-2.61 134.99,-0.38 27.95,1.37 55.24,7.75 83.52,6.56 56.48,-2.38 112.98,-1.13 169.47,0.7 32.53,1.06 65.05,1.9 97.57,2.81 v 66.67 c -14.74,-1.26 -29.48,-2.72 -44.15,-4.65 -28.89,-3.8 -58.05,-2.59 -86.88,-5.41 -47.48,-4.64 -94.54,-12.93 -142.3,-15.63 -2.72,-0.15 -5.38,-1.36 -8.06,-2.12 -40.79,-11.5 -81.65,-12.04 -121.77,1.71 -32.36,11.08 -66.66,12.12 -99.9,18.49 -25.54,4.86 -51.91,1.12 -78.01,4.41 -21.46,2.7 -42.55,7.63 -63.87,9.6 -45.27,4.2 -90.87,5.67 -136.33,8.29 -27.31,1.56 -54.58,1.28 -81.85,-0.77 -20.31,-1.53 -40.74,2.05 -61.25,0.65 -13.77,-0.95 -27.8,0.54 -41.72,0.16 -25.69,-0.74 -51.09,-4.07 -76.67,-5.83 -63.78,-4.37 -125.98,-5.46 -190.15,-4.76 -33.1,0.34 -66.28,-0.68 -99.25,1.92 -55.73,4.39 -111.67,0.87 -167.36,4.36 -22.1,1.41 -43.94,-1.1 -65.99,-0.61 -23.93,0.53 -47.3,6.13 -70.62,6.56 -31.69,0.58 -63.47,2.57 -95.35,1.05 -46.16,-2.23 -91.78,6.66 -137.78,9.36 -61.19,3.61 -119.71,-9.27 -179.3,-15.43 -36.64,-3.8 -72.95,-10.63 -109.37,-16.25 -36.26,-5.58 -73.29,-0.53 -109.26,-5.45 -50.66,-6.91 -101.05,-4.98 -151.65,-2.3 -5.14,0.27 -9.8,1.23 -14.17,4.56 -13.05,10.01 -29.28,13.81 -44.99,18.51 -22.92,6.84 -46.56,1.81 -69.66,3.83 -63.4,5.55 -126.7,0.24 -190.03,0.47 -37.19,0.12 -73.97,-6.01 -110.91,-9.55 -42.12,-4.02 -84.53,-6.05 -126.99,-7.67 -57.04,-2.18 -113.25,4.69 -169.82,7.54 -23.1,1.17 -45.74,6.93 -68.46,8.88 -49.584,4.28 -98.963,-2.34 -147.846,-11.36 -26.637,-4.93 -52.758,-11.85 -80.453,-12.28 -46.449,-0.71 -92.903,1.17 -139.215,0.13 -59.496,-1.38 -118.383,2.35 -176.801,10.69 -36.441,5.22 -73.199,9.03 -109.64,10.7 -33.625,1.52 -68.086,-1.17 -102.051,-1.99 -58.953,-1.39 -118.024,-1.9 -176.934,-4.06 -35.0467,-1.29 -70.1795,-2.78 -105.16,-5.75 v -66.67 c 21.8867,0.64 43.7695,1.36 65.6563,1.9 45.7887,1.17 91.5857,2.73 137.3787,2.51"
         style="fill:#000000;fill-opacity:1;fill-rule:nonzero;stroke:none"
         id="path18" /><path
         d="m 100.27,1292.63 c 35.293,-0.01 70.199,4.59 104.82,9.09 51.672,6.72 103.422,8.54 155.258,8.27 32.519,-0.19 65.011,-4.95 97.539,-4.98 39.816,0 79.64,4.13 119.468,3.93 26.434,-0.1 52.688,-1.37 79.012,2.62 12.035,1.83 24.453,2.41 36.621,2.09 23.981,-0.66 47.934,-2.09 71.871,-3.68 29.684,-1.96 58.954,5.29 89.133,0.89 25.016,-3.67 51.61,-4.54 76.469,-0.68 55.238,8.58 110.879,7.12 166.299,10.12 46.38,2.48 93.08,2.06 139.55,0.47 35.32,-1.23 69.52,7.94 105.38,4.39 59,-5.85 118.61,-5.9 177.79,-10.34 72.1,-5.42 143.47,4.05 214.98,8.04 48.1,2.7 95.9,-0.16 143.81,1.37 38.07,1.19 76.25,-1.55 114.35,2.57 11.02,1.21 22.02,2.46 32.93,4.11 25.99,-18.16 55.4,-10.98 83.16,-5.28 12.87,2.64 24.86,3.95 35.77,-0.45 24.97,-10.01 50.77,-12.96 77.37,-13.51 17.92,-0.38 38.11,3.28 53.21,-3.23 26.52,-11.43 53.07,-21.75 80.84,-30.17 33.47,-10.14 67.02,-16.9 102.33,-16.22 29.62,0.55 58.78,5.45 88.15,7.11 56.61,3.19 113.34,1.05 170.04,0.47 59.29,-0.62 118.64,5.11 177.93,4.48 45.68,-0.51 91.29,2.48 137.05,0.69 20.46,-0.81 42.05,-0.86 62.64,7.29 27.95,11.06 56.51,15.23 88.01,8.82 23.49,-4.81 48.05,-8.97 73.09,-7.77 48,2.3 96.1,2.87 144.17,-0.05 23.5,-1.46 47.01,-3.42 70.54,-4.09 61.73,-1.69 123.24,7.38 185.07,3.09 14.92,-1.03 30.21,1.59 45.17,2.01 30.24,0.87 60.02,5.33 89.99,7.85 26.21,2.19 52.44,2.2 78.45,0.71 19.45,-1.11 39.6,-4.08 58.12,-0.61 48.14,9.03 95.85,5.48 143.54,-0.09 40.02,-4.69 80.3,-2.66 120.5,-6.97 20.2,-2.18 40.71,-3.02 61.28,-2.64 v 58.35 c -39.77,2.37 -79.56,5.26 -119.42,6.99 -46.41,2.01 -92.54,9.01 -139.1,8.27 -31.73,-0.51 -63.33,0.64 -94.94,2.7 -31.92,2.09 -64.17,-0.5 -95.11,-5.03 -24.32,-3.58 -49.51,-6.48 -73.65,-13.26 -19.72,-5.49 -39.55,-6.86 -61.01,-3.1 -20.37,3.59 -42.35,-1.45 -63.64,-1.98 -33.52,-0.85 -67.3,-3.65 -100.52,-0.99 -38.43,3.13 -77.01,2.62 -115.44,6.5 -31.71,3.21 -63.89,4.69 -93.5,15.69 -28.51,10.59 -56.91,18.42 -87.55,21.51 -15.27,1.54 -31.16,2.69 -46.36,7.11 -17.38,5.05 -35.16,11.17 -53.04,12.01 -44.32,2.1 -88.16,-4.3 -129.67,-18.75 -40.11,-13.93 -81.92,-20.31 -123.05,-29.65 -44.67,-10.14 -91.1,-8.18 -136.06,-16.77 -31.53,-6.02 -63.48,1.67 -95.44,-2.74 -29.75,-4.14 -60.94,-0.37 -90.04,-7.53 -27.9,-6.83 -54.38,-15.13 -83.16,-5.18 -23.66,8.18 -49.31,9.86 -69.52,28.24 -12.22,11.12 -31.21,16.2 -49.7,15.77 -13.48,-0.31 -26.93,-2.68 -40.38,-2.56 -11.18,0.12 -21.66,-0.83 -33.72,4.37 -33.06,14.27 -69.97,24.96 -105.69,31.26 -23.63,4.17 -48.82,-1.55 -72.64,-1.55 -5.1,0.02 -10.19,-0.07 -15.24,0.11 -29.5,1.1 -58.96,-1.2 -88.34,-1.63 -44.8,-0.68 -89.58,-3.75 -134.73,-0.87 -35.45,2.27 -71.35,-6.45 -107.5,-4.33 -31.37,1.87 -62.81,-1.47 -94.36,1.03 -21.68,1.75 -43.68,5.62 -65.65,0.94 -28.96,-6.15 -57.13,-1.38 -83.68,9.08 -34.53,13.64 -70.76,20.75 -107.28,24.59 -46.67,4.91 -93.86,4.18 -140.85,3.66 -6.47,-0.08 -12.56,2.22 -19.49,0.27 -20.87,-5.82 -43.1,-4.88 -63.92,-12.4 -11.18,-4.03 -23.87,-5.65 -36.42,-5.86 -58.3,-1 -116.29,-7.03 -174.234,-12.37 -12.352,-1.14 -24.52,0.43 -36.758,-1.46 -25.195,-3.88 -50.305,-8.21 -75.586,-11.68 -44.176,-6.08 -88.121,-0.13 -132.18,-2.69 -40.297,-2.39 -81,0.95 -121.5,1.2 -37.004,0.26 -73.894,-3.54 -111.082,-0.96 -38.922,2.7 -78.047,4.71 -117.211,2.16 -28.082,-1.85 -56.007,-3.34 -84.132,-7.17 -50.036,-6.79 -100.086,-13.43 -149.063,-24.74 -31.2538,-7.21 -62.9687,-11.35 -94.0663,-9.73 -8.7891,0.46 -17.55864,0.98 -26.3477,1.52 v -58.35 c 19.6992,0.36 39.4453,1.84 59.0742,4.47 13.7696,1.85 27.4688,5.81 41.1958,5.81"
         style="fill:#000000;fill-opacity:1;fill-rule:nonzero;stroke:none"
         id="path20" /><path
         d="m 176.059,2359.65 c 28.105,-1.98 56.093,2.76 83.976,1.13 27.809,-1.64 55.801,-0.04 83.227,0.67 21.816,0.54 43.519,-4.31 65.691,-1.08 8.703,1.28 18.934,2.96 28.852,2.27 24.09,-1.66 49.086,-4.98 72.34,-0.89 23.328,4.1 46.296,2.1 69.035,2.53 34.027,0.64 67.519,5.32 101.304,7.11 21.137,1.14 42.004,6.26 63.418,2.87 38.582,-6.11 77.211,-10.88 116.426,-13.3 33.777,-2.08 67.293,-0.88 100.871,-0.57 23.867,0.22 48.101,7.79 71.511,5.74 37.57,-3.29 72.75,3.33 108.42,11.6 14.34,3.33 29.14,5.99 44.29,3.68 50.93,-7.82 102.52,-8.15 153.81,-8.65 37.75,-0.38 75.08,-4.92 112.73,-5.91 45.14,-1.2 90.29,-6.4 135.56,-6.86 28.96,-0.3 58.04,-0.43 86.9,1.58 43.89,3.09 86.98,-5.34 130.54,-5.95 31.17,-0.42 62.38,-1.79 93.44,-4.34 63.91,-5.25 128.07,-10.81 192.06,-9.93 44.89,0.63 89.96,0.15 134.79,0.59 49.9,0.5 100.34,0.3 150.66,-7.15 55.14,-8.17 111.49,0.26 167.22,2.44 45.8,1.78 91.57,6.41 137.41,5.49 45.14,-0.92 89.9,4.68 135,4.31 23.75,-0.2 47.73,4.56 71.77,6.02 83.1,5 163.87,18.82 246.92,24.72 59.64,4.24 113.9,19.97 172.64,28.08 24.65,3.4 47.73,14.57 73.82,11.52 41.88,-4.9 83.98,-7.94 125.8,-13.21 21.08,-2.63 42.26,-1.24 63.33,-4.46 60.72,-9.29 121.75,-7.18 182.76,-2.5 11.44,0.88 22.99,1.92 34.41,1.47 34.64,-1.37 69.05,-5.46 102.7,-13.33 19.52,-4.6 39.75,-4.39 59.07,-9.37 40.41,-10.45 81.72,-13.84 123.37,-13.86 28.37,-0.01 56.95,3.91 85.1,1.9 31.55,-2.24 63.14,-1.71 94.74,-1.95 v 65.27 c -43.51,-2.16 -86.85,-6.46 -130.4,-8.28 -35.38,-1.49 -70.65,-5.29 -106.01,-6.69 -11.29,-0.43 -23.2,3.25 -30.18,13.18 -5.63,8 -13.86,11.81 -22.22,16.54 -24.67,14 -53.48,10.13 -79.64,17.67 -15.65,4.5 -32.71,6.36 -49.14,6.39 -37.61,0.07 -75.06,-5.09 -112.82,-4.2 -32.5,0.77 -65.09,-0.38 -97.49,1.37 -47.44,2.53 -93.86,13.35 -141.78,14.26 -32.39,0.63 -65.18,7.11 -97.27,3.84 -47.12,-4.79 -94.94,-12.94 -141.53,-15.69 -49.24,-2.9 -101.82,-11.47 -149.94,-21.66 -47.33,-10.01 -95.31,-16.43 -142.92,-22.72 -52.58,-6.97 -111.95,2.26 -164.59,6.07 -46.59,3.36 -93.33,5.35 -139.92,9.18 -45.63,3.74 -91.78,6.01 -136.97,11.48 -54.59,6.63 -105.36,-0.24 -157.02,-14.29 -39.98,-10.87 -80.23,-21.02 -120.27,-31.67 -82.43,-21.95 -166.83,-18.89 -250.71,-8.39 -49.15,6.17 -97.94,14.53 -147.61,16.64 -9.67,0.4 -19.32,1.52 -28.94,2.64 -25.94,2.99 -51.72,6.61 -78.36,5.17 -40.93,-2.22 -82.3,-3.39 -123.12,-0.49 -65.36,4.65 -130.96,2.24 -196.23,9.16 -40.23,4.28 -81.36,1.4 -121.47,6.24 -64.46,7.76 -129,6.16 -193.55,6.59 -9.99,0.05 -20.35,0.67 -30.63,-0.41 -23.28,-2.44 -46.92,-6.09 -70.088,-4.6 -66.054,4.21 -132.425,6.53 -197.629,19.04 -9.621,1.83 -19.085,3.08 -28.976,2.16 -47.305,-4.47 -94.703,-7.02 -142.301,-5.16 -31.168,1.23 -62.633,4.69 -93.418,1.88 -41.937,-3.83 -83.883,-1.71 -125.801,-4.78 -54.922,-4.04 -110.316,-2.2 -165.214,-6.35 -36.375,-2.76 -72.75,-3.59 -109.083,-5.73 -27.875,-1.67 -55.6636,-7.03 -83.5191,-7.1 C 30.1133,2428.58 15.0352,2428.07 0,2427.33 v -65.27 c 20.668,-0.14 41.332,-0.63 61.9766,-2.44 37.7734,-3.33 76.0664,2.75 114.0824,0.03"
         style="fill:#000000;fill-opacity:1;fill-rule:nonzero;stroke:none"
         id="path22" /><path
         d="m 147.688,1828.19 c 62.019,-3.04 123.14,-15.83 185.75,-14.58 29.382,0.58 58.863,-3.82 88.32,-5.77 51.562,-3.41 103.086,-9.19 154.918,-3.23 25.648,2.97 53.23,0.49 76.648,8.73 28.418,10.02 55.555,14.17 85.012,10.68 16.156,-1.89 32.769,-4.85 48.656,-3.1 30.512,3.35 61.031,0.63 91.227,0.17 36.219,-0.55 72.574,-4.52 109.039,-5.01 19.962,-0.26 40.202,-6.03 59.742,-4.11 24.45,2.36 48.5,-0.07 71.94,-3.06 24.6,-3.16 48.9,0.09 72.99,-2.49 33.33,-3.53 64.82,8.31 98.24,6.72 51.14,-2.47 102.57,-0.35 153.86,1.05 9.9,0.27 18.35,-3.71 28.85,-2.75 22.92,2.16 46.54,0.63 69.5,-0.82 24.14,-1.56 48.3,-5.33 72.71,-5.96 21.29,-0.57 42.77,-0.43 63.75,-3.36 29.17,-4.05 57.72,-12.17 86.93,-15.61 19.22,-2.26 39.86,-4.98 58.61,0.88 26.42,8.24 53.6,5.87 80.08,6.49 27.2,0.63 54.86,-0.31 82.19,-0.56 41.13,-0.44 81.9,3.1 123.21,-3.16 48.12,-7.28 96.94,-5.99 145.9,-4.75 96.01,2.45 191.68,8.95 287.33,15.87 37.63,2.72 75.18,-1.79 112.89,2.21 29.36,3.08 59.23,1.5 88.92,1.25 33.47,-0.29 67.39,5.21 100.45,4.32 43.32,-1.22 87.2,9.77 130.42,14.95 49.51,5.94 94.45,10.33 138.9,33.07 35.29,18.04 73.67,33.38 113.87,37.9 41.31,4.63 71.33,-14.34 109.99,-16.07 36.53,-1.61 73.18,-1.55 109.61,-4.17 53.75,-3.87 107.49,-6.25 161.39,-7.39 70.23,-1.5 139.42,10.85 209.78,10.5 50.23,-0.23 100.9,3.08 151.33,5.37 30.63,1.43 60.01,1.52 87.15,-14.08 11.09,-6.38 23.49,-10.02 35.9,-13.17 51.86,-13.13 105.19,-14.88 158.28,-17.92 v 70.98 c -22.59,-1.86 -48.04,-6.2 -66.79,14.07 -1.38,1.49 -3.88,3.02 -5.8,2.92 -10.57,-0.41 -16.77,7.52 -21.79,13.13 -10.51,11.71 -23.37,17.07 -38.34,19.75 -33.38,5.98 -67.18,1.02 -100.85,3.5 -32.57,2.37 -65.47,2.17 -98.44,-0.85 -24.43,-2.24 -49.16,-5.09 -73.7,-5.09 -36.69,0.02 -72.84,-4.72 -108.83,-9.21 -56.25,-7.02 -111.8,-16.6 -169,-8.01 -37.33,5.59 -75.17,1.41 -112.57,-1.58 -40.32,-3.24 -79.32,-0.43 -117.44,12.99 -32.14,11.31 -81.46,25.69 -115.03,12.53 -11.63,-4.54 -19.04,-12.32 -31.96,-14.79 -20.31,-3.84 -42.47,-0.2 -63.13,-2.43 -24.97,-2.68 -45.36,-7.1 -68.9,-15.38 -35.6,-12.54 -72.31,-23.79 -110.15,-28.25 -33.2,-3.9 -66.47,-1.36 -99.82,-3.95 -34.19,-2.65 -68.89,5.37 -103.26,-2.99 -12.3,-3 -25.47,-5.12 -38.04,-4.38 -54.65,3.16 -106.35,-12.04 -158.84,-21.64 -53.51,-9.75 -106.58,-21.02 -161.25,-23.54 -37.44,-1.7 -75.08,-2.88 -111.86,-9.78 -34.84,-6.54 -69.48,3.97 -104.23,-1.64 -11.4,-1.83 -21.26,8.2 -32.65,10.94 -56.46,13.57 -113.91,6.47 -170.68,5.33 -41.4,-0.83 -83.11,-4.67 -124.67,-7.83 -7.96,-0.61 -14.29,1.5 -21.62,5.83 -15.86,9.42 -31.34,19.35 -49.76,25.49 -24.06,8.02 -48.95,6.27 -73.19,10.76 -35.19,6.5 -69.58,17.49 -106.2,16.78 -10.46,-0.21 -21.05,-0.99 -31.75,1.16 -28.4,5.63 -57.92,9.14 -86.23,5.86 -25.87,-2.98 -52.06,-0.19 -77.62,-5.87 -8.11,-1.85 -16.83,-2.48 -25.15,-1.89 -19.61,1.45 -38.72,-1.23 -57.99,-3.93 -29.18,-4.12 -58.93,-12.34 -87.62,-9.98 -42.32,3.47 -84.63,-2.25 -126.75,3.62 -24.29,3.39 -49.26,-2.85 -73.6,1.67 -41.22,7.64 -82.372,7.37 -123.575,0.85 -12.434,-2 -23.93,-0.87 -35.922,2.88 -11.582,3.64 -24.024,6.78 -36.106,6.84 -39.504,0.26 -79.097,0 -118.562,-1.95 -32.344,-1.6 -64.457,-6.93 -96.797,-8.82 -61.754,-3.59 -123.481,1.3 -185.211,2.53 -17.692,0.36 -35.586,-2.57 -53.207,1.27 -59.817,13 -120.977,5.13 -181.309,10.38 -28.468,2.49 -57.043,2.9 -85.707,2.22 -33.9646,-0.76 -67.8123,2.38 -102.04666,1.01 C 5.41016,1908.63 2.73047,1908.43 0,1908.21 v -70.97 c 12.6641,-0.73 25.3125,-1.5 37.9297,-2.55 36.3516,-3 73.1333,-4.7 109.7583,-6.5"
         style="fill:#000000;fill-opacity:1;fill-rule:nonzero;stroke:none"
         id="path24" /><path
         d="m 174.934,720.359 c 32.949,-1.179 64.816,3.313 96.957,6.871 35.492,3.95 70.808,8.149 106.687,6.801 22.715,-0.812 44.442,4.059 66.641,9.75 33.898,8.668 69.211,12.578 104.011,17.989 10.497,1.621 21.336,1.109 31.93,2.261 46.274,5.09 91.297,-6.121 136.961,-8.832 24.539,-1.441 49.106,-0.961 73.738,-3.597 38.762,-4.192 77.481,-8.864 116.739,-9.653 28.332,-0.551 55.328,7.16 83.703,5.922 52.919,-2.32 106.129,-4.152 158.949,-1.543 31.85,1.543 63.72,2.641 95.49,3.09 49.79,0.672 99.57,-6.199 149.38,-2.066 23.41,1.918 46.33,-3.411 70.18,-0.321 14.87,1.91 32.04,-3.551 48.09,-3.121 59.91,1.539 119.7,6.059 179.6,-0.558 35,-3.883 70.24,2.558 105.42,-1.422 35.75,-4.051 71.74,1.332 107.57,-0.551 18.93,-1 37.82,-2.879 56.73,-4.117 33.42,-2.114 66.84,-4.852 100.31,-5.774 20.26,-0.527 40.39,-3.578 61.15,1.41 21.4,5.122 44.12,9.153 66.16,0.774 24.02,-9.141 48.87,-7.621 74.03,-7.024 21.08,0.5 40.82,5.672 61.17,8.711 31.01,4.61 62.85,1.743 94.36,5.051 30.18,3.18 59.43,10.5 89.4,14.539 29.66,4 59.16,3.91 88.6,4 37.57,0.121 74.25,-9.808 112.98,-5.32 26.57,3.07 54.45,-0.328 81.35,4.59 72.21,13.222 146.24,3.793 218.62,16.23 2.48,0.422 4.98,0.731 7.48,1.102 1.5,-3.391 5.6,-5.16 9.03,-5.071 14.78,0.481 28.09,-5.742 42.22,-7.601 31.3,-4.16 61.36,2.801 88.9,15.801 17.24,8.121 35.09,8.25 50.58,4.039 23.11,-6.25 44.71,-17.75 68.31,-23.84 13.96,-3.578 27.54,-10.27 41.64,-11.371 28.6,-2.227 56.93,-0.867 85.46,6.562 20.69,5.379 42.42,13.321 65.54,5.34 36.37,-12.57 74.42,-17.82 112.87,-22.308 30.24,-3.571 60.57,-1.563 90.77,-5.411 26.35,-3.351 53.59,-5.179 79.87,-2.621 29.05,2.828 57.99,6.02 87.15,8.141 16.7,1.23 33.5,-0.313 49.97,2.059 57.85,8.371 115.64,17.492 174.45,15.808 56.84,-1.637 112.58,-11.976 168.49,-20.297 5.79,-0.859 11.61,-1.801 17.4,-2.73 v 55.539 c -0.07,0.012 -0.13,0.012 -0.18,0.031 -33.15,4.707 -65.35,14.43 -99.39,15.008 -29.68,0.5 -58.95,6.34 -88.63,8.211 -15.44,0.961 -29.93,-3.199 -45.13,-2.141 -35.51,2.481 -70.47,-2.551 -105.58,-7.371 -27.58,-3.789 -54.83,-10.058 -83.27,-9.226 -25.27,0.718 -50.53,4.148 -75.37,4.168 -38.6,0.019 -77.37,-5.969 -115.72,-11.418 -27.05,-3.84 -54.66,-2.59 -77.25,8.488 -45.31,22.16 -92.87,30.351 -142.26,28.969 -34.62,-0.969 -65.29,0.191 -99.03,-5.938 -37.14,-6.73 -81.95,4.09 -118.34,11.481 -40.71,8.25 -77.33,31.718 -119.79,34.988 -25.16,1.93 -50.03,-2.988 -75,-4.57 -38.2,-2.43 -76.87,0.66 -115.12,-0.649 -45.43,-1.551 -90.88,-1.621 -136.28,-3.101 -55.48,-1.821 -106.39,-14.981 -159.62,-28.911 -61.3,-16.031 -121.93,-32.32 -186.03,-33.718 -34.28,-0.75 -68.82,-0.582 -101.84,-11.129 -8.7,-2.793 -16.11,-1.442 -24.52,0.617 -30.96,7.609 -61.71,15.301 -94.59,8.242 -22.97,-4.93 -46.85,-7.633 -70.49,-3.922 -22.27,3.5 -45.93,-2.371 -66.91,5.461 -63.53,23.629 -131.01,22.551 -197,30.84 -26.26,3.289 -52.15,-5.801 -78.36,-2.648 -47.42,5.707 -95.2,9.097 -142.71,5.726 -64.99,-4.637 -130.12,-3.098 -195.14,-7.098 -51.36,-3.171 -102.97,-2.671 -154.47,-3.812 -21.47,-0.457 -43.25,1.102 -64.32,-1.797 -29.41,-4.043 -58.46,-5.402 -88.14,-3.84 -37.46,1.981 -74.71,9.129 -112.64,3.27 -36.35,-5.641 -73.338,-6.641 -108.987,3.219 -25.261,6.96 -49.922,6.89 -74.867,2.019 -29.976,-5.828 -58.91,-7.258 -85.82,9.813 -2.637,1.668 -6.496,1.597 -9.719,2.507 -36.305,10.309 -73.758,11.871 -111.281,12.821 -39.621,1 -79.129,4.019 -118.84,-1.93 -10.703,-1.609 -22.781,-1.871 -33.828,-3.102 -18.258,-2.027 -37.074,0.391 -54.809,-5.109 -12.933,-4.027 -26.074,-5.668 -39.621,-5.5 -25.332,0.262 -50.527,-2.48 -75.07,-7.551 -34.41,-7.097 -69.481,-8.828 -104.145,-13.648 -32.765,-4.59 -65.871,-5.949 -98.527,-12.809 C 69.5078,785.441 34.6445,782.672 0,787.59 v -55.531 c 22.4258,-3.598 44.918,-7.188 67.2773,-6.989 36.0777,0.34 71.8007,-3.422 107.6567,-4.711"
         style="fill:#000000;fill-opacity:1;fill-rule:nonzero;stroke:none"
         id="path26" /><path
         d="m 83.6367,225.59 c 40.7223,-0.942 81.5153,1.461 122.2853,1.32 23.773,-0.07 46.789,5.192 70.293,6.5 30.582,1.68 61.031,4.699 91.226,9.309 45.618,6.961 91.954,8.453 137.586,7.84 47.918,-0.59 95.696,-10.11 143.496,-16.168 42.821,-5.43 85.688,-10.77 128.329,-17.411 35.043,-5.468 71.058,0.29 105.699,-9.289 10.203,-2.82 20.98,-4.55 31.594,-5.16 102.135,-5.992 204.385,-7.312 306.655,-4.613 46.05,1.25 92.09,4.031 138.09,5.344 34.95,1 69.79,3.316 104.45,6 65.09,5.066 130.29,9.789 195.44,10.547 48.8,0.582 97.21,6.55 146.29,4.543 48.62,-1.993 97.41,5.777 146.11,8.468 62.04,3.399 124.45,0.758 186.6,6.321 42.38,4.339 82.4,17.117 124.3,21.8 34.05,3.797 67.76,1.84 101.8,6.579 39.6,5.492 80.84,4.761 120.75,5.519 40.88,0.813 81.99,-4.609 122.8,-3.141 52.65,1.891 105.05,-0.73 157.53,-1.628 24.73,-0.442 50.01,-4.309 74.03,-0.661 43.79,6.629 86.08,6.653 129.66,-2.57 46.86,-9.918 95.56,-12.129 142.23,-22.519 37.39,-8.329 73.81,-11.86 111.49,-6.262 2.73,0.402 5.81,0.402 8.38,-0.406 32.64,-10.133 66.24,-11.211 100,-8.973 52.2,3.461 104.14,-2.59 156.25,-2.609 57.8,-0.059 115.53,0.371 173.35,1.82 84.03,2.109 168.06,4.84 252.15,6.18 63.94,1.039 127.7,1.57 191.49,-2.18 19.58,-1.149 39.62,1.219 58.72,-1.25 29.72,-3.86 59.56,-2.219 89.26,-4 v 85.398 c -24.74,-2.07 -49.47,-4.148 -74.24,-2.707 -33.01,1.918 -65.96,2.367 -98.6,-1.761 -51.67,-6.571 -103.5,-12.93 -155.25,-17.93 -61.32,-5.942 -123.5,-3.91 -185.28,-5.649 -41.56,-1.171 -83.09,-3.941 -124.64,-4.121 -47.63,-0.25 -95.23,1.93 -142.92,-1.25 -41.06,-2.75 -82.06,-4.89 -123,-9.5 -20.6,-2.332 -42.89,-6.922 -63.47,1.18 -16.25,6.449 -32.85,5.301 -49.48,5.301 -7.53,-0.02 -13.87,0.461 -20.18,5.398 -17.56,13.641 -39.41,16.321 -60.98,20.281 -24.14,4.45 -49.11,3.348 -72.71,11.098 -34.41,11.32 -70.07,15.402 -106.43,14.453 -9.67,-0.269 -19.7,-0.312 -28.02,4.321 -14.51,8.078 -30.72,9.707 -46.5,13.277 -42.63,9.742 -86.18,11.312 -129.71,13.5 -21.3,1.051 -43.08,-1.461 -63.59,0.891 -52.18,5.96 -104.59,3.152 -156.76,5.3 -26.55,1.11 -54.7,6.258 -81.61,-1.039 -14.94,-4.051 -28.5,6.559 -43.25,2.699 -21.27,-5.609 -43.06,-2.781 -64.49,-2.21 -43.23,1.121 -88.44,-21.59 -132.19,-26.418 -31.54,-3.524 -63.9,-3.661 -95.73,-5.774 -46.9,-3.09 -93.8,-5.457 -141.02,-3.629 -50.82,1.961 -101.66,-2.301 -152.5,-4.64 -25.54,-1.18 -51,-3.887 -76.6,-4.789 -33.2,-1.149 -66.29,-8.61 -99.1,-14.86 -30.92,-5.93 -61.05,-16.308 -92.18,-20.34 -54.87,-7.101 -110.04,-12.5 -165.39,-15.992 -77.24,-4.859 -154.33,-11.859 -231.75,-12.558 -64,-0.571 -127.27,-12.149 -191.767,-7.02 -55.262,4.371 -107.93,18.93 -161.813,28.488 -23.054,4.102 -44.019,14.614 -67.297,17.84 -13.273,1.832 -26.527,4.121 -39.574,7.031 -40.883,9.09 -81.472,19.282 -122.488,27.672 -34.598,7.11 -70.406,2.668 -105.199,6.848 -54.879,6.551 -109.715,1.461 -164.43,1.5 -47.691,0.051 -95.469,-3.66 -143.223,-7.84 C 127.629,322.781 76.918,315.699 25.7383,312.262 17.1523,311.691 8.58984,310.961 0,310.238 V 224.84 c 3.78906,-0.219 7.57422,-0.488 11.3398,-0.86 24.0196,-2.261 48.0704,2.141 72.2969,1.61"
         style="fill:#000000;fill-opacity:1;fill-rule:nonzero;stroke:none"
         id="path28" /><path
         d="m 125.895,3952.91 c 60.289,3.93 120.777,-0.37 181.375,2.38 63.46,2.89 127.293,5.3 191.113,3.33 58.914,-1.86 117.847,2.08 176.937,-1.33 44.285,-2.56 88.571,10.08 133.575,3.16 29.324,-4.51 59.164,-0.87 88.64,0.89 32.903,1.96 66.078,-1.13 98.778,4.76 36.327,6.56 73.177,3.31 109.777,3.63 14.9,0.12 30.2,-2.21 45.07,-4.16 24.93,-3.26 50.6,-1.45 74.83,-7.1 43.56,-10.1 88,-8.98 131.95,-10.82 66.57,-2.74 133.33,-3.62 199.93,4.5 32.2,3.92 64.99,3.42 97.51,5.06 12.31,0.62 24.45,-0.73 36.98,0.54 29.57,3.03 59.82,6.82 89.14,4.09 38.83,-3.61 77.28,-1.23 115.77,-0.14 45.46,1.29 90.87,1.55 136.33,1.75 40.79,0.19 81.92,-2.13 122.31,6.2 0.22,-0.04 0.45,-0.1 0.67,-0.12 14.89,-1.82 28.2,2.18 42.28,1.93 36.1,-0.66 71.13,-9.48 107.1,-12.22 51.29,-3.91 102,-1.07 153.06,1.88 29.64,1.72 59.73,5.2 89.05,3.5 59.76,-3.52 119.24,-2.77 178.82,0.64 75.81,4.31 151.39,3.32 225.65,-13.08 44.15,-9.75 88.34,-6.4 132.49,-4.3 55.78,2.67 110.86,14.37 167.14,11.81 52.21,-2.39 103.5,4.2 154.39,14.9 17.52,3.68 35.55,7.1 53.63,3.29 69.12,-14.55 139.05,-22.63 209.02,-24.96 52.49,1.24 104.15,5.33 155.94,3.46 30.76,-1.1 62.02,-5.16 92.17,-2.66 36.99,3.07 72.99,-4.13 110.07,-1.73 36.54,2.38 74.4,0.6 111.74,-1.58 37.41,-2.2 74.93,2.22 112.84,1.35 v 85.94 c -8.47,0.41 -16.92,0.73 -25.38,0.52 -40.99,-0.97 -81.96,-4.03 -122.73,3.08 -6.54,1.16 -13.77,2.06 -20.06,0.65 -25.25,-5.63 -51,-2.27 -76.33,-4.8 -18.71,-1.87 -36.87,2.53 -55.56,1.87 -38.65,-1.39 -75.51,-12.96 -114.13,-15.11 -49.17,-2.73 -97.08,-17.33 -146.37,-18.55 -41.09,-1 -82.71,-6.28 -123.41,6.96 -19.99,6.5 -42.28,-0.07 -63.13,6.56 -8.25,2.62 -16.11,8.82 -25.5,7.03 -24.16,-4.61 -48.1,0.32 -72.1,1.04 -29.46,0.91 -58.99,4.71 -88.29,3.27 -26.43,-1.31 -52.52,4.15 -78.6,1.55 -34.98,-3.49 -69.79,-8.5 -104.57,-13.69 -9.34,-1.39 -18.59,-0.57 -28.17,-2.35 -21.17,-3.94 -42.8,-4.79 -64.23,3.01 -21.59,7.83 -43.7,14.71 -66.64,18.71 -6.09,1.05 -12.01,-0.34 -18.23,1.49 -30.68,9.02 -62.03,14.51 -94.39,13.66 -11.77,-0.32 -23.94,-1.58 -35.22,0.7 -33.92,6.86 -67.89,2.14 -101.76,1.99 -37.35,-0.16 -73.33,-9.11 -109.35,-18.06 -40.53,-10.07 -81.38,-18.91 -123.12,-23.88 -15.62,-1.86 -31.87,0.55 -46.81,-4.7 -25.89,-9.11 -52.67,-6.4 -78.51,-3.46 -21.1,2.4 -44.05,3.72 -61.69,18.32 -24.32,20.11 -53.69,11.87 -80.45,9.85 -13.35,-1 -28,-5.62 -42.03,-8.33 -7.94,-1.55 -15.83,-3.28 -23.61,-5.21 -5.72,1.67 -11.46,2.9 -17.19,3.08 -62.61,1.76 -125.46,5.3 -187.84,1.91 -54.95,-2.99 -109.92,-6.95 -164.9,-10.07 -34.65,-1.95 -69.47,-1.64 -104.04,-4.28 -16.83,-1.28 -33.49,0.86 -50.16,-0.67 -42.4,-3.88 -84.72,-9.08 -127.2,-11.37 -36.92,-1.99 -74.08,0.03 -111.09,-1.11 -32.56,-1.02 -65.06,-4.9 -97.63,-0.94 -24.97,3.04 -48.99,10.65 -73.36,15.56 -35.92,7.22 -73.4,8.69 -110.31,10.2 -51.55,2.13 -102.66,-8.44 -154.853,-2.81 -34.8,3.74 -70.5,4.46 -105.207,8.64 -46.648,5.65 -93.05,10.5 -140.109,12.5 -41.129,1.76 -82.305,1.55 -123.457,3.9 -52.441,3.02 -105.406,3.36 -157.984,-0.32 -43,-2.98 -86.133,0.08 -129.137,-5.54 -24.61,-3.22 -50.164,0.43 -75.246,-0.18 -67.883,-1.64 -135.7425,-3.57 -203.6682,-1.93 -9.3985,0.23 -18.82036,0.84 -28.2188,1.31 v -85.94 c 5.29688,-0.12 10.6133,-0.34 15.9375,-0.7 36.1211,-2.47 73.2227,-0.56 109.9575,1.85"
         style="fill:#000000;fill-opacity:1;fill-rule:nonzero;stroke:none"
         id="path30" /><path
         d="m 2955.74,156.109 c -5.14,57.2 2.39,114.602 3.2,171.993 0.7,49.148 4.01,98.566 6.61,147.828 0.64,12.629 3.89,26.031 -0.3,38.941 -11.27,34.707 -13.02,71.699 -22.96,106.731 -2.31,8.097 -3.97,16.816 -3.95,25.226 0.16,32.25 -4.1,64.731 5.25,96.57 1.99,6.801 -0.05,14.84 0.47,22.25 1.62,22.653 -2.29,45.813 4.81,68 8.04,24.993 14.22,51.114 14.85,76.903 1.44,61.14 10.52,121.579 9.89,182.959 -0.65,64.5 -3.18,129.04 -11.85,192.27 -8.1,59.16 -13.8,118.72 -20.96,177.88 -6.63,54.64 -10.3,110.27 -13.66,165.6 -1.64,26.85 -5.74,53.53 -7.77,80.37 -2.08,27.69 -6.95,56.09 -3.38,83.14 4.39,33.57 5.53,67.83 14.03,100.86 8.59,33.38 5.61,67.75 7.35,101.8 2.01,39.49 3.92,78.86 2.97,118.42 -0.76,31 -0.6,62.06 -0.62,93.09 -0.03,33.29 4.24,65.45 22.11,94.06 14.68,23.5 23.77,49.46 28.73,77.02 3.6,20.01 5.32,40.49 9.92,60.2 9.91,42.58 24.31,84.02 25.28,128.64 0.86,40.46 -2.86,77.08 -17.71,114.09 -14.27,35.6 -11.74,82.27 -16.86,120.64 -3.72,27.95 -15.08,54.27 -17.61,82.48 -2.07,23.22 1.97,50.91 3.55,74.45 2,30.37 -0.12,61.01 -4.26,90.28 -5.16,36.27 -9.04,72.82 -14.59,109.09 -8.15,53.39 -10.39,107.7 -17.48,161.18 -7.15,53.85 -8.09,108.02 -12.89,161.93 -3.5,39.16 -5.3,78.63 -11.7,117.27 -3.65,22.01 -0.88,40.09 9.62,58.46 5.5,9.65 13.68,18.61 16.54,28.63 11.41,40.23 22.49,81.18 22.54,123.45 0.05,49.49 3.07,98.86 2.62,148.46 -0.7,75.53 -2.55,151.13 -1.08,226.72 0.43,22.75 -1.99,45.31 -4.09,67.98 h -96.81 c -0.79,-17.8 -1.49,-35.62 -1.88,-53.42 -1.03,-47.96 -0.78,-96.1 1.9,-143.97 1.48,-26.68 0.34,-53.24 1.13,-79.85 1.1,-37.72 1.33,-75.6 5.22,-113.04 4,-38.03 -0.86,-76.04 2.98,-113.9 2.41,-24.02 -6.02,-46.83 -6.78,-70.74 -1.38,-42.12 0.08,-84.14 -0.71,-126.16 -0.42,-22.05 6.05,-42.85 7.13,-64.38 2.81,-55.36 5.23,-110.79 6.51,-166.23 1.24,-54.25 1.28,-108.49 4.44,-162.72 2.21,-38.01 1.03,-76.26 0.84,-114.41 -0.14,-29.05 -0.77,-57.92 2.16,-87.01 2.75,-27.13 -0.56,-54.91 1.62,-82.15 2.23,-28.05 11.09,-55.2 13.05,-82.9 3.78,-53.2 -10.37,-106.77 -7.68,-160.32 2,-39.43 -2.12,-79.03 4.3,-118.4 1.39,-8.58 2.05,-18.46 -1.42,-28.23 -16.72,-47.03 -28.02,-95.5 -34.71,-145.38 -5.05,-37.77 -6.6,-75.86 -9.53,-113.67 -3.07,-39.4 -0.22,-79.47 -1.08,-119.27 -0.73,-33.56 -1.13,-67.17 0.51,-100.86 1.83,-37.5 -3.31,-75.1 -4.25,-112.78 -1.45,-55.99 5.61,-111.17 9.15,-166.64 2.41,-37.44 10.11,-74.41 12.73,-112.03 2.95,-42.11 7.64,-84.03 7.76,-126.4 0.02,-17.01 1.62,-33.78 -0.68,-50.94 -1.96,-14.51 5.14,-28.77 3.54,-44.06 -5.95,-57.27 -5.17,-115.04 0.2,-171.94 4.04,-42.91 7.73,-85.55 7.52,-128.57 -0.15,-29.59 2.76,-59.05 3.05,-88.52 0.38,-37.17 -6.76,-74.06 -6.5,-111.521 0.23,-28.868 -3.78,-57.739 -4.57,-86.637 -1.35,-48.363 -8.49,-96.192 -10.52,-144.402 -0.93,-21.762 -8.38,-42.782 -4.06,-65.43 2.93,-15.301 4.26,-33.012 -0.13,-47.449 -8.48,-27.891 -5.12,-55.563 -1.31,-82.25 5.68,-39.922 3.36,-79.75 4.39,-119.563 0.61,-22.59 -2.41,-45.789 -0.77,-68.297 4.13,-55.883 4.74,-111.66 2.06,-167.551 -1.77,-36.6714 -3.97,-73.3198 -5.61,-109.98 h 96.83 c -1.69,18.0703 -3.17,36.2305 -2.86,54.6289 0.57,33.3828 -0.74,67.6091 -3.78,101.4801"
         style="fill:#000000;fill-opacity:1;fill-rule:nonzero;stroke:none"
         id="path32" /><path
         d="m 3504.29,144.059 c 5.22,36.461 9.01,73.211 10.68,109.652 1.5,33.617 -1.17,68.078 -1.98,102.051 -1.4,58.957 -1.9,118.019 -4.06,176.918 -1.83,49.828 -3.9,99.8 -10.39,149.281 -3.81,28.898 -2.59,58.039 -5.43,86.879 -4.64,47.48 -12.91,94.539 -15.62,142.289 -0.16,2.711 -1.36,5.391 -2.12,8.062 -11.49,40.809 -12.03,81.669 1.71,121.769 11.07,32.37 12.11,66.67 18.47,99.92 4.88,25.54 1.14,51.88 4.43,77.98 2.71,21.47 7.64,42.56 9.6,63.88 4.19,45.28 5.65,90.86 8.27,136.32 1.58,27.32 1.31,54.59 -0.74,81.87 -1.55,20.32 2.03,40.75 0.63,61.25 -0.94,13.77 0.56,27.79 0.16,41.72 -0.74,25.69 -4.06,51.1 -5.82,76.68 -4.37,63.77 -5.47,125.98 -4.76,190.14 0.35,33.11 -0.67,66.29 1.93,99.25 4.36,55.75 0.85,111.67 4.36,167.34 1.4,22.14 -1.1,43.97 -0.62,66 0.54,23.92 6.12,47.32 6.55,70.62 0.59,31.7 2.57,63.48 1.05,95.35 -2.22,46.16 6.67,91.79 9.37,137.79 3.6,61.19 -9.27,119.71 -15.44,179.3 -3.79,36.66 -10.64,72.97 -16.23,109.38 -5.58,36.26 -0.57,73.29 -5.45,109.25 -6.9,50.68 -5.01,101.07 -2.32,151.66 0.27,5.14 1.24,9.81 4.57,14.18 9.99,13.04 13.82,29.27 18.52,44.98 6.81,22.91 1.79,46.56 3.81,69.67 5.55,63.39 0.23,126.7 0.48,190.03 0.11,37.18 -6.02,73.96 -9.56,110.89 -4.03,42.12 -6.04,84.55 -7.66,127 -2.18,57.05 4.66,113.24 7.52,169.81 1.18,23.1 6.95,45.76 8.91,68.47 4.26,49.6 -2.34,98.97 -11.38,147.85 -4.94,26.64 -11.83,52.76 -12.26,80.46 -0.73,46.44 1.17,92.89 0.11,139.21 -0.25,10.94 -0.15,21.85 -0.04,32.76 h -70 c -0.09,-4.13 -0.18,-8.28 -0.28,-12.43 -0.22,-9.04 2.41,-17.69 1.63,-27.15 -4.71,-56.38 -5.23,-112.4 9.31,-167.88 7.57,-28.87 15.12,-59.07 14.92,-88.6 -0.25,-39.53 -3.68,-79.37 -9.61,-118.78 -4.75,-31.38 -8.05,-63.31 -8.67,-95.06 -1.02,-50.6 0.31,-101.27 1.42,-151.89 0.56,-25.43 0.99,-51.07 2.79,-76.22 3.34,-46.63 4.33,-93.05 3.25,-139.68 -0.97,-43.24 -3.72,-86.5 -2.03,-129.78 0.24,-6.81 2,-13.61 1.85,-20.39 -0.95,-38.42 -2.19,-76.85 -3.52,-115.28 -0.81,-23.92 -4.91,-48.18 -2.26,-71.59 3.88,-34.11 12.43,-67.24 13.08,-102.35 0.77,-42.56 1.26,-85.26 4.67,-127.91 2.07,-25.77 4.03,-51.81 4.79,-77.84 1.14,-37.94 4.69,-75.85 -2.12,-113.69 -7.74,-43.06 -8.74,-86.99 -13.22,-130.49 -4.56,-44.19 -4.17,-89 -9.7,-133 -3.87,-30.8 -2.79,-61.86 -7.77,-92.44 -6.15,-37.74 -2.84,-76.17 -6.1,-114.14 -3.23,-37.28 -10.77,-74.68 -7.96,-111.89 3.87,-50.95 1.58,-101.72 0.05,-152.36 -0.77,-25.52 0.74,-51 1.71,-76.47 0.99,-25.68 -2.82,-53.08 -0.3,-78.39 1.69,-16.84 11,-31.94 15.29,-48.26 6.77,-25.82 14.17,-52.21 17.3,-78.87 3.41,-29.2 0.88,-58.63 -1.62,-87.51 -2.41,-28.33 -0.23,-57.27 -1.85,-85.85 -1.82,-31.96 -5.72,-63.88 -5.72,-95.78 0,-68.97 3.29,-137.92 -6.06,-206.62 -6.12,-44.83 -2.6,-89.95 -0.38,-135.001 1.36,-27.961 7.77,-55.238 6.57,-83.539 -2.38,-56.461 -1.12,-112.988 0.7,-169.469 1.76,-54.402 3.34,-108.793 4.71,-163.18 1.17,-45.8 2.73,-91.589 2.51,-137.382 -0.1,-23.969 2.27,-47.84 2,-71.68 -0.43,-40.949 -10.19,-81.149 -11.79,-121.899 -0.81,-19.98 -7.89,-39.402 -4.48,-59.351 3.52,-20.438 2.47,-41.258 1.07,-61.27 C 3424.93,80.3984 3424.43,40.1914 3423.54,0 h 70 c 0.38,48.3789 3.94,96.3711 10.75,144.059"
         style="fill:#000000;fill-opacity:1;fill-rule:nonzero;stroke:none"
         id="path34" /><path
         d="m 1377.86,167.039 c 2.71,38.91 4.71,78.039 2.14,117.211 -1.82,28.09 -3.33,56.012 -7.16,84.141 -6.77,50.019 -13.41,100.07 -24.72,149.039 -7.22,31.269 -11.36,62.968 -9.74,94.05 2.52,48.59 6.4,97.09 8.52,145.758 2,46.391 9.01,92.524 8.27,139.09 -0.52,31.711 0.63,63.34 2.7,94.961 2.08,31.881 -0.49,64.161 -5.05,95.091 -3.58,24.32 -6.49,49.52 -13.25,73.65 -5.47,19.73 -6.87,39.56 -3.11,60.99 3.58,20.38 -1.44,42.38 -1.98,63.66 -0.83,33.51 -3.65,67.29 -0.97,100.5 3.13,38.45 2.61,77.02 6.49,115.46 3.22,31.72 4.69,63.89 15.69,93.51 10.59,28.5 18.43,56.9 21.52,87.56 1.53,15.24 2.68,31.14 7.1,46.34 5.07,17.38 11.15,35.17 12.01,53.04 2.1,44.32 -4.3,88.17 -18.75,129.69 -13.93,40.1 -20.3,81.89 -29.64,123.05 -10.16,44.65 -8.2,91.08 -16.76,136.04 -6.04,31.53 1.64,63.5 -2.78,95.45 -4.12,29.73 -0.36,60.94 -7.5,90.04 -6.85,27.89 -15.14,54.36 -5.18,83.16 8.18,23.66 9.87,49.31 28.24,69.52 11.1,12.22 16.2,31.22 15.77,49.69 -0.32,13.48 -2.7,26.94 -2.57,40.39 0.14,11.19 -0.83,21.66 4.37,33.71 14.27,33.08 24.97,69.99 31.26,105.7 4.17,23.63 -1.55,48.82 -1.55,72.65 0.02,5.1 -0.07,10.16 0.11,15.22 1.11,29.51 -1.19,58.97 -1.62,88.35 -0.7,44.81 -3.77,89.59 -0.88,134.73 2.27,35.44 -6.45,71.34 -4.33,107.49 1.87,31.39 -1.49,62.82 1.04,94.37 1.75,21.68 5.61,43.69 0.94,65.66 -6.17,28.95 -1.39,57.13 9.09,83.66 13.63,34.55 20.73,70.78 24.56,107.29 4.91,46.68 4.2,93.85 3.65,140.85 -0.06,6.47 2.24,12.55 0.3,19.5 -5.82,20.86 -4.92,43.08 -12.4,63.9 -4.03,11.19 -5.65,23.87 -5.86,36.43 -1.01,58.31 -7.05,116.29 -12.37,174.25 -1.15,12.35 0.4,24.5 -1.47,36.74 -3.87,25.21 -8.2,50.31 -11.69,75.6 -6.09,44.16 -0.11,88.12 -2.68,132.17 -1.29,21.77 -0.91,43.66 -0.23,65.58 h -68.6 c 0.42,-6.18 1.03,-12.36 1.96,-18.54 1.82,-12.03 2.41,-24.45 2.12,-36.63 -0.68,-23.98 -2.12,-47.94 -3.7,-71.87 -1.96,-29.68 5.3,-58.97 0.9,-89.12 -3.67,-25.02 -4.55,-51.63 -0.69,-76.47 8.58,-55.23 7.14,-110.89 10.14,-166.32 2.47,-46.38 2.05,-93.07 0.45,-139.53 -1.24,-35.34 7.93,-69.54 4.39,-105.4 -5.86,-59 -5.9,-118.61 -10.32,-177.79 -5.43,-72.09 4.03,-143.47 8.02,-214.97 2.71,-48.1 -0.16,-95.9 1.35,-143.82 1.2,-38.07 -1.53,-76.23 2.6,-114.35 1.19,-11.02 2.45,-22.02 4.1,-32.91 -18.15,-25.99 -10.98,-55.41 -5.28,-83.16 2.64,-12.88 3.95,-24.89 -0.45,-35.79 -10,-24.95 -12.95,-50.77 -13.5,-77.36 -0.4,-17.92 3.27,-38.11 -3.22,-53.21 -11.45,-26.52 -21.77,-53.06 -30.17,-80.84 -10.17,-33.46 -16.91,-67.03 -16.25,-102.36 0.58,-29.61 5.47,-58.77 7.11,-88.13 3.21,-56.6 1.06,-113.33 0.48,-170.05 -0.63,-59.29 5.12,-118.63 4.49,-177.9 -0.52,-45.69 2.47,-91.31 0.67,-137.07 -0.81,-20.45 -0.84,-42.05 7.3,-62.64 11.07,-27.95 15.24,-56.5 8.81,-88.01 -4.8,-23.47 -8.94,-48.05 -7.77,-73.08 2.32,-48.01 2.88,-96.12 -0.04,-144.16 -1.45,-23.52 -3.41,-47.02 -4.09,-70.57 -1.69,-61.72 7.38,-123.22 3.09,-185.07 -1.01,-14.92 1.58,-30.18 2.01,-45.17 0.86,-30.24 5.32,-60 7.84,-89.99 2.19,-26.2 2.21,-52.44 0.72,-78.44 -1.12,-19.47 -4.08,-39.602 -0.61,-58.109 9.02,-48.161 5.48,-95.871 -0.09,-143.551 -4.69,-40.039 -2.65,-80.309 -6.99,-120.512 -4.23,-39.488 -3.53,-80.168 1.86,-120.297 1.84,-13.773 5.81,-27.461 5.81,-41.191 0,-35.301 4.58,-70.199 9.08,-104.828 6.74,-51.672 8.54,-103.41 8.27,-155.262 -0.2,-32.52 -4.96,-65.02 -4.98,-97.52 0,-39.839 4.12,-79.66 3.94,-119.4917 -0.08,-20.2188 -0.81,-40.3594 0.64,-60.4883 h 68.6 c 0.56,18.6484 1.31,37.3203 1.44,55.9297 0.25,37.0391 -3.56,73.9023 -0.97,111.1093"
         style="fill:#000000;fill-opacity:1;fill-rule:nonzero;stroke:none"
         id="path36" /><path
         d="m 2451.77,109.031 c -3.83,41.938 -1.71,83.879 -4.78,125.789 -4.03,54.91 -2.2,110.328 -6.34,165.239 -2.76,36.351 -3.58,72.73 -5.74,109.05 -1.67,27.891 -7.01,55.68 -7.1,83.52 -0.18,58.75 -7.12,117.012 -9.58,175.57 -1.48,35.371 -5.27,70.641 -6.69,106.02 -0.43,11.301 3.26,23.203 13.19,30.172 8.01,5.629 11.8,13.871 16.54,22.23 13.99,24.688 10.14,53.469 17.69,79.639 4.49,15.65 6.33,32.7 6.37,49.12 0.07,37.63 -5.09,75.09 -4.21,112.83 0.79,32.49 -0.36,65.09 1.38,97.51 2.54,47.41 13.36,93.87 14.26,141.76 0.63,32.38 7.1,65.19 3.84,97.28 -4.79,47.12 -12.92,94.96 -15.69,141.53 -2.91,49.23 -11.45,101.83 -21.64,149.96 -10.03,47.32 -16.45,95.29 -22.73,142.9 -6.98,52.59 2.24,111.94 6.05,164.62 3.38,46.55 5.37,93.29 9.18,139.89 3.76,45.62 6.02,91.8 11.5,136.97 6.64,54.59 -0.24,105.38 -14.3,157.03 -10.86,39.98 -21.03,80.22 -31.66,120.28 -21.95,82.41 -18.91,166.81 -8.39,250.7 6.16,49.15 14.52,97.94 16.64,147.62 0.4,9.65 1.5,19.3 2.64,28.92 3,25.94 6.6,51.74 5.17,78.37 -2.24,40.93 -3.41,82.3 -0.51,123.13 4.66,65.34 2.27,130.95 9.18,196.21 4.27,40.23 1.39,81.36 6.22,121.48 7.77,64.45 6.17,129.01 6.6,193.55 0.07,9.98 0.69,20.35 -0.38,30.62 -2.46,23.29 -6.12,46.93 -4.63,70.1 4.22,66.06 6.54,132.43 19.04,197.62 1.83,9.63 3.1,19.1 2.17,29 -3.99,42.13 -6.24,84.35 -5.43,126.71 h -82.33 c 1.26,-14.21 2.52,-28.39 3.29,-42.65 1.13,-21.15 6.25,-42.02 2.87,-63.43 -6.12,-38.58 -10.89,-77.2 -13.3,-116.43 -2.07,-33.78 -0.88,-67.29 -0.57,-100.86 0.22,-23.88 7.77,-48.1 5.72,-71.52 -3.28,-37.56 3.34,-72.75 11.61,-108.43 3.34,-14.33 6,-29.13 3.7,-44.28 -7.85,-50.94 -8.16,-102.51 -8.68,-153.82 -0.38,-37.73 -4.91,-75.06 -5.9,-112.73 -1.2,-45.14 -6.4,-90.28 -6.85,-135.55 -0.29,-28.97 -0.43,-58.04 1.57,-86.9 3.09,-43.88 -5.34,-86.97 -5.95,-130.55 -0.41,-31.17 -1.8,-62.39 -4.34,-93.43 -5.26,-63.92 -10.8,-128.07 -9.92,-192.06 0.63,-44.88 0.15,-89.97 0.58,-134.8 0.5,-49.88 0.33,-100.32 -7.14,-150.66 -8.16,-55.15 0.27,-111.5 2.44,-167.22 1.77,-45.8 6.39,-91.58 5.47,-137.42 -0.9,-45.14 4.69,-89.89 4.33,-134.99 -0.22,-23.75 4.55,-47.72 6.02,-71.76 5,-83.09 18.81,-163.89 24.72,-246.94 4.23,-59.61 19.96,-113.87 28.06,-172.63 3.4,-24.64 14.58,-47.71 11.53,-73.83 -4.91,-41.85 -7.95,-83.97 -13.2,-125.81 -2.64,-21.08 -1.24,-42.25 -4.46,-63.32 -9.29,-60.7 -7.19,-121.73 -2.52,-182.75 0.88,-11.45 1.93,-22.98 1.48,-34.41 -1.36,-34.66 -5.46,-69.04 -13.34,-102.7 -4.58,-19.539 -4.37,-39.762 -9.35,-59.059 -10.44,-40.41 -13.84,-81.742 -13.86,-123.383 -0.03,-28.378 3.9,-56.949 1.89,-85.078 -3.7,-52.199 0.2,-104.492 -4.39,-156.679 -3.32,-37.801 2.76,-76.082 0.04,-114.102 -1.98,-28.09 2.75,-56.09 1.13,-83.969 -1.63,-27.812 -0.05,-55.808 0.67,-83.242 0.54,-21.816 -4.32,-43.5 -1.08,-65.699 1.29,-8.699 2.95,-18.899 2.26,-28.84 -1.65,-24.09 -4.98,-49.07 -0.88,-72.348 4.07,-23.3 2.09,-46.2926 2.55,-68.9996 0.35,-19.7109 2.07,-39.2226 3.8,-58.6914 h 82.33 c 0.11,5.19141 0.07,10.3906 0.27,15.6016 1.23,31.1679 4.69,62.6367 1.87,93.4294"
         style="fill:#000000;fill-opacity:1;fill-rule:nonzero;stroke:none"
         id="path38" /><path
         d="m 1893.06,207.559 c 0.36,17.679 -2.57,35.582 1.26,53.191 13,59.82 5.14,120.98 10.39,181.34 2.48,28.441 2.88,57.019 2.23,85.691 -0.79,33.969 2.37,67.797 0.99,102.047 -0.99,24.352 -9.17,53.781 13.54,74.781 1.49,1.379 3.03,3.879 2.91,5.782 -0.38,10.578 7.53,16.777 13.14,21.8 11.7,10.5 17.06,23.368 19.75,38.329 5.99,33.378 1.01,67.191 3.51,100.851 2.36,32.57 2.16,65.457 -0.86,98.449 -2.23,24.43 -5.09,49.14 -5.09,73.69 0.02,36.68 -4.73,72.85 -9.22,108.85 -7.01,56.23 -16.59,111.79 -8,169 5.59,37.3 1.42,75.15 -1.57,112.56 -3.25,40.34 -0.43,79.32 12.97,117.45 11.32,32.12 25.7,81.44 12.56,115.04 -4.55,11.61 -12.35,19.02 -14.81,31.95 -3.85,20.29 -0.2,42.46 -2.43,63.12 -2.68,24.96 -7.08,45.37 -15.37,68.91 -12.55,35.58 -23.8,72.29 -28.26,110.14 -3.9,33.22 -1.35,66.46 -3.95,99.81 -2.66,34.2 5.36,68.91 -3,103.29 -2.99,12.28 -5.11,25.46 -4.37,38.01 3.16,54.66 -12.03,106.36 -21.63,158.86 -9.76,53.49 -21.03,106.57 -23.56,161.26 -1.7,37.43 -2.88,75.07 -9.78,111.84 -6.53,34.84 3.97,69.48 -1.62,104.23 -1.85,11.42 8.21,21.24 10.93,32.66 13.57,56.46 6.47,113.91 5.32,170.67 -0.81,41.41 -4.66,83.12 -7.82,124.67 -0.6,7.97 1.49,14.29 5.84,21.61 9.42,15.88 19.34,31.36 25.49,49.76 8.02,24.08 6.26,48.96 10.75,73.2 6.51,35.19 17.49,69.58 16.79,106.22 -0.23,10.44 -0.99,21.05 1.15,31.74 5.63,28.41 9.13,57.92 5.85,86.23 -2.97,25.87 -0.18,52.07 -5.87,77.62 -1.83,8.11 -2.46,16.84 -1.87,25.15 1.44,19.6 -1.24,38.73 -3.95,57.98 -4.1,29.19 -12.33,58.93 -9.96,87.62 3.47,42.33 -2.26,84.63 3.6,126.76 3.39,24.29 -2.83,49.27 1.67,73.6 7.66,41.23 7.4,82.38 0.86,123.58 -1.99,12.43 -0.86,23.93 2.88,35.92 3.66,11.59 6.77,24.02 6.83,36.11 0.27,39.51 0,79.09 -1.93,118.55 -1.24,24.89 -4.65,49.66 -7.04,74.49 h -83.68 c 0.95,-5.31 2.15,-10.51 3.9,-15.5 10.01,-28.42 14.18,-55.54 10.68,-85 -1.89,-16.16 -4.84,-32.79 -3.11,-48.68 3.36,-30.5 0.64,-61.01 0.18,-91.21 -0.53,-36.22 -4.52,-72.57 -5,-109.04 -0.27,-19.96 -6.04,-40.2 -4.12,-59.75 2.37,-24.46 -0.07,-48.5 -3.04,-71.93 -3.18,-24.61 0.06,-48.91 -2.5,-73 -3.54,-33.34 8.31,-64.82 6.71,-98.23 -2.46,-51.15 -0.34,-102.58 1.06,-153.86 0.27,-9.9 -3.72,-18.36 -2.75,-28.86 2.16,-22.92 0.63,-46.53 -0.84,-69.5 -1.55,-24.14 -5.31,-48.29 -5.97,-72.7 -0.54,-21.3 -0.4,-42.8 -3.33,-63.76 -4.06,-29.17 -12.17,-57.73 -15.62,-86.94 -2.25,-19.21 -4.98,-39.87 0.88,-58.6 8.25,-26.43 5.88,-53.61 6.49,-80.1 0.63,-27.19 -0.32,-54.84 -0.57,-82.18 -0.43,-41.12 3.11,-81.9 -3.15,-123.21 -7.28,-48.11 -6,-96.92 -4.76,-145.9 2.46,-96.01 8.97,-191.69 15.87,-287.34 2.73,-37.61 -1.78,-75.17 2.21,-112.88 3.09,-29.36 1.51,-59.22 1.26,-88.92 -0.29,-33.49 5.21,-67.38 4.31,-100.45 -1.22,-43.3 9.78,-87.21 14.96,-130.43 5.95,-49.51 10.34,-94.43 33.06,-138.89 18.06,-35.29 33.38,-73.67 37.91,-113.88 4.62,-41.29 -14.34,-71.31 -16.07,-109.98 -1.62,-36.53 -1.53,-73.16 -4.17,-109.61 -3.88,-53.76 -6.24,-107.49 -7.39,-161.4 -1.51,-70.21 10.86,-139.42 10.5,-209.77 -0.22,-50.23 3.09,-100.9 5.39,-151.329 1.42,-30.653 1.51,-60.02 -14.11,-87.172 -6.38,-11.071 -10,-23.457 -13.16,-35.899 -16.27,-64.218 -15.03,-130.679 -20.44,-196.172 -3.02,-36.32 -4.72,-73.117 -6.52,-109.738 -3.04,-62.012 -15.82,-123.129 -14.58,-185.73 0.59,-29.399 -3.81,-58.899 -5.77,-88.352 -3.42,-51.547 -9.19,-103.078 -3.24,-154.8866 2.34,-20.2226 1.4,-41.5703 4.84,-61.1914 h 83.68 c -0.69,7.44141 -1.35,14.8906 -1.8,22.3594 -3.59,61.7422 1.31,123.4606 2.55,185.1996"
         style="fill:#000000;fill-opacity:1;fill-rule:nonzero;stroke:none"
         id="path40" /><path
         d="m 839.457,128.52 c -1.625,10.718 -1.867,22.781 -3.109,33.832 -2.032,18.25 0.382,37.046 -5.118,54.816 -4.011,12.922 -5.656,26.051 -5.5,39.602 0.27,25.339 -2.476,50.531 -7.546,75.07 -7.098,34.418 -8.813,69.488 -13.657,104.14 -4.578,32.77 -5.929,65.879 -12.804,98.54 -7.098,33.871 -9.848,68.781 -4.91,103.468 4.73,33.16 14.421,65.364 15.007,99.403 0.52,29.66 6.356,58.949 8.203,88.621 0.993,15.429 -3.175,29.918 -2.117,45.117 2.481,35.531 -2.57,70.492 -7.371,105.59 -3.805,27.591 -10.074,54.821 -9.242,83.281 0.723,25.26 4.145,50.51 4.172,75.37 0.023,38.59 -5.973,77.34 -11.402,115.72 -3.86,27.02 -2.594,54.64 8.472,77.25 22.153,45.31 30.356,92.85 28.985,142.24 -0.973,34.63 0.179,65.32 -5.954,99.05 -6.738,37.13 4.082,81.95 11.477,118.34 8.266,40.7 31.727,77.32 34.992,119.78 1.942,25.18 -2.992,50.04 -4.574,75 -2.434,38.2 0.68,76.88 -0.629,115.14 -1.555,45.41 -1.621,90.88 -3.109,136.26 -1.828,55.47 -14.989,106.4 -28.895,159.63 -16.043,61.29 -32.34,121.91 -33.734,186.02 -0.746,34.28 -0.586,68.83 -11.133,101.84 -2.797,8.71 -1.445,16.12 0.629,24.52 7.594,30.97 15.277,61.71 8.226,94.6 -4.933,22.96 -7.621,46.84 -3.921,70.49 3.496,22.28 -2.368,45.93 5.476,66.92 23.617,63.52 22.539,131 30.828,196.98 3.293,26.25 -5.789,52.16 -2.66,78.36 5.731,47.42 9.106,95.19 5.731,142.71 -4.622,64.99 -3.094,130.14 -7.102,195.16 -3.152,51.35 -2.66,102.97 -3.809,154.47 -0.449,21.45 1.106,43.23 -1.781,64.31 -4.058,29.42 -5.406,58.46 -3.851,88.15 1.98,37.46 9.148,74.69 3.289,112.63 -5.661,36.36 -6.653,73.33 3.199,109 6.961,25.25 6.898,49.91 2.031,74.86 -5.84,29.97 -7.262,58.92 9.801,85.83 1.668,2.64 1.598,6.49 2.504,9.71 9.441,33.2 11.539,67.35 12.554,101.63 h -78.207 c -2.433,-26.8 -6.898,-53.43 -8.496,-80.3 -1.441,-24.54 -0.968,-49.1 -3.605,-73.73 -4.192,-38.76 -8.859,-77.48 -9.645,-116.75 -0.543,-28.33 7.164,-55.31 5.926,-83.69 -2.32,-52.93 -4.168,-106.14 -1.555,-158.98 1.555,-31.82 2.661,-63.7 3.11,-95.48 0.652,-49.78 -6.223,-99.56 -2.094,-149.37 1.938,-23.41 -3.402,-46.34 -0.316,-70.17 1.914,-14.88 -3.543,-32.06 -3.114,-48.11 1.536,-59.89 6.067,-119.69 -0.558,-179.58 -3.879,-35.01 2.566,-70.27 -1.422,-105.45 -4.059,-35.73 1.328,-71.72 -0.543,-107.55 -1.012,-18.94 -2.887,-37.82 -4.121,-56.73 -2.117,-33.43 -4.867,-66.85 -5.774,-100.31 -0.515,-20.26 -3.582,-40.39 1.399,-61.14 5.14,-21.42 9.148,-44.12 0.793,-66.18 -9.153,-24.03 -7.617,-48.84 -7.031,-74.04 0.492,-21.06 5.675,-40.8 8.718,-61.15 4.594,-31.01 1.715,-62.86 5.047,-94.37 3.18,-30.19 10.481,-59.43 14.539,-89.41 3.989,-29.64 3.918,-59.15 3.989,-88.58 0.132,-37.57 -9.805,-74.27 -5.325,-112.99 3.071,-26.58 -0.308,-54.45 4.602,-81.35 13.207,-72.21 3.785,-146.25 16.226,-218.59 0.43,-2.48 0.747,-5 1.102,-7.48 -3.402,-1.53 -5.16,-5.63 -5.066,-9.05 0.472,-14.8 -5.746,-28.1 -7.618,-42.21 -4.144,-31.32 2.817,-61.37 15.821,-88.92 8.113,-17.25 8.246,-35.08 4.031,-50.57 -6.238,-23.12 -17.758,-44.72 -23.844,-68.32 -3.582,-13.96 -10.254,-27.53 -11.355,-41.64 -2.231,-28.61 -0.879,-56.92 6.558,-85.47 5.383,-20.68 13.321,-42.42 5.34,-65.52 -12.578,-36.4 -17.824,-74.42 -22.332,-112.87 -3.543,-30.27 -1.535,-60.57 -5.41,-90.79 -3.336,-26.33 -5.16,-53.59 -2.594,-79.88 2.817,-29.02 6.016,-57.99 8.137,-87.15 1.219,-16.68 -0.313,-33.47 2.051,-49.971 8.363,-57.848 17.488,-115.621 15.801,-174.438 -1.625,-56.839 -11.969,-112.582 -20.286,-168.5 -4.195,-28.152 -9.984,-56.472 -9.711,-84.621 0.336,-36.07 -3.429,-71.789 -4.71,-107.652 -1.172,-32.949 3.308,-64.816 6.875,-96.957 3.937,-35.481 8.132,-70.801 6.804,-106.68 -0.836,-22.722 4.055,-44.453 9.731,-66.652 8.675,-33.899 12.601,-69.199 17.988,-104.0001 1.621,-10.5 1.105,-21.3476 2.277,-31.9492 C 765.332,37.6289 764.609,18.7813 762.898,0 h 78.207 c 0.11,3.21875 0.2,6.44141 0.29,9.66797 0.992,39.60153 3.992,79.14063 -1.938,118.85203"
         style="fill:#000000;fill-opacity:1;fill-rule:nonzero;stroke:none"
         id="path42" /><path
         d="m 332.828,151.59 c 6.559,54.89 1.465,109.719 1.508,164.43 0.023,47.679 -3.672,95.48 -7.867,143.23 -4.481,50.969 -11.582,101.691 -15.028,152.871 -2.23,33.309 -6.652,66.57 -4.711,99.938 1.915,33 2.368,65.953 -1.781,98.582 -6.558,51.679 -12.914,103.519 -17.918,155.257 -5.926,61.322 -3.922,123.492 -5.636,185.292 -1.168,41.54 -3.938,83.07 -4.145,124.63 -0.223,47.62 1.938,95.22 -1.238,142.91 -2.75,41.07 -4.891,82.07 -9.512,123.03 -2.32,20.59 -6.895,42.89 1.195,63.44 6.446,16.26 5.297,32.87 5.297,49.5 -0.023,7.54 0.449,13.85 5.387,20.18 13.656,17.56 16.34,39.41 20.281,60.98 4.465,24.13 3.36,49.1 11.11,72.71 11.339,34.42 15.418,70.06 14.449,106.43 -0.274,9.68 -0.317,19.7 4.328,28.02 8.062,14.5 9.691,30.71 13.273,46.49 9.735,42.66 11.317,86.17 13.496,129.72 1.063,21.28 -1.464,43.07 0.879,63.57 5.973,52.21 3.157,104.61 5.325,156.76 1.101,26.56 6.238,54.71 -1.059,81.62 -4.039,14.94 6.555,28.5 2.703,43.25 -5.59,21.29 -2.773,43.08 -2.211,64.5 1.125,43.23 -21.566,88.44 -26.41,132.17 -3.52,31.56 -3.68,63.91 -5.773,95.76 -3.086,46.9 -5.473,93.8 -3.629,141 1.964,50.83 -2.297,101.67 -4.645,152.5 -1.172,25.54 -3.894,51 -4.797,76.61 -1.148,33.2 -8.586,66.29 -14.847,99.11 -5.93,30.91 -16.321,61.05 -20.332,92.16 -7.102,54.88 -12.508,110.05 -16.004,165.4 -4.844,77.23 -11.856,154.33 -12.551,231.76 -0.563,63.98 -12.145,127.24 -7.008,191.76 4.367,55.26 18.906,107.91 28.484,161.8 4.102,23.07 14.606,44.02 17.829,67.32 1.828,13.27 4.125,26.52 7.031,39.57 5.652,25.43 11.695,50.76 17.512,76.12 h -80.797 c -0.469,-3.56 -0.969,-7.13 -1.418,-10.69 -5.453,-42.83 -10.778,-85.7 -17.422,-128.33 -5.477,-35.05 0.293,-71.07 -9.305,-105.7 -2.801,-10.22 -4.531,-20.98 -5.16,-31.59 -5.973,-102.15 -7.281,-204.4 -4.602,-306.67 1.243,-46.04 4.036,-92.09 5.34,-138.09 0.992,-34.95 3.336,-69.8 6.02,-104.45 5.07,-65.09 9.758,-130.29 10.547,-195.44 0.562,-48.8 6.535,-97.21 4.531,-146.3 -2.008,-48.61 5.769,-97.39 8.449,-146.09 3.402,-62.06 0.793,-124.45 6.332,-186.61 4.352,-42.38 17.106,-82.39 21.793,-124.29 3.809,-34.07 1.852,-67.78 6.582,-101.81 5.5,-39.58 4.758,-80.84 5.543,-120.75 0.817,-40.9 -4.641,-81.98 -3.152,-122.81 1.89,-52.64 -0.727,-105.03 -1.649,-157.53 -0.425,-24.71 -4.281,-50.02 -0.652,-74.04 6.648,-43.79 6.648,-86.06 -2.57,-129.65 -9.891,-46.84 -12.121,-95.54 -22.512,-142.23 -8.336,-37.37 -11.856,-73.81 -6.266,-111.5 0.407,-2.72 0.407,-5.8 -0.406,-8.38 -10.141,-32.62 -11.223,-66.23 -8.969,-99.98 3.446,-52.21 -2.57,-104.14 -2.613,-156.28 -0.051,-57.8 0.359,-115.52 1.824,-173.34 2.098,-84.01 4.821,-168.06 6.199,-252.139 1.016,-63.922 1.551,-127.691 -2.187,-191.48 -1.172,-19.61 1.195,-39.621 -1.262,-58.711 -4.347,-33.539 -1.691,-67.149 -4.847,-100.59 -2.278,-24.02 2.144,-48.059 1.601,-72.289 -0.945,-40.731 1.442,-81.5 1.328,-122.27 -0.09,-23.793 5.16,-46.8 6.469,-70.3 1.691,-30.602 4.715,-61.051 9.332,-91.231 6.938,-45.629 8.453,-91.941 7.844,-137.601 C 249.195,88.4492 241.035,44.2188 235.016,0 h 80.797 c 3.539,15.4297 6.984,30.8789 10.164,46.3789 7.097,34.6016 2.656,70.4101 6.851,105.2111"
         style="fill:#000000;fill-opacity:1;fill-rule:nonzero;stroke:none"
         id="path44" /><path
         d="m 4043.23,201.59 c -3,42.988 0.07,86.109 -5.54,129.129 -3.23,24.609 0.43,50.179 -0.18,75.242 -1.65,67.898 -3.58,135.75 -1.91,203.66 0.43,17.867 2.22,35.75 1.82,53.559 -0.99,41 -4.06,81.968 3.07,122.738 1.14,6.543 2.05,13.762 0.64,20.051 -5.6,25.261 -2.27,51 -4.79,76.332 -1.88,18.711 2.52,36.879 1.86,55.558 -1.39,38.661 -12.95,75.521 -15.11,114.131 -2.73,49.17 -17.31,97.09 -18.53,146.37 -1.03,41.09 -6.31,82.73 6.94,123.4 6.52,20 -0.06,42.3 6.56,63.16 2.61,8.23 8.82,16.08 7.03,25.51 -4.62,24.16 0.34,48.09 1.06,72.09 0.88,29.46 4.69,58.98 3.24,88.27 -1.27,26.45 4.15,52.53 1.59,78.63 -3.5,34.97 -8.53,69.8 -13.7,104.54 -1.4,9.36 -0.57,18.63 -2.38,28.19 -3.94,21.18 -4.77,42.81 3.03,64.23 7.81,21.59 14.69,43.7 18.7,66.64 1.06,6.1 -0.34,12.01 1.49,18.25 9.04,30.65 14.52,62.01 13.66,94.37 -0.3,11.76 -1.58,23.95 0.72,35.24 6.85,33.9 2.14,67.86 1.98,101.73 -0.15,37.34 -9.13,73.33 -18.07,109.35 -10.05,40.51 -18.89,81.39 -23.87,123.12 -1.85,15.61 0.57,31.88 -4.71,46.82 -9.11,25.9 -6.4,52.67 -3.45,78.51 2.39,21.1 3.72,44.04 18.33,61.7 20.07,24.29 11.87,53.68 9.84,80.46 -0.99,13.31 -5.61,27.97 -8.34,42.01 -1.55,7.95 -3.26,15.82 -5.21,23.61 1.65,5.71 2.91,11.47 3.07,17.18 1.78,62.61 5.32,125.48 1.91,187.85 -2.96,54.94 -6.93,109.91 -10.06,164.9 -1.95,34.65 -1.63,69.46 -4.26,104.03 -1.29,16.84 0.85,33.49 -0.7,50.17 -3.86,42.4 -9.07,84.72 -11.36,127.21 -1.98,36.92 0.02,74.07 -1.11,111.07 -1.01,32.56 -4.89,65.06 -0.94,97.63 3.06,24.97 10.66,49 15.57,73.36 7.21,35.92 8.67,73.4 10.21,110.32 2.12,51.55 -8.45,102.67 -2.81,154.86 3.74,34.79 4.43,70.5 8.62,105.19 5.66,46.67 10.51,93.06 12.51,140.13 1.15,26.61 1.48,53.25 2.21,79.88 h -84.14 c -0.17,-12.49 -0.53,-24.98 -1.26,-37.49 -2.54,-44.28 10.08,-88.57 3.16,-133.59 -4.5,-29.31 -0.85,-59.16 0.91,-88.62 1.95,-32.92 -1.14,-66.08 4.77,-98.79 6.54,-36.34 3.29,-73.19 3.61,-109.78 0.13,-14.9 -2.21,-30.21 -4.15,-45.06 -3.27,-24.94 -1.44,-50.62 -7.1,-74.84 -10.12,-43.55 -8.99,-88 -10.81,-131.94 -2.76,-66.58 -3.64,-133.34 4.48,-199.93 3.94,-32.22 3.43,-65.02 5.07,-97.53 0.63,-12.3 -0.75,-24.45 0.54,-36.97 3.02,-29.58 6.83,-59.83 4.1,-89.15 -3.63,-38.83 -1.24,-77.27 -0.16,-115.77 1.29,-45.45 1.56,-90.85 1.77,-136.31 0.17,-40.79 -2.15,-81.92 6.17,-122.33 -0.02,-0.22 -0.07,-0.44 -0.09,-0.65 -1.83,-14.9 2.16,-28.21 1.91,-42.28 -0.65,-36.12 -9.49,-71.13 -12.21,-107.1 -3.93,-51.3 -1.09,-102.02 1.89,-153.07 1.71,-29.65 5.21,-59.73 3.47,-89.06 -3.52,-59.76 -2.75,-119.24 0.65,-178.83 4.31,-75.79 3.31,-151.39 -13.06,-225.62 -9.77,-44.16 -6.43,-88.36 -4.31,-132.52 2.66,-55.76 14.36,-110.84 11.79,-167.12 -2.38,-52.23 4.24,-103.52 14.92,-154.41 3.69,-17.49 7.07,-35.54 3.26,-53.62 -14.51,-69.1 -22.61,-139.05 -24.92,-209.03 1.24,-52.5 5.29,-104.14 3.45,-155.94 -1.11,-30.77 -5.19,-62.01 -2.66,-92.159 3.06,-36.973 -4.15,-73.012 -1.74,-110.063 2.38,-36.539 0.61,-74.418 -1.58,-111.738 -2.52,-42.648 3.61,-85.43 0.65,-128.769 -2.45,-36.102 -0.55,-73.211 1.85,-109.95 3.93,-60.261 -0.38,-120.761 2.39,-181.351 2.88,-63.481 5.3,-127.289 3.31,-191.121 -1.46,-46.4495 0.64,-92.9104 -0.07,-139.469 h 84.14 c 0.39,14.5313 0.85,29.0586 1.68,43.6094 3.03,52.4414 3.36,105.3906 -0.31,157.9806"
         style="fill:#000000;fill-opacity:1;fill-rule:nonzero;stroke:none"
         id="path46" /></g></g></svg>
