<?xml version="1.0" encoding="UTF-8" standalone="no"?>
<svg
   xmlns:dc="http://purl.org/dc/elements/1.1/"
   xmlns:cc="http://creativecommons.org/ns#"
   xmlns:rdf="http://www.w3.org/1999/02/22-rdf-syntax-ns#"
   xmlns:svg="http://www.w3.org/2000/svg"
   xmlns="http://www.w3.org/2000/svg"
   xmlns:sodipodi="http://sodipodi.sourceforge.net/DTD/sodipodi-0.dtd"
   xmlns:inkscape="http://www.inkscape.org/namespaces/inkscape"
   version="1.1"
   id="svg2"
   xml:space="preserve"
   width="566.93335"
   height="566.93335"
   viewBox="0 0 566.93335 566.93335"
   sodipodi:docname="2.eps"><metadata
     id="metadata8"><rdf:RDF><cc:Work
         rdf:about=""><dc:format>image/svg+xml</dc:format><dc:type
           rdf:resource="http://purl.org/dc/dcmitype/StillImage" /></cc:Work></rdf:RDF></metadata><defs
     id="defs6" /><sodipodi:namedview
     pagecolor="#ffffff"
     bordercolor="#666666"
     borderopacity="1"
     objecttolerance="10"
     gridtolerance="10"
     guidetolerance="10"
     inkscape:pageopacity="0"
     inkscape:pageshadow="2"
     inkscape:window-width="640"
     inkscape:window-height="480"
     id="namedview4" /><g
     id="g10"
     inkscape:groupmode="layer"
     inkscape:label="ink_ext_XXXXXX"
     transform="matrix(1.3333333,0,0,-1.3333333,0,566.93333)"><g
       id="g12"
       transform="scale(0.1)"><path
         d="M 4251.94,0 H 0 V 4251.97 H 4251.94 V 0"
         style="fill:#ffffff;fill-opacity:1;fill-rule:nonzero;stroke:none"
         id="path14" /><path
         d="m 418.766,620.09 c 46.879,-40.641 105.66,-71.078 176.379,-46.692 98.585,33.961 171.707,113.372 270.289,147.09 31.066,10.621 53.992,6.301 82.011,-12.476 31.743,-21.25 42.18,-58.274 68.515,-79.364 118.39,-94.839 180.94,-93.179 299.83,0.211 137.37,107.821 160.17,108.153 300.39,4.11 44.87,-33.301 91.12,-64.77 150.8,-57.938 95.84,10.957 162.66,75.668 230.64,133.719 71.13,60.762 92.16,58.57 139.6,-16.16 45.69,-72.039 107.84,-126.969 200.41,-132.031 47.16,-2.629 81.32,28.519 121.67,43.601 92.33,34.488 169.63,89.512 238.13,157.891 55.97,55.808 159.74,52.539 204.15,-2.09 64.93,-79.871 151.4,-128.711 235.99,-150.121 41.76,-2.559 91.67,-3.5 131.13,12.66 40.16,16.422 75.62,55.25 110.19,81.738 28.42,21.774 51.35,46.793 86.76,57.442 68.41,20.539 95.53,-36.309 156.17,-52.5 80.06,-21.371 154.21,3.769 230.06,26.23 57.58,17.031 123.56,-5.16 167.49,-44.41 18.5,-16.551 28.78,-38.23 48.11,-54.219 27.45,-22.679 60.05,-42.519 91.93,-58.211 33.41,-16.422 63.76,-20.55 92.53,-15.871 v 121.27 c -41.9,1.601 -77.72,30.98 -103.81,67.082 -87.98,121.828 -207.31,110.429 -339.87,90.629 -33.22,-4.961 -63.95,-20.102 -96.92,-23.821 -49.46,-5.578 -106.29,26.43 -149.51,46.86 -52.42,24.769 -95.12,36.761 -145.5,0.633 -24.6,-17.661 -46.92,-39.422 -69.37,-60.063 -44.53,-40.98 -72.87,-76.019 -136.04,-85 -60.44,-8.57 -120.9,6.313 -172.77,37.832 -40.25,24.457 -68.77,61 -91.12,100.899 -60.8,108.609 -160.47,82.781 -254.79,77.32 -6.26,-0.371 -12.64,0.879 -18.96,1.39 4.78,4.579 8.92,10.079 14.32,13.692 53.71,35.957 106.23,74.058 162.03,106.428 35.06,20.32 62.25,61.5 111.83,50.25 60.93,-13.85 114.74,-44.11 170.17,-71.46 36.91,-18.25 65.89,-50.999 110.39,-55.749 82.37,-8.743 136.56,25.319 207.91,56.939 75.66,33.51 134.15,101.7 207.16,13.3 63.22,-76.54 166.07,-97.028 261.8,-101.021 45.69,-1.91 88.27,29.332 114.68,78.281 17.02,31.47 31.68,80.16 77.9,79.34 47.93,-0.82 92.3,-29.31 122.76,-62.64 5.9,-6.43 11.8,-12.49 17.71,-18.3 v 147.9 c -41.92,32.42 -90.33,52.39 -156.76,33.61 -37.49,-10.61 -76.57,-11.99 -96.33,-56.8 -14.18,-32.2 -12.9,-71.6 -29.71,-96.81 -35.24,-52.8 -99.2,-41.94 -145.41,-23.15 -86.89,35.35 -154.79,194.86 -267.4,152.64 -27.35,-10.26 -48.51,-30.2 -71.89,-46.76 -43.9,-31.09 -74.14,-55.67 -125.5,-72.13 -43.95,-14.02 -91.61,-11.84 -130.07,4.8 -43.73,18.95 -75.75,64.11 -119.07,85.25 -63.28,30.92 -123.86,77.52 -205.6,46.84 -35.58,-13.31 -54.97,-42.17 -86.19,-58.63 -60.5,-31.87 -116.87,-71.48 -175.23,-107.41 -37.87,-23.31 -75.88,-46.081 -123.88,-31.57 -61.21,18.47 -85.49,70.82 -102.11,122.67 -27,84.13 -111.3,150.35 -178.02,123.93 -58.63,-23.28 -127.69,-17.79 -176.72,-70.06 -27.09,-28.92 -68.93,-43.98 -96.04,-72.92 -26.32,-28.08 -52.03,-34.55 -81.64,-17.1 -56.45,33.24 -101.34,88.14 -168.94,84.13 -72.35,-4.29 -131.51,-7.94 -198.08,-41.53 -44.17,-22.29 -135.06,-103.22 -186.41,-78.18 -22.19,10.85 -38.8,36.46 -53.7,58.35 -35.39,52 -74.26,105.59 -134.38,123.17 -126.1,36.83 -219.071,-34.75 -291.723,-122.55 -74.981,-90.63 -102.606,-103.41 -190.715,-26.89 -37.336,32.41 -64.637,76.49 -109.137,101.49 -67.16,37.8 -129.398,23.4 -191.519,-15.78 -33.578,-21.15 -69.828,-36.32 -91.606,-73.17 -11.906,-20.07 -28.25,-45.95 -47.656,-51.6 -48.82,-14.15 -88.996,3.47 -129.0548,40.49 -30.1836,27.86 -58.8476,60.54 -91.433575,85.7 V 1026.84 C 103.59,925.418 212.535,921.84 322.602,1022.81 c 96.027,87.99 216.679,63.75 271.582,-54.701 23.699,-50.98 119.964,-83.347 173.226,-64.558 74.485,26.34 117.309,87.64 165.813,141.859 80.507,90 212.237,89.94 257.497,-19.65 41.31,-100.08 103.99,-109.26 190.58,-104.998 68.91,3.398 94.95,66.758 145.43,96.348 89.78,52.56 201.55,58.16 246.65,-0.19 50.45,-65.279 139.96,-82.389 210.04,-39.85 73.17,44.35 143.52,94.67 228.64,114.82 35.8,8.46 73.56,14.45 99.04,-22.11 21.14,-30.42 33.9,-68.72 60.02,-93.3 81.51,-76.601 174.2,-108.179 280.85,-48.101 3,1.68 7.27,1.051 10.93,1.461 -0.3,-1.891 0.11,-4.84 -1.01,-5.578 -52.56,-35.832 -100.05,-76.203 -142.92,-124.461 -30.97,-34.903 -77.91,-55.192 -114.92,-85.449 -35.79,-29.18 -66.95,-54.512 -119.18,-32.364 -63.6,26.973 -88.83,84.352 -117.21,136.91 -12.06,22.372 -37.58,50.622 -62.92,57.864 -11.4,3.258 -24.32,1.726 -36.44,5.039 -12.51,3.429 -24.13,8.308 -37.38,7.847 -27.44,-0.976 -50.77,-9.75 -74.64,-23.128 -38.35,-21.461 -68.21,-53.942 -101.82,-81.829 -65.48,-54.32 -157.74,-92.64 -219.47,-9.05 -28.15,38.109 -59.85,66.789 -108.38,79.339 -94.54,24.43 -148.51,-40.16 -220.67,-86.359 -45.59,-29.23 -85.39,-75.133 -141.05,-85.301 -56.48,-10.289 -97.13,30.211 -123.46,75.539 -41.11,70.821 -126.133,136.45 -209.926,93.493 C 811.926,842.32 796.484,827.461 782.582,810.66 767.766,792.711 754.988,787.02 736.504,773.961 692.113,742.578 654.242,702.648 600.059,687.941 529.281,668.699 464.527,704.41 425.984,764.719 361.809,865.191 262.117,876.102 175.613,800.391 137.133,766.699 102.926,725.898 59.6445,700.391 38.7656,688.059 18.7813,683.238 0.015625,683.969 V 562.691 C 40.3672,569.238 77.6328,593.168 115.828,625.801 248.785,739.391 290.152,731.539 418.766,620.09"
         style="fill:#000000;fill-opacity:1;fill-rule:nonzero;stroke:none"
         id="path16" /><path
         d="m 3789.31,4185.03 c -42.9,13.06 -78.68,37.92 -110.12,66.94 h -467.61 c -14.98,-16.8 -28.78,-35.08 -40.78,-53.46 -25.76,-39.44 -36.95,-70.3 -84.35,-88.94 -36.71,-14.46 -82.08,-15.77 -113.79,10.82 -42.97,36.03 -71.28,83.71 -99.48,131.58 h -139.39 c 4.12,-4.54 8.26,-9.31 12.36,-14.51 53.15,-67.24 91.41,-144.51 167.01,-197.23 77.29,-53.86 195.86,-20.83 266.86,25.39 18.21,11.86 37.17,22.69 55.44,34.6 39.92,25.97 74.93,57.33 113.38,85.12 37.22,26.9 85.87,37.87 131.13,30.71 46.01,-7.26 68.97,-28.53 93.9,-64.38 52.42,-75.37 152.38,-128.13 242.38,-136.74 42.08,-4.03 81.38,19.63 113.21,44.48 24.27,18.94 48.46,38.83 71.98,58.7 43.17,36.46 86.45,80.21 138.6,103.71 37.45,16.88 76.87,0.27 111.9,-22.28 v 52.43 h -320.07 c -38.94,-31.46 -88.43,-83.38 -142.56,-66.94"
         style="fill:#000000;fill-opacity:1;fill-rule:nonzero;stroke:none"
         id="path18" /><path
         d="m 1982.49,4089.69 c 33.29,-54.21 86.44,-80.14 137.84,-79.48 160.03,2.04 272.64,101.7 371.31,213.45 8.99,10.18 18.23,19.65 27.68,28.31 h -151.54 c -29.98,-33.91 -61.27,-66.26 -97.15,-95.92 -89.93,-74.32 -219.06,-69.39 -285.75,24.64 -15.62,22.03 -27.14,46.22 -37.26,71.28 h -90.43 c 9.7,-30.91 19.22,-61.71 40.41,-86.65 24.37,-28.66 65.92,-44.73 84.89,-75.63"
         style="fill:#000000;fill-opacity:1;fill-rule:nonzero;stroke:none"
         id="path20" /><path
         d="m 54.8281,4159.96 c 15.6211,-11.25 34.9883,-15.85 51.3869,-25.68 17.617,-10.6 25.035,-27.96 43.797,-36.56 41.812,-19.22 97.066,-26.82 136.676,0.23 27.222,18.6 51.199,37.65 75.058,58.32 33.934,29.39 59.406,63.34 87.567,95.7 H 0.015625 v -52.43 c 19.906275,-12.8 38.421875,-27.56 54.304675,-39.21 0.1719,-0.11 0.336,-0.25 0.5078,-0.37"
         style="fill:#000000;fill-opacity:1;fill-rule:nonzero;stroke:none"
         id="path22" /><path
         d="m 1310.81,4110.14 c 44.39,-49.34 96.4,-86.44 162.04,-72.13 92.29,20.13 131.84,107.37 181.62,174.83 8.77,11.86 15.61,25.14 21.51,39.13 h -128.02 c -11.38,-17.62 -24.59,-33.16 -40.42,-40.84 -38.22,-18.58 -78.83,-23.34 -116.09,0.97 -17.44,11.37 -32.35,25.13 -46.21,39.87 h -177.86 c 54.55,-37.32 98.25,-91.66 143.43,-141.83"
         style="fill:#000000;fill-opacity:1;fill-rule:nonzero;stroke:none"
         id="path24" /><path
         d="m 863.695,4148.23 c 31.797,28.91 60.758,61.03 93.368,88.91 5.242,4.49 10.671,9.57 16.218,14.83 H 592.82 c 24.383,-26.51 47.332,-54.74 70.383,-82.24 51.391,-61.25 128.828,-86.6 200.492,-21.5"
         style="fill:#000000;fill-opacity:1;fill-rule:nonzero;stroke:none"
         id="path26" /><path
         d="m 1242.79,109.23 c -72.75,53.36 -142.36,101.372 -241.63,55.692 C 944.563,138.891 904.426,96.1797 856.438,61.5898 810.797,28.6992 762.805,10.3398 714.121,56.4688 685.137,83.9297 662.789,117.73 637.898,148.641 c -24.738,30.687 -53.281,37.078 -90.593,44.64 -31.582,6.41 -60.457,1.91 -88.867,-12.133 -29.36,-14.5 -59.141,-36.117 -83.172,-58.238 C 346.16,96.1602 327.91,68.2891 290.496,51.2813 255.039,35.1211 213.02,32.6992 174.828,37.8984 116.848,45.75 68.1719,87.9414 12.3594,105.871 8.27734,107.18 4.14844,108.488 0.015625,109.801 V 0 H 449.277 c 4.282,4.92969 8.633,9.82031 13.051,14.6602 18.41,19.9609 26.535,77.3789 67.746,44.8593 C 552.574,41.75 573.176,21.4102 592.855,0 H 973.246 C 996.453,22.0195 1021.7,47.1797 1043.69,45.3789 1091.88,41.4883 1131.94,24.3008 1167.43,0 h 177.82 c -34.2,36.4492 -61.61,79.2617 -102.46,109.23"
         style="fill:#000000;fill-opacity:1;fill-rule:nonzero;stroke:none"
         id="path28" /><path
         d="M 4133.82,124.328 C 4058.68,108.148 4001.64,51.8008 3941.75,7.73047 3938.54,5.37109 3935.21,2.73828 3931.82,0 h 320.12 v 109.77 c -38.16,12.101 -78.34,23.128 -118.12,14.558"
         style="fill:#000000;fill-opacity:1;fill-rule:nonzero;stroke:none"
         id="path30" /><path
         d="m 3488.97,119.832 c -32.31,7.996 -73.86,15.277 -106.6,6.258 -27.28,-7.531 -53.53,-33.8009 -76.83,-49.3986 C 3280.61,59.9883 3254.48,42.2695 3232.5,21.7305 3225.24,14.9492 3218.32,7.57813 3211.55,0 h 467.68 c -4.72,4.35156 -9.33,8.76953 -13.85,13.2891 -49.26,49.1015 -108.15,89.6599 -176.41,106.5429"
         style="fill:#000000;fill-opacity:1;fill-rule:nonzero;stroke:none"
         id="path32" /><path
         d="m 1750.94,241.66 c -29.08,1.25 -57.37,-8.242 -81.74,-23.73 -25.74,-16.371 -35.7,-49.692 -49.51,-76.61 -14.03,-27.351 -25.6,-56.1012 -40.04,-83.2497 C 1570.71,41.2188 1560.43,19.3398 1547.94,0 h 128.02 c 15.53,36.8984 23.72,79.1914 38.32,117.09 3.58,9.359 14.8,22.742 22.13,22.488 37.29,-1.258 59.12,-28.008 81.09,-54.5467 20.66,-24.9102 30.26,-55 39.69,-85.0313 h 90.45 c -18.68,46.2383 -32.47,95.5117 -57.98,140.129 -29.08,50.871 -76.75,98.91 -138.72,101.531"
         style="fill:#000000;fill-opacity:1;fill-rule:nonzero;stroke:none"
         id="path34" /><path
         d="m 2656,190.719 c -33.71,6.953 -69.02,6.312 -102.01,-3.891 -30.82,-9.539 -46.86,-28.578 -69.22,-51.109 -19.53,-19.668 -36.65,-40.6487 -54.35,-61.9182 C 2409.47,48.6406 2388.93,23.9492 2367.76,0 h 151.51 c 66.1,60.6719 142.04,79.75 214.54,0 h 139.4 c -15.95,27.1016 -31.85,54.2617 -50.37,79.4414 -40.17,54.6876 -99.79,97.4766 -166.84,111.2776"
         style="fill:#000000;fill-opacity:1;fill-rule:nonzero;stroke:none"
         id="path36" /><path
         d="m 119.465,3612.37 c 58.926,-27.85 164.883,-29.64 200.973,7.22 39.843,40.7 80.203,80.9 120.949,120.7 36.734,35.88 76.535,82.6 134.328,59.29 43.449,-17.53 80.523,-47.03 104.859,-86.95 41.121,-67.44 107.656,-74.48 170.531,-93.91 43.036,-13.3 74.497,10.05 113.204,27.37 61.291,27.51 120.381,48.63 164.411,104.25 27,34.09 57.23,76.46 114.88,25.22 48.92,-43.47 107.9,-81.99 174.6,-92.54 66.63,-10.52 137.75,-13.15 204.93,-11.25 40.27,1.16 73.78,22.94 106.62,43.79 25.67,16.3 56.08,24.47 83.53,37.87 65.67,32.09 112.03,5.53 164.97,-37.4 47.21,-38.31 106.07,-57.2 166.4,-59.35 47.48,-1.71 102.65,-8.3 149.57,0.52 106.09,19.97 205.21,74.89 253.53,174.81 20.86,43.12 51.67,66.19 98.35,37.48 75.06,-46.16 128.27,-118.79 203.66,-166.22 67.74,-42.61 135.97,-81.47 216.47,-70.3 32.67,4.59 72.49,7.49 100.94,43.88 14.97,19.12 48.23,30.27 63,55.43 0.19,0.33 0.38,0.68 0.57,1.02 13.78,3.15 25.11,12.21 34.11,25.09 30.23,43.31 86.9,67.15 123.63,68.48 43.26,1.54 101.08,0.09 144.92,-35.39 47.84,-38.69 66.29,-96.58 103.38,-142.36 47.87,-59.05 108.34,-82.22 177.25,-56.71 43.37,16 78.77,41.43 108.27,75.59 37.12,43.03 88.9,75.07 95.71,140.57 3.04,29.41 29.32,62.71 44.42,75.4 41.04,34.37 127.82,-13.37 152.88,-62.14 12.86,-25.03 24.17,-51.21 36.63,-76.64 v 199.1 c -40.81,52.03 -101.62,63.99 -154.3,60.48 -55.34,-3.66 -110.63,-45.95 -151.97,-89.22 -38.91,-40.71 -30.8,-104.57 -65.09,-152.35 -59.09,-82.28 -117.66,-97.97 -191.55,-29.75 -35.71,32.93 -61.02,77.83 -88,119.3 -20.71,31.78 -47.33,38.13 -80.89,44.97 -36.51,7.41 -67.19,26.4 -105.69,27.25 -44.22,0.96 -90.91,-4.88 -133.12,-18.06 -53.86,-16.81 -98.53,-46.39 -145.61,-76.37 -45.15,-28.75 -112.09,-85.48 -169.17,-65.11 -89.74,32.02 -138.26,114.05 -198.83,179.34 -108.48,116.99 -273.24,132.51 -369.16,24.76 -18.18,-20.49 -16.96,-57.17 -32.52,-81.37 -38.66,-60.22 -100.35,-83.1 -168.38,-94.48 -68.1,-11.42 -122.22,6.64 -173.39,55.52 -35.64,34.01 -71.99,87.41 -122.89,96.03 -54.93,9.32 -110.55,24.55 -163.08,-3.45 -36.22,-19.35 -72.88,-38.16 -107.63,-60.17 -29.4,-18.6 -51.34,-33.65 -86.45,-40.91 -59.24,-12.24 -131.62,-9.54 -183.68,24.56 -46.86,30.68 -88.97,71.11 -139.81,95.39 -28.09,13.42 -65.73,9.29 -98.55,-1.67 -14.49,-4.82 -28.04,-10.99 -39.43,-17.57 -35.11,-20.31 -73.15,-41.05 -93.059,-76.98 -27.773,-50.14 -88.238,-76.76 -143.586,-89.25 -78.308,-17.66 -142.851,38.56 -190.585,104.07 -28.879,39.64 -55.856,84.63 -112.575,87.07 -75.242,3.27 -170.457,-82.62 -192.277,-172.39 -12.938,-53.21 -49.215,-96.92 -93.105,-111.93 -54.625,-18.63 -114.333,-0.51 -147.004,58.72 -34.5824,62.58 -62.0199,128.55 -100.5473,189.57 -3.15623,5.02 -6.53904,9.62 -9.996075,14.05 V 3745.26 C 26.1875,3691.81 57.4883,3641.66 119.465,3612.37"
         style="fill:#000000;fill-opacity:1;fill-rule:nonzero;stroke:none"
         id="path38" /><path
         d="m 137.512,3227.89 c 50.773,-39.41 100.394,-80.67 171.058,-78.34 87.996,2.86 168.852,16.81 237.871,82.24 37.715,35.77 86.024,58.46 110.622,109.78 6.761,14.03 39.789,35.16 58.07,18.16 43.633,-40.59 93.543,-70.93 144.664,-98.82 159.193,-86.99 254.853,-35.35 355.773,77.84 45.61,51.16 88.2,96.74 157.97,39.12 34.23,-28.23 64.43,-61.82 100.71,-86.84 97.43,-67.29 205.01,-64.52 315.83,-41.46 26.11,5.43 38.24,27.09 60.55,34.68 57.95,19.82 111.36,44.57 141.25,104.11 11.81,23.5 29.14,53.07 62.08,43.26 62.58,-18.54 110.87,-64.28 162.2,-101.22 82.73,-59.58 171.85,-104.82 271.06,-112.28 113.28,-8.53 256.96,122.46 282.63,234.24 5.12,22.21 30.39,41.25 49.83,57.66 4.97,4.21 28.7,-3.41 34.27,-11.89 33.74,-51.26 68.9,-102.33 95.53,-157.36 55.06,-113.7 241.07,-184.19 359.22,-148.27 65.25,19.83 133.42,45.8 195.26,74.93 40.95,19.29 83.47,62.72 131.85,60.2 38.47,-2.01 75.79,-50.39 108.39,-69.48 191.2,-111.71 291.78,-66.02 428.51,22.02 25.68,16.51 41.44,66.17 79.23,51.42 v 170.22 c -78.47,37.72 -140.55,5.75 -186.98,-97.08 -20.32,-45.05 -128.18,-108.71 -163.57,-94.32 -46.38,18.84 -92.55,38.79 -137.07,61.66 -52.16,26.82 -81.44,88.39 -150.65,91.83 -46.48,2.3 -98.65,1.54 -130.05,-37.01 -12.01,-14.75 -19.32,-30.16 -35.13,-41.9 -22.96,-17.1 -52.03,-25.16 -76.54,-39.88 -34.97,-20.99 -65.84,-44.07 -106.29,-53.3 -62.59,-14.28 -144.77,-46.07 -190.18,19.89 -42.56,61.84 -93.51,118.12 -124.06,188.86 -57.54,133.06 -153.63,127.09 -262.94,49.05 -74.72,-53.34 -113.82,-144.5 -197.63,-189.93 -17.63,-9.55 -32.48,-17.05 -52.44,-14.95 -137.08,14.28 -230.07,107.95 -328.94,187.63 -55.76,44.95 -117.84,54.3 -182.4,58.1 -48.9,2.88 -56.4,-40.8 -75.8,-76.73 -56.27,-104.44 -150.9,-142.61 -265.2,-118.91 -76.63,15.94 -118.34,86.47 -175.89,132.22 -60.54,48.12 -124.35,79.54 -203.75,49.03 -70.11,-26.92 -115.57,-76.85 -145.2,-145.11 -12.35,-28.5 -28.07,-64.29 -52.46,-76.55 -27.641,-13.9 -64.118,1.06 -96.297,16.42 -94.133,45.02 -151.133,142.07 -259.176,171.08 -75.703,20.32 -137.539,5.16 -146.277,-68.49 -5.668,-48.06 -49.403,-63.99 -66.743,-100.76 -34.679,-73.58 -142.496,-106.25 -200.097,-60.43 -56.899,45.27 -113.461,91.2 -167.9027,139.41 -25.4843,22.57 -49.5546,39.27 -72.261675,50.18 v -170.21 c 2.500005,-0.97 5.101565,-2.22 7.812505,-3.8 46.82027,-27.08 86.48437,-66.43 129.68387,-99.92"
         style="fill:#000000;fill-opacity:1;fill-rule:nonzero;stroke:none"
         id="path40" /><path
         d="m 131.656,2860.25 c 77.192,-71.68 169.258,-105.38 270.977,-95.25 120.187,11.99 209.769,84.21 292.648,168.91 93.696,95.73 80.766,115.78 184.625,33.85 53.043,-41.85 105.91,-88.11 170.694,-105.41 151.48,-40.44 283.74,-6.46 383.97,122.15 20.89,26.72 47.41,30.01 77,12.76 55.69,-32.44 111.54,-64.67 167.63,-96.4 156.36,-88.52 260.45,-32.76 357.07,56.72 48,44.39 91.57,93.59 138.7,138.96 41.93,40.33 123.25,-5.14 157.33,-83.75 46.58,-107.39 138.72,-163.77 245.94,-183.07 165.52,-29.78 282.35,27.17 362.75,195.06 14.9,31.11 40.09,79.27 85.48,17.17 30.71,-41.98 66.68,-79.83 105.24,-114.67 56,-50.62 110.63,-90.78 183.87,-112.6 51.71,-15.42 117.47,-40.94 172.43,-33.82 68.3,8.85 126.54,66.09 182.16,101.85 54.11,34.81 105.09,77.94 164.29,25.32 88.09,-78.26 231.08,-86.77 333.55,-27.03 36.62,21.36 62.44,35.65 83.93,42.26 v 180.12 c -29.28,13.92 -58.99,23.45 -86.21,-8.11 -39.62,-45.88 -97.44,-61.21 -139.72,-108.42 -49.66,-55.44 -116.58,1.37 -159.52,48.78 -96.27,106.29 -230.26,89.98 -292.09,-35.31 -27.8,-56.36 -54.95,-85.27 -119.3,-90.85 -51.37,-4.45 -102.67,9.63 -148.83,31.3 -91.89,43.17 -173.82,117.49 -230.31,201.5 -49.22,73.18 -177.34,74.91 -223.14,1.07 -45.25,-72.87 -86.12,-149.88 -161.55,-198.85 -43.16,-27.97 -88.31,-23.75 -132.92,-8.1 -83.53,29.27 -106.36,112.72 -149.6,176.49 -60.87,89.88 -166.8,130.3 -272.69,124.74 -123.24,-6.51 -150.91,-109.73 -210.85,-179.87 -31.77,-37.17 -130.6,-87.53 -163.75,-67.78 -92.84,55.37 -177.74,122.86 -280.65,163.07 -65.54,25.57 -203.38,-25.29 -222.3,-93.79 -14.25,-51.4 -59.05,-88.27 -102.45,-91.44 -77.06,-5.65 -144.7,33.63 -195.021,94.86 -66.461,80.87 -153.543,119.86 -257.809,131.45 -11.082,-1.37 -25.226,-0.3 -37.015,-5.08 -50.703,-20.61 -90.871,-46.31 -101.098,-110.44 -8.129,-51.09 -67.363,-69.68 -99.023,-106.1 -73.774,-84.82 -182.18,-91.31 -263.821,-13.75 -48.117,45.72 -88.527,104.45 -156.2378,124.23 -14.9454,4.39 -30.4336,13.01 -46.019575,20.43 V 2923.26 C 43.9141,2936.75 69.6055,2917.91 131.656,2860.25"
         style="fill:#000000;fill-opacity:1;fill-rule:nonzero;stroke:none"
         id="path42" /><path
         d="m 121.344,2402.3 c 58.629,9.25 101.804,44.81 147.695,79.33 28.848,21.67 53.981,81.73 104.965,39.03 135.437,-113.53 260.211,-114.76 388.934,1.8 27.605,25.02 51.207,35.37 78.035,0.06 10.422,-13.69 22.457,-28.17 37.086,-36.43 165.821,-93.62 304.381,-59.06 437.121,58.01 27.64,24.4 52.4,67 100.35,39.94 73.57,-41.45 125.07,-113.26 210.41,-141.36 75.84,-24.97 149.26,-35.89 226.17,-17.18 104.82,25.49 171.91,102.59 229.75,184.5 29.34,41.56 59.43,45.06 94.06,27.46 111.06,-56.43 202.04,-145.74 332.16,-173.29 109.3,-23.14 209.52,-38.44 303.87,33.38 38.54,29.31 68.22,66.9 96.45,106.99 21.01,29.88 50.03,68.21 94.26,57.31 47.01,-11.57 88.52,-42.15 131.11,-64.31 58.03,-30.26 124.03,-60.14 190.73,-60.02 55.79,0.08 99.48,23.06 151.27,38.16 45.03,13.13 72.35,12.92 115.42,-8.2 1.71,-0.84 3.36,-1.8 5.06,-2.66 21.14,-31.48 45.23,-60.82 76.49,-83.48 97.37,-70.56 238.65,-72.03 347.75,-0.99 51.5,33.51 93.45,30.94 141.78,-6.68 28.23,-22 57.84,-41.63 89.67,-55.18 v 122.47 c -18.03,10.51 -34.89,24.54 -49.05,39.1 -79.63,81.76 -235.38,90.24 -314.86,9.28 -44.69,-45.47 -91.24,-33.62 -138.54,-17.4 -3.98,1.36 -7.85,3 -11.68,4.74 l 1.02,5.82 c -16.93,0.31 -35.01,26.41 -47.45,36.88 -19.8,16.66 -37.37,34.76 -59.49,48.18 -38.17,23.15 -82.74,37.07 -127.6,30.54 -43.22,-6.28 -85.11,-22.23 -127.95,-31.22 -43.86,-9.22 -77.32,-21.94 -120.43,-2.55 -82.7,37.18 -152.47,97.85 -245.59,117.79 -93.72,20.06 -247.37,-62.56 -272.45,-119.55 -24.65,-56.06 -60.76,-102.65 -136.9,-98.25 -132.02,7.59 -221.73,99.92 -319.38,165.79 -145.97,98.45 -334.53,65.86 -409.7,-94.01 -27.37,-58.22 -158.12,-118.62 -222.14,-66.27 -51.31,41.95 -98.11,87.8 -157.17,122.12 -136.68,79.44 -223.39,67.3 -306.69,-57.59 -79.06,-118.52 -213.429,-120.24 -292.156,-3.75 -42.418,62.77 -137.574,98.4 -186.425,62.85 -33,-23.99 -56.512,-61.09 -84.11,-92.52 -53.031,-60.43 -113.281,-61.07 -173.203,-4.13 -46.617,44.33 -101.937,72.31 -166.004,84.56 -80.387,15.42 -104.297,-43.81 -145.109,-92.69 -23.59,-28.28 -57.4416,-77.25 -109.7658,-60.91 -9.9063,3.09 -19.66798,7.7 -29.101575,13.2 V 2418.49 C 36.9531,2402.78 76.8984,2395.29 121.344,2402.3"
         style="fill:#000000;fill-opacity:1;fill-rule:nonzero;stroke:none"
         id="path44" /><path
         d="m 187.078,2056.91 c 71.391,9.69 120.457,54.06 179.035,84.98 38.977,20.59 70.52,71.03 124.789,49.22 40.004,-16.05 79.434,-35.48 115.516,-59.02 59.195,-38.64 190.246,-32.95 231.555,14 71.847,81.64 117.632,87.95 202.687,18.61 51.72,-42.14 106.96,-74.45 171.74,-87.05 108.35,-21.01 190.5,23.02 256.75,107.07 12.54,15.99 27.17,45.66 54.92,32.73 34.36,-16.03 65.82,-38.55 97.77,-59.41 56.79,-37.11 105.86,-86.05 175.19,-103.22 68.02,-16.78 132.14,-11.83 198.73,10.27 57.28,18.97 96.91,54.97 136.57,97.39 34.56,36.93 61.53,83.98 129.14,81.2 82.67,-3.37 127.52,-64.24 186.82,-102.16 74.33,-47.51 147.07,-100.68 239.69,-88.05 138.06,18.77 236.42,100.91 308.41,216.44 23.35,37.45 72.06,44.38 99.69,10.56 17.07,-20.9 35.51,-39.11 58.42,-54.69 45.76,-31.15 93.71,-62.68 148.09,-76.3 57.22,-14.31 89.12,2.37 136.3,32.39 30.89,19.65 60.45,29.28 97.32,30.62 70.67,2.56 140.9,-43.31 210.11,-55.92 69.08,-12.57 130.56,27.16 191.71,52.06 25.15,10.25 49.01,17.71 70.31,35.63 7.07,5.95 24.55,8.86 31.37,4.35 49.59,-32.6 100.73,-63.94 145.55,-102.46 21.75,-18.7 43.79,-35.25 66.68,-49.07 v 114.94 c -64.4,37.14 -116.11,92.73 -178.66,132.65 -67.28,42.89 -179.04,47.92 -227.89,-12.55 -31.11,-38.52 -74.39,-61.5 -124.53,-57.77 -53.95,4.01 -93.49,42.56 -142.04,61.31 -27.29,10.55 -53.82,8.05 -79.86,-3.73 -27.42,-12.4 -56.44,-28.79 -82.63,-44.46 -35.77,-21.38 -47.48,-42.48 -91.14,-35.15 -37.59,6.33 -79.37,13.36 -102.46,47.83 -25.31,37.86 -48.1,78.51 -90.29,99.48 -51.88,25.76 -107.79,36.32 -165.72,26.91 -54.39,-8.86 -110.13,-7.17 -123.07,-87.81 -5.26,-32.71 -61.05,-43.13 -85.55,-92.31 -47.69,-95.82 -176.73,-96.03 -254.42,-19.69 -71.39,70.12 -139.7,142.07 -251.14,140.79 -61.53,-0.75 -122.76,9.09 -177.19,-35.43 -36.29,-29.69 -39.66,-77.22 -73.56,-108.38 -58.04,-53.44 -115.99,-83.54 -198.56,-57.33 -91.33,29.07 -152.81,100.8 -230.9,148.46 -112.16,68.4 -209.49,41.54 -253.49,-81.45 -6,-16.75 -22.08,-40.03 -36.14,-42.06 -66.62,-9.57 -133.8,-3.92 -186.78,42.41 -53.72,46.98 -111.502,82.23 -181.229,99.1 -61.207,14.85 -120.144,-0.67 -150.906,-48.17 -30.82,-47.66 -85.328,-79.28 -132.043,-45.95 -77.547,55.39 -157.035,105.77 -258.234,92.22 -50.113,-6.71 -102.602,-2.04 -127.555,-69.83 -25.664,-69.73 -119.14,-98.07 -188.8671,-75.09 -20.3711,6.72 -39.1836,15.7 -57.070275,26.02 V 2097.1 C 54.8477,2063.99 114.605,2047.04 187.078,2056.91"
         style="fill:#000000;fill-opacity:1;fill-rule:nonzero;stroke:none"
         id="path46" /><path
         d="m 91,1365.72 c 42.609,-55.94 85.012,-109.63 165.02,-85.45 27.277,8.26 51.929,31.13 76.3,45.99 44.356,26.97 74.426,63.73 107.664,99.63 17.125,18.49 31.426,40.68 51.325,55.37 31.496,23.3 65.796,13.59 94.527,-7.09 43.262,-31.21 42.676,-87.68 64.73,-130.97 17.329,-34.04 94.422,-104.48 134.102,-92.03 42.102,13.16 81.047,28.7 120.766,50 66.019,35.39 116.676,84.58 157.856,141.2 40.32,55.39 92.61,80.06 151.58,41.52 45.35,-29.66 52.81,-85.43 74.61,-131.55 28.81,-61.01 104.43,-94.51 162.77,-85.06 41.35,6.64 76.43,18.59 113.48,42.17 57.79,36.8 86.98,93.96 128.79,141.92 22.35,25.71 51.13,33.48 80.56,26.88 23.55,-5.33 57.51,-17.95 58.79,-41.99 2.96,-56.46 42.58,-87.73 71.75,-126.21 38.82,-51.26 96.46,-61.77 150.71,-42.12 101.81,36.91 167.9,117.23 219.92,209.38 15.25,27.03 32.14,52.18 66.36,53.01 18.46,0.49 41.77,-4.05 47.05,-23.68 17.68,-65.6 56.43,-122.38 66.58,-192.29 13.87,-95.07 190.63,-160.66 286.75,-112.31 98.45,49.58 172.04,115.84 172.65,238.81 0.27,57.55 73.8,103.22 109.47,68.85 32.89,-31.61 80.65,-52.78 99.29,-92.45 36.87,-78.5 104.97,-106.12 177.98,-117.79 110.67,-17.62 156.28,134.14 244.56,165.2 42.13,14.78 64.35,-32.15 89.29,-56.18 59.82,-57.62 117.17,-104.88 204.04,-111.67 39.98,-3.13 74.18,17.39 107.56,37.12 8.06,4.77 16.03,9.8 23.86,15.11 23.64,16.05 45.87,34.59 64.87,55.71 23.09,25.67 49.78,47.93 72.31,74.34 43.09,50.59 85.05,60.89 143.07,26.45 v 109.16 c -7.38,3.08 -14.76,6.08 -22.08,9.07 -80.33,32.74 -177.46,-62.08 -223.5,-120.31 -34.71,-43.88 -58.32,-103.32 -127.25,-104.21 -51.43,-0.68 -89.33,-1.38 -128.01,34.43 -39.79,36.83 -73.99,80.42 -122.84,106.12 -46.04,24.21 -110.39,22.79 -151.89,-9.83 -29.61,-23.26 -60.03,-50.16 -83.18,-80.08 -27.63,-35.7 -60.47,-82.37 -109.92,-44.92 -46.32,35.08 -87.97,79.88 -121.5,127.56 -57.73,82.2 -158.52,125.82 -245.4,83.27 -67.02,-32.83 -120.61,-86.57 -144.35,-162.88 -7.92,-25.61 -30.91,-50.74 -28.65,-74.35 3.24,-33.74 -18.21,-43.05 -36.33,-53.22 -25.26,-14.21 -61.61,-33.06 -81.34,-2.14 -39.28,61.45 -74.81,126.48 -102.93,193.74 -31.39,75.16 -89.52,115.14 -166.79,130.87 -80.4,16.42 -115.76,-37.64 -163.62,-95.4 -40.15,-48.5 -81.65,-100.6 -117.78,-152.41 -16.05,-23.1 -31.2,-30.15 -55.94,-19.87 -39.69,16.54 -41.16,60.47 -63.63,89.5 -85.67,110.85 -212.42,185.26 -327.94,65.77 -24.45,-25.29 -46.8,-53.1 -69.41,-80.01 -15.84,-18.85 -27.21,-45.98 -48.07,-59.8 -64.53,-42.81 -93.8,-17.67 -145.99,80.97 -34.9,65.96 -87.6,122.46 -162.12,140.19 -27.97,6.67 -59.6,18.11 -87.62,8.77 -36.2,-12.06 -66.61,-45.8 -93.55,-71.3 -24.509,-23.17 -50.474,-47.59 -67.677,-76.92 -7.012,-11.89 -10.215,-26.87 -18.488,-37.28 -11.036,-13.95 -30.598,-23.42 -43.286,-36.37 -57.281,-58.72 -149.214,-46.44 -168.086,25.29 -17.359,65.96 -65.925,103.61 -115.468,138.69 -44.524,31.51 -98.535,40.14 -151.11,18.41 -26.375,-10.93 -60.351,-15.72 -74.73,-43.12 -25.496,-48.53 -54.445,-94.7 -91.348,-134.33 -27.953,-29.97 -66.125,-48.9 -94.469,-0.04 -18.847,32.52 -43.421,60.67 -58.988,96.53 -25.574,58.98 -81.1248,86.51 -136.644375,109.62 v -109.14 c 1.699215,-1.01 3.378905,-1.92 5.117185,-3.01 C 58.2578,1469.19 58.1992,1408.78 91,1365.72"
         style="fill:#000000;fill-opacity:1;fill-rule:nonzero;stroke:none"
         id="path48" /><path
         d="m 221.57,273.531 c 29.344,-39.992 65.395,-79.363 119.305,-88.402 116.191,-19.41 198.621,48.281 280.578,113.543 48.535,38.637 91.801,86.789 159.664,33.75 50.746,-39.672 108.75,-69.473 163.692,-102.024 77.931,-46.128 243.811,11.18 322.441,90.774 35.98,36.379 92.31,66.598 136.84,32.066 114.97,-89.078 288.34,-103.777 401.7,-22.027 69.87,50.391 129.67,49.66 198.77,-0.551 71.99,-52.359 141.33,-108.719 232.73,-126.98 142.36,-28.391 228.11,69.449 326.41,141.199 36.86,26.859 52.78,78.512 106.09,85.973 82.82,11.539 142.79,-43.18 195.83,-85.731 78.79,-63.293 153.43,-117.082 250.89,-106.242 57.22,6.391 100.3,10.152 151.53,40.59 42.58,25.312 70.44,81.383 126.35,75.453 92.83,-9.832 138.35,-120.594 229.56,-137.094 133.63,-24.187 155.07,197.031 287.72,126.852 70.27,-37.18 129.75,-103.668 207.08,-127.489 43.39,-13.371 91.16,12.411 133.22,29.848 l -0.03,115.492 c -48.6,-29.082 -98.91,-47.543 -146.17,-12.73 -67.02,49.359 -117.22,110.289 -203.89,127.558 -37.68,7.5 -95.24,14.082 -131.25,-3.07 -31.95,-15.211 -49.85,-47.93 -79.23,-66.418 -36.43,-22.922 -99.53,-28.383 -139.11,-10.019 -53.24,24.738 -89.14,64.347 -153.52,59.57 -56.95,-4.211 -108.98,-29.711 -161.03,-48.934 -38.65,-14.25 -79.15,-23.527 -119.74,-30.168 -50.74,-8.3 -106.14,3.282 -154,20.41 -54.7,19.571 -101.87,78.18 -146.16,114.45 -45.86,37.539 -111.45,76.64 -173.69,62.539 -56.09,-12.699 -100.05,-47.289 -141.19,-85.61 -36.33,-33.82 -68.26,-72.847 -104.08,-107.031 -37.36,-35.629 -100.77,-44.449 -150.18,-45.226 -69.95,-1.114 -126.56,56.75 -178.67,102.539 -62.77,55.199 -136.31,92.05 -219.35,60.8 -35.62,-13.402 -54,-42.621 -85.73,-60.82 -40.24,-23.031 -93.77,-37.543 -139.91,-39.723 -39.26,-1.878 -80.09,6.692 -116.62,20.793 -33.9,13.09 -55.23,43.071 -81.96,67.329 -40.89,37.16 -81.4,41.679 -134.78,17.242 C 1205.6,466.602 1148.87,384 1049.37,361.441 981.059,345.93 930.969,368.398 883.297,399.648 822.398,439.68 779.293,512.73 687.551,478.141 c -15.906,-6.012 -32.43,-1.84 -48.774,-8.082 -16.41,-6.25 -31.05,-16.329 -44.679,-27.27 C 567.02,421.09 544.477,394.27 516.996,373.078 480.77,345.121 436.988,314.68 393.367,299.309 324.516,275.059 277.426,325.391 244.961,380.059 219.148,423.488 187.59,454.738 126.676,436.66 84.8594,424.219 58.6602,391.879 21.9727,374.352 14.5234,370.801 7.23828,366.691 0.015625,362.289 V 247.039 C 26.3242,259.199 52.082,273.672 77.3281,289.699 129.863,323.059 176.363,335.078 221.57,273.531"
         style="fill:#000000;fill-opacity:1;fill-rule:nonzero;stroke:none"
         id="path50" /><path
         d="m 318.613,1743.01 c 28.875,24.17 47.106,65.25 78.926,81.06 76.774,38.1 222.024,-14.76 273.566,-83.37 24.731,-32.95 73.36,-41.81 111.184,-37.91 94.391,9.79 157.766,79.51 226.451,136.27 42.6,35.15 81.27,61.35 129.42,6.12 24.42,-27.99 57.88,-46.4 82.72,-76.9 17.99,-22.04 58.39,-26.87 89.57,-36.99 75.95,-24.51 146.36,-12.5 198.2,49.36 39.56,47.12 62.76,86.22 132.47,28.61 85.45,-70.59 184.07,-126.81 304.1,-121.56 74.32,3.23 224.38,111.13 244.11,178.86 16.69,57.41 89.25,87.85 137.97,53.69 77.42,-54.31 134.39,-133.31 223.9,-174.74 87.61,-40.51 265.93,-6.42 327.53,65.85 48.21,56.61 139.87,111.95 221.7,86.04 63.43,-20.05 84.05,-74.84 125.42,-111.25 58.66,-51.53 132.27,-79.2 209.38,-56.09 48.85,14.64 75.29,62.67 129.23,68.88 81,9.3 156.09,-48.2 220.54,-88.07 45.21,-27.99 96.07,-42.03 146.26,-32.58 65.37,12.29 115.11,57.98 168.81,95.98 38.59,27.38 76.72,87.87 139.78,37.23 4,-3.2 8.04,-6.35 12.09,-9.49 v 95.67 c -102.93,75.33 -236.91,47.92 -306.17,-74.83 -12.19,-21.62 -21.8,-52.6 -58.67,-46.33 -36.61,6.23 -70.41,19.41 -102.31,38.12 -59.32,34.75 -112.29,82.59 -184.94,90.28 -10.04,1.73 -20.34,2.46 -31.02,2.58 -30.54,0.32 -67.9,-7.49 -89.7,-30.78 -16.25,-17.35 -21.75,-40.58 -41.13,-56.27 -44.56,-36.04 -102.26,-19.38 -136.29,22.36 -69.38,85.14 -150.79,156.21 -263.52,181.33 -46.21,10.33 -95.18,20.17 -128.42,-17.37 -51.72,-58.37 -121.67,-97.59 -164.89,-164.65 -23.84,-36.95 -153.07,-23.68 -189.69,11.43 -70.79,67.86 -135.21,142.15 -232.79,178.87 -126.14,47.44 -240.79,-5.74 -288.44,-123.2 -46.31,-114.28 -89.32,-152.96 -186.41,-123.83 -48.24,14.51 -105.78,32.65 -143.27,76.05 -112.32,129.94 -175.49,132.78 -293.9,21.29 -22.76,-21.44 -16.59,-62.56 -51.2,-68.59 -68.57,-11.96 -100.56,35.02 -144.86,75.86 -0.5,0.45 -0.98,0.9 -1.49,1.34 -47.68,43.56 -117.29,88.61 -184.75,81.89 -96.853,-9.65 -141.592,-99.1 -207.783,-154.19 -33.25,-27.65 -51.344,-42.3 -95.762,-24.08 -81.629,33.49 -128.5,116.09 -216.316,140.58 -68.477,19.13 -188.457,-13.14 -237.578,-63.37 -28.282,-28.8 -38.809,-88.83 -85.328,-83.5 -52.188,5.95 -107.5122,29.59 -143.4028,70.49 -13.1407,14.97 -27.2071,27.8 -41.894575,38.55 v -95.67 C 17.6836,1788.34 35.957,1775.25 54.8711,1763.38 139.055,1710.66 225.191,1664.86 318.613,1743.01"
         style="fill:#000000;fill-opacity:1;fill-rule:nonzero;stroke:none"
         id="path52" /></g></g></svg>
