<?xml version="1.0" encoding="UTF-8" standalone="no"?>
<svg
   xmlns:dc="http://purl.org/dc/elements/1.1/"
   xmlns:cc="http://creativecommons.org/ns#"
   xmlns:rdf="http://www.w3.org/1999/02/22-rdf-syntax-ns#"
   xmlns:svg="http://www.w3.org/2000/svg"
   xmlns="http://www.w3.org/2000/svg"
   xmlns:sodipodi="http://sodipodi.sourceforge.net/DTD/sodipodi-0.dtd"
   xmlns:inkscape="http://www.inkscape.org/namespaces/inkscape"
   version="1.1"
   id="svg2"
   xml:space="preserve"
   width="566.93335"
   height="566.93335"
   viewBox="0 0 566.93335 566.93335"
   sodipodi:docname="23.eps"><metadata
     id="metadata8"><rdf:RDF><cc:Work
         rdf:about=""><dc:format>image/svg+xml</dc:format><dc:type
           rdf:resource="http://purl.org/dc/dcmitype/StillImage" /></cc:Work></rdf:RDF></metadata><defs
     id="defs6" /><sodipodi:namedview
     pagecolor="#ffffff"
     bordercolor="#666666"
     borderopacity="1"
     objecttolerance="10"
     gridtolerance="10"
     guidetolerance="10"
     inkscape:pageopacity="0"
     inkscape:pageshadow="2"
     inkscape:window-width="640"
     inkscape:window-height="480"
     id="namedview4" /><g
     id="g10"
     inkscape:groupmode="layer"
     inkscape:label="ink_ext_XXXXXX"
     transform="matrix(1.3333333,0,0,-1.3333333,0,566.93333)"><g
       id="g12"
       transform="scale(0.1)"><path
         d="M 4251.97,0 H 0 V 4251.97 H 4251.97 V 0"
         style="fill:#ffffff;fill-opacity:1;fill-rule:evenodd;stroke:none"
         id="path14" /><path
         d="m 1930.88,3004.27 c -2.38,-10.72 1.95,-18.29 7.87,-25.33 1.09,9.27 3.46,18.94 -7.87,25.33 z m -60.12,-204.75 c 3.81,14.65 -3.45,22.78 -8.79,35.45 -3.45,-15.18 0.84,-24.19 8.79,-35.45 z m 93.86,-143.36 c 3.27,2.43 7.42,4.43 7.37,8.98 -0.06,4.77 -3.38,7.38 -8.15,7.11 -4.6,-0.23 -8.1,-2.44 -7.3,-7.67 0.67,-4.34 3.84,-6.98 8.08,-8.42 z m 8.36,254.75 c 2.85,7.55 4.34,12.82 6.77,17.66 1.77,3.49 1.93,5.87 -1.42,8.2 -3.22,2.22 -6.29,0.94 -9.16,-0.42 -3.84,-1.82 -1.24,-4.45 -0.56,-6.94 1.43,-5.23 2.53,-10.54 4.37,-18.5 z m -215.01,126.6 c -2.85,13.12 8.48,27.45 -3.8,41.52 -2.09,-15.5 0.36,-28.64 3.8,-41.52 z m 380.47,79.77 c 4.92,4.53 4.02,10.42 5.73,15.21 1.22,3.41 2.22,6.92 3.04,10.44 1.99,8.59 -1.62,11.78 -5.33,5.59 -4.8,-8.02 -14.34,-15.44 -7.43,-26.88 0.87,-1.41 2.26,-2.5 3.99,-4.36 z m -223.07,-339.92 c 3.94,9.76 2.5,17.91 1.25,25.97 -0.61,3.86 -3.44,7.42 -7.11,7.38 -4.72,-0.03 -4.86,-4.94 -4.79,-8.39 0.25,-9.26 2.39,-17.87 10.65,-24.96 z m -30.74,172.83 c 4.95,22.38 -4.1,41.45 -13.72,60.4 -4.37,-22.09 4.42,-41.27 13.72,-60.4 z m -69.02,-44.55 c -0.21,-4.78 1.01,-11.05 2.8,-17.23 0.88,-3.07 0.87,-7.34 4.77,-7.29 3.35,0.04 4.34,4.14 5.77,6.99 4.66,9.34 0.6,18.81 0.74,28.23 0.04,4.85 1.11,9.56 -5.47,10.19 -6.85,0.67 -8.24,-4.86 -9.26,-9.71 -0.6,-3 0.29,-6.31 0.65,-11.18 z m -30.23,207.92 c 1.97,-5.36 -2.05,-15.16 8.07,-12.7 7.33,1.77 20.38,-5.91 21.21,9.96 0.34,6.37 -12.94,28.95 -16.07,27.36 -9.83,-5.01 -10.91,-15.49 -13.21,-24.62 z m 90.75,-1.6 c -0.99,-0.77 -1.97,-1.52 -2.94,-2.28 3.45,-6.4 7.39,-12.57 10.24,-19.23 7.06,-16.49 17.87,-30.77 26.29,-46.46 1.96,-3.63 4.77,-6.61 8.57,-5.07 4.98,2.05 1.53,6.31 0.38,9.19 -2.88,7.21 -5.68,14.65 -9.86,21.15 -9.7,15.12 -19.71,30.17 -32.68,42.7 z m 8.17,-268.39 c 9.25,14.72 -1.6,24.95 -2.25,36.08 -0.75,12.64 -12.69,17.15 -20.36,24.66 -2.9,2.85 -5.46,1.35 -7.16,-2.59 -5.36,-12.33 -7.6,-24.71 -2.66,-37.73 0.96,-2.53 2.34,-4.41 4.87,-3.18 15.6,7.6 21.6,-2.59 27.56,-17.24 z m 206.07,367.53 c -0.31,0 -3.46,0.66 -4.74,-2.59 -1.21,-3.02 1.07,-5.21 2.81,-7.28 6.69,-8.14 13.61,-16.12 20.22,-24.36 3.97,-4.98 6.8,-13.73 11.4,-14.65 5.75,-1.15 7.73,9 13.1,12.49 9.48,6.15 7.09,12.34 0.43,18.99 -11.32,11.32 -25.11,16.57 -43.22,17.4 z m 25.08,-124.33 c -18.35,-33.3 -29.91,-68.81 -39.59,-107.78 33.39,30.71 42.47,67.21 39.59,107.78 z m -64.65,65.02 c -16.96,-10.55 -22.15,-25.38 -26.21,-40.05 -4.15,-14.92 -5.85,-30.5 -8.65,-45.8 -4.32,-23.66 -9.75,-47.16 -10.2,-71.67 6.17,9.94 8.87,20.98 11.11,32.3 5.26,26.48 8.23,54.21 22.62,77.33 9.36,15 7.91,30.01 11.33,47.89 z M 1720,3095.53 c -0.62,15.94 2.81,31.26 8.03,46 9.89,27.93 32.23,38.7 59.99,40.41 25.4,1.58 46.85,-6.76 67.39,-22.53 35.45,-27.19 60.92,-63.07 89.76,-96.08 1.22,-1.38 2.34,-2.93 3.03,-4.62 2.54,-6.15 2.97,-16.53 10.86,-15.33 6.64,1.04 5.98,11.65 6.74,18.05 3.99,33.83 16.92,64.91 29.72,95.83 11.53,27.81 29.52,51 58.27,63.65 37.38,16.41 76.23,4.99 102.93,-25.82 20.98,-24.22 13.79,-49.74 9.67,-75.62 -4.96,-31.43 -19.22,-60.11 -28.83,-90.16 -11.02,-34.45 -18.13,-70.19 -33.05,-103.37 -7.51,-16.63 -12.01,-34.42 -21.74,-50.3 -5.48,-8.97 -7.85,-20.13 -10.33,-30.6 -10.86,-46.02 -28.93,-89.34 -51.14,-130.72 -14.74,-27.47 -22.65,-58.15 -40.79,-83.92 -3.38,-4.81 -7.98,-8.65 -9.94,-14.77 -2.12,-6.63 -8.6,-8.36 -14.8,-7.17 -6.45,1.27 -7.38,6.2 -7.57,12.63 -0.47,17.79 -9.24,32.9 -20.56,45.54 -22.63,25.26 -37.48,55.76 -58.17,82.28 -20.64,26.45 -38.81,54.68 -57.5,82.51 -22.73,33.85 -40.41,70.07 -55.11,107.73 -16.25,41.58 -23.33,85.89 -34.6,128.93 -2.27,8.76 -1.6,18.28 -2.26,27.45"
         style="fill:#000000;fill-opacity:1;fill-rule:evenodd;stroke:none"
         id="path16" /><path
         d="m 1521.62,735.871 c -2.4,-10.73 1.93,-18.281 7.87,-25.34 1.07,9.27 3.44,18.938 -7.87,25.34 z m -60.14,-204.742 c 3.84,14.652 -3.45,22.75 -8.76,35.449 -3.48,-15.199 0.81,-24.207 8.76,-35.449 z m 93.87,-143.359 c 3.27,2.41 7.4,4.41 7.37,8.968 -0.06,4.782 -3.37,7.371 -8.15,7.121 -4.6,-0.25 -8.1,-2.449 -7.28,-7.668 0.66,-4.339 3.8,-6.972 8.06,-8.421 z m 8.39,254.738 c 2.8,7.562 4.3,12.832 6.73,17.652 1.78,3.512 1.93,5.879 -1.43,8.211 -3.2,2.207 -6.29,0.93 -9.16,-0.422 -3.83,-1.828 -1.23,-4.437 -0.54,-6.949 1.42,-5.211 2.52,-10.512 4.4,-18.492 z m -215.05,126.613 c -2.85,13.109 8.47,27.449 -3.79,41.508 -2.11,-15.488 0.35,-28.629 3.79,-41.508 z m 380.47,79.77 c 4.92,4.539 4.03,10.418 5.74,15.218 1.22,3.411 2.23,6.891 3.02,10.411 2.01,8.601 -1.6,11.808 -5.3,5.601 -4.8,-8.031 -14.36,-15.43 -7.44,-26.871 0.86,-1.43 2.26,-2.512 3.98,-4.359 z M 1506.09,508.949 c 3.95,9.77 2.5,17.91 1.26,25.992 -0.61,3.879 -3.45,7.411 -7.11,7.36 -4.71,-0.031 -4.85,-4.93 -4.77,-8.379 0.21,-9.262 2.37,-17.871 10.62,-24.973 z m -30.74,172.832 c 4.97,22.387 -4.1,41.449 -13.7,60.418 -4.38,-22.109 4.41,-41.281 13.7,-60.418 z m -69,-44.551 c -0.24,-4.781 1.01,-11.031 2.8,-17.21 0.87,-3.071 0.85,-7.36 4.76,-7.301 3.36,0.031 4.33,4.133 5.76,7 4.67,9.332 0.61,18.793 0.74,28.23 0.06,4.832 1.12,9.539 -5.46,10.18 -6.84,0.672 -8.25,-4.848 -9.24,-9.699 -0.63,-3.02 0.29,-6.328 0.64,-11.2 z m -30.26,207.918 c 1.98,-5.339 -2,-15.14 8.12,-12.679 7.3,1.769 20.35,-5.918 21.18,9.961 0.34,6.371 -12.94,28.929 -16.07,27.359 -9.82,-5.019 -10.93,-15.5 -13.23,-24.641 z m 90.76,-1.597 c -0.99,-0.742 -1.96,-1.5 -2.94,-2.27 3.46,-6.39 7.42,-12.562 10.26,-19.222 7.06,-16.481 17.88,-30.789 26.28,-46.457 1.95,-3.641 4.76,-6.633 8.55,-5.09 5,2.058 1.55,6.328 0.42,9.187 -2.92,7.231 -5.71,14.672 -9.87,21.153 -9.73,15.128 -19.71,30.199 -32.7,42.699 z m 8.17,-268.391 c 9.25,14.731 -1.59,24.961 -2.24,36.098 -0.72,12.621 -12.7,17.16 -20.33,24.64 -2.93,2.872 -5.48,1.352 -7.19,-2.589 -5.34,-12.329 -7.58,-24.688 -2.64,-37.719 0.95,-2.539 2.33,-4.399 4.85,-3.192 15.59,7.602 21.61,-2.589 27.55,-17.238 z m 206.08,367.559 c -0.29,-0.028 -3.46,0.66 -4.75,-2.598 -1.21,-3.019 1.07,-5.199 2.81,-7.281 6.7,-8.16 13.63,-16.129 20.22,-24.36 3.97,-4.992 6.81,-13.75 11.4,-14.652 5.74,-1.148 7.74,9 13.13,12.5 9.45,6.152 7.07,12.332 0.4,18.992 -11.32,11.309 -25.11,16.559 -43.21,17.399 z m 25.07,-124.328 c -18.33,-33.313 -29.91,-68.821 -39.59,-107.782 33.42,30.692 42.49,67.18 39.59,107.782 z m -64.65,65.007 c -16.96,-10.546 -22.14,-25.386 -26.21,-40.039 -4.11,-14.929 -5.86,-30.507 -8.63,-45.8 -4.34,-23.68 -9.75,-47.18 -10.22,-71.688 6.18,9.938 8.88,20.981 11.12,32.289 5.25,26.5 8.22,54.231 22.64,77.352 9.33,15 7.89,30.008 11.3,47.886 z m -330.79,-56.257 c -0.62,15.929 2.8,31.269 8.02,45.98 9.9,27.938 32.23,38.707 60,40.43 25.39,1.57 46.86,-6.77 67.39,-22.539 35.45,-27.172 60.92,-63.071 89.76,-96.09 1.21,-1.352 2.35,-2.934 3.05,-4.602 2.52,-6.172 2.95,-16.539 10.84,-15.332 6.63,1.032 5.99,11.66 6.73,18.032 4,33.859 16.94,64.941 29.73,95.851 11.52,27.82 29.51,51 58.26,63.629 37.38,16.422 76.23,5 102.92,-25.801 20.99,-24.211 13.8,-49.75 9.69,-75.629 -4.98,-31.422 -19.23,-60.101 -28.84,-90.152 -11,-34.469 -18.1,-70.199 -33.04,-103.367 -7.51,-16.641 -12.01,-34.442 -21.75,-50.313 -5.48,-8.976 -7.84,-20.129 -10.32,-30.609 -10.84,-46.02 -28.94,-89.34 -51.14,-130.699 -14.75,-27.481 -22.65,-58.149 -40.8,-83.93 -3.36,-4.801 -7.97,-8.648 -9.93,-14.781 -2.12,-6.617 -8.6,-8.348 -14.79,-7.16 -6.47,1.269 -7.38,6.199 -7.56,12.621 -0.49,17.808 -9.27,32.91 -20.59,45.55 -22.59,25.258 -37.48,55.77 -58.16,82.301 -20.63,26.438 -38.79,54.649 -57.5,82.481 -22.72,33.847 -40.42,70.09 -55.12,107.726 -16.24,41.582 -23.32,85.891 -34.59,128.942 -2.29,8.761 -1.6,18.3 -2.26,27.461"
         style="fill:#000000;fill-opacity:1;fill-rule:evenodd;stroke:none"
         id="path18" /><path
         d="m 17.582,3385.47 c 28,-1.48 42.6368,-20.26 55.6758,-41.24 13.4414,-21.6 18.8164,-46.66 29.9722,-69.24 1.793,-3.63 1.899,-8.06 5.422,-10.88 4.317,-3.47 4.258,-8.17 2.536,-12.6 -1.657,-4.33 -6.165,-3.13 -9.668,-3.39 -5.6372,-0.4 -8.352,3.39 -9.9184,7.97 -2.3633,6.95 -3.4453,14.46 -6.6914,20.94 -5.4766,10.98 -10.0938,22.49 -21.6563,29.63 -10.832,6.67 -7.957,21.4 -14.6406,30.29 -11.5977,15.44 -9.8828,39.16 -31.0313,48.52 z m 96.242,-341.94 c -0.269,-2.81 0.61,-7.07 -3.879,-7.85 -3.187,-0.57 -4.816,2.16 -6.703,4.12 -12.7459,13.12 -7.4022,41.55 9.863,51.25 4.653,-15.85 2.309,-31.72 0.719,-47.52 z m -49.5232,92.01 c 4.1992,-14.29 3.0508,-26.19 4.4726,-39.59 -11.4257,9.79 -12.9375,23.04 -4.4726,39.59 z m 97.9572,187.18 c 5.441,16.21 14.015,30.88 21.984,45.85 9.508,17.85 25.5,19.68 43.664,16.98 -28.597,-14.48 -40.636,-41.77 -55.125,-67 -4.375,-7.62 -2.582,-17.39 -8.363,-24.53 -1.68,-2.08 -2.949,-5.19 -6.289,-4.34 -3.516,0.86 -2.836,4.24 -3.188,6.84 -1.269,9.76 4.418,17.56 7.317,26.2 z m 62.062,92.62 c 11.778,10.03 35.453,12.95 48.84,4.7 10.32,-6.33 5.231,-16.7 4.711,-25.31 -0.316,-5.6 -3.551,-11.04 -6.266,-18.78 -12.8,15.11 -25.996,26.34 -45.21,28.47 -7.719,0.86 -8.563,5.39 -2.075,10.92 z m 31.7,-70.53 c -4.946,-18.16 -22.547,-17.2 -34.985,-24.51 3.965,13.85 11.41,25.28 20.899,35.14 2.558,2.66 6.605,7.99 11.586,4.18 4.878,-3.73 4.136,-8.77 2.5,-14.81 z m -85.469,-103.48 c -1.418,0.51 -2.832,1.03 -4.262,1.55 3.774,32.3 16.406,61.35 32.859,88.99 1.735,-0.62 3.473,-1.28 5.231,-1.92 -11.293,-29.56 -22.563,-59.08 -33.828,-88.62 z M 67.7813,3032.27 c 7.8203,-17.22 22.2226,-28.9 31.3242,-44.92 9.9415,-17.52 32.8825,-24.65 39.1365,-46.26 1.274,-4.41 7.778,-7.01 12.856,-6.79 5.84,0.27 5.59,5.86 6.855,10.35 2.004,7.01 4.305,14.24 8.094,20.39 9.719,15.73 24.312,27.79 33.527,44.15 36.5,64.68 67.949,131.86 98.321,199.54 7.144,15.92 14.332,32.06 19.64,48.5 7.848,24.32 10.547,50.28 18.031,74.73 8.832,28.92 -1.714,54.36 -13.027,78.54 -11.875,25.39 -40.543,27.85 -63.777,36.86 -7.324,2.81 -15.305,3.74 -23.137,2.45 -32.555,-5.4 -60.23,-19.65 -84.004,-43.09 -19.902,-19.66 -32.433,-43.13 -42.82,-68.35 -1.086,-2.6 -1.028,-7.46 -5.457,-6.45 -2.836,0.63 -6.262,2.72 -6.8401,6.29 -1.3047,8.17 -7.0312,14 -11.0078,20.59 C 66.3516,3390.32 32.9844,3410.42 0,3407.14 v -67.44 c 0.621094,-0.96 1.23047,-1.94 1.83984,-2.89 6.23047,-9.37 4.62891,-20.31 6.5,-30.56 4.81646,-26.32 2.79686,-53.9 15.89846,-76.36 -2.5703,-6.15 1.0859,-11.85 -4.2774,-13.38 -4.8593,-1.36 -8.6992,2.54 -11.30465,6.35 -3.49609,5.16 -6.28906,10.56 -8.65625,16.1 v -104.29 c 12.8359,-19.12 26.2891,-37.84 38.5391,-57.34 9.5664,-15.17 21.9218,-28.94 29.2422,-45.06"
         style="fill:#000000;fill-opacity:1;fill-rule:nonzero;stroke:none"
         id="path20" /><path
         d="m 2030.94,2052.03 c -8.44,-16.56 -6.93,-29.82 4.49,-39.62 -1.43,13.41 -0.28,25.29 -4.49,39.62 z m 156.76,184.75 c 12.44,7.3 30.03,6.34 34.97,24.5 1.65,6.06 2.39,11.07 -2.5,14.81 -4.98,3.81 -9.04,-1.53 -11.6,-4.19 -9.48,-9.84 -16.93,-21.26 -20.87,-35.12 z m -54.75,-77.43 c 1.42,-0.52 2.83,-1.04 4.26,-1.55 11.27,29.54 22.54,59.09 33.81,88.62 -1.74,0.64 -3.47,1.29 -5.23,1.93 -16.45,-27.64 -29.1,-56.71 -32.84,-89 z m -53.18,-151.83 c -17.29,-9.69 -22.62,-38.14 -9.87,-51.25 1.87,-1.97 3.52,-4.69 6.69,-4.12 4.5,0.78 3.62,5.04 3.89,7.84 1.6,15.82 3.94,31.69 -0.71,47.53 z m 158.47,284.91 c 2.73,7.73 5.95,13.16 6.29,18.77 0.51,8.61 5.62,18.98 -4.71,25.31 -13.39,8.25 -37.08,5.34 -48.85,-4.71 -6.48,-5.51 -5.66,-10.05 2.08,-10.9 19.21,-2.14 32.42,-13.37 45.19,-28.47 z m -43.67,9.6 c -18.16,2.68 -34.18,0.86 -43.67,-16.98 -7.97,-14.97 -16.55,-29.64 -21.99,-45.85 -2.9,-8.64 -8.58,-16.45 -7.31,-26.21 0.33,-2.61 -0.34,-5.98 3.17,-6.84 3.36,-0.84 4.62,2.26 6.31,4.34 5.77,7.14 3.98,16.9 8.35,24.54 14.5,25.23 26.53,52.51 55.14,67 z M 1990.9,2146.37 c -13.11,22.45 -11.11,50.03 -15.92,76.35 -1.86,10.24 -0.27,21.18 -6.48,30.57 -2.05,3.1 -3.78,7.03 -7.7,7.11 -4.81,0.12 -4.49,-4.64 -5.72,-7.99 -6.12,-16.7 -2.61,-33.79 -0.1,-50.15 3.38,-21.77 7.46,-43.97 20.34,-62.91 2.58,-3.82 6.43,-7.74 11.28,-6.36 5.37,1.51 1.72,7.24 4.3,13.38 z m -6.66,155.57 c 21.13,-9.37 19.43,-33.09 31.03,-48.52 6.66,-8.88 3.81,-23.62 14.63,-30.3 11.56,-7.14 16.19,-18.63 21.66,-29.61 3.22,-6.49 4.31,-14.01 6.7,-20.95 1.56,-4.58 4.28,-8.36 9.89,-7.96 3.51,0.24 8.02,-0.94 9.7,3.38 1.72,4.44 1.78,9.13 -2.54,12.6 -3.54,2.82 -3.64,7.25 -5.43,10.88 -11.14,22.58 -16.54,47.65 -29.96,69.24 -13.05,20.99 -27.68,39.78 -55.68,41.24 z m -79.64,-81.09 c 0.09,21.37 5.12,42.08 8.1,62.99 2.79,19.62 19.1,29.03 35.13,35.33 38.47,15.11 81.51,-6.32 104.31,-43.9 3.99,-6.57 9.7,-12.43 11,-20.58 0.59,-3.58 4,-5.65 6.84,-6.3 4.45,-1.01 4.38,3.86 5.44,6.45 10.41,25.23 22.96,48.7 42.86,68.35 23.77,23.45 51.43,37.71 83.99,43.09 7.85,1.29 15.82,0.36 23.11,-2.45 23.25,-8.99 51.94,-11.47 63.8,-36.85 11.33,-24.19 21.87,-49.63 13.05,-78.53 -7.48,-24.46 -10.2,-50.43 -18.06,-74.75 -5.28,-16.42 -12.49,-32.59 -19.63,-48.49 -30.37,-67.68 -61.81,-134.85 -98.31,-199.55 -9.22,-16.37 -23.82,-28.42 -33.54,-44.15 -3.78,-6.15 -6.07,-13.4 -8.08,-20.4 -1.27,-4.47 -1.01,-10.07 -6.86,-10.35 -5.09,-0.22 -11.57,2.38 -12.85,6.8 -6.25,21.61 -29.19,28.75 -39.13,46.25 -9.1,16.03 -23.51,27.71 -31.34,44.93 -7.33,16.12 -19.68,29.9 -29.24,45.08 -23.98,38.13 -52.59,73.37 -72.14,114.3 -17.04,35.66 -27.41,73.09 -28.45,112.73"
         style="fill:#000000;fill-opacity:1;fill-rule:evenodd;stroke:none"
         id="path22" /><path
         d="m 963.734,3098.03 c 7.868,-1.52 14.899,-4.16 20.094,-10.41 1.274,-1.53 3.438,-1.2 4.809,0.45 1.558,1.89 0.586,3.45 -1.235,4.37 -7.304,3.78 -14.066,9.8 -23.668,5.59 z m 71.856,-6.57 c -6.03,9.62 -11.33,19.98 -23.76,23.25 8.14,-7.53 10.93,-20.35 23.76,-23.25 z m 199.65,-14.23 c -7.46,-4.03 -14.34,-6.83 -15.47,-14.67 -0.42,-2.9 4.55,-6.08 6.97,-4.71 6.67,3.73 8.72,10.39 8.5,19.38 z m -79.16,-172.61 c -6.48,1.17 -10.16,-1.13 -13.29,-3.47 -3.86,-2.9 -5.86,-7.18 -3.36,-12.12 0.99,-1.93 2.72,-5.17 3.84,-5.05 4.68,0.47 6.37,4.28 7.65,8.49 1.17,3.85 3.12,7.44 5.16,12.15 z M 1031.9,2783.03 c -2.82,3.49 4.1,11.05 -3.76,11.58 -3.13,0.21 -11.79,-1.32 -10.79,-7.54 1.04,-6.4 5.05,-14.72 11.54,-15.36 6.04,-0.59 1.6,7.22 3.01,11.32 z m 17.88,77.02 c -6.02,-15.24 -8.55,-30.57 -3.72,-46.01 1.22,-0.03 2.48,-0.04 3.72,-0.06 0,15.36 0,30.71 0,46.07 z m 151.43,218.4 c 13.26,7.06 26.43,14.31 39.84,21.07 8.17,4.12 8.21,13.19 6.1,17.78 -3.09,6.75 -10.07,0.72 -13.96,-1.98 -13.44,-9.38 -25.28,-20.57 -31.98,-36.87 z m -294.784,-30.87 c 11.875,35.67 21.058,71.32 68.512,68.06 -20.036,16.58 -44.918,13.45 -58.239,-6.07 -6.793,-9.96 -11.039,-21.17 -14.304,-32.37 -2.551,-8.67 -5.344,-19.04 4.031,-29.62 z m 55.285,-138.79 c -5.188,52.87 -20.828,103.42 -23.352,156.32 -13.32,-23.13 -21.074,-49.55 -14.898,-73.34 7.539,-29 25.062,-55.44 38.25,-82.98 z m 93.019,36.35 c 1.18,0.32 2.35,0.63 3.55,0.95 2.79,28.04 -0.54,55.25 -11.59,81.58 -7.28,17.4 -14.52,34.71 -30.32,46.54 -4.16,3.11 -8.34,6.67 -13.51,2.62 -5.364,-4.2 -0.87,-7.8 1.05,-11.86 13.85,-29.11 30.21,-57.08 37.03,-89.29 2.24,-10.67 9.05,-20.37 13.79,-30.54 z m 118.74,-102.32 c 8.21,10.16 14.79,18.35 21.43,26.46 43.01,52.47 77.48,109.92 99.9,174.1 8.03,22.96 8.47,46.76 -5.22,67.93 -11.47,17.74 -24.69,35.61 -49.68,33.06 -13.86,-1.41 -26.31,-7.71 -37.59,-16.3 -30.47,-23.18 -53.36,-52.8 -71.74,-85.82 -9.01,-16.18 -15.12,-33.97 -22.44,-51.06 -0.53,-1.22 -0.23,-2.77 -0.63,-4.08 -1.66,-5.69 3.42,-7.53 6.41,-9.41 5.12,-3.23 5.84,2.39 7.17,5.31 4.7,10.23 8.89,20.67 13.64,30.85 14.46,30.85 31.92,59.79 54.79,85.23 13.97,15.56 29.32,29.08 50.18,35 13.77,3.92 20.83,-0.86 20.96,-15.32 0.03,-5.69 1.17,-10.96 5.17,-15.31 6.68,-7.25 7.72,-16.13 7.93,-25.57 0.67,-27.95 -10.94,-52.88 -20.42,-77.86 -19.47,-51.14 -45.34,-99.19 -76.37,-144.38 -2.12,-3.05 -4.17,-5.84 -3.49,-12.83 z m -84.02,159.66 c 13.27,23.7 22.52,46.32 36.41,66.37 24.55,35.38 50.31,69.06 92.13,86.36 41.27,17.05 80.55,-17.42 92.02,-49.75 14,-39.38 0.21,-73.68 -15.39,-108.01 -14.78,-32.56 -34.31,-62.13 -54.69,-91.7 -25.11,-36.4 -54.29,-69.21 -80.69,-104.32 -5.63,-7.48 -7.95,-17.52 -11.31,-26.57 -8.18,-22.06 -24.02,-39.72 -34.34,-60.58 -4.47,-9.08 -11.34,-15.52 -22.75,-15.17 -5.7,0.19 -9.96,-1.52 -7.34,-9.12 1.89,-5.49 -1.06,-9.92 -5.61,-12.9 -4.96,-3.27 -8.35,0.47 -12.29,2.98 -34.33,21.94 -53.06,56.99 -74.389,89.58 -26.957,41.2 -50.293,84.54 -69.586,129.88 -13.793,32.37 -28.676,64.54 -37.66,98.53 -7.031,26.62 -7.965,54.22 -2.219,81.92 2.863,13.78 4.484,27.7 8.824,41.3 10.11,31.78 38.844,46.73 71.387,35.93 26.637,-8.85 50.503,-20.5 71.643,-39.12 20.13,-17.75 28.13,-40.91 35.38,-65.42 4.89,-16.48 12.92,-32.02 20.47,-50.19"
         style="fill:#000000;fill-opacity:1;fill-rule:evenodd;stroke:none"
         id="path24" /><path
         d="m 96.4023,709.16 c 7.8787,-1.539 14.9297,-4.172 20.1247,-10.422 1.25,-1.527 3.414,-1.199 4.782,0.453 1.586,1.899 0.586,3.43 -1.231,4.36 -7.301,3.777 -14.062,9.801 -23.6757,5.609 z m 71.8597,-6.57 c -6.028,9.59 -11.305,19.98 -23.742,23.23 8.136,-7.519 10.929,-20.34 23.742,-23.23 z M 367.93,688.352 c -7.461,-4.043 -14.336,-6.84 -15.465,-14.653 -0.414,-2.929 4.555,-6.109 6.969,-4.738 6.679,3.738 8.73,10.379 8.496,19.391 z M 288.777,515.73 c -6.488,1.168 -10.164,-1.128 -13.308,-3.48 -3.844,-2.898 -5.86,-7.16 -3.356,-12.121 0.977,-1.918 2.735,-5.16 3.844,-5.039 4.672,0.461 6.379,4.269 7.66,8.5 1.149,3.84 3.121,7.43 5.16,12.14 z M 164.578,394.141 c -2.797,3.468 4.106,11.05 -3.742,11.578 -3.121,0.211 -11.809,-1.328 -10.797,-7.551 1.016,-6.387 5.063,-14.707 11.543,-15.359 6.039,-0.59 1.598,7.242 2.996,11.332 z m 17.883,77.019 c -5.996,-15.23 -8.555,-30.57 -3.731,-46.031 1.25,-0.008 2.5,-0.02 3.731,-0.039 0,15.351 0,30.711 0,46.07 z M 333.91,689.559 c 13.262,7.062 26.422,14.312 39.844,21.07 8.172,4.121 8.203,13.191 6.094,17.789 -3.086,6.754 -10.075,0.723 -13.969,-1.988 -13.434,-9.371 -25.266,-20.551 -31.969,-36.871 z M 39.1016,658.691 C 51,694.359 60.1836,730.02 107.637,726.75 87.5781,743.34 62.6992,740.199 49.3906,720.711 42.5898,710.719 38.3594,699.52 35.082,688.301 c -2.539,-8.653 -5.3554,-19.039 4.0196,-29.61 z M 94.3984,519.898 C 89.2227,572.77 73.5742,623.328 71.0391,676.219 57.7305,653.09 49.9766,626.66 56.1523,602.891 c 7.5508,-29.012 25.0391,-55.45 38.2461,-82.993 z m 93.0076,36.36 c 1.199,0.312 2.379,0.621 3.574,0.941 2.77,28.039 -0.566,55.242 -11.585,81.582 -7.301,17.418 -14.547,34.699 -30.348,46.539 -4.164,3.11 -8.317,6.68 -13.496,2.621 -5.352,-4.183 -0.879,-7.8 1.058,-11.863 13.825,-29.109 30.188,-57.078 37.004,-89.297 2.266,-10.66 9.063,-20.359 13.793,-30.523 z M 306.152,453.941 c 8.227,10.149 14.786,18.34 21.446,26.457 43.011,52.461 77.48,109.903 99.906,174.09 8.023,22.973 8.465,46.77 -5.238,67.934 -11.461,17.726 -24.676,35.598 -49.672,33.078 -13.86,-1.422 -26.301,-7.73 -37.594,-16.309 -30.488,-23.203 -53.355,-52.82 -71.758,-85.82 -9,-16.191 -15.097,-33.98 -22.445,-51.07 -0.52,-1.231 -0.227,-2.77 -0.598,-4.09 -1.652,-5.68 3.414,-7.52 6.395,-9.41 5.136,-3.231 5.832,2.398 7.183,5.328 4.692,10.223 8.879,20.652 13.625,30.84 14.457,30.859 31.934,59.801 54.786,85.23 13.984,15.563 29.335,29.071 50.207,35 13.765,3.93 20.832,-0.84 20.957,-15.328 0.031,-5.672 1.168,-10.949 5.168,-15.293 6.683,-7.269 7.718,-16.137 7.925,-25.578 0.672,-27.949 -10.933,-52.871 -20.422,-77.871 -19.46,-51.121 -45.343,-99.18 -76.398,-144.367 -2.086,-3.043 -4.145,-5.832 -3.473,-12.821 z M 222.141,613.59 c 13.25,23.711 22.511,46.308 36.414,66.371 24.554,35.379 50.293,69.078 92.133,86.367 41.265,17.031 80.546,-17.43 92.027,-49.769 13.984,-39.379 0.195,-73.661 -15.391,-108 -14.785,-32.571 -34.312,-62.129 -54.707,-91.7 -25.097,-36.39 -54.273,-69.211 -80.707,-104.32 -5.609,-7.469 -7.945,-17.519 -11.281,-26.578 -8.203,-22.051 -24.043,-39.711 -34.356,-60.563 -4.472,-9.078 -11.347,-15.527 -22.738,-15.179 -5.726,0.179 -9.984,-1.52 -7.347,-9.129 1.902,-5.481 -1.047,-9.91 -5.614,-12.899 -4.969,-3.261 -8.355,0.489 -12.269,2.989 -34.336,21.941 -53.086,56.988 -74.395,89.57 -26.9647,41.211 -50.2928,84.551 -69.6053,129.879 -13.7695,32.383 -28.6563,64.551 -37.6602,98.539 -7.00778,26.621 -7.95309,54.242 -2.207,81.922 2.8516,13.801 4.4844,27.699 8.8086,41.289 10.1328,31.781 38.8672,46.769 71.3867,35.949 26.6602,-8.859 50.5272,-20.508 71.6372,-39.109 20.156,-17.778 28.148,-40.93 35.414,-65.438 4.879,-16.48 12.902,-32.019 20.457,-50.191"
         style="fill:#000000;fill-opacity:1;fill-rule:evenodd;stroke:none"
         id="path26" /><path
         d="m 785.648,1628.85 c -6.332,-2.88 -11.312,-6.15 -11.64,-13.19 -0.156,-3.35 3.101,-4.45 5.918,-3.48 7.957,2.75 7.371,8.94 5.722,16.67 z m -65.097,-179.23 c -0.731,0.41 -1.453,0.83 -2.153,1.26 -3.863,-4.88 -7.867,-9.66 -11.562,-14.67 -2.422,-3.34 -0.078,-6.65 2.23,-8.15 3.336,-2.15 4.508,1.57 5.387,3.9 2.188,5.83 4.082,11.75 6.098,17.66 z m -103.973,-82.87 c -1.535,-15.03 -1.172,-27.25 3.516,-38.94 1.129,-2.82 0.808,-8.7 6.375,-6.56 3.765,1.45 6.773,4.75 5.117,9.82 -3.773,11.5 -5.996,23.62 -15.008,35.68 z m 189.906,182.51 c 9.141,15.27 12.7,46.64 6.93,61.23 -0.914,2.32 -1.734,6.22 -4.687,5.7 -3.684,-0.67 -4.114,-4.06 -3.122,-7.69 4.024,-14.66 1.68,-29.11 -2.601,-43.18 -1.965,-6.48 -0.543,-11.2 3.48,-16.06 z m -316.339,6.77 c 4.585,15.28 8.429,28.79 12.804,42.13 1.235,3.75 3.156,6.53 -1.894,8.9 -5.196,2.45 -10.098,0.91 -11.754,-3.38 -5.918,-15.1 -7.449,-30.54 0.844,-47.65 z M 569.633,1490 c -9.883,17.24 -17.817,32.55 -21.195,49.76 -0.594,3.12 -1.993,8.55 -7.008,5.86 -7.653,-4.07 -4.297,-13.32 -7.621,-19.74 -1.969,-3.79 1.636,-7.45 5.308,-8.19 10.348,-2.05 15.551,-8.38 17.973,-18.16 1.164,-4.57 4.496,-7.73 12.543,-9.53 z m 164.137,118.9 c -32.442,-28.52 -50.504,-65.78 -62.989,-106.31 19.649,36.16 38.637,72.69 62.989,106.31 z m -89.157,-314.69 c -0.722,3.87 -0.429,8.46 -5.136,7.05 -11.641,-3.5 -12.602,-14.74 -15.18,-24.04 -2.086,-7.54 -0.305,-14.71 8.98,-17.25 3.27,-0.88 8.442,0.65 8.836,-4.46 0.348,-4.64 -3.675,-5.59 -7.664,-5.96 -4.594,-0.44 -5.015,-3.11 -3.062,-6.71 2.07,-3.83 4.414,-7.45 9.574,-5.38 7.789,3.1 11.883,27.49 4.488,31.4 -9.355,4.95 -9.019,9.74 -3.98,17.14 1.715,2.52 2.293,5.85 3.144,8.21 z m -133.261,240.88 c 7.211,14.55 15.054,28.25 25.41,40.71 3.922,4.72 6.152,11.27 7.867,17.33 1.836,6.51 -3.336,10.06 -8.18,12.91 -3.496,2.08 -7.496,2.14 -9.219,-2.26 -8.531,-22.02 -15.042,-44.58 -15.878,-68.69 z m 48.046,87.41 c 18.957,-30.55 36.5,-58.8 54.047,-87.07 1.035,37.48 -22.355,75.8 -54.047,87.07 z m 17.325,-298.46 c -5.106,61.23 -27.844,117.41 -47.336,174.48 -9.02,-64.95 4.886,-123.66 47.336,-174.48 z m -51.801,337.51 c 8.109,-1.64 19.277,-1.55 30.691,1.83 7.867,2.34 15.055,-1.78 21.66,-6.64 15.797,-11.63 22.278,-29.89 33.176,-45.01 17.68,-24.51 23.551,-53.44 32.563,-81.27 1.445,-4.49 1.679,-11.77 6.851,-12.06 5.645,-0.34 6.254,7.1 8.184,11.47 13.027,29.45 27.066,58.2 49.805,81.81 22.367,23.19 47.777,38.27 81.628,35.83 21.344,-1.56 31.618,-8.61 40.137,-34.64 6.535,-20 2.485,-39.9 -1.711,-59.56 -4.687,-22.02 -14.367,-42.43 -22.008,-63.53 -15.539,-42.89 -40.621,-80.87 -61.289,-121.14 -10.976,-21.36 -23.461,-42.34 -25.668,-67.68 -0.836,-9.66 -8.496,-18.88 -13.546,-28.03 -11.493,-20.81 -23.403,-41.4 -34.887,-62.23 -10.445,-18.92 -22.582,-20.47 -36.801,-4.55 -2.414,2.7 -5.344,6.08 -8.539,6.79 -24.547,5.2 -33.469,27.22 -47.434,43.58 -16.191,19.01 -24.687,42.59 -36.722,64.07 -18.176,32.42 -39.586,63.02 -52.942,98.13 -11.738,30.88 -24.238,61.39 -27.062,94.83 -0.973,11.53 -7.293,21.75 -10.117,32.83 -9.11,35.75 9.597,63.72 26.66,92.1 10.027,16.76 25.012,23.7 47.371,23.07"
         style="fill:#000000;fill-opacity:1;fill-rule:evenodd;stroke:none"
         id="path28" /><path
         d="m 1555.92,1501.75 c -1.66,-16.53 0.17,-22.02 10.02,-30.71 -0.2,11.2 -5.36,20.07 -10.02,30.71 z m 47.81,121.2 c -1.19,-0.48 -2.36,-0.97 -3.55,-1.44 4.19,-11.75 8.38,-23.49 12.62,-35.18 0.68,-1.86 2.11,-3.07 4.17,-2.64 3.29,0.67 2.66,3.18 2.05,5.33 -3.39,12.12 -7.76,23.79 -15.29,33.93 z m 160.13,63.43 c -1.59,-0.5 -4.95,1.19 -6.11,-2.52 -0.84,-2.73 1.41,-4.22 3.21,-5.43 7.3,-4.93 12.12,-12.45 18.67,-17.93 6.55,-5.48 11.07,-13.67 19.78,-16.34 2.9,-0.89 7.78,-3.79 7.47,3.29 -0.59,13.18 -28.74,39.1 -43.02,38.93 z m -21.54,-122.46 c -0.62,6.29 4.39,16.5 -7.52,16.61 -9.83,0.12 -8.24,-9.63 -8.5,-15.88 -0.71,-17.07 -3.84,-33.7 -7.3,-50.34 -0.8,-3.86 -4.42,-9.98 2.56,-11.4 5.35,-1.1 6.9,4.23 8.87,8.64 7.33,16.65 10.79,34.07 11.89,52.37 z m 30.55,-49.98 c 14.63,21.2 23.29,42.07 26.23,65.12 2.07,16.19 -3.46,30.62 -11.4,44.37 -4.21,7.25 -11.65,8.46 -18.07,6.85 -8.44,-2.13 -1.82,-9.19 -2.18,-14 -0.32,-4.09 0.4,-8.23 0.62,-12.34 0.39,-7.83 -2.43,-19.02 0.29,-22.77 6.41,-8.82 3.52,-17.23 4.96,-25.78 2.21,-13.16 -6.86,-25.75 -0.45,-41.45 z m -236.38,120.28 c 10.93,2.54 15.01,-1.49 15.66,-10.07 0.3,-4.02 2.21,-6.79 6.21,-8.25 11.6,-4.22 15.8,-14.59 20.39,-24.72 3.61,-7.92 7.36,-15.83 11.42,-23.54 1.3,-2.46 4.18,-4.15 7.06,-2.53 2.28,1.28 2.02,3.98 1.31,6.23 -2.27,6.98 -4.58,13.94 -7.02,20.84 -9.55,26.92 -20.26,53.26 -38.36,75.84 -9.53,11.88 -20.23,10.35 -25.7,-3.99 -1.78,-4.66 -3.55,-9.89 -3.14,-14.7 0.67,-8.1 4,-15.15 12.17,-15.11 z m -69.62,-19.48 c -0.72,-45.41 4.62,-72.16 25.56,-119.31 21.13,-47.59 47.63,-91.81 85.35,-128.39 9.46,-9.19 18.47,-19.24 30.62,-25.22 3.55,-1.73 8.21,-5.09 11.46,-1.31 3.81,4.46 -0.28,8.99 -3.45,11.78 -9.89,8.66 -16.73,19.47 -23.48,30.46 -2.42,3.93 -5.37,7.9 -10.17,8.93 -24.39,5.2 -37.84,23.59 -50.51,42.41 -19.28,28.64 -30.17,61.04 -36.8,94.47 -6.4,32.35 -18.09,63.54 -19.74,96.95 -0.75,14.73 1.78,26.13 12.57,28.49 11.25,2.46 18.98,6.22 19.68,19.14 0.22,4.05 6.32,8.44 2.22,12.23 -4.24,3.9 -9.69,0.34 -14.1,-2.02 -6.22,-3.33 -10.94,-8.43 -14.93,-14.17 -11.4,-16.4 -15.22,-34.8 -14.28,-54.44 z m 175.22,-29.43 c 7.74,15.53 9.81,31.91 13.79,47.73 5.19,20.6 14.67,38.65 29.71,53.67 1.6,1.6 3.52,3.53 5.55,3.94 18.23,3.74 34.63,13.65 52.71,16.98 35.88,6.57 73.81,-21.89 83.79,-62.54 7.63,-31.07 3.77,-62.21 -3.51,-92.82 -12.14,-50.93 -36.86,-95.67 -66.96,-138.12 -10.18,-14.34 -16.56,-31.54 -23.46,-47.95 -6.97,-16.6 -20.59,-28.3 -29.73,-43.24 -1.38,-2.28 -2.83,-4.53 -4.12,-6.92 -7.5,-13.79 -13.65,-15.64 -28.02,-10.76 -13.22,4.49 -26.59,7.42 -41,8.18 -19.89,1.05 -36.33,13.37 -50.35,26.63 -55.29,52.28 -94.04,115.84 -117.29,187.62 -13.34,41.19 -15.37,85.03 -6.83,128.32 8.69,44.02 36.89,55.13 78.74,42.91 37.84,-11.06 66.88,-35.46 86.55,-70.4 5.1,-9.06 6.65,-18.98 9.73,-28.51 1.85,-5.73 3.4,-11.57 10.7,-14.72"
         style="fill:#000000;fill-opacity:1;fill-rule:evenodd;stroke:none"
         id="path30" /><path
         d="m 1640.86,3915.4 c -1.66,-16.52 0.18,-22.02 10.02,-30.72 -0.2,11.21 -5.36,20.08 -10.02,30.72 z m 47.81,121.21 c -1.18,-0.49 -2.36,-0.97 -3.55,-1.45 4.19,-11.74 8.39,-23.47 12.62,-35.18 0.68,-1.86 2.09,-3.07 4.17,-2.63 3.29,0.67 2.66,3.17 2.05,5.33 -3.39,12.12 -7.75,23.78 -15.29,33.93 z m 160.13,63.43 c -1.59,-0.51 -4.95,1.18 -6.1,-2.52 -0.85,-2.74 1.4,-4.22 3.2,-5.43 7.3,-4.93 12.12,-12.45 18.67,-17.94 6.55,-5.47 11.07,-13.65 19.79,-16.33 2.88,-0.9 7.77,-3.79 7.46,3.28 -0.59,13.19 -28.74,39.1 -43.02,38.94 z m -21.54,-122.46 c -0.62,6.29 4.4,16.5 -7.51,16.61 -9.84,0.11 -8.24,-9.62 -8.5,-15.89 -0.72,-17.07 -3.85,-33.69 -7.3,-50.34 -0.81,-3.87 -4.42,-9.99 2.55,-11.39 5.36,-1.11 6.9,4.22 8.87,8.64 7.35,16.65 10.79,34.07 11.89,52.37 z m 30.55,-49.99 c 14.64,21.21 23.28,42.08 26.23,65.13 2.07,16.19 -3.46,30.61 -11.4,44.37 -4.21,7.24 -11.64,8.46 -18.06,6.86 -8.45,-2.14 -1.83,-9.2 -2.19,-14.02 -0.31,-4.07 0.4,-8.22 0.62,-12.34 0.39,-7.83 -2.42,-19.02 0.29,-22.77 6.41,-8.81 3.52,-17.21 4.96,-25.78 2.21,-13.15 -6.85,-25.75 -0.45,-41.45 z m -236.38,120.28 c 10.93,2.54 15.01,-1.49 15.66,-10.07 0.3,-4.01 2.21,-6.78 6.21,-8.25 11.6,-4.21 15.8,-14.59 20.39,-24.7 3.61,-7.94 7.36,-15.84 11.42,-23.55 1.3,-2.46 4.18,-4.15 7.06,-2.52 2.28,1.27 2.02,3.96 1.31,6.22 -2.27,6.97 -4.58,13.93 -7.02,20.84 -9.55,26.91 -20.25,53.26 -38.35,75.84 -9.54,11.88 -20.24,10.34 -25.71,-3.99 -1.77,-4.67 -3.55,-9.9 -3.14,-14.71 0.67,-8.09 4,-15.15 12.17,-15.11 z m -69.61,-19.47 c -0.73,-45.41 4.6,-72.17 25.55,-119.33 21.13,-47.59 47.63,-91.79 85.35,-128.37 9.46,-9.21 18.48,-19.25 30.62,-25.22 3.55,-1.76 8.21,-5.09 11.46,-1.31 3.81,4.44 -0.28,8.97 -3.45,11.76 -9.89,8.68 -16.73,19.48 -23.47,30.46 -2.43,3.91 -5.38,7.9 -10.18,8.93 -24.38,5.22 -37.84,23.61 -50.51,42.42 -19.27,28.65 -30.17,61.05 -36.8,94.48 -6.4,32.34 -18.09,63.53 -19.74,96.95 -0.75,14.73 1.78,26.12 12.57,28.49 11.25,2.46 18.98,6.22 19.68,19.13 0.23,4.06 6.32,8.45 2.22,12.23 -4.24,3.91 -9.69,0.35 -14.1,-2.02 -6.22,-3.33 -10.94,-8.43 -14.93,-14.17 -11.4,-16.4 -15.22,-34.78 -14.27,-54.43 z m 175.22,-29.43 c 7.73,15.52 9.8,31.91 13.78,47.73 5.2,20.6 14.67,38.64 29.71,53.66 1.6,1.6 3.51,3.54 5.55,3.96 18.23,3.73 34.63,13.64 52.71,16.97 35.88,6.57 73.81,-21.9 83.79,-62.54 7.63,-31.07 3.77,-62.21 -3.51,-92.82 -12.14,-50.93 -36.86,-95.67 -66.96,-138.14 -10.17,-14.32 -16.56,-31.52 -23.46,-47.95 -6.98,-16.6 -20.59,-28.3 -29.72,-43.25 -1.39,-2.25 -2.84,-4.53 -4.13,-6.91 -7.5,-13.77 -13.65,-15.64 -28.02,-10.76 -13.22,4.51 -26.58,7.42 -41,8.19 -19.89,1.05 -36.33,13.39 -50.36,26.63 -55.28,52.27 -94.03,115.82 -117.28,187.62 -13.34,41.2 -15.37,85.05 -6.83,128.33 8.69,44.01 36.89,55.13 78.74,42.91 37.85,-11.06 66.88,-35.46 86.55,-70.4 5.1,-9.06 6.65,-18.98 9.73,-28.52 1.85,-5.72 3.4,-11.55 10.71,-14.71"
         style="fill:#000000;fill-opacity:1;fill-rule:evenodd;stroke:none"
         id="path32" /><path
         d="m 454.605,3897.69 c -1.656,-16.51 0.204,-22.01 10.028,-30.71 -0.199,11.22 -5.352,20.08 -10.028,30.71 z m 47.821,121.2 c -1.172,-0.47 -2.363,-0.94 -3.559,-1.44 4.203,-11.72 8.383,-23.46 12.621,-35.18 0.676,-1.85 2.106,-3.07 4.18,-2.64 3.301,0.68 2.648,3.19 2.062,5.34 -3.39,12.13 -7.765,23.79 -15.304,33.92 z m 160.137,63.44 c -1.61,-0.51 -4.969,1.19 -6.118,-2.52 -0.808,-2.73 1.41,-4.22 3.2,-5.43 7.304,-4.93 12.136,-12.44 18.683,-17.92 6.535,-5.5 11.09,-13.68 19.801,-16.36 2.871,-0.88 7.75,-3.79 7.445,3.29 -0.586,13.18 -28.711,39.1 -43.011,38.94 z M 641.02,3959.87 c -0.622,6.29 4.406,16.49 -7.497,16.63 -9.871,0.09 -8.269,-9.65 -8.519,-15.89 -0.707,-17.08 -3.828,-33.71 -7.301,-50.35 -0.808,-3.87 -4.39,-9.98 2.547,-11.4 5.363,-1.1 6.898,4.21 8.883,8.65 7.332,16.64 10.769,34.06 11.887,52.36 z m 30.546,-49.98 c 14.649,21.22 23.282,42.06 26.239,65.12 2.058,16.19 -3.465,30.63 -11.418,44.38 -4.18,7.23 -11.641,8.46 -18.043,6.85 -8.438,-2.14 -1.836,-9.2 -2.207,-14.02 -0.317,-4.07 0.406,-8.22 0.633,-12.33 0.402,-7.83 -2.434,-19.02 0.293,-22.77 6.398,-8.82 3.523,-17.23 4.98,-25.78 2.195,-13.15 -6.887,-25.75 -0.477,-41.45 z M 435.18,4030.16 c 10.953,2.55 15.019,-1.48 15.683,-10.07 0.293,-4.02 2.188,-6.79 6.188,-8.23 11.605,-4.23 15.808,-14.6 20.406,-24.72 3.606,-7.94 7.348,-15.82 11.414,-23.55 1.309,-2.46 4.18,-4.14 7.067,-2.52 2.265,1.28 2.027,3.97 1.308,6.22 -2.266,6.98 -4.566,13.94 -7.031,20.86 -9.547,26.9 -20.231,53.24 -38.336,75.82 -9.555,11.87 -20.262,10.34 -25.727,-3.98 -1.765,-4.67 -3.55,-9.91 -3.144,-14.71 0.687,-8.11 4.012,-15.17 12.172,-15.12 z m -69.617,-19.47 c -0.723,-45.41 4.64,-72.17 25.582,-119.33 21.125,-47.58 47.605,-91.8 85.32,-128.38 9.476,-9.19 18.48,-19.24 30.629,-25.21 3.558,-1.74 8.203,-5.1 11.469,-1.31 3.82,4.45 -0.282,8.98 -3.469,11.77 -9.86,8.67 -16.699,19.48 -23.473,30.47 -2.422,3.91 -5.375,7.89 -10.176,8.92 -24.371,5.2 -37.828,23.59 -50.484,42.41 -19.277,28.65 -30.176,61.06 -36.82,94.49 -6.403,32.33 -18.067,63.54 -19.746,96.95 -0.719,14.73 1.781,26.11 12.578,28.48 11.269,2.46 18.984,6.23 19.672,19.14 0.226,4.07 6.324,8.44 2.234,12.23 -4.25,3.9 -9.668,0.35 -14.109,-2.03 -6.196,-3.33 -10.918,-8.43 -14.922,-14.16 -11.391,-16.4 -15.235,-34.79 -14.285,-54.44 z m 175.222,-29.43 c 7.731,15.53 9.824,31.9 13.805,47.73 5.172,20.61 14.648,38.65 29.691,53.68 1.621,1.58 3.516,3.53 5.567,3.94 18.222,3.72 34.605,13.65 52.691,16.98 35.902,6.55 73.809,-21.9 83.816,-62.54 7.629,-31.08 3.743,-62.21 -3.539,-92.81 -12.113,-50.95 -36.859,-95.69 -66.957,-138.15 -10.175,-14.34 -16.562,-31.53 -23.461,-47.95 -6.937,-16.6 -20.578,-28.3 -29.703,-43.24 -1.386,-2.27 -2.828,-4.53 -4.136,-6.92 -7.481,-13.79 -13.657,-15.64 -28.024,-10.76 -13.23,4.5 -26.594,7.43 -40.992,8.18 -19.891,1.05 -36.328,13.38 -50.363,26.64 -55.27,52.28 -94.035,115.83 -117.282,187.61 -13.339,41.2 -15.371,85.05 -6.816,128.33 8.68,44.03 36.871,55.14 78.731,42.91 37.851,-11.05 66.878,-35.45 86.542,-70.4 5.094,-9.05 6.637,-18.97 9.747,-28.52 1.828,-5.7 3.394,-11.56 10.683,-14.71"
         style="fill:#000000;fill-opacity:1;fill-rule:evenodd;stroke:none"
         id="path34" /><path
         d="m 101.664,2066.4 c 6.481,1.71 5.117,-4.35 5.918,-8.06 0.047,-4.24 -0.102,-8.77 -6.098,-8.16 -6.2535,0.65 -10.2535,5.34 -10.3863,10.88 -0.1602,6.4 6.8945,4.38 10.5663,5.34 z m 122.887,229.94 c 5.859,8.15 12.582,15.04 23.164,21.97 -6.207,-11.23 -10.637,-19.68 -15.563,-27.83 -2.101,-3.49 -6.332,-7.29 -9.902,-4.45 -3.887,3.05 -0.273,6.74 2.301,10.31 z M 108.754,1998.31 c 5.508,-10.99 17.309,-9.86 24.394,0.64 2.559,3.81 4.657,8.21 7.969,11.14 14.469,12.84 29.817,23.71 40.879,41.08 13.5,21.16 29.863,40.41 41.09,63.35 8.203,16.73 16.199,33.84 25.914,49.54 20.34,32.84 38.766,66.24 49.457,103.5 6.313,21.91 9.242,44.34 4.359,66.74 -4.492,20.67 -12.371,32.5 -38.3,32.55 -35.801,0.07 -55.832,-23.42 -74.395,-47.92 -19.187,-25.33 -27.008,-56.13 -34.691,-86.57 -0.86,-3.44 -0.035,-8.67 -4.848,-8.6 -4.078,0.07 -6.422,3.62 -7.785,8.32 -11.563,39.9 -32.524,73.94 -65.1915,100.04 -17.711,14.15 -36.6211,26.33 -58.8867,25.6 -7.4063,0.29 -13.50005,-0.75 -18.7188,-3.04 v -183.13 c 10.6836,-23.85 23.2461,-47.02 35.6445,-70.15 20.0586,-37.34 53.9844,-64.88 73.1095,-103.09"
         style="fill:#000000;fill-opacity:1;fill-rule:nonzero;stroke:none"
         id="path36" /><path
         d="m 2215.93,284.668 c -0.78,3.723 0.57,9.773 -5.93,8.062 -3.64,-0.96 -10.7,1.059 -10.55,-5.339 0.14,-5.52 4.14,-10.231 10.39,-10.86 5.98,-0.613 6.14,3.899 6.09,8.137 z m 140.14,259.98 c -10.58,-6.937 -17.3,-13.839 -23.16,-21.976 -2.58,-3.551 -6.19,-7.254 -2.32,-10.32 3.57,-2.813 7.79,0.968 9.92,4.457 4.92,8.14 9.33,16.609 15.56,27.839 z m -229,39.422 c 22.27,0.711 41.15,-11.468 58.89,-25.629 32.67,-26.101 53.64,-60.121 65.19,-100.043 1.37,-4.687 3.69,-8.25 7.8,-8.308 4.8,-0.07 3.98,5.148 4.84,8.601 7.67,30.43 15.51,61.25 34.69,86.579 18.53,24.48 38.56,47.98 74.39,47.91 25.94,-0.032 33.81,-11.871 38.3,-32.539 4.88,-22.411 1.96,-44.84 -4.35,-66.75 -10.71,-37.25 -29.14,-70.661 -49.48,-103.493 -9.7,-15.707 -17.69,-32.828 -25.89,-49.539 -11.24,-22.949 -27.6,-42.187 -41.1,-63.351 -11.06,-17.379 -26.4,-28.246 -40.89,-41.067 -3.33,-2.941 -5.41,-7.339 -7.96,-11.14 -7.09,-10.5 -18.88,-11.641 -24.4,-0.653 -19.11,38.204 -53.04,65.743 -73.1,103.09 -26.52,49.422 -54,98.922 -61.58,155.313 -3.56,26.597 -5.37,54.59 8.61,80.621 7.82,14.578 18.33,21.066 36.04,20.398"
         style="fill:#000000;fill-opacity:1;fill-rule:evenodd;stroke:none"
         id="path38" /><path
         d="m 2719.11,1619.41 c -0.79,3.72 0.58,9.79 -5.91,8.07 -3.67,-0.95 -10.72,1.06 -10.56,-5.34 0.13,-5.52 4.14,-10.24 10.39,-10.86 5.99,-0.62 6.13,3.89 6.08,8.13 z m 140.15,259.98 c -10.6,-6.92 -17.31,-13.82 -23.17,-21.97 -2.58,-3.56 -6.19,-7.26 -2.32,-10.3 3.57,-2.84 7.78,0.95 9.91,4.44 4.93,8.15 9.35,16.61 15.58,27.83 z m -229.01,39.43 c 22.27,0.72 41.18,-11.46 58.89,-25.63 32.68,-26.08 53.63,-60.13 65.2,-100.03 1.36,-4.7 3.69,-8.26 7.79,-8.31 4.8,-0.09 3.98,5.16 4.84,8.59 7.68,30.42 15.5,61.25 34.68,86.59 18.55,24.48 38.57,47.98 74.39,47.91 25.95,-0.04 33.82,-11.88 38.31,-32.54 4.89,-22.41 1.96,-44.86 -4.35,-66.76 -10.7,-37.25 -29.14,-70.65 -49.47,-103.49 -9.71,-15.71 -17.7,-32.82 -25.9,-49.53 -11.24,-22.97 -27.6,-42.19 -41.1,-63.36 -11.07,-17.37 -26.4,-28.26 -40.88,-41.08 -3.33,-2.93 -5.41,-7.34 -7.96,-11.13 -7.09,-10.51 -18.9,-11.65 -24.41,-0.66 -19.11,38.2 -53.03,65.74 -73.09,103.11 -26.53,49.4 -54.02,98.91 -61.58,155.3 -3.57,26.59 -5.39,54.59 8.6,80.63 7.82,14.58 18.33,21.06 36.04,20.39"
         style="fill:#000000;fill-opacity:1;fill-rule:evenodd;stroke:none"
         id="path40" /><path
         d="m 2990.25,809.141 c -2.12,3.648 2.44,10.32 -3.42,11.539 -5.74,1.191 -5.48,-5.571 -7.26,-9.559 -1.41,-3.121 -5.29,-5.18 -4.74,-9.332 0.43,-2.93 -3.97,-7.25 2.62,-8.578 4.44,-0.91 8.59,-0.801 10.41,3.719 1.5,3.64 1.6,7.859 2.39,12.211 z m -217.03,25.109 c -2.39,-26.602 2.8,-51.961 12.33,-76.66 1.51,26.461 3.58,52.988 -12.33,76.66 z m 150.84,-58.148 c -12.96,-3.911 -14.86,-13 -19.11,-19.512 -11.62,-17.762 -19.93,-37.102 -21.92,-58.5 -0.33,-3.512 -1.88,-9.66 3.02,-10.68 4.83,-0.988 5.74,4.418 6.94,8.481 1.97,6.589 4.26,13.097 6.78,19.488 7.62,19.359 15.44,38.672 24.29,60.723 z m 45.69,94.988 c 0.19,3.68 0.43,8.23 -3.71,9.379 -4.03,1.14 -7.93,-1.18 -10.7,-4.578 -2.85,-3.582 -5.28,-7.539 -8.5,-10.711 -19.83,-19.45 -29.58,-45.071 -42.39,-68.801 -1.58,-2.91 -3.02,-9.617 2.17,-7.199 13.69,6.41 30.69,2.738 41.1,20.968 11.19,19.602 21.73,38 22.03,60.942 z m -197.7,-179.488 c 0.81,4.539 1.85,6.816 1.5,8.847 -4.34,24.539 -8.29,49.18 -13.49,73.531 -6.13,28.692 -13.67,57.129 -6.81,86.77 1.38,5.898 1.24,11.898 -5.32,13.762 -6.04,1.726 -10.37,-2.723 -12.93,-7.903 -5.66,-11.519 -6.04,-24.089 -5.05,-36.398 3,-36.57 13.77,-71.492 24.82,-106.242 3.37,-10.641 6.89,-21.828 17.28,-32.367 z m 42.12,158.937 c 11.4,-28.309 17.33,-58.848 33.43,-85.301 2.28,10.551 -3.19,19.043 -6,27.852 -6.49,20.262 -13.1,40.82 -27.3,57.558 -2.78,20.692 -29.01,49.75 -48.32,53.282 -4.34,0.8 -10.09,1.871 -12.17,-2.879 -1.8,-4.063 2.22,-7.641 5.72,-9.949 18.97,-12.524 41.46,-20.231 54.64,-40.563 z m 51.99,-77.008 c 10.15,25.707 19.21,47.239 31.27,67.219 11.46,18.898 23.41,37.488 40.2,52.352 20.01,17.699 42.69,10.418 56.22,-12.602 13.61,-23.199 17.13,-49.16 12.89,-76.609 -4.06,-26.43 -8.62,-52.743 -20.61,-76.563 -17.54,-34.84 -30.92,-71.418 -46.76,-106.957 -12.1,-27.152 -29.45,-51.84 -37.79,-80.703 -1.35,-4.66 -4.52,-8.727 -9.51,-9.059 -10.41,-0.699 -21.24,-2.281 -31.2,-0.23 -10.91,2.242 -20.56,9.281 -32.43,9.98 -5.24,0.301 -8.79,6.012 -9.42,10.993 -3.43,28.257 -24.29,46.777 -38.32,68.968 -22.01,34.852 -43.16,69.942 -60.82,107.418 -11.88,25.172 -20.17,50.481 -21.15,77.864 -0.85,23.66 2.36,47.367 0.32,71.109 -0.48,5.559 1.28,11.707 5.4,15.301 16.27,14.269 33.54,28.547 56.08,29.066 19.29,0.453 35.82,-9.82 47.26,-25.137 24.33,-32.562 42.39,-68.5 52.93,-107.98 0.92,-3.473 2.51,-6.789 5.44,-14.43"
         style="fill:#000000;fill-opacity:1;fill-rule:evenodd;stroke:none"
         id="path42" /><path
         d="m 2938.61,2919.66 c -2.13,3.64 2.43,10.34 -3.41,11.54 -5.75,1.19 -5.49,-5.56 -7.27,-9.54 -1.41,-3.16 -5.29,-5.19 -4.73,-9.33 0.43,-2.95 -3.98,-7.27 2.62,-8.61 4.43,-0.9 8.56,-0.79 10.41,3.72 1.48,3.65 1.6,7.87 2.38,12.22 z m -217.01,25.1 c -2.4,-26.59 2.78,-51.96 12.32,-76.64 1.51,26.44 3.58,52.98 -12.32,76.64 z m 150.82,-58.15 c -12.95,-3.9 -14.88,-13 -19.12,-19.51 -11.61,-17.76 -19.92,-37.1 -21.93,-58.49 -0.32,-3.52 -1.86,-9.68 3.04,-10.68 4.83,-0.99 5.75,4.42 6.93,8.48 1.97,6.58 4.27,13.09 6.79,19.49 7.62,19.36 15.44,38.67 24.29,60.71 z m 45.66,95.02 c 0.21,3.67 0.46,8.21 -3.67,9.36 -4.04,1.14 -7.95,-1.18 -10.7,-4.59 -2.86,-3.55 -5.29,-7.54 -8.51,-10.71 -19.83,-19.44 -29.57,-45.06 -42.41,-68.77 -1.58,-2.93 -3,-9.65 2.19,-7.22 13.66,6.41 30.7,2.73 41.11,20.97 11.16,19.6 21.69,37.99 21.99,60.96 z m -197.65,-179.5 c 0.8,4.52 1.85,6.8 1.47,8.84 -4.3,24.53 -8.27,49.17 -13.48,73.55 -6.12,28.67 -13.65,57.11 -6.79,86.77 1.36,5.88 1.22,11.87 -5.35,13.74 -6.03,1.72 -10.34,-2.72 -12.92,-7.91 -5.67,-11.52 -6.04,-24.09 -5.04,-36.4 2.99,-36.57 13.77,-71.49 24.81,-106.21 3.38,-10.67 6.9,-21.86 17.3,-32.38 z m 42.09,158.94 c 11.41,-28.32 17.31,-58.87 33.44,-85.31 2.25,10.54 -3.21,19.04 -6.02,27.85 -6.46,20.25 -13.08,40.81 -27.28,57.56 -2.78,20.67 -28.99,49.75 -48.32,53.28 -4.34,0.8 -10.07,1.87 -12.17,-2.89 -1.79,-4.06 2.22,-7.64 5.74,-9.95 18.95,-12.51 41.45,-20.23 54.61,-40.54 z m 51.99,-77.02 c 10.16,25.71 19.21,47.23 31.28,67.21 11.43,18.9 23.41,37.49 40.21,52.37 19.99,17.69 42.68,10.43 56.21,-12.61 13.58,-23.21 17.13,-49.17 12.89,-76.62 -4.07,-26.43 -8.62,-52.73 -20.62,-76.56 -17.53,-34.83 -30.91,-71.41 -46.75,-106.95 -12.1,-27.16 -29.48,-51.83 -37.79,-80.71 -1.36,-4.67 -4.51,-8.7 -9.51,-9.05 -10.41,-0.71 -21.23,-2.29 -31.19,-0.23 -10.92,2.25 -20.57,9.27 -32.46,9.98 -5.23,0.3 -8.79,6.01 -9.4,10.99 -3.45,28.24 -24.31,46.77 -38.31,68.97 -22.02,34.86 -43.15,69.94 -60.83,107.41 -11.87,25.18 -20.17,50.48 -21.16,77.89 -0.83,23.64 2.39,47.35 0.34,71.08 -0.5,5.57 1.26,11.72 5.39,15.3 16.27,14.27 33.54,28.56 56.1,29.07 19.28,0.46 35.8,-9.82 47.24,-25.13 24.33,-32.56 42.36,-68.5 52.9,-107.97 0.95,-3.49 2.55,-6.8 5.46,-14.44"
         style="fill:#000000;fill-opacity:1;fill-rule:evenodd;stroke:none"
         id="path44" /><path
         d="m 1021.04,165.781 c -2.51,-6.39 -4.81,-12.91 -6.78,-19.492 -1.19,-4.051 -2.12,-9.461 -6.94,-8.48 -4.9,1.019 -3.36,7.171 -3.04,10.679 2,21.422 10.33,40.762 21.93,58.5 4.23,6.5 6.17,15.602 19.12,19.5 -8.85,-22.039 -16.65,-41.34 -24.29,-60.707 z m 4.66,81.02 c 12.84,23.73 22.58,49.32 42.41,68.769 3.22,3.168 5.66,7.129 8.51,10.711 2.76,3.41 6.66,5.719 10.71,4.59 4.13,-1.16 3.88,-5.711 3.67,-9.383 -0.29,-22.949 -10.84,-41.347 -22,-60.918 -10.41,-18.261 -27.43,-14.582 -41.1,-21 -5.21,-2.402 -3.77,4.309 -2.2,7.231 z m 70.42,5.41 c -0.56,4.129 3.31,6.187 4.72,9.309 1.78,3.992 1.52,10.742 7.27,9.55 5.84,-1.211 1.28,-7.89 3.41,-11.519 -0.78,-4.371 -0.89,-8.582 -2.37,-12.231 -1.84,-4.511 -5.98,-4.621 -10.42,-3.711 -6.6,1.321 -2.18,5.672 -2.61,8.602 z m -127.241,-36.57 c -16.121,26.449 -22.043,56.98 -33.449,85.289 -13.16,20.34 -35.672,28.039 -54.629,40.558 -3.516,2.313 -7.516,5.891 -5.723,9.953 2.094,4.758 7.817,3.68 12.168,2.879 19.317,-3.531 45.547,-32.59 48.32,-53.269 14.2,-16.75 20.821,-37.301 27.289,-57.571 2.809,-8.8 8.274,-17.289 6.024,-27.839 z m -62.059,-7.629 c -9.535,24.679 -14.707,50.058 -12.328,76.629 15.922,-23.672 13.848,-50.192 12.328,-76.629 z m -13.5,-66 c -10.39,10.519 -13.906,21.718 -17.285,32.379 -11.035,34.73 -21.816,69.648 -24.824,106.211 -0.992,12.308 -0.621,24.878 5.059,36.398 2.558,5.18 6.894,9.629 12.925,7.891 6.567,-1.86 6.703,-7.852 5.34,-13.75 -6.875,-29.629 0.664,-58.051 6.793,-86.743 5.195,-24.367 9.164,-49.019 13.477,-73.558 0.375,-2.031 -0.664,-4.309 -1.485,-8.828 z m 214.09,35.707 c 11.99,23.84 16.54,50.133 20.6,76.57 4.24,27.449 0.7,53.402 -12.89,76.602 -13.51,23.031 -36.21,30.3 -56.21,12.597 -16.8,-14.859 -28.77,-33.449 -40.19,-52.347 -12.07,-19.981 -21.13,-41.52 -31.298,-67.219 -2.906,7.656 -4.508,10.957 -5.453,14.43 -10.547,39.476 -28.567,75.418 -52.906,107.988 -11.434,15.308 -27.969,25.59 -47.27,25.129 -22.539,-0.52 -39.824,-14.801 -56.094,-29.071 -4.101,-3.589 -5.859,-9.738 -5.386,-15.296 2.05,-23.743 -1.172,-47.442 -0.329,-71.082 0.985,-27.379 9.274,-52.7 21.172,-77.879 C 858.805,140.66 879.965,105.57 901.973,70.7188 915.98,48.5313 936.836,30 940.297,1.76172 940.367,1.17188 940.613,0.578125 940.77,0 h 85.37 c 9.04,24.7188 23.8,46.7695 34.5,70.7695 15.85,35.5395 29.22,72.1215 46.77,106.9495"
         style="fill:#000000;fill-opacity:1;fill-rule:nonzero;stroke:none"
         id="path46" /><path
         d="m 1111.52,2133.84 c -2.15,3.65 2.43,10.32 -3.43,11.54 -5.75,1.19 -5.49,-5.57 -7.26,-9.56 -1.42,-3.13 -5.3,-5.18 -4.71,-9.33 0.4,-2.93 -3.99,-7.25 2.59,-8.59 4.46,-0.9 8.58,-0.8 10.41,3.72 1.49,3.66 1.6,7.87 2.4,12.22 z m -217.028,25.1 c -2.402,-26.59 2.781,-51.95 12.305,-76.65 1.523,26.46 3.594,52.99 -12.305,76.65 z m 150.828,-58.14 c -12.94,-3.91 -14.88,-13.02 -19.11,-19.51 -11.62,-17.77 -19.93,-37.1 -21.93,-58.5 -0.34,-3.52 -1.87,-9.67 3.02,-10.68 4.84,-0.99 5.75,4.42 6.96,8.47 1.95,6.58 4.24,13.1 6.76,19.5 7.66,19.36 15.44,38.66 24.3,60.72 z m 45.68,94.99 c 0.19,3.68 0.46,8.23 -3.7,9.38 -4.04,1.13 -7.95,-1.17 -10.68,-4.59 -2.87,-3.57 -5.29,-7.54 -8.54,-10.7 -19.8,-19.46 -29.54,-45.07 -42.38,-68.8 -1.57,-2.9 -3.01,-9.62 2.18,-7.21 13.69,6.43 30.71,2.75 41.1,20.98 11.18,19.6 21.73,38 22.02,60.94 z m -197.68,-179.5 c 0.801,4.55 1.836,6.82 1.485,8.85 -4.313,24.54 -8.282,49.17 -13.496,73.54 -6.133,28.69 -13.649,57.13 -6.797,86.77 1.379,5.89 1.23,11.89 -5.328,13.75 -6.032,1.72 -10.379,-2.71 -12.922,-7.89 -5.672,-11.53 -6.043,-24.1 -5.051,-36.4 3,-36.58 13.769,-71.49 24.809,-106.24 3.382,-10.65 6.91,-21.84 17.3,-32.38 z m 42.11,158.95 c 11.383,-28.31 17.328,-58.87 33.422,-85.3 2.277,10.55 -3.188,19.04 -5.997,27.85 -6.488,20.25 -13.113,40.82 -27.289,57.56 -2.796,20.68 -29.003,49.74 -48.343,53.28 -4.328,0.8 -10.075,1.87 -12.168,-2.89 -1.77,-4.05 2.23,-7.64 5.722,-9.95 18.981,-12.52 41.493,-20.22 54.653,-40.55 z m 51.992,-77.01 c 10.141,25.69 19.208,47.24 31.298,67.21 11.42,18.9 23.37,37.5 40.17,52.35 20,17.7 42.69,10.43 56.2,-12.6 13.62,-23.19 17.13,-49.15 12.92,-76.6 -4.08,-26.45 -8.63,-52.74 -20.62,-76.56 -17.53,-34.85 -30.9,-71.43 -46.77,-106.96 -12.1,-27.16 -29.45,-51.84 -37.77,-80.71 -1.36,-4.67 -4.51,-8.72 -9.53,-9.06 -10.39,-0.69 -21.211,-2.28 -31.172,-0.22 -10.918,2.23 -20.585,9.26 -32.453,9.98 -5.238,0.3 -8.789,6.01 -9.398,10.99 -3.461,28.23 -24.317,46.78 -38.324,68.97 -22.028,34.85 -43.168,69.94 -60.836,107.42 -11.879,25.16 -20.168,50.48 -21.153,77.86 -0.843,23.66 2.356,47.36 0.329,71.1 -0.485,5.57 1.273,11.7 5.386,15.31 16.27,14.26 33.535,28.55 56.082,29.07 19.313,0.45 35.821,-9.83 47.274,-25.14 24.324,-32.58 42.367,-68.5 52.914,-107.99 0.922,-3.48 2.523,-6.78 5.453,-14.42"
         style="fill:#000000;fill-opacity:1;fill-rule:evenodd;stroke:none"
         id="path48" /><path
         d="m 1081.23,3678.11 c -2.24,12.68 -5.98,17.13 -21.28,23.66 11.03,-7.32 9.99,-19.26 21.28,-23.66 z m 240.71,37.84 c 9.96,19.74 0.09,37.52 -28.21,37.46 11.8,-10.69 19.55,-23.4 28.21,-37.46 z m -20.06,-20.02 c 0.9,18.98 -8.6,33.53 -21.3,45.13 -7.63,6.98 -18.33,3.21 -26.73,-2.55 -3.26,-2.23 -3.89,-6.12 0.65,-7.12 21.19,-4.6 33.29,-20.71 47.38,-35.46 z m -339.146,-30.24 c 0.313,-41.85 13.329,-74.21 30.313,-106.44 26.093,-49.47 63.303,-88.4 105.603,-123.46 15.5,-12.83 16.68,-12.7 29.02,3.29 28.94,37.55 58.37,74.55 91.99,108.19 22.63,22.63 46.24,44.56 60.76,74.5 12.84,26.5 12.22,59.53 -7.46,80.8 -7.03,7.61 -15.95,18.38 -27.67,15.43 -17.29,-4.35 -34,-12.89 -45.52,-26.62 -13.81,-16.47 -22.59,-36.57 -33.2,-55.33 -9.38,-16.58 -12.06,-39.88 -36.43,-44.81 -1.28,-0.26 -2.38,-2.62 -3.07,-4.22 -2.9,-6.81 -7.75,-6.28 -13.77,-4.71 -6.05,1.58 -10.41,3.8 -9.75,10.95 0.54,5.37 -1.99,9.56 -4.47,14.13 -8.77,16.19 -16.13,33.2 -25.62,48.93 -15.32,25.38 -33.99,48.23 -59.85,63.66 -20.641,12.33 -41.266,3.09 -46.223,-20.03 -2.793,-12.95 -4.598,-26.07 -4.653,-34.26 z m 381.786,58.26 c 1.17,-11.52 -3.47,-21.97 -7.68,-31.96 -9.81,-23.19 -17.94,-46.83 -23.93,-71.28 -7.74,-31.7 -27.97,-57.36 -42.08,-85.98 -9.11,-18.46 -17.37,-37.86 -31.33,-53.39 -15.67,-17.42 -24.42,-39.44 -43.64,-55.21 -13.89,-11.39 -25.42,-27.29 -38.96,-40.28 -6.88,-6.58 -14.42,-16.22 -24.4,-12.01 -13.07,5.52 -28.14,9.49 -36.11,23.28 -1.56,2.72 -1.74,6.37 -4.91,7.98 -28.71,14.76 -45.15,41.15 -63.45,65.99 -21.57,29.23 -49.241,53.25 -70.491,82.92 -20.73,29.01 -36.23,59.56 -37.402,96.02 -0.121,3.6 -1.336,7.25 -2.578,10.68 -6.246,17.44 -1.692,31.53 7.523,47.85 11.27,19.99 28.199,32.14 45.449,44.01 16.461,11.31 37.219,11.23 55.919,7.23 44.11,-9.41 70.62,-39.69 88.48,-79.48 3.61,-8.02 6.12,-20.69 14.46,-21.86 6.64,-0.91 9.5,11.99 14.46,18.45 24.96,32.48 50.16,64.91 87.96,83.71 26.45,13.14 54.44,12.95 82.19,5.2 21.92,-6.08 30.16,-18.62 30.52,-41.87"
         style="fill:#000000;fill-opacity:1;fill-rule:evenodd;stroke:none"
         id="path50" /><path
         d="m 2198.28,1310.46 c -2.24,12.66 -5.98,17.1 -21.29,23.65 11.04,-7.33 10,-19.26 21.29,-23.65 z m 240.72,37.81 c 9.94,19.74 0.1,37.53 -28.22,37.46 11.82,-10.67 19.57,-23.38 28.22,-37.46 z m -20.07,-20.01 c 0.91,18.99 -8.6,33.54 -21.27,45.12 -7.67,6.99 -18.34,3.22 -26.76,-2.55 -3.26,-2.22 -3.89,-6.11 0.66,-7.1 21.19,-4.6 33.27,-20.72 47.37,-35.47 z m -339.14,-30.24 c 0.31,-41.84 13.32,-74.22 30.31,-106.45 26.1,-49.46 63.31,-88.4 105.6,-123.46 15.49,-12.82 16.68,-12.69 29.03,3.29 28.92,37.55 58.36,74.54 92.01,108.21 22.62,22.62 46.22,44.55 60.74,74.49 12.83,26.49 12.2,59.52 -7.46,80.8 -7.03,7.6 -15.94,18.38 -27.68,15.44 -17.26,-4.36 -33.98,-12.89 -45.52,-26.62 -13.82,-16.47 -22.58,-36.59 -33.21,-55.35 -9.37,-16.57 -12.05,-39.89 -36.42,-44.81 -1.27,-0.26 -2.39,-2.63 -3.07,-4.23 -2.89,-6.8 -7.74,-6.26 -13.77,-4.7 -6.05,1.59 -10.41,3.8 -9.74,10.95 0.52,5.37 -2,9.55 -4.48,14.12 -8.77,16.22 -16.13,33.22 -25.62,48.95 -15.31,25.39 -33.99,48.24 -59.85,63.65 -20.64,12.33 -41.26,3.09 -46.23,-20.04 -2.79,-12.93 -4.59,-26.07 -4.64,-34.24 z m 381.79,58.28 c 1.17,-11.55 -3.45,-21.99 -7.68,-31.98 -9.82,-23.2 -17.96,-46.84 -23.93,-71.3 -7.74,-31.68 -27.98,-57.35 -42.08,-85.95 -9.12,-18.46 -17.36,-37.88 -31.33,-53.41 -15.68,-17.4 -24.43,-39.44 -43.65,-55.2 -13.89,-11.38 -25.41,-27.31 -38.96,-40.29 -6.88,-6.58 -14.42,-16.23 -24.39,-12.01 -13.08,5.52 -28.15,9.49 -36.13,23.28 -1.55,2.72 -1.74,6.37 -4.89,7.99 -28.72,14.75 -45.16,41.15 -63.46,65.98 -21.56,29.22 -49.25,53.28 -70.49,82.93 -20.74,29 -36.23,59.57 -37.4,96.01 -0.12,3.59 -1.35,7.25 -2.58,10.69 -6.26,17.44 -1.7,31.52 7.52,47.86 11.26,19.99 28.2,32.11 45.45,43.99 16.45,11.33 37.22,11.22 55.92,7.24 44.12,-9.42 70.62,-39.69 88.47,-79.47 3.62,-8.03 6.14,-20.71 14.48,-21.88 6.64,-0.9 9.49,12 14.44,18.45 24.97,32.49 50.16,64.91 87.98,83.71 26.44,13.16 54.46,12.96 82.19,5.22 21.93,-6.1 30.15,-18.63 30.52,-41.86"
         style="fill:#000000;fill-opacity:1;fill-rule:evenodd;stroke:none"
         id="path52" /><path
         d="m 2328.39,4092.06 c -11.09,4.56 -19.43,2.93 -29.33,-7.32 11.39,2.62 20.24,0.01 29.33,7.32 z m 175.1,-45.49 c 0.4,12.14 0.05,23.75 -6.87,34.59 -5.49,8.59 -9.33,9.5 -18.28,2.8 -24.13,-18.05 -32.6,-44.75 -41.34,-70.98 -8.37,-25.15 -13.78,-51.27 -20.96,-76.82 -1.63,-5.78 -2.16,-13 -10.86,-14.18 -11.04,-1.46 -16.76,1.15 -17.53,13.95 -2.26,37.69 -8.53,74.67 -24.49,109.4 -3.14,6.87 -7.01,13.3 -14.08,16.44 -28.87,12.86 -67.58,-10.41 -67.95,-41.86 -0.23,-19.21 0.06,-38.54 4.07,-57.8 6.11,-29.33 14.9,-57.84 25.92,-85.38 11.59,-28.86 22.4,-58.3 40.41,-84.31 10.94,-15.79 20.62,-32.49 30.17,-49.17 3.81,-6.67 7.81,-15.06 -5.48,-17.08 -6.3,-0.96 -4.93,-4.66 -3.68,-9.15 1.69,-6.14 5.84,-9.9 11.36,-10.74 6.01,-0.91 7,5.23 8.27,9.31 15.53,50.28 41.08,96.14 63.19,143.5 27.82,59.49 39.66,123.01 48.13,187.48 z m 26.94,-0.64 c 5.47,-43.61 -7.71,-84.47 -17.99,-125.98 -11.42,-46.02 -29.86,-89.47 -49.02,-132.36 -13.28,-29.77 -29.58,-58.58 -49.32,-85.09 -7.13,-9.58 -13.66,-10.98 -25.84,-9.65 -26.02,2.88 -35.61,21.41 -47.63,39.73 -20.18,30.81 -39.99,61.75 -57.18,94.41 -20.85,39.64 -32.61,81.61 -35.21,126.31 -2,34.02 -3.73,67.95 6.86,101.08 7.95,24.84 21.48,44.87 47.48,53.52 28.85,9.61 52.36,-4.92 68.81,-32.2 11.72,-19.45 24.37,-39.16 27.57,-62.8 0.61,-4.47 3.13,-11.11 8.22,-10.87 4.44,0.23 5.16,6.74 5.96,11.27 4.77,26.71 19.1,48.99 33.32,71.26 8.68,13.57 33.4,23.89 48.13,20.58 18.56,-4.17 30.2,-17.16 33.94,-37.28 1.37,-7.25 3.4,-14.39 1.9,-21.93"
         style="fill:#000000;fill-opacity:1;fill-rule:evenodd;stroke:none"
         id="path54" /><path
         d="m 50.707,4195.52 c 12.6563,17.98 24.918,36.44 34.3633,56.45 H 66.1563 C 47.25,4217.27 23.4609,4185.65 0,4152.29 v -31.13 c 1.19531,2.57 3.32422,5.18 4.55469,7.11 14.58981,22.93 30.50391,45 46.15231,67.25"
         style="fill:#000000;fill-opacity:1;fill-rule:nonzero;stroke:none"
         id="path56" /><path
         d="m 48.2852,4129.66 c 26.8554,34.01 39.5586,76.22 62.5978,112.52 1.992,3.15 3.008,6.44 3.672,9.79 H 93.6523 c -5.8789,-14.83 -13.6679,-28.72 -20.8789,-42.71 -15.5039,-30.09 -31.9687,-59.8 -55.2929,-84.94 -0.6211,-0.66 -1.1016,-1.46 -1.6719,-2.19 -3.875,-4.74 -10.00391,-10.77 -14.44141,-8 -0.601565,0.36 -1.015627,0.8 -1.36719,1.24 v -24.32 c 1.95313,0.32 3.9375,0.57 5.88281,1.09 20.60939,5.54 30.77739,22.81 42.40239,37.52"
         style="fill:#000000;fill-opacity:1;fill-rule:nonzero;stroke:none"
         id="path58" /><path
         d="m 2970.49,3659.54 c -14.83,-9.51 -19.25,-25.22 -25.04,-40 -1.35,-3.5 0.75,-6.67 4.11,-7.65 3.84,-1.12 3.96,2.67 4.95,5.09 5.68,13.98 8.52,29.08 15.98,42.56 z m 46.46,47.19 c 17.31,7.08 34.74,11.29 53.34,8.03 2.56,-0.46 5.71,-2.85 6.86,0.9 1.14,3.77 -1.97,5.7 -5.39,6.37 -20.79,4.02 -39.25,-0.75 -54.81,-15.3 z m 61.02,-119.68 c -6.9,0.42 -7.62,-3.74 -9.32,-8.21 -9.74,-25.54 -24.96,-48.21 -40.49,-70.3 -15.64,-22.23 -31.56,-44.29 -46.16,-67.22 -2.5,-3.95 -8.79,-10.69 -3.17,-14.16 4.42,-2.76 10.56,3.28 14.43,8.01 0.57,0.72 1.05,1.53 1.68,2.2 23.31,25.12 39.78,54.84 55.28,84.93 10.65,20.68 22.72,41.05 27.75,64.75 z m -119.41,-149.31 c 31.69,48.19 67.05,90.23 91.55,139.49 11.14,22.36 26.5,42.72 31.14,68.23 2.6,14.28 4.49,27.99 -0.64,42.11 -4.16,11.39 -12.84,14.54 -22.93,12.07 -28.34,-6.97 -50.86,-22.03 -65.94,-48.07 -11.27,-19.48 -16.06,-41.01 -22.68,-61.98 -2.36,-7.45 -6.24,-12.53 -13.65,-13.52 -7.21,-0.96 -10,4.47 -12.27,10.46 -1.25,3.35 -4.16,6.03 -6.13,9.12 -4.67,7.32 -12.27,14.32 -13.24,22.13 -3.22,25.74 -18.72,42.23 -37.89,56.59 -12.81,9.61 -27.06,6.81 -35.25,-7.03 -14.61,-24.7 -15.75,-50.51 -0.38,-74.53 15.98,-24.95 27.45,-52.17 42.52,-77.52 7.17,-12.04 13.65,-24.64 21.74,-36.1 6.84,-9.68 14.14,-20.15 25.8,-24.15 8.08,-2.75 13.65,-6.76 18.25,-17.3 z m 156.01,219.64 c -0.27,-25.49 -7.54,-48.58 -18.21,-70.68 -4.84,-9.99 -1.63,-21.41 -8.03,-31.48 -23.04,-36.29 -35.74,-78.51 -62.59,-112.53 -11.62,-14.71 -21.79,-31.97 -42.4,-37.5 -22.75,-6.13 -46.39,3.83 -60.63,22.58 -8.98,11.81 -16.66,25.37 -29.64,34.01 -13.56,9.04 -19.08,24.56 -28.64,36.8 -14.97,19.19 -34.17,35.04 -45.68,56.9 -23.25,44.14 -21.71,88.33 -0.35,132.75 6.29,13.09 12.71,25.15 27.6,30.65 22.35,8.3 39.39,-4.47 56.18,-14.72 13.74,-8.36 23.93,-21.49 32.57,-35.34 4.86,-7.79 7.38,-8.58 14.55,0.05 23.03,27.83 45.3,58.28 82.35,68.38 40.17,10.96 70.14,-4.98 80.55,-49.1 2.37,-9.91 5.44,-20.68 2.37,-30.77"
         style="fill:#000000;fill-opacity:1;fill-rule:evenodd;stroke:none"
         id="path60" /><path
         d="m 673.867,2714.12 c 0.766,11.61 -0.879,22.37 -3.086,33.28 -3.574,17.66 -17.738,30.29 -40.183,33.76 -13.918,2.15 -21.828,-4.07 -31.184,-21.11 -17.398,-31.77 -27.504,-65.72 -33.269,-101.27 -1.559,-9.39 -4.368,-18.65 -10.204,-26.8 -5.082,-7.07 -11.742,-6.3 -18.445,-5.06 -6.594,1.25 -4.957,6.15 -4.137,10.91 0.418,2.46 -1.226,5.23 -1.679,7.89 -4.664,27.65 -24.352,49.24 -31.246,75.63 -4.926,18.82 -15.258,32.7 -27.856,46.38 -9.566,10.37 -18.648,9.26 -29.398,3.24 -9.41,-5.31 -12.692,-14.1 -14.934,-23.74 -9.101,-39.2 0.836,-76.81 15.699,-111.68 10.524,-24.73 22.473,-49.78 38.785,-72.3 20.961,-28.86 39.032,-59.84 60.555,-88.41 10.192,-13.54 20.274,-12.93 26.731,2.39 8.339,19.74 19.855,37.8 29.527,56.79 18.332,35.97 39.48,70.55 55.652,107.65 10.118,23.25 19.192,46.94 18.672,72.45 z m 17.071,37.07 c 3.144,-6.24 3.21,-17.01 2.964,-27.97 -0.656,-29.61 -6.738,-58.08 -14.738,-86.47 -6.449,-22.91 -14.414,-45.11 -23.234,-67.18 -14.563,-36.38 -32.391,-70.75 -55.93,-102.04 -6.871,-9.16 -12.125,-19.59 -20.855,-27.33 -8.735,-7.68 -16.207,-7.37 -28.657,-4.32 -32.734,7.97 -42.281,37.16 -60.308,58.03 -22.391,25.96 -40.106,55.63 -57.032,85.62 -13.878,24.54 -28.867,48.37 -37.613,75.58 -10.39,32.28 -11.707,65.2 -4.711,97.75 6.66,31 44.746,49.09 75.86,43.65 32.746,-5.7 42.832,-33.47 60.945,-53.72 1.473,-1.68 2.101,-4.12 3.488,-5.91 12.531,-16.09 11.403,-15.44 21.071,2.43 17.042,31.44 36.816,60.45 76.246,67.02 42.312,7.04 58.933,-11.55 62.504,-55.14"
         style="fill:#000000;fill-opacity:1;fill-rule:evenodd;stroke:none"
         id="path62" /><path
         d="m 1026.89,960.59 c 0.76,11.601 -0.89,22.359 -3.09,33.269 -3.57,17.661 -17.72,30.301 -40.21,33.771 -13.883,2.15 -21.813,-4.07 -31.145,-21.11 -17.422,-31.782 -27.519,-65.719 -33.308,-101.27 -1.535,-9.41 -4.352,-18.648 -10.188,-26.801 -5.082,-7.07 -11.742,-6.308 -18.437,-5.051 -6.602,1.25 -4.953,6.133 -4.145,10.872 0.406,2.492 -1.23,5.25 -1.679,7.91 -4.665,27.66 -24.352,49.23 -31.247,75.64 -4.925,18.821 -15.257,32.69 -27.855,46.38 -9.57,10.37 -18.652,9.26 -29.391,3.23 -9.418,-5.3 -12.699,-14.09 -14.941,-23.719 -9.106,-39.199 0.836,-76.82 15.699,-111.68 10.535,-24.75 22.457,-49.801 38.793,-72.312 20.965,-28.867 39.016,-59.84 60.539,-88.418 10.207,-13.539 20.281,-12.93 26.746,2.41 8.34,19.719 19.86,37.789 29.528,56.777 18.32,35.973 39.496,70.543 55.641,107.641 10.14,23.25 19.18,46.949 18.69,72.461 z m 17.06,37.058 c 3.14,-6.226 3.19,-17 2.97,-27.968 -0.66,-29.59 -6.71,-58.071 -14.73,-86.469 -6.47,-22.91 -14.41,-45.109 -23.27,-67.199 C 994.398,779.648 976.559,745.27 953.031,714 c -6.898,-9.16 -12.125,-19.602 -20.883,-27.332 -8.73,-7.688 -16.21,-7.379 -28.652,-4.328 -32.734,7.988 -42.281,37.148 -60.308,58.039 -22.383,25.961 -40.098,55.633 -57.032,85.59 -13.894,24.57 -28.871,48.39 -37.625,75.601 -10.39,32.289 -11.695,65.211 -4.699,97.758 6.66,30.992 44.746,49.082 75.859,43.662 32.758,-5.72 42.832,-33.48 60.93,-53.74 1.488,-1.68 2.117,-4.121 3.504,-5.891 12.539,-16.097 11.402,-15.441 21.07,2.422 17.028,31.439 36.836,60.449 76.282,67.009 42.273,7.05 58.923,-11.54 62.473,-55.142"
         style="fill:#000000;fill-opacity:1;fill-rule:evenodd;stroke:none"
         id="path64" /><path
         d="m 1608.79,2428.55 c -0.04,0.29 -0.11,4.46 -0.97,8.48 -5.16,24.31 -16.2,28.42 -38.56,18.41 -14.51,-6.49 -21.28,-17.67 -27.38,-30.37 -10.5,-21.74 -24.4,-42.15 -28.13,-66.59 -2.24,-14.7 -8.79,-27.73 -13.85,-41.36 -1.74,-4.7 -5.17,-9.48 -10.99,-8.89 -5.55,0.59 -6.54,6.35 -7.42,10.63 -1.32,6.23 -2.37,12.83 -1.75,19.1 3.91,39.74 -9.58,74.05 -33.31,104.61 -16.45,21.17 -35.95,22.36 -56.91,6.36 -13.21,-10.08 -18.59,-25.07 -24.85,-39.1 -9.83,-22.03 -16.3,-45.06 -7.97,-69.42 10.22,-29.87 23.01,-58.3 42.91,-83.33 18.7,-23.47 37.06,-46.83 68.52,-53.99 3.02,-0.67 4.9,-2.82 8.34,0.45 38.59,36.87 74.62,75.75 101.31,122.56 17.53,30.74 31.17,62.44 31.01,102.45 z M 1458.4,2185.38 c -30.2,-5.9 -47.64,13.75 -64.01,32.79 -24.11,28.07 -40.64,61.11 -56.34,94.44 -11.42,24.24 -20.88,49.08 -22.18,76.23 -1.62,33.99 24.1,78.3 56.36,88.69 20.9,6.73 42.73,13.99 65.66,13.11 21.59,-0.83 33.22,-16.88 44.69,-31.19 6.95,-8.68 15.42,-16.7 19.76,-27.8 2.86,-7.29 7.04,-3.66 10.93,1.04 17,20.49 36.38,38.77 55.94,56.71 16.1,14.79 36.83,12.71 51.02,-4.19 22.33,-26.59 26.8,-56.09 14.79,-88.8 -13.32,-36.26 -30.87,-70.31 -51.19,-103.01 -19.85,-31.96 -38.22,-65.11 -68.37,-89.2 -3.58,-2.88 -7.01,-6.11 -10.95,-8.39 -6.61,-3.82 -15.37,-4.26 -10.32,-17.03 2.94,-7.48 -19.83,-23.55 -28.44,-20.84 -8.77,2.76 -15.08,7.72 -9.15,18.4 1.26,2.3 3.47,4.54 1.8,9.04"
         style="fill:#000000;fill-opacity:1;fill-rule:evenodd;stroke:none"
         id="path66" /><path
         d="m 9.72656,1495.8 c 2.17184,23.58 2.58204,47.46 10.91014,70.26 2.2735,6.3 5.5391,11.31 11.5703,11.95 6.3008,0.65 9.2071,-5.82 11.6407,-10.55 12.25,-23.63 17.5586,-49.36 20.1445,-75.53 1.6133,-16.38 5.582,-32.65 3.2383,-49.33 -0.7227,-5.01 1.0351,-9.68 6.4648,-10.66 5.332,-0.96 10.8399,0.88 12.4063,6.53 6.6523,24.01 21.8284,44.38 24.8594,70.6 2.144,18.81 12.598,37.55 28.238,52.06 11.676,10.84 21.004,24.02 36.274,30.78 13.785,6.13 30.664,-4.02 29.039,-18.92 -2.266,-20.51 -5.789,-40.57 -13.453,-60.34 -19.024,-49.13 -45.469,-94.22 -71.735,-139.46 -10.23,-17.65 -25.6209,-31.21 -38.8748,-46.44 -1.1289,-1.31 -3.0429,-1.94 -4.5898,-2.89 -3.3203,11.24 -16.9336,7.19 -22.9844,16.67 -22.4258,35.12 -32.5234,73.95 -37.6055,114.47 -1.6914,13.62 -7.62887,26.64 -5.54294,40.8 z m 50.09764,80.88 c 1.4102,0.55 3.5821,0.15 5.0469,-0.55 17.9648,-8.69 26.6172,-37.81 14.8555,-57.08 -7.2461,19.27 -8.9453,38.11 -20.3516,52.99 -1.1289,1.46 -1.7344,3.74 0.4492,4.64 z M 177.695,1439.9 c 0.18,17.32 12.032,26.12 17.465,40.66 1.942,-17.94 -7.933,-27.65 -17.465,-40.66 z M 20.6445,1360.63 c 10.4688,-24.87 23.3828,-48.11 52.3868,-56.31 5.2734,-1.48 10.1875,-2.87 14.1562,1.16 7.875,8.03 18.2855,12.27 26.9965,19.08 37.988,29.66 62.675,69.1 83.632,111.55 19.789,40.1 29.797,82.49 31.657,126.97 0.871,21.13 -2.637,40.62 -25.481,48.24 -9.89,3.33 -21.34,2.81 -32.035,2.77 -31.176,-0.12 -48.418,-20.9 -63.441,-44.33 -1.68,-2.59 -1.657,-6.59 -5.543,-6.89 -3.1019,-0.26 -4.3832,2.42 -5.805,5 -13.8594,25.11 -37.2969,32.74 -63.6328,32.07 C 18.3008,1599.53 7.75391,1595.91 0,1588.38 V 1428.3 c 0.179688,-0.67 0.394531,-1.29 0.507813,-2.03 3.921877,-22.7 11.246087,-44.53 20.136687,-65.64"
         style="fill:#000000;fill-opacity:1;fill-rule:nonzero;stroke:none"
         id="path68" /><path
         d="m 3722.83,1825.79 c -2.38,-10.71 1.95,-18.27 7.87,-25.33 1.1,9.27 3.45,18.94 -7.87,25.33 z m -60.12,-204.74 c 3.81,14.65 -3.46,22.77 -8.79,35.45 -3.46,-15.18 0.85,-24.2 8.79,-35.45 z m 93.86,-143.34 c 3.27,2.4 7.41,4.41 7.38,8.96 -0.07,4.77 -3.38,7.37 -8.15,7.12 -4.61,-0.25 -8.1,-2.45 -7.31,-7.66 0.67,-4.35 3.82,-6.99 8.08,-8.42 z m 8.37,254.72 c 2.82,7.57 4.34,12.84 6.76,17.66 1.78,3.5 1.92,5.88 -1.44,8.21 -3.19,2.21 -6.28,0.93 -9.16,-0.42 -3.82,-1.83 -1.23,-4.45 -0.53,-6.95 1.41,-5.21 2.51,-10.52 4.37,-18.5 z m -215.03,126.62 c -2.84,13.12 8.49,27.44 -3.79,41.5 -2.1,-15.47 0.36,-28.63 3.79,-41.5 z m 380.47,79.78 c 4.92,4.53 4.03,10.41 5.74,15.21 1.22,3.4 2.22,6.89 3.04,10.41 1.99,8.59 -1.62,11.81 -5.33,5.6 -4.79,-8.03 -14.35,-15.42 -7.42,-26.88 0.85,-1.41 2.26,-2.5 3.97,-4.34 z m -223.06,-339.95 c 3.95,9.77 2.5,17.91 1.25,25.98 -0.6,3.88 -3.43,7.42 -7.11,7.37 -4.72,-0.03 -4.87,-4.93 -4.79,-8.38 0.24,-9.26 2.39,-17.88 10.65,-24.97 z m -30.74,172.84 c 4.96,22.38 -4.1,41.44 -13.71,60.42 -4.37,-22.11 4.42,-41.29 13.71,-60.42 z m -69.03,-44.56 c -0.22,-4.78 1.02,-11.03 2.82,-17.22 0.88,-3.07 0.85,-7.35 4.77,-7.29 3.33,0.03 4.33,4.13 5.75,7 4.68,9.33 0.61,18.79 0.75,28.23 0.03,4.83 1.11,9.54 -5.47,10.18 -6.86,0.67 -8.25,-4.85 -9.27,-9.7 -0.6,-3.02 0.3,-6.33 0.65,-11.2 z m -30.24,207.93 c 1.98,-5.35 -2.02,-15.15 8.1,-12.69 7.32,1.77 20.37,-5.93 21.2,9.96 0.34,6.37 -12.94,28.94 -16.06,27.35 -9.83,-5.02 -10.92,-15.48 -13.24,-24.62 z m 90.78,-1.61 c -1.01,-0.74 -1.98,-1.51 -2.95,-2.27 3.45,-6.39 7.4,-12.57 10.25,-19.23 7.05,-16.47 17.87,-30.78 26.29,-46.45 1.94,-3.65 4.77,-6.63 8.54,-5.08 4.99,2.05 1.56,6.32 0.41,9.19 -2.91,7.22 -5.69,14.65 -9.88,21.14 -9.7,15.14 -19.7,30.19 -32.66,42.7 z m 8.15,-268.39 c 9.27,14.73 -1.6,24.97 -2.24,36.1 -0.74,12.63 -12.7,17.16 -20.35,24.64 -2.91,2.86 -5.48,1.35 -7.17,-2.59 -5.35,-12.33 -7.59,-24.69 -2.65,-37.72 0.96,-2.53 2.34,-4.4 4.86,-3.19 15.6,7.6 21.59,-2.59 27.55,-17.24 z m 206.08,367.55 c -0.32,-0.02 -3.46,0.66 -4.74,-2.58 -1.22,-3.03 1.06,-5.21 2.8,-7.3 6.71,-8.14 13.62,-16.12 20.22,-24.34 3.99,-4.99 6.81,-13.75 11.41,-14.66 5.73,-1.15 7.74,9 13.1,12.49 9.47,6.15 7.1,12.34 0.43,19 -11.33,11.31 -25.11,16.56 -43.22,17.39 z m 25.07,-124.33 c -18.33,-33.31 -29.89,-68.81 -39.59,-107.77 33.41,30.69 42.49,67.18 39.59,107.77 z m -64.65,65.02 c -16.94,-10.55 -22.13,-25.38 -26.21,-40.05 -4.13,-14.93 -5.86,-30.5 -8.64,-45.79 -4.33,-23.67 -9.76,-47.18 -10.19,-71.69 6.16,9.94 8.86,20.97 11.11,32.29 5.24,26.5 8.21,54.22 22.62,77.35 9.34,15.01 7.91,30.02 11.31,47.89 z m -330.79,-56.27 c -0.62,15.94 2.81,31.28 8.02,45.99 9.9,27.93 32.23,38.71 60.01,40.43 25.38,1.57 46.83,-6.76 67.38,-22.54 35.45,-27.17 60.92,-63.07 89.77,-96.09 1.2,-1.36 2.34,-2.93 3.02,-4.6 2.55,-6.17 2.98,-16.54 10.86,-15.33 6.65,1.03 5.97,11.66 6.73,18.04 4,33.84 16.92,64.93 29.73,95.85 11.53,27.81 29.51,50.98 58.26,63.62 37.4,16.42 76.24,5 102.94,-25.8 20.97,-24.21 13.78,-49.75 9.67,-75.63 -4.97,-31.42 -19.23,-60.09 -28.84,-90.16 -11,-34.46 -18.11,-70.2 -33.04,-103.36 -7.5,-16.64 -12.01,-34.44 -21.73,-50.3 -5.49,-8.99 -7.85,-20.14 -10.34,-30.62 -10.86,-46.03 -28.92,-89.34 -51.14,-130.7 -14.73,-27.46 -22.64,-58.14 -40.8,-83.92 -3.37,-4.8 -7.97,-8.65 -9.94,-14.76 -2.1,-6.66 -8.59,-8.36 -14.8,-7.17 -6.45,1.24 -7.36,6.19 -7.56,12.61 -0.46,17.81 -9.23,32.91 -20.57,45.53 -22.62,25.27 -37.48,55.78 -58.15,82.31 -20.65,26.43 -38.81,54.65 -57.5,82.49 -22.74,33.84 -40.41,70.08 -55.12,107.72 -16.25,41.58 -23.33,85.89 -34.59,128.94 -2.3,8.77 -1.6,18.3 -2.27,27.45"
         style="fill:#000000;fill-opacity:1;fill-rule:evenodd;stroke:none"
         id="path70" /><path
         d="m 4197.99,3367.36 c -2.99,-20.9 -8.02,-41.62 -8.11,-62.98 1.03,-39.65 11.42,-77.06 28.43,-112.73 9.58,-20.03 21.33,-38.72 33.66,-57.03 v 104.26 c -6.36,14.91 -9.24,31.02 -11.71,46.91 -2.54,16.35 -6.02,33.44 0.09,50.16 1.22,3.34 0.93,8.09 5.73,7.98 2.76,-0.05 4.43,-2.05 5.89,-4.28 v 67.5 c -6.34,-0.63 -12.65,-2.03 -18.85,-4.46 -16.04,-6.29 -32.34,-15.71 -35.13,-35.33"
         style="fill:#000000;fill-opacity:1;fill-rule:nonzero;stroke:none"
         id="path72" /><path
         d="m 3690,3391.53 c -6.33,-2.89 -11.31,-6.15 -11.65,-13.2 -0.16,-3.34 3.09,-4.45 5.93,-3.47 7.92,2.75 7.36,8.94 5.72,16.67 z m -65.12,-179.26 c -0.71,0.43 -1.43,0.86 -2.15,1.28 -3.86,-4.88 -7.87,-9.66 -11.54,-14.68 -2.44,-3.33 -0.1,-6.63 2.22,-8.14 3.33,-2.14 4.52,1.58 5.4,3.9 2.19,5.81 4.05,11.76 6.07,17.64 z m -103.97,-82.85 c -1.52,-15.04 -1.17,-27.26 3.51,-38.93 1.15,-2.85 0.81,-8.73 6.39,-6.58 3.75,1.46 6.79,4.77 5.11,9.83 -3.78,11.48 -6,23.61 -15.01,35.68 z m 189.9,182.51 c 9.14,15.28 12.73,46.63 6.93,61.22 -0.9,2.33 -1.7,6.23 -4.68,5.71 -3.68,-0.66 -4.11,-4.07 -3.13,-7.68 4.05,-14.65 1.71,-29.09 -2.6,-43.18 -1.96,-6.49 -0.53,-11.2 3.48,-16.07 z m -316.33,6.77 c 4.59,15.27 8.45,28.79 12.8,42.14 1.24,3.74 3.15,6.55 -1.9,8.9 -5.19,2.43 -10.07,0.9 -11.75,-3.37 -5.92,-15.11 -7.45,-30.54 0.85,-47.67 z m 79.48,-66.04 c -9.88,17.27 -17.81,32.58 -21.2,49.79 -0.59,3.1 -1.99,8.53 -7,5.85 -7.65,-4.1 -4.3,-13.33 -7.62,-19.76 -1.97,-3.77 1.64,-7.44 5.33,-8.16 10.31,-2.07 15.52,-8.4 17.98,-18.17 1.12,-4.58 4.47,-7.73 12.51,-9.55 z m 164.17,118.92 c -32.48,-28.53 -50.51,-65.79 -63,-106.32 19.66,36.16 38.63,72.7 63,106.32 z m -89.17,-314.72 c -0.72,3.9 -0.44,8.48 -5.15,7.06 -11.64,-3.49 -12.58,-14.72 -15.19,-24.03 -2.08,-7.55 -0.3,-14.7 9.01,-17.24 3.25,-0.88 8.41,0.64 8.83,-4.45 0.33,-4.66 -3.67,-5.61 -7.66,-5.99 -4.61,-0.43 -5.01,-3.09 -3.07,-6.7 2.05,-3.82 4.4,-7.45 9.58,-5.38 7.8,3.1 11.86,27.49 4.47,31.4 -9.36,4.96 -9.02,9.73 -3.97,17.12 1.73,2.54 2.28,5.86 3.15,8.21 z m -133.28,240.9 c 7.23,14.56 15.08,28.26 25.41,40.71 3.93,4.72 6.17,11.27 7.87,17.34 1.83,6.5 -3.33,10.05 -8.16,12.91 -3.51,2.08 -7.51,2.12 -9.23,-2.27 -8.53,-22.02 -15.06,-44.58 -15.89,-68.69 z m 48.06,87.43 c 18.95,-30.56 36.49,-58.81 54.03,-87.09 1.04,37.47 -22.33,75.81 -54.03,87.09 z m 17.31,-298.48 c -5.08,61.23 -27.86,117.4 -47.34,174.49 -9.01,-64.95 4.89,-123.66 47.34,-174.49 z m -51.8,337.52 c 8.11,-1.63 19.29,-1.55 30.68,1.83 7.88,2.33 15.07,-1.79 21.67,-6.65 15.8,-11.62 22.31,-29.89 33.2,-45 17.66,-24.52 23.54,-53.44 32.54,-81.26 1.45,-4.5 1.69,-11.78 6.88,-12.08 5.64,-0.33 6.23,7.11 8.15,11.48 13.03,29.45 27.07,58.2 49.81,81.8 22.37,23.2 47.8,38.29 81.63,35.84 21.37,-1.55 31.63,-8.62 40.15,-34.66 6.55,-19.97 2.48,-39.89 -1.7,-59.54 -4.71,-22.04 -14.38,-42.44 -22.01,-63.53 -15.56,-42.89 -40.64,-80.89 -61.31,-121.15 -10.97,-21.38 -23.44,-42.34 -25.65,-67.68 -0.83,-9.68 -8.5,-18.87 -13.54,-28.02 -11.5,-20.83 -23.4,-41.4 -34.92,-62.24 -10.44,-18.92 -22.55,-20.47 -36.78,-4.55 -2.41,2.72 -5.35,6.09 -8.56,6.77 -24.52,5.23 -33.45,27.22 -47.42,43.61 -16.2,19 -24.7,42.57 -36.73,64.05 -18.17,32.43 -39.59,63.04 -52.94,98.13 -11.72,30.89 -24.23,61.41 -27.05,94.84 -0.98,11.53 -7.3,21.76 -10.13,32.85 -9.11,35.72 9.62,63.71 26.66,92.11 10.02,16.74 25.01,23.69 47.37,23.05"
         style="fill:#000000;fill-opacity:1;fill-rule:evenodd;stroke:none"
         id="path74" /><path
         d="m 3438.75,4066.71 c 14.41,-0.76 27.77,-3.69 41,-8.19 14.36,-4.88 20.51,-3.03 28.02,10.77 1.28,2.38 2.74,4.64 4.12,6.91 9.15,14.94 22.76,26.64 29.73,43.24 6.9,16.43 13.27,33.62 23.46,47.95 19.08,26.93 35.99,54.81 48.91,84.58 h -248.78 c 4.24,-9.33 8.46,-17.58 8.64,-27.68 -9.19,8.12 -11.38,13.57 -10.26,27.68 h -52.91 c 6.69,-22.76 16.02,-44.62 29.47,-64.64 12.68,-18.81 26.13,-37.2 50.51,-42.41 4.81,-1.02 7.76,-5.01 10.17,-8.93 6.76,-10.98 13.6,-21.79 23.49,-30.45 3.17,-2.79 7.25,-7.33 3.45,-11.77 -3.27,-3.8 -7.91,-0.44 -11.47,1.3 -12.14,5.97 -21.14,16.02 -30.62,25.22 -37.72,36.58 -64.22,80.79 -85.35,128.39 -0.51,1.15 -0.91,2.15 -1.38,3.29 h -17.35 c 23.73,-59.97 59.08,-113.5 106.79,-158.62 14.03,-13.27 30.47,-25.59 50.36,-26.64"
         style="fill:#000000;fill-opacity:1;fill-rule:nonzero;stroke:none"
         id="path76" /><path
         d="m 4234.61,2337.35 c -13.98,-26.06 -12.18,-54.04 -8.6,-80.63 4.02,-30.03 13.77,-58.09 25.96,-85.23 v 183.2 c -7.29,-3.17 -12.79,-8.85 -17.36,-17.34"
         style="fill:#000000;fill-opacity:1;fill-rule:nonzero;stroke:none"
         id="path78" /><path
         d="m 3915.72,740.25 c -0.8,3.699 0.56,9.77 -5.92,8.07 -3.67,-0.98 -10.73,1.039 -10.56,-5.34 0.13,-5.55 4.13,-10.25 10.39,-10.89 5.99,-0.61 6.12,3.922 6.09,8.16 z m 140.14,259.97 c -10.59,-6.931 -17.32,-13.829 -23.17,-21.97 -2.58,-3.57 -6.22,-7.262 -2.33,-10.309 3.58,-2.851 7.8,0.95 9.93,4.45 4.92,8.14 9.33,16.589 15.57,27.829 z m -229.01,39.41 c 22.26,0.73 41.17,-11.45 58.88,-25.61 32.69,-26.09 53.65,-60.141 65.21,-100.04 1.35,-4.699 3.7,-8.242 7.79,-8.312 4.81,-0.066 3.98,5.16 4.83,8.594 7.68,30.437 15.52,61.25 34.7,86.578 18.53,24.5 38.58,47.99 74.38,47.92 25.93,-0.05 33.8,-11.89 38.31,-32.55 4.86,-22.401 1.96,-44.839 -4.35,-66.741 -10.71,-37.258 -29.14,-70.66 -49.47,-103.508 -9.74,-15.691 -17.72,-32.813 -25.91,-49.531 -11.22,-22.95 -27.6,-42.18 -41.09,-63.352 -11.07,-17.379 -26.41,-28.25 -40.87,-41.066 -3.33,-2.953 -5.41,-7.344 -7.97,-11.153 -7.1,-10.5 -18.89,-11.621 -24.4,-0.64 -19.12,38.211 -53.05,65.75 -73.11,103.101 -26.51,49.418 -53.99,98.899 -61.58,155.309 -3.55,26.59 -5.36,54.57 8.61,80.631 7.82,14.58 18.32,21.07 36.04,20.37"
         style="fill:#000000;fill-opacity:1;fill-rule:evenodd;stroke:none"
         id="path80" /><path
         d="m 3985.97,3789.69 c -2.13,3.65 2.42,10.32 -3.42,11.54 -5.74,1.2 -5.48,-5.57 -7.27,-9.56 -1.4,-3.13 -5.28,-5.18 -4.69,-9.31 0.41,-2.93 -3.99,-7.27 2.58,-8.6 4.45,-0.9 8.59,-0.8 10.42,3.72 1.49,3.65 1.61,7.86 2.38,12.21 z m -217.01,25.11 c -2.4,-26.6 2.77,-51.95 12.31,-76.65 1.51,26.45 3.59,52.99 -12.31,76.65 z m 150.82,-58.15 c -12.92,-3.91 -14.87,-13 -19.11,-19.51 -11.61,-17.76 -19.92,-37.09 -21.92,-58.5 -0.34,-3.51 -1.88,-9.67 3.02,-10.67 4.84,-0.99 5.75,4.42 6.96,8.47 1.95,6.58 4.24,13.1 6.75,19.49 7.65,19.36 15.45,38.67 24.3,60.72 z m 45.69,94.99 c 0.19,3.68 0.44,8.23 -3.69,9.38 -4.06,1.14 -7.96,-1.17 -10.69,-4.59 -2.87,-3.57 -5.29,-7.54 -8.54,-10.7 -19.8,-19.45 -29.54,-45.07 -42.38,-68.79 -1.58,-2.91 -3.01,-9.63 2.17,-7.22 13.69,6.42 30.73,2.75 41.11,20.98 11.18,19.6 21.73,38 22.02,60.94 z m -197.68,-179.49 c 0.79,4.54 1.84,6.82 1.49,8.84 -4.32,24.55 -8.28,49.18 -13.51,73.54 -6.12,28.7 -13.64,57.13 -6.79,86.77 1.36,5.9 1.23,11.9 -5.33,13.76 -6.04,1.73 -10.38,-2.7 -12.94,-7.9 -5.65,-11.53 -6.02,-24.09 -5.04,-36.39 2.99,-36.58 13.77,-71.5 24.81,-106.25 3.38,-10.64 6.92,-21.83 17.31,-32.37 z m 42.11,158.94 c 11.38,-28.3 17.32,-58.85 33.42,-85.3 2.28,10.55 -3.19,19.04 -6,27.85 -6.48,20.25 -13.11,40.82 -27.29,57.56 -2.79,20.68 -29,49.75 -48.34,53.28 -4.33,0.8 -10.07,1.87 -12.17,-2.88 -1.77,-4.06 2.24,-7.64 5.72,-9.94 18.97,-12.53 41.5,-20.24 54.66,-40.57 z m 51.99,-77.01 c 10.14,25.71 19.2,47.24 31.28,67.22 11.43,18.9 23.38,37.49 40.19,52.36 20,17.7 42.69,10.41 56.2,-12.62 13.59,-23.18 17.13,-49.15 12.89,-76.6 -4.05,-26.44 -8.6,-52.74 -20.59,-76.56 -17.52,-34.84 -30.9,-71.42 -46.77,-106.96 -12.1,-27.15 -29.46,-51.81 -37.78,-80.7 -1.35,-4.67 -4.5,-8.7 -9.53,-9.04 -10.39,-0.72 -21.2,-2.3 -31.16,-0.25 -10.92,2.26 -20.59,9.28 -32.47,9.98 -5.22,0.31 -8.79,6.01 -9.38,10.99 -3.46,28.25 -24.32,46.78 -38.32,68.98 -22.04,34.85 -43.18,69.94 -60.84,107.41 -11.88,25.17 -20.19,50.48 -21.16,77.87 -0.85,23.66 2.36,47.35 0.33,71.1 -0.48,5.56 1.27,11.7 5.39,15.3 16.27,14.26 33.53,28.56 56.08,29.07 19.32,0.45 35.82,-9.83 47.26,-25.14 24.34,-32.56 42.38,-68.5 52.93,-107.98 0.92,-3.47 2.52,-6.79 5.45,-14.43"
         style="fill:#000000;fill-opacity:1;fill-rule:evenodd;stroke:none"
         id="path82" /><path
         d="m 3985.97,3776.34 c -2.13,3.64 2.42,10.32 -3.42,11.52 -5.74,1.2 -5.48,-5.56 -7.27,-9.54 -1.4,-3.14 -5.28,-5.19 -4.69,-9.33 0.41,-2.93 -3.99,-7.27 2.58,-8.6 4.45,-0.9 8.59,-0.78 10.42,3.72 1.49,3.65 1.61,7.87 2.38,12.23 z m -217.01,25.09 c -2.4,-26.58 2.77,-51.95 12.31,-76.63 1.51,26.44 3.59,52.97 -12.31,76.63 z m 150.82,-58.14 c -12.92,-3.9 -14.87,-13 -19.11,-19.52 -11.61,-17.75 -19.92,-37.07 -21.92,-58.48 -0.34,-3.52 -1.88,-9.67 3.02,-10.68 4.84,-0.98 5.75,4.43 6.96,8.47 1.95,6.58 4.24,13.1 6.75,19.49 7.65,19.38 15.45,38.68 24.3,60.72 z m 45.69,95 c 0.19,3.66 0.44,8.22 -3.69,9.38 -4.06,1.13 -7.96,-1.17 -10.69,-4.59 -2.87,-3.57 -5.29,-7.55 -8.54,-10.7 -19.8,-19.45 -29.54,-45.07 -42.38,-68.8 -1.58,-2.9 -3.01,-9.63 2.17,-7.22 13.69,6.42 30.73,2.75 41.11,20.99 11.18,19.6 21.73,37.99 22.02,60.94 z M 3767.79,3658.8 c 0.79,4.54 1.84,6.81 1.49,8.85 -4.32,24.53 -8.28,49.17 -13.51,73.53 -6.12,28.69 -13.64,57.13 -6.79,86.77 1.36,5.89 1.23,11.89 -5.33,13.76 -6.04,1.71 -10.38,-2.71 -12.94,-7.91 -5.65,-11.52 -6.02,-24.09 -5.04,-36.39 2.99,-36.59 13.77,-71.5 24.81,-106.24 3.38,-10.65 6.92,-21.85 17.31,-32.37 z m 42.11,158.93 c 11.38,-28.31 17.32,-58.85 33.42,-85.3 2.28,10.54 -3.19,19.04 -6,27.85 -6.48,20.26 -13.11,40.82 -27.29,57.56 -2.79,20.69 -29,49.74 -48.34,53.28 -4.33,0.81 -10.07,1.88 -12.17,-2.89 -1.77,-4.05 2.24,-7.64 5.72,-9.94 18.97,-12.52 41.5,-20.24 54.66,-40.56 z m 51.99,-77.01 c 10.14,25.71 19.2,47.24 31.28,67.23 11.43,18.88 23.38,37.48 40.19,52.35 20,17.69 42.69,10.42 56.2,-12.62 13.59,-23.19 17.13,-49.15 12.89,-76.61 -4.05,-26.43 -8.6,-52.72 -20.59,-76.55 -17.52,-34.84 -30.9,-71.42 -46.77,-106.95 -12.1,-27.16 -29.46,-51.83 -37.78,-80.71 -1.35,-4.66 -4.5,-8.71 -9.53,-9.04 -10.39,-0.72 -21.2,-2.3 -31.16,-0.25 -10.92,2.25 -20.59,9.28 -32.47,9.98 -5.22,0.32 -8.79,6.02 -9.38,11 -3.46,28.24 -24.32,46.77 -38.32,68.96 -22.04,34.87 -43.18,69.96 -60.84,107.42 -11.88,25.18 -20.19,50.49 -21.16,77.87 -0.85,23.65 2.36,47.36 0.33,71.09 -0.48,5.57 1.27,11.72 5.39,15.32 16.27,14.25 33.53,28.54 56.08,29.06 19.32,0.45 35.82,-9.83 47.26,-25.13 24.34,-32.57 42.38,-68.51 52.93,-107.99 0.92,-3.48 2.52,-6.78 5.45,-14.43"
         style="fill:#000000;fill-opacity:1;fill-rule:evenodd;stroke:none"
         id="path84" /><path
         d="m 3304.38,1066.13 c -2.24,12.69 -5.98,17.14 -21.3,23.66 11.04,-7.32 10.01,-19.27 21.3,-23.66 z m 240.71,37.84 c 9.96,19.74 0.11,37.52 -28.2,37.45 11.79,-10.68 19.55,-23.38 28.2,-37.45 z m -20.06,-20.02 c 0.91,18.99 -8.58,33.54 -21.28,45.14 -7.65,6.97 -18.34,3.21 -26.75,-2.56 -3.25,-2.24 -3.88,-6.11 0.66,-7.11 21.19,-4.6 33.29,-20.71 47.37,-35.47 z m -339.13,-30.24 c 0.31,-41.85 13.32,-74.21 30.31,-106.448 26.08,-49.461 63.3,-88.383 105.61,-123.442 15.46,-12.832 16.68,-12.699 29,3.289 28.92,37.539 58.37,74.532 92.01,108.192 22.62,22.609 46.23,44.551 60.74,74.479 12.86,26.51 12.22,59.55 -7.44,80.81 -7.03,7.61 -15.95,18.38 -27.67,15.43 -17.29,-4.35 -34.01,-12.89 -45.53,-26.62 -13.83,-16.47 -22.58,-36.57 -33.21,-55.32 -9.4,-16.59 -12.04,-39.889 -36.42,-44.818 -1.3,-0.274 -2.41,-2.633 -3.07,-4.223 -2.92,-6.809 -7.77,-6.289 -13.77,-4.711 -6.06,1.57 -10.42,3.813 -9.74,10.942 0.51,5.371 -2.02,9.582 -4.47,14.14 -8.77,16.2 -16.14,33.21 -25.65,48.92 -15.31,25.39 -33.96,48.24 -59.82,63.68 -20.68,12.32 -41.27,3.08 -46.25,-20.04 -2.8,-12.93 -4.57,-26.08 -4.63,-34.26 z m 381.78,58.26 c 1.17,-11.52 -3.47,-21.96 -7.68,-31.95 -9.8,-23.2 -17.95,-46.85 -23.93,-71.29 -7.74,-31.691 -27.96,-57.359 -42.1,-85.968 -9.09,-18.461 -17.35,-37.871 -31.32,-53.403 -15.67,-17.418 -24.41,-39.449 -43.64,-55.211 -13.87,-11.386 -25.41,-27.308 -38.98,-40.277 -6.86,-6.59 -14.4,-16.242 -24.39,-12.012 -13.04,5.512 -28.12,9.481 -36.1,23.282 -1.58,2.718 -1.76,6.347 -4.91,7.988 -28.71,14.742 -45.17,41.141 -63.47,65.98 -21.55,29.231 -49.23,53.25 -70.46,82.93 -20.77,28.981 -36.23,59.541 -37.4,96.001 -0.13,3.59 -1.38,7.27 -2.6,10.69 -6.24,17.45 -1.68,31.53 7.54,47.86 11.24,19.98 28.18,32.13 45.43,44 16.48,11.31 37.22,11.22 55.94,7.24 44.1,-9.42 70.61,-39.69 88.48,-79.49 3.58,-8.02 6.13,-20.68 14.45,-21.85 6.64,-0.94 9.5,11.97 14.46,18.45 24.95,32.47 50.17,64.9 87.98,83.7 26.45,13.13 54.43,12.95 82.19,5.21 21.9,-6.09 30.15,-18.62 30.51,-41.88"
         style="fill:#000000;fill-opacity:1;fill-rule:evenodd;stroke:none"
         id="path86" /><path
         d="m 3941.35,2816.97 c 0.1,0 0.21,0 0.3,0 -0.29,5.98 0.42,12.2 -1.04,17.88 -7.6,29.82 -15.43,59.56 -23.79,89.18 -9.94,35.13 -14.86,39.38 -43.21,41.83 -9.42,0.81 -15.34,-2.77 -16.66,-11.99 -2.38,-16.24 -5.09,-32.55 -5.85,-48.91 -1.63,-34.83 0.06,-69.48 8.24,-103.68 5.62,-23.54 6.63,-48.78 15.77,-70.76 11.72,-28.16 22.02,-56.99 34.76,-84.75 7.19,-15.69 10.99,-33.29 25.58,-44.98 7.5,-6.01 13.38,-6.91 19.56,1.59 17.24,23.73 35.77,46.54 51.87,70.97 25.78,39.18 46.6,81.04 63.78,124.76 14.92,38.02 32.26,75.02 36.71,116.43 2.85,26.47 -3.28,50.1 -16.98,72.31 -4.65,7.51 -10.88,10.77 -20.18,11.91 -21.13,2.59 -36.21,-9.1 -47.87,-22.29 -24.58,-27.81 -37.17,-62.18 -46.71,-97.95 -6.76,-25.49 -5.25,-52.06 -12.3,-77.38 -1.52,-5.4 -1.23,-11.37 -9.58,-10.33 -7.56,0.95 -11.85,4.78 -12.35,12.35 -0.32,4.57 -0.05,9.2 -0.05,13.81 z m -102.71,10.31 c -3.76,-13.56 2.77,-25.36 6.39,-37.62 -4.5,12.01 4.74,26.53 -6.69,37.32 2.11,13.97 -3.65,27.04 -4.89,40.63 1.09,-13.52 -4.95,-27.9 5.19,-40.33 z m 125.22,100.89 c 10.92,25.51 19.89,47.31 35.2,65.36 18.78,22.11 39.13,41.15 71.87,37.67 12.63,-1.32 22.08,-7.27 29.22,-16.25 19.95,-25 31.17,-54.42 34.08,-85.69 1.62,-17.29 -1.98,-35.85 -6.78,-52.84 -12.04,-42.75 -23.97,-85.72 -43.57,-125.77 -13.57,-27.84 -27.14,-55.59 -45.79,-80.89 -15.13,-20.52 -25.89,-44.24 -39.11,-66.21 -9.5,-15.77 -33.67,-20.98 -51.91,-19.31 -15.25,1.37 -25.78,16.76 -42.56,11.2 -4.35,-1.43 -8.55,4.47 -11.61,8.72 -6.75,9.42 -11.81,19.76 -15.82,30.56 -16.89,45.66 -41.29,88.09 -56.69,134.39 -8.07,24.25 -11,49.22 -12.36,74.43 -1.83,34.15 2.5,68.04 5.92,101.92 2.52,25.14 25.63,51.03 49.86,57.4 8.05,2.1 15.93,2.44 23.94,-2.3 20.14,-11.91 40.92,-22.87 59.38,-37.25 9.53,-7.41 13.08,-19.41 16.73,-35.14"
         style="fill:#000000;fill-opacity:1;fill-rule:evenodd;stroke:none"
         id="path88" /><path
         d="m 3149.52,2557.26 c -11.08,4.58 -19.42,2.93 -29.32,-7.3 11.38,2.59 20.23,0 29.32,7.3 z m 175.1,-45.49 c 0.4,12.15 0.05,23.74 -6.88,34.58 -5.47,8.6 -9.31,9.51 -18.27,2.8 -24.13,-18.03 -32.59,-44.74 -41.34,-70.97 -8.36,-25.14 -13.77,-51.26 -20.96,-76.82 -1.62,-5.78 -2.18,-12.99 -10.86,-14.16 -11.04,-1.47 -16.76,1.15 -17.53,13.95 -2.27,37.67 -8.53,74.66 -24.48,109.39 -3.15,6.85 -7.01,13.28 -14.09,16.43 -28.87,12.87 -67.57,-10.39 -67.94,-41.86 -0.25,-19.19 0.04,-38.53 4.05,-57.8 6.12,-29.32 14.91,-57.83 25.94,-85.36 11.59,-28.88 22.39,-58.33 40.41,-84.33 10.91,-15.79 20.61,-32.49 30.15,-49.16 3.81,-6.68 7.82,-15.06 -5.47,-17.09 -6.3,-0.94 -4.93,-4.66 -3.68,-9.15 1.69,-6.12 5.84,-9.89 11.36,-10.73 6.01,-0.92 7,5.23 8.27,9.3 15.53,50.3 41.08,96.15 63.19,143.51 27.83,59.5 39.66,123 48.13,187.47 z m 26.94,-0.62 c 5.47,-43.62 -7.7,-84.49 -17.99,-125.98 -11.42,-46.02 -29.86,-89.47 -49.03,-132.38 -13.27,-29.78 -29.57,-58.57 -49.31,-85.08 -7.12,-9.6 -13.66,-10.98 -25.84,-9.65 -26.02,2.89 -35.61,21.41 -47.62,39.74 -20.19,30.81 -39.99,61.75 -57.19,94.38 -20.85,39.67 -32.61,81.62 -35.21,126.32 -2,34.03 -3.73,67.95 6.86,101.08 7.95,24.85 21.48,44.87 47.48,53.52 28.84,9.61 52.36,-4.93 68.81,-32.19 11.72,-19.46 24.36,-39.16 27.58,-62.81 0.59,-4.47 3.12,-11.12 8.21,-10.86 4.44,0.23 5.17,6.74 5.96,11.27 4.77,26.69 19.1,48.98 33.33,71.25 8.67,13.56 33.4,23.88 48.12,20.58 18.57,-4.18 30.21,-17.16 33.94,-37.26 1.38,-7.27 3.41,-14.4 1.9,-21.93"
         style="fill:#000000;fill-opacity:1;fill-rule:evenodd;stroke:none"
         id="path90" /><path
         d="m 4138.91,4185.55 c 9.56,-12.26 15.07,-27.76 28.63,-36.81 12.98,-8.65 20.66,-22.2 29.65,-34.02 13.02,-17.14 33.87,-26.77 54.78,-23.65 v 24.27 c -1.33,1.68 -1.02,3.77 0,5.89 v 31.1 c -6.36,-9.06 -12.72,-18.21 -18.93,-27.63 -4.61,10.55 -10.18,14.54 -18.26,17.32 -11.65,3.98 -18.96,14.44 -25.8,24.13 -8.09,11.46 -14.57,24.06 -21.73,36.1 -9.64,16.18 -17.86,33.09 -26.64,49.72 h -51.98 c 1.43,-3.18 2.93,-6.35 4.59,-9.51 11.52,-21.89 30.72,-37.73 45.69,-56.91"
         style="fill:#000000;fill-opacity:1;fill-rule:nonzero;stroke:none"
         id="path92" /><path
         d="m 4233.62,1510.37 c -1.68,-21.25 4.3,-41.42 6.05,-62.15 0.39,-4.6 3.95,-7.24 6.66,-10.22 2.71,-2.97 4.61,-5.93 5.64,-9.82 v 160.24 c -6.36,-6.16 -10.89,-14.85 -14.27,-26.93 -4.71,-16.71 -2.75,-34.07 -4.08,-51.12"
         style="fill:#000000;fill-opacity:1;fill-rule:nonzero;stroke:none"
         id="path94" /><path
         d="m 99.6914,150.699 c -1.1484,-3.738 -4.3008,-1.347 -6.8476,-0.898 -18.6055,3.238 -36.0391,-0.961 -53.3477,-8.039 15.5625,14.558 34.0195,19.328 54.8086,15.308 3.4062,-0.672 6.5393,-2.601 5.3867,-6.371 z M 137.105,92.3984 c 3.075,10.1136 0,20.8826 -2.355,30.8126 C 124.336,167.309 94.3516,183.25 54.2031,172.289 31.9063,166.23 14.9766,152.711 0,136.891 V 52.3789 c 3.71094,11.7422 7.96875,23.3125 14.2773,34.2305 15.0782,26.0196 37.6016,41.0896 65.9454,48.0706 10.0937,2.48 18.7695,-0.692 22.9223,-12.09 5.136,-14.102 3.242,-27.8283 0.648,-42.0783 C 99.1641,54.9805 83.793,34.6406 72.6602,12.2695 70.5859,8.10938 68.3438,4.07031 66.1367,0 h 18.9336 c 2.1367,4.57813 4.3008,9.12891 6.125,13.8789 1.6914,4.4727 2.4219,8.6094 9.3127,8.2109 C 98.8711,14.4102 96.4688,7.10938 93.6523,0 h 20.9027 c 1.445,7.32031 1.015,14.8594 4.351,21.75 10.672,22.0898 17.93,45.1719 18.199,70.6484"
         style="fill:#000000;fill-opacity:1;fill-rule:nonzero;stroke:none"
         id="path96" /><path
         d="m 3607.31,145.488 c -8.7,2.672 -13.23,10.852 -19.77,16.332 -6.55,5.489 -11.37,13.008 -18.67,17.93 -1.81,1.219 -4.05,2.711 -3.21,5.43 1.16,3.711 4.52,2.011 6.12,2.531 14.27,0.168 42.42,-25.75 43.01,-38.93 0.3,-7.09 -4.58,-4.179 -7.48,-3.293 z m -0.3,-65.1091 c -2.95,-23.0469 -11.61,-43.8984 -26.23,-65.0976 -6.41,15.6796 2.66,28.2773 0.45,41.4296 -1.44,8.5586 1.44,16.961 -4.96,25.7774 -2.72,3.75 0.09,14.9531 -0.29,22.7817 -0.22,4.109 -0.94,8.269 -0.64,12.32 0.37,4.82 -6.25,11.879 2.19,14.031 6.43,1.617 13.88,0.391 18.07,-6.871 7.95,-13.738 13.47,-28.1797 11.41,-44.3711 z m -56.79,-15.1406 c -1.1,-18.2969 -4.55,-35.7188 -11.88,-52.3477 -1.97,-4.44138 -3.52,-9.76169 -8.87,-8.66013 -6.97,1.41797 -3.36,7.53123 -2.56,11.41013 3.46,16.6407 6.59,33.2578 7.31,50.3399 0.25,6.25 -1.36,15.9883 8.49,15.8789 11.91,-0.1211 6.9,-10.3203 7.51,-16.6211 z m -125.34,19.7812 c -2.08,-0.4414 -3.49,0.7813 -4.19,2.6211 -4.23,11.7188 -8.41,23.4684 -12.6,35.1874 1.18,0.481 2.35,0.973 3.55,1.434 7.54,-10.121 11.89,-21.782 15.29,-33.9104 0.61,-2.1602 1.22,-4.6719 -2.05,-5.3321 z m -19.74,-18.5586 c -2.87,-1.6211 -5.77,0.0391 -7.05,2.5079 -4.07,7.7304 -7.82,15.6093 -11.43,23.5507 -4.59,10.1095 -8.8,20.4805 -20.4,24.7105 -4,1.461 -5.91,4.231 -6.2,8.25 -0.66,8.579 -4.73,12.598 -15.68,10.051 -8.15,-0.031 -11.5,7.02 -12.15,15.129 -0.41,4.801 1.36,10.039 3.13,14.719 5.48,14.312 16.18,15.851 25.71,3.961 18.1,-22.578 28.81,-48.91 38.36,-75.8087 2.44,-6.9219 4.75,-13.8829 7.02,-20.8829 0.72,-2.2265 0.96,-4.9296 -1.31,-6.1875 z m 230.4,79.9611 c -9.97,40.648 -47.9,69.098 -83.78,62.527 -18.1,-3.301 -34.48,-13.23 -52.73,-16.961 -2.02,-0.429 -3.94,-2.347 -5.53,-3.949 -15.05,-15.027 -24.52,-33.078 -29.71,-53.68 -4,-15.808 -6.06,-32.199 -13.79,-47.7301 -7.3,3.1524 -8.85,9 -10.71,14.7111 -3.08,9.57 -4.63,19.48 -9.72,28.531 -19.67,34.938 -48.72,59.34 -86.54,70.391 -41.86,12.226 -70.06,1.117 -78.75,-42.903 -8.54,-43.289 -6.52,-87.1402 6.83,-128.3277 C 3274.3,19.1914 3277.82,9.53125 3281.6,0 h 17.35 c -19.69,45.0781 -24.87,71.7617 -24.16,116.059 -0.96,19.66 2.87,38.05 14.27,54.441 3.98,5.75 8.71,10.84 14.91,14.168 4.43,2.363 9.87,5.934 14.11,2.031 4.1,-3.789 -1.99,-8.168 -2.22,-12.238 -0.69,-12.922 -8.42,-16.672 -19.67,-19.141 -10.8,-2.359 -13.32,-13.742 -12.58,-28.461 1.66,-33.4293 13.33,-64.6285 19.75,-96.9801 2,-10.0703 4.45,-20.05859 7.34,-29.8789 h 52.89 c 0.08,1.01953 0.13,1.96094 0.24,3.07031 0.47,-1.03906 0.94,-2.03906 1.4,-3.07031 h 248.75 c 7.47,17.1797 13.62,34.9805 18.04,53.6016 7.3,30.6172 11.16,61.7384 3.52,92.8204"
         style="fill:#000000;fill-opacity:1;fill-rule:nonzero;stroke:none"
         id="path98" /><path
         d="m 4244.95,94.5703 c -7.46,-13.4805 -10.29,-28.5586 -15.97,-42.5508 -1,-2.4414 -1.11,-6.2109 -4.95,-5.0976 -3.36,0.9687 -5.46,4.1601 -4.12,7.6367 5.8,14.8125 10.23,30.5117 25.04,40.0117 z m -35.74,9.2697 c -8.63,13.871 -18.82,27.012 -32.56,35.371 -16.8,10.25 -33.83,22.98 -56.19,14.711 -14.87,-5.504 -21.3,-17.551 -27.59,-30.641 C 4073.04,82.0313 4070.34,40.9805 4088.64,0 h 51.98 c -4.99,9.44141 -10.11,18.8086 -15.9,27.8281 -15.37,24.0508 -14.23,49.8516 0.38,74.5309 8.19,13.86 22.44,16.661 35.25,7.051 19.17,-14.3709 34.66,-30.8514 37.88,-56.6092 0.98,-7.7891 8.58,-14.7891 13.25,-22.1094 1.98,-3.1016 4.89,-5.793 6.14,-9.1211 2.26,-6 5.06,-11.4297 12.25,-10.4609 7.42,1 11.29,6.0703 13.67,13.5 2.92,9.2617 5.5,18.6094 8.43,27.8789 V 136.93 c -9.93,-10.481 -19.03,-21.918 -28.2,-33.02 -7.17,-8.6209 -9.7,-7.8514 -14.56,-0.07"
         style="fill:#000000;fill-opacity:1;fill-rule:nonzero;stroke:none"
         id="path100" /></g></g></svg>
