<?xml version="1.0" encoding="UTF-8" standalone="no"?>
<svg
   xmlns:dc="http://purl.org/dc/elements/1.1/"
   xmlns:cc="http://creativecommons.org/ns#"
   xmlns:rdf="http://www.w3.org/1999/02/22-rdf-syntax-ns#"
   xmlns:svg="http://www.w3.org/2000/svg"
   xmlns="http://www.w3.org/2000/svg"
   xmlns:sodipodi="http://sodipodi.sourceforge.net/DTD/sodipodi-0.dtd"
   xmlns:inkscape="http://www.inkscape.org/namespaces/inkscape"
   version="1.1"
   id="svg2"
   xml:space="preserve"
   width="566.93335"
   height="566.93335"
   viewBox="0 0 566.93335 566.93335"
   sodipodi:docname="9.eps"><metadata
     id="metadata8"><rdf:RDF><cc:Work
         rdf:about=""><dc:format>image/svg+xml</dc:format><dc:type
           rdf:resource="http://purl.org/dc/dcmitype/StillImage" /></cc:Work></rdf:RDF></metadata><defs
     id="defs6" /><sodipodi:namedview
     pagecolor="#ffffff"
     bordercolor="#666666"
     borderopacity="1"
     objecttolerance="10"
     gridtolerance="10"
     guidetolerance="10"
     inkscape:pageopacity="0"
     inkscape:pageshadow="2"
     inkscape:window-width="640"
     inkscape:window-height="480"
     id="namedview4" /><g
     id="g10"
     inkscape:groupmode="layer"
     inkscape:label="ink_ext_XXXXXX"
     transform="matrix(1.3333333,0,0,-1.3333333,0,566.93333)"><g
       id="g12"
       transform="scale(0.1)"><path
         d="M 4251.95,0 H 0.0117188 V 4251.96 H 4251.95 V 0"
         style="fill:#ffffff;fill-opacity:1;fill-rule:nonzero;stroke:none"
         id="path14" /><path
         d="m 1294.69,293.809 c -32.97,-3.661 -65.32,1.632 -97.64,6.902 -3.01,0.488 -7.17,0.449 -7.66,4.199 -0.73,5.449 4.17,5.18 7.69,5.738 4.97,0.793 9.47,4.454 14.62,3.051 30.71,-8.418 62.31,-5.238 93.51,-7.359 2.5,-0.16 4.88,-1.199 6.98,-4.59 -5.05,-6.23 -11.2,-7.23 -17.5,-7.941 z M 4199.4,448.621 c -31.38,-2.66 -62.65,-1.082 -93.92,1.797 -17.56,1.602 -35.2,2.523 -52.6,4.941 -28.72,3.961 -57.6,-0.769 -86.27,2.77 -3.81,0.48 -7.38,-0.84 -10.86,-2.617 -2.74,-1.403 -6.74,-3.75 -8.7,-2.762 -11.24,5.691 -23,2.02 -34.07,1.531 -38.36,-1.73 -76.66,-3.511 -115.06,-3.41 -8.14,0.02 -16.39,-0.32 -24.36,-2.781 -18.4,-5.649 -37.26,-5.731 -56.15,-3.231 -7.01,0.942 -13.79,0.61 -20.72,-0.441 -31.08,-4.656 -62.13,-10.02 -93.36,-13.449 -28.88,-3.149 -57.48,-7.969 -85.76,-13.989 -44.42,-9.441 -88.63,-20.281 -133.78,-24.718 -49.73,-4.934 -98.2,-16.41 -147.33,-24.371 -22.37,-3.629 -44.58,-8.461 -67.06,-11.282 -51.91,-6.578 -103.99,-11.718 -155.87,-18.488 -55.74,-7.203 -111.64,-11.922 -167.79,-13.062 -49.81,-1.008 -99.49,-4.207 -149.43,-3.34 -8.6,0.14 -17.18,0.222 -25.75,0.312 -0.01,0.539 -0.03,1.071 -0.05,1.598 -21.69,16.101 -47.91,12.75 -72.33,16.699 -31.25,5.051 -62.98,1.242 -94.45,2.82 -12.58,0.653 -22.32,8.25 -34.43,9.133 -42.23,2.989 -84.18,9.899 -126.68,9.699 -26.01,4.52 -51.13,12.469 -77.44,16.211 -60.8,8.629 -121.94,14.977 -182.43,26.161 -45.01,8.32 -89.99,17.988 -135.78,21.316 -31.25,2.273 -62.41,6.871 -93.84,6.023 -18.21,-0.492 -36.32,-4.031 -54.66,-0.582 -4.02,0.77 -8.73,-0.859 -12.87,-2.16 -14.6,-4.648 -29.56,-6.379 -44.8,-6.66 -80.67,-1.48 -169.84,-6.758 -247.8,-27.461 -56.04,-14.898 -121.82,4.981 -184.7,5.66 -9.43,0.102 -18.72,-0.187 -28.23,0.762 -23.16,2.309 -46.53,3.25 -69.85,3.191 -10.07,-0.023 -20.25,-1.011 -30.09,0.879 -18.18,3.438 -36.39,2.891 -54.66,2.848 -13.88,-0.027 -27.85,-1.199 -41.64,-0.09 -40.99,3.313 -81.88,-2.16 -122.81,-0.75 -25.227,0.902 -50.157,-6.328 -75.25,-2.91 -20.875,2.844 -41.536,1.172 -62.293,0.273 -11.961,-0.511 -24.059,-2.05 -35.922,-1.132 -37.086,2.871 -74.094,0.32 -111.129,-0.09 -31.414,-0.36 -62.879,2.492 -94.309,4.281 -15.051,0.871 -30.062,3.578 -45.105,3.68 -21.403,0.179 -42.789,-0.539 -64.141,1.582 -14.426,1.418 -29.039,3.988 -43.328,2.929 -32.203,-2.363 -63.879,1.559 -95.793,4.11 -19.348,1.551 -38.637,4.34 -58.316,3.461 -23.168,-1.063 -46.582,-0.922 -69.649,1.238 C 155.73,429.5 105.879,436.109 55.7305,440.262 37.1875,441.781 18.5938,440.988 0,442.43 V 203.789 c 12.2031,-1.48 24.4727,-2.41 36.6797,-3.828 20.1484,-2.34 40.2656,-0.891 60.375,-2.301 15.2813,-1.031 32.8473,-5.441 46.4613,2.84 18.355,11.199 37.851,7.609 56.613,8.32 9.656,0.36 19.539,5.078 29.621,0.942 12.027,-4.922 24.941,-4.492 37.438,-3.16 25.332,2.726 50.683,-0.18 75.464,-2.711 51.957,-5.25 103.727,-12.891 155.981,-14.539 23.144,-0.743 46.332,-4.153 69.691,1.457 11.934,2.851 24.481,5.781 37.344,4.242 16.328,-1.981 32.75,-0.762 49.156,-0.84 17.621,-0.07 35.551,-0.801 52.172,-7.25 22.258,-8.621 45.391,-7.332 68.442,-8.961 24.695,-1.719 49.789,11.852 74.07,-2.02 35.609,-2.851 70.961,-11.621 107.051,-4.218 12.214,2.519 23.925,0.597 33.851,-7.832 7.039,-6 15.22,-5.149 23.43,-3.809 4.97,0.809 9.81,2.559 14.78,2.848 30.8,1.73 61.7,2.101 92.37,5.09 19.61,1.921 39.12,1.48 58.39,0.031 60.01,-4.531 119.45,-1.809 178.12,11.14 26.61,5.86 53.6,7.61 80.35,10.942 37.98,4.719 76.57,2.406 114.85,3.469 7.98,0.218 16.02,-0.903 24.03,-1.45 4.24,-1.64 8.64,-2.312 13.39,-1.832 24.38,2.582 48.9,-3.32 73.36,1.629 14.16,2.871 28.63,5.762 43,5.91 31.53,0.34 62.39,8 94.14,6.922 10.71,-0.359 22.12,2.461 33.21,5.219 4.44,1.102 8.93,2.121 13.44,3.121 0.37,-0.101 0.75,-0.14 1.12,-0.23 12.51,-2.719 25.17,-1.59 37.75,-0.68 6,0.43 11.28,1.949 14.09,7.191 20.84,-0.242 41.76,-0.191 62.57,-0.953 19.31,-0.636 38.36,-2.5 57.93,-1.769 18.09,0.633 35.84,0.543 54.05,3.34 27.87,4.261 55.08,9.55 82.47,16.703 1.48,0.379 3.02,0.617 4.53,0.976 1.17,-0.066 2.36,-0.097 3.54,-0.168 22.61,-1.539 45.38,-0.269 67.9,-4.101 16.61,-2.828 33.26,-4.199 50.44,-3.828 16.75,0.347 33.96,2.5 50.79,-0.911 29.77,-5.96 59.81,-8.351 90.12,-7.761 8.01,0.191 15.7,0.699 18.98,9.152 2.91,7.508 8.7,7.809 15.2,8.559 11.47,1.34 22.68,-1.039 33.91,-2.18 34.78,-3.52 67.61,6.699 100.93,13.211 20.26,-0.25 40.49,0.398 60.63,4.32 13.56,2.637 27.58,2.5 41.5,0.699 31.84,-4.101 63.64,-8.96 95.87,-5.742 27.44,2.75 55.51,-1.617 82.44,6.981 22.1,-7.617 42.76,7.152 65.17,3.84 14.49,-2.149 29.6,3.589 44.25,7.429 36.68,9.672 74.48,12.203 112.15,14.102 11.84,0.609 24.04,3.738 35.57,1.289 28.99,-6.098 57.83,-12.59 87.14,-17.117 15.61,-2.41 31,-5.141 46.87,-2.594 29.07,4.672 59.32,-0.656 87.66,10.41 1.12,0.43 2.5,0.152 3.77,0.172 29.53,0.75 58.99,3.828 88.34,6.441 34.61,3.059 69.26,3.817 103.88,6.047 18.82,1.242 37.64,0.692 56.63,-0.886 14.09,-1.172 28.48,-2.512 43.12,-0.973 17.33,1.801 35.53,1.09 52.62,-2.27 20.63,-4.039 41.29,-4.55 61.99,-6.347 4.16,-0.371 8.89,1.59 12.29,-2.543 -6.29,-11.469 -5.51,-13.84 5.88,-16.02 6.68,-1.301 14.31,0.379 19.59,-5.32 19.58,-21.141 44.67,-27.391 72.01,-25.16 16.52,1.351 32.64,-3.707 49.04,-1.188 2.48,0.379 5.18,-0.242 6.02,-3.222 4.53,-15.801 19.19,-13.289 29.58,-13.75 25.77,-1.079 51.67,0.429 77.47,1.601 22.75,1.02 45.53,-0.012 67.96,-2.449 26.45,-2.891 52.7,0.66 78.95,-1.039 15.71,-1.012 31.23,4.59 46.76,1.129 7.7,-1.731 15.45,-2.832 23.23,-3.762 V 442.43 c -5.27,0.398 -10.56,0.898 -15.84,1.789 -11.93,1.98 -24.34,5.441 -36.73,4.402"
         style="fill:#000000;fill-opacity:1;fill-rule:nonzero;stroke:none"
         id="path16" /><path
         d="m 4221.9,798.871 c -36.03,-3.269 -72.12,-3.051 -108.26,-2.211 -19.4,0.461 -38.57,-0.039 -57.95,-3.66 -19.39,-3.621 -40.01,-9.672 -58.33,5.09 -2.34,1.898 -4.44,-1.141 -6.53,-1.539 -8.04,-1.543 -15.47,-7.891 -24.16,-4.071 -8.96,3.95 -18.98,2.18 -27.67,4.942 -11.71,3.738 -27.25,-7.613 -35.64,8.879 -0.42,0.82 -3.58,0.461 -5.43,0.258 -18.62,-2.098 -37.24,-5 -54.66,5.793 -2.96,1.839 -7.38,1.539 -11.17,1.847 -26.76,2.242 -53.34,4.321 -80.45,2.66 -18.1,-1.089 -36.5,-0.468 -54.56,-2.968 -18.52,-2.59 -36.67,-3.282 -54.6,2.828 -11,3.722 -22.11,4.211 -33.73,3.332 -31.05,-2.379 -61.66,4.91 -92.73,5.211 -25.75,0.258 -51.4,4.437 -77.39,2.636 -30.76,-2.128 -61.67,-7.597 -92.38,-0.527 -28.74,6.609 -57.74,8.238 -87.04,7.508 -4.44,-0.09 -9.21,-0.41 -13.27,0.992 -9.93,3.399 -19.2,0.27 -27.76,-3.199 -42.29,-17.082 -85.78,-20.383 -130.65,-14.152 -17.57,2.429 -35.5,2.351 -53.1,-2.071 -29.58,-7.398 -60.76,-2.551 -90.25,-11.609 -5.8,-1.77 -12.92,-1.309 -18.94,0.14 -11.93,2.899 -23.92,2.7 -35.98,2.809 -8.31,0.07 -16.28,1.531 -24.32,3.879 -27.44,8.023 -55.64,13.254 -84.01,14.59 -24.51,1.152 -49.18,5.953 -73.85,0.66 -3.01,-0.637 -6.33,0.344 -9.5,0.422 -29.08,0.781 -57.88,7.301 -87.18,3.621 -12.15,-1.512 -24.07,-0.242 -35.14,5.937 -7.08,3.954 -14.75,2.903 -22.37,1.563 -18.64,-3.262 -36.06,-2.531 -54.74,-2.949 -15.46,-0.34 -22.37,-6.754 -37.65,-10.672 -26.19,-6.68 -54,0.98 -80.37,2.129 -37.74,1.672 -75.51,2.883 -113.23,0.48 -100.32,-6.379 -201.49,-1.039 -301.98,-2.097 -83.67,-0.872 -167.09,-7.731 -250.55,-12.782 -78.32,-4.75 -155.61,-3.3 -233.8,-4.218 -47.43,-0.582 -95.05,4.398 -142.33,2.019 -33.67,-1.723 -64.82,11.668 -97.88,9.859 -2.37,-0.128 -4.92,1.25 -7.19,2.329 -7.09,3.351 -14.71,3.601 -22.27,4.621 -25.77,3.449 -51.82,3.422 -77.66,6.89 -23.64,3.18 -47.76,2.809 -71.67,3.942 -29.1,1.379 -58.46,-3.133 -87.377,3.449 -3.164,0.719 -6.824,0.687 -9.058,-1.633 -10.141,-10.566 -23.254,-8.488 -35.832,-9.098 -8.868,-0.429 -17.872,-0.519 -26.368,-3.55 -12.691,-4.532 -26.211,-6.231 -39.195,-6.879 -67.055,-3.36 -133.598,-12.571 -200.602,-16.77 -46.152,-2.883 -92.343,-4.91 -138.5,-6.66 -40.375,-1.531 -80.894,1.16 -121.363,1.527 -17.023,0.133 -34.152,-2.296 -51.066,-1.16 -38.535,2.641 -76.543,-2.066 -114.77,-5.027 -18.211,-1.41 -36.398,-5.102 -54.898,-2.902 -37.164,4.441 -74.43,6.972 -111.9221,7.351 C 47.0977,796.91 23.5078,796.34 0,798.391 V 598.879 c 17.8477,-0.34 35.6992,-0.91 53.5352,-2.168 44.9414,-3.152 90.0038,-2.41 133.8128,11.23 7.812,2.43 16.207,2.34 24.531,2.559 44.918,1.109 89.293,-7.559 134.234,-6.828 23.336,0.379 46.703,-2.742 70.078,-3.231 62.133,-1.339 124.258,-1.57 186.332,2.598 24.704,1.672 49.493,2.121 74.172,4.141 24.25,1.949 48.465,1.988 72.84,5.808 23.981,3.762 49.133,4.34 73.742,4.93 67.985,1.602 133.27,17.262 197.843,36.363 46.8,13.828 93.73,27.328 139.66,44.117 31.18,11.403 64.08,15.801 97.3,15.301 24.72,-0.379 49.32,2.231 73.94,3.031 37.78,1.219 75.42,8.481 112.99,13.918 40.91,5.911 82.09,7.731 123.26,9.661 29.21,1.382 58.52,0.382 87.69,1.921 7.79,0.43 15.55,1.051 23.32,1.739 10.32,-4.707 20.81,-9.141 32.23,-11.379 36.38,-7.192 72.48,-11.66 109.04,-0.879 7.08,2.09 15.12,0.937 22.73,1.07 3.76,0.059 8.56,-2.019 11.09,-0.371 10.18,6.641 16.26,0.508 23.35,-5.39 25.41,-21.211 53.2,-35.219 88.01,-32.399 12.94,1.047 26.74,-1.601 39.41,-5.211 25.9,-7.39 52.3,-7.801 78.72,-7.969 20.12,-0.121 40.29,-5.242 60.38,0.2 15.27,-7.871 30.35,1.039 45.58,0.808 16.25,-0.269 32.52,3.063 48.8,4.211 24.76,1.758 49.11,-3.09 73.41,-6.262 19.98,-2.617 39.96,-7.488 57.36,-18.859 3.5,-2.289 6.67,-2.711 10.7,-1.91 10.22,2.039 20.18,-0.168 30.14,-2.469 26.46,-6.101 54.42,-4.512 80.08,-15.07 2.23,-0.891 5.08,-0.051 7.58,-0.442 33.28,-5.207 66.87,-7.089 100.37,-9.886 30.19,-2.5 60.21,-5.621 90.8,-2.223 17.42,1.922 35.08,6.813 53.01,2.883 38.62,-8.481 77.81,-10.781 117.29,-10.973 20.05,-0.109 40.35,-2.449 59.77,3.172 23.89,6.891 47.94,12.359 72.69,14.391 8.92,0.718 17.31,3.418 25.94,5.316 32.76,7.192 64.75,17.91 98.39,21.102 37.1,3.55 71.99,14.691 104.65,32.582 8.99,4.918 18.28,8.847 28,11.918 41.98,13.281 85.11,19.75 129.02,20.941 13.43,0.348 26.46,2.848 39.67,4.258 14,1.531 27.22,9.371 40.78,8.281 26.12,-2.121 51.49,4.078 77.54,3.551 31.68,-0.66 62.99,-0.703 93.89,-8.762 7.28,-1.89 15.35,-3.39 22.63,-2.32 14.96,2.23 27.23,-3.68 40.01,-9.539 31.67,-14.621 62.61,-31.68 95.58,-42.481 47.03,-15.418 92.64,-34.968 140.49,-47.82 26.95,-7.238 53.75,-15.711 81.18,-20.348 31.78,-5.363 64.11,-8.39 96.34,-10.082 25.95,-1.359 51.64,-5.5 77.69,-5.871 22.79,-0.328 45.56,-0.398 68.35,-0.859 v 199.512 c -3.69,0.3 -7.38,0.519 -11.07,0.988 -6.2,0.793 -12.69,0.051 -19,-0.508"
         style="fill:#000000;fill-opacity:1;fill-rule:nonzero;stroke:none"
         id="path18" /><path
         d="m 2923.43,1073.31 c -70.58,1.77 -140.49,9.93 -211.95,3.91 -16.15,-1.34 -33,-2.1 -49.49,-2.47 -26.39,-0.56 -52.43,-2.39 -78.49,-6.83 -25.79,-4.4 -51.57,-9.61 -78.02,-10.33 -10.31,-0.29 -21.05,1.08 -30.88,-0.83 -30.67,-5.9 -62.01,-6.65 -92.87,-9.17 -32.79,-2.72 -242.44,12.95 -420.35,25.83 15.77,2.09 31.41,5.42 47.63,3.6 11.71,-1.33 23.28,2.74 34.94,3.99 7.81,0.83 15.93,0.02 23.41,1.94 18.42,4.69 37.43,4.47 56.02,6.35 21.28,2.17 42.83,3.54 64.38,3.83 15.16,0.21 30.34,1.25 45.49,0.92 32.69,-0.75 65.16,-4.66 97.74,-7.31 25.11,-2.06 50.2,-4.87 75.5,-5.38 23.24,-0.48 46.49,-2.8 69.73,-1.19 23.88,1.65 47.66,-1.25 71.53,-0.78 26.99,0.54 53.74,4.08 80.78,3.78 10.15,-0.12 20.64,0.86 30.95,1.16 25.78,0.78 51.6,0.53 77.4,1.33 17.72,0.58 35.41,3.26 53.13,3.19 20.05,-0.06 40,1.13 59.92,2.71 0.52,-0.04 1.05,-0.02 1.57,-0.07 11.68,-0.98 23.55,2.52 35.4,1.27 15.56,-1.63 31.2,-2.28 46.86,-2.48 14.31,-0.17 28.74,0.78 42.91,-0.79 16.49,-1.85 32.96,-0.76 49.44,-0.62 -33.09,-10.53 -67.5,-16.43 -102.68,-15.56 z m 1252.76,165.55 c -34.22,-0.58 -68.3,1.65 -102.24,5.76 -21.41,2.6 -42.77,3.67 -64.38,3.05 -16.03,-0.43 -31.84,-1.6 -47.75,-3.64 -20.16,-2.58 -40.55,-3.54 -60.87,-3.1 -26.34,0.59 -52.82,-0.92 -78.98,3.19 -9.02,1.41 -17.95,0.71 -26.79,1.57 -8.27,0.79 -16.59,-3.98 -24.59,0.68 -73.07,-5.28 -146.18,-10.57 -219.26,-15.86 -2.43,-2.15 -5.65,-3.09 -8.59,-3.17 -22.9,-0.55 -44.87,-8.08 -67.76,-8.75 -18.34,-0.54 -36.58,-2.77 -53.18,-10.92 -8.13,-3.99 -16.66,-8.07 -22.99,-15.08 -3.34,-3.7 -7.31,-6.51 -12.07,-7.3 -14.08,-2.34 -26.46,-10.29 -41.08,-11.36 -15.23,-1.13 -30.03,-5.84 -45.79,-2.32 -15.14,3.36 -30.57,3.22 -44.72,-4.98 -1.61,-0.94 -3.16,-0.78 -4.88,-0.52 -7.37,1.14 -14.75,0.65 -21.54,-2.33 -12.58,-5.56 -26.1,-5.68 -39.34,-7.44 -27.89,-3.73 -55.8,-7.76 -83.99,-8.01 -27.53,-0.25 -55.03,-0.76 -82.57,-0.28 -23.84,0.4 -47.78,-1.4 -71.68,-2.38 -24.47,-0.99 -48.85,-3.07 -73.32,-3.9 -10.05,-0.35 -20.17,0.92 -30.24,0.83 -10.39,-0.08 -20.64,-2.05 -30.95,-3.37 -13.77,-1.83 -27.85,0.17 -41.74,-1.66 -12.17,-1.62 -24.53,-1.57 -36.63,-4.12 -4.9,-1.01 -10.02,-0.65 -15.13,-0.45 -20.96,0.77 -41.97,0.76 -62.95,1.46 -11.46,0.37 -22.88,-0.37 -34.39,1.33 -10.17,1.47 -20.62,-0.44 -30.9,-1.66 -7.7,-0.94 -15.44,-2.2 -23.15,-2.19 -3.55,0.02 -6.29,-0.54 -9.51,-1.81 -4.89,-1.93 -10.23,-3.61 -15.43,-3.78 -10.94,-0.38 -21.53,-1.51 -31.27,-5.08 -12.41,0.01 -24.85,-0.84 -37.12,1.43 -24.72,4.6 -49.6,4.45 -74.58,4.29 -10.34,-0.07 -20.69,1.39 -31,2.43 -24.02,2.43 -46.57,11.55 -70.22,15.96 -18.23,3.39 -35.8,10.39 -53.43,16.45 -26.75,9.19 -54.3,15.28 -81.54,22.58 -13.32,3.59 -26.79,7.31 -40.99,7.57 -14.04,0.28 -28.17,-0.66 -42.08,0.57 -32.29,2.87 -64.17,-1.2 -95.76,-5.88 -30.93,-4.55 -62.04,-6.44 -93.04,-9.37 -25.36,-2.4 -50.46,-5.96 -75.67,-9.04 -17.86,-2.17 -35.74,-4.13 -53.68,-5.51 -27.47,-2.12 -54.96,2.25 -82.46,0.16 -2.52,-0.2 -5.17,-0.64 -7.59,-0.16 -16.56,3.22 -33.41,3.08 -50.13,4.33 -18.44,1.37 -36.92,1.58 -55.32,3.85 -12.75,1.58 -25.55,2.67 -38.31,4.32 -16.02,2.05 -32.4,2.65 -48.31,4.79 -21.93,2.93 -44.06,4.46 -65.96,6.63 -24.56,2.43 -49.62,5.41 -74.72,2.65 -16.75,-1.8 -33.84,0.45 -49.9,4.11 -23.84,5.37 -47.88,4.89 -71.79,7.3 -12.02,1.24 -24.32,-0.01 -36.03,1.64 -18.1,2.55 -36.17,4.67 -54.36,6.05 -31.93,2.37 -62.98,10.43 -94.8,13.53 -21.15,2.03 -42.16,5.53 -63.289,7.94 -8.606,1 -17.656,2.48 -25.996,0.9 -17.895,-3.38 -35.485,-6.85 -53.965,-6.9 -14.816,-0.03 -29.77,-0.71 -44.613,-0.69 -28.375,0 -56.723,1.21 -85.039,-1.44 -5.649,-0.54 -11.192,0.27 -16.782,0.53 -9.656,0.45 -20.058,0.96 -28.429,-4.28 -6.961,-4.35 -14.235,-5.23 -20.895,-3.44 -12.969,3.46 -25.59,0.08 -38.332,0.24 -9.531,0.16 -19.055,-2.7 -28.812,-2.36 -7.508,0.26 -15.024,0.39 -22.594,-0.41 -9.774,-1.04 -19.742,-2.23 -29.469,-1.42 -32.847,2.73 -65.82,2.19 -98.699,4.1 -25.172,1.47 -50.371,2.59 -75.543,4.17 -19.215,1.23 -38.465,1.17 -57.676,1.94 -16.855,0.68 -33.875,0.56 -50.918,-2.07 -23.297,-3.59 -46.871,-1.08 -70.344,1 -26.41,2.31 -53.035,2.28 -79.441,4.72 -46.6601,4.32 -93.5937,1.38 -140.25775,6.42 -1.89062,0.19 -3.76172,0.33 -5.65625,0.5 v -192.95 c 0.800781,-0.13 1.62109,-0.19 2.5,-0.12 25.2305,2.05 50.6094,1.21 75.8242,3.85 6.125,0.63 12.2774,1.02 18.5274,0.49 20.3824,-1.71 40.9184,-4.17 61.1684,-4.17 21.675,0.03 42.832,-4.55 64.5,-3.76 18.671,0.69 37.265,-4.49 56.093,-1.91 2.188,0.31 4.485,-0.19 6.731,-0.41 16.457,-1.83 32.914,-4.9 49.398,-5.23 28.25,-0.55 56.367,-2.84 84.528,-4.13 25.769,-1.13 51.558,-1.91 77.39,-1.71 14.996,0.13 29.746,2.35 45.039,0.79 21.656,-2.24 43.766,-1.54 65.606,-0.56 25.308,1.11 50.648,0.97 75.949,3 7.742,0.62 15.516,2.12 23.305,1.86 21.394,-0.76 42.511,3.13 63.847,3.52 16.52,0.3 33.016,2.84 49.52,2.89 16.836,0.07 33.39,3 50.269,3.06 15.485,0.03 30.813,5.56 46.692,4.33 2.41,-0.19 4.945,0.85 7.398,1.33 16.598,3.22 33.528,3.82 50.235,5.02 14.675,1.03 29.54,2.7 44.44,1.84 10.01,-0.58 20.13,0.5 30.16,1.16 19.67,1.29 39.31,3.56 59,4 29.85,0.67 59.78,0.19 89.69,0.02 5.82,-0.05 11.59,1.12 17.51,0.2 24.79,-3.84 49.69,-1.11 74.54,-0.91 21.82,0.14 43.65,1.47 65.48,2.06 8.95,0.22 17.92,0.22 26.84,-0.28 12.79,-0.74 25.67,-2.58 38.24,0.34 15.27,3.52 30.9,3.41 45.97,2.05 3.88,-0.35 7.74,-0.48 11.61,-0.51 2.38,-2.62 7.72,-2.41 11.54,-3.14 31.72,-6.09 64.77,-5.74 97.17,-8.63 27.52,-2.44 55.63,-1.84 83.2,-4.16 54.1,-4.52 615.7,-51.86 669.74,-43.251 25.88,4.121 52.41,7.791 78.72,6.261 73.63,-4.331 147.23,-8.992 220.65,-14.519 35.59,-2.699 71.14,-4.57 107.02,-4.473 53.3,0.102 106.67,0.223 159.38,-5.046 39.19,-3.934 78,-10.082 117.92,-9.454 86.76,1.391 173.54,3.793 260.27,4.602 23.11,0.199 46.36,2.012 69.21,1.191 46.81,-1.671 93.72,-2.351 140.48,-4.171 50.88,-1.989 101.77,-2.68 152.8,-1.84 13.49,0.218 27.45,-0.16 40.09,4.98 13.79,5.602 28.99,7.57 43.2,12.02 4.32,1.34 9.76,4.16 13.6,1.48 9.92,-6.98 19.3,-2 25.56,2.699 11.51,8.59 26.13,12.541 38.79,19.271 21.2,11.27 38.59,25.9 58.28,38.47 2.05,1.32 4.21,2.48 6.28,3.76 10.32,-0.79 20.72,-2.38 31.21,-0.96 6.02,0.8 12.07,-0.87 15.48,-7.67 2.56,-5.12 7.98,-7.6 13.48,-7.12 22.34,1.91 44.96,1.57 67.01,4.39 16.14,2.02 31.47,-1.96 47.33,-0.62 14.02,1.2 28.47,-2.44 42.69,-0.51 13.09,1.78 26.19,0.07 39.4,2.12 16.15,2.49 32.58,-2.2 49.16,-2.2 16.79,0 33.71,-3.09 50.62,-1.24 5.8,0.63 11.37,3.23 17.36,1.61 2.13,-0.59 4.11,-1.58 6.33,-1.98 v 192.97 c -23.32,2.01 -46.93,1.28 -69.95,6.71 -1.89,0.46 -3.88,0.77 -5.83,0.75"
         style="fill:#000000;fill-opacity:1;fill-rule:nonzero;stroke:none"
         id="path20" /><path
         d="m 421.633,22.0313 c -19.336,2.1679 -38.32,11.8906 -58.313,2.8281 -1.996,-0.8985 -5.027,0.2695 -7.539,0.7422 -26.355,5.0273 -53.078,8.4101 -79.289,13.6679 -42.691,8.5899 -85.738,9.6094 -128.469,7.4024 C 118.535,45.1289 89.2578,48.9688 59.7461,45.7617 39.9805,43.6094 19.9883,43.1992 0,43.0117 V 0 H 557.297 C 543.816,3.17969 530.309,6.12109 516.746,8.17188 485.105,12.9609 453.492,18.4805 421.633,22.0313"
         style="fill:#000000;fill-opacity:1;fill-rule:nonzero;stroke:none"
         id="path22" /><path
         d="m 4115.7,36.0117 c -26.61,-0.8398 -53.18,0.9766 -79.98,-5.2304 -31.01,-7.1797 -63.53,-6.2696 -95.37,-9.4415 -36.36,-3.6015 -73.2,-2 -109.77,-3.7695 -16.59,-0.8086 -33.29,-0.6211 -49.75,-3.789 C 3756.57,9.07031 3732.26,4.58984 3707.97,0 h 544 v 43.0117 c -8.27,-0.1015 -16.54,-0.1406 -24.79,-0.2812 -37.27,-0.5391 -74.23,-5.5508 -111.48,-6.7188"
         style="fill:#000000;fill-opacity:1;fill-rule:nonzero;stroke:none"
         id="path24" /><path
         d="m 2905.03,8.33984 c -25.93,2.89066 -45.24,21.85156 -70.12,28.42186 -16.98,4.4883 -34.1,10.1172 -51.01,15.5274 -28.01,8.9609 -56.96,13.8398 -86.02,18.7226 -30.51,5.1367 -61.11,4.9063 -91.62,7.6172 -19.12,1.6914 -38.52,-2.5898 -57.57,2.0195 -29.59,-0.6601 -59.2,-1.3281 -88.79,-1.9882 -24.03,-8.7188 -49.31,-7.6914 -74.19,-8.5 -35.87,-1.1485 -71.84,-1.5782 -107.35,-6.3399 -38.1,-5.1015 -76.58,-9.289 -113.67,-19.7617 -23.98,-6.7578 -46.55,-18.2891 -71.36,-22.7969 C 2056.82,14.6406 2020.48,6.82813 1983.79,1.39844 1981.15,1 1978.54,0.5 1975.92,0 h 969.14 c -11.71,5.96875 -24.67,7.19141 -38.16,7.82813 -0.63,0.04296 -1.24,0.4414 -1.87,0.51171"
         style="fill:#000000;fill-opacity:1;fill-rule:nonzero;stroke:none"
         id="path26" /><path
         d="m 1659.42,2844.84 c -36.54,-9.83 -72,-22.95 -108.11,-34.14 -21.46,-6.65 -43.24,-12.28 -65,-17.88 -33.33,-8.56 -65.78,-20.91 -99.21,-29 -20.17,-4.88 -40.24,-10.63 -60.52,-15.12 -50.35,-11.2 -99.21,-14.62 -150.51,-17.31 -46.07,-2.42 -92.05,-3.26 -138.33,-0.68 -34.22,1.9 -67.931,1.88 -101.779,7.87 -34.695,6.15 -68.488,-1.82 -103.566,2.63 -34.149,4.27 -68.391,1.83 -102.536,4.15 -21.457,1.44 -43.113,0 -64.546,1.74 -48.071,3.85 -96.176,7.27 -144.372,6.04 -94.316,-2.35 -188.656,-2.73 -282.961,-6.75 -34.789,-1.5 -70.105,-2.04 -105.238,0.96 -4.461,0.38 -8.957,0.51 -13.429,0.76 19.886,5.16 37.445,12.88 52.679,25.45 12.813,10.54 27.625,21.74 49.117,21.25 34.145,-0.78 68.731,0.49 102.243,-3.04 38.511,-4.06 77.503,-4.51 116.121,-7.7 37.636,-3.1 76.265,-1.83 114.597,1.47 15.024,1.3 30.317,-0.02 45.231,1.65 28.519,3.22 56.762,8.18 85.262,11.56 11.714,1.39 24.281,-1.18 35.55,1.11 24.035,4.89 48.399,9.26 71.496,16.94 34.477,11.45 70.407,17.88 107.192,16.98 70.586,-1.77 140.489,-9.94 211.939,-3.93 16.16,1.35 33,2.1 49.48,2.47 26.41,0.58 52.45,2.4 78.53,6.84 25.77,4.4 51.54,9.62 78,10.32 10.31,0.3 21.03,-1.05 30.87,0.83 30.68,5.91 62.02,6.66 92.88,9.19 21.16,1.75 115.95,-4.16 228.32,-12.02 -3.14,-0.87 -6.27,-1.79 -9.4,-2.64 z m 2434.96,-43 c -29.91,-11.25 -61.22,-21.22 -86.25,-39.67 -22.47,1.98 -44.99,3.32 -67.42,5.68 -39.94,4.26 -80.06,7.25 -119.79,12.99 -47.89,6.89 -95.38,16.58 -143.37,23 -38.16,5.1 -75.82,13.32 -114.22,17.45 -48.07,5.17 -95.68,8.83 -144.16,4.12 -35.21,-3.42 -70.32,-8.3 -104.37,-16.27 -39.01,-9.13 -78.33,-8.73 -117.47,-12.51 -24.58,-2.35 -49.35,1.04 -74.04,2.75 -36.01,2.47 -72.16,2.4 -108.24,3.59 -38.17,1.24 -76.53,-1.65 -114.59,4.22 -15.48,2.38 -31.31,5.44 -43.74,14.41 -20.89,15.02 -44.59,21.98 -68.73,25.88 -43.47,6.99 -87.2,12.06 -131.29,14.58 -42.99,2.41 -86.03,3.08 -129.02,4.56 -55.49,1.93 -110.84,-4.41 -166.29,-5.78 -21.37,-0.52 -43.25,-4.14 -64.09,2.69 -20.03,6.56 -40.75,7.72 -61.25,9.15 -38.26,2.67 -76.65,2.09 -114.95,0.49 -34.03,-1.43 -67.62,3.04 -101.06,7.85 -20.83,3.01 -41.81,7.77 -62.57,7.59 -24.76,-0.25 -49.58,0.09 -74.36,-0.53 -172.98,13.19 -369.64,26.55 -400.53,21.62 -25.89,-4.12 -52.42,-7.8 -78.73,-6.27 -73.63,4.33 -147.22,9.01 -220.64,14.54 -35.58,2.69 -71.13,4.56 -107.01,4.46 -53.31,-0.11 -106.684,-0.22 -159.391,5.05 -39.188,3.93 -77.996,10.08 -117.926,9.45 -86.758,-1.38 -173.535,-3.79 -260.262,-4.6 -23.125,-0.2 -46.355,-2.01 -69.211,-1.19 -46.816,1.67 -93.73,2.36 -140.492,4.16 -50.883,2.01 -101.754,2.69 -152.789,1.85 -13.5,-0.22 -27.461,0.16 -40.094,-4.98 -13.793,-5.6 -28.972,-7.57 -43.203,-12.01 -4.3164,-1.35 -9.75,-4.17 -13.5937,-1.48 -9.9258,6.98 -19.3008,2 -25.5586,-2.72 C 42.168,2907.37 27.5391,2903.43 14.8711,2896.71 9.72656,2893.96 4.80078,2890.99 0,2887.94 v -136.53 -32.64 -39.53 c 36.6211,-1.2 72.8359,-6.66 109.387,-8.89 30.183,-1.86 60.453,-3.92 90.636,-6.14 32.95,-2.43 66.137,-3.82 98.985,-6.63 37.265,-3.19 74.43,-3.38 111.617,-3.81 60.98,-0.7 121.82,6.77 182.809,4.37 23.074,-0.9 45.398,6.47 68.507,3.66 6.223,-0.75 12.305,-2.51 18.899,-2.08 18.066,1.22 36.223,1.46 54.328,1.92 42.289,1.01 84.73,-5.68 126.906,2.2 1.114,0.22 2.434,0.23 3.5,-0.11 16.071,-5.38 32.477,-8.41 49.227,-4.35 14.297,3.5 28.383,-0.77 42.504,0.05 19.863,1.15 39.527,2.21 59.565,0.65 8.37,-0.65 17.14,-2.87 26.16,-1.42 11.7,1.89 23.13,6.13 35.31,5.04 10.07,-0.91 20.61,-7.91 30.14,1.81 0.6,0.6 2.35,0.41 3.46,0.16 28.46,-6.47 57.09,-0.73 85.62,-1.08 3.46,-0.02 7.13,0.92 10.36,2.24 3.49,1.42 7.03,2.53 10.6,3.53 15.83,-3.4 31.8,-4.22 48.39,-3.58 44.09,1.7 88.14,3.04 132.03,7.91 18.55,2.07 37.65,0.31 55.86,3.69 24.03,4.46 44.14,-3.46 65.04,-12.75 12.06,-5.39 24.66,-12.65 38.3,-11.3 33.06,3.28 64.8,-6.06 97.22,-8.67 35.94,-2.91 71.6,-8.95 107.9,-6.87 31.07,1.8 62.32,-1.11 93.19,0.4 32.53,1.58 65.07,4.7 97.68,6.76 66.45,4.19 132.75,10.29 199.15,14.97 48.51,3.42 97.27,-0.67 145.8,5.79 32.75,4.37 66.28,-0.93 98.51,12.69 18.99,8.02 40.67,8.58 61.73,4.64 21.96,-4.07 44.6,-0.25 66.54,-5.27 26.96,-6.16 54.71,-5.39 81.94,-7.06 33.98,-2.09 68.35,1.07 102.47,3.18 20.14,1.24 40.65,8.12 55.24,20.25 11.13,9.26 20.67,15.85 34.55,16.33 71.34,2.38 142.71,4.05 213.78,12.15 38.62,4.39 77.51,-0.8 116.43,8.78 42.06,10.38 86.07,10.73 129.63,10.97 18.61,0.09 36.98,2.34 55.41,6.84 31.2,7.64 63.14,13.35 94.66,18.59 40.84,6.79 82.64,13.41 124.77,8.72 29.64,-3.28 59.64,-2.14 89.14,-7.93 30.02,-5.91 60.46,-9.65 90.57,-15.32 31.22,-5.86 62.31,-12.7 93.34,-19.46 19.39,-4.21 38.81,-8.23 58.16,-12.58 21.4,-4.84 43.02,-7.99 64.64,-11.04 27.84,-3.9 55.92,-6.08 83.87,-9.34 36.28,-4.25 72.25,-10.54 109.03,-11.72 20.89,-0.65 42.03,-2.48 62.98,-4.82 21.72,-2.44 43.5,-5.35 65.32,-6.06 0.06,0 0.12,-0.01 0.18,-0.01 v 39.53 32.64 136.53 c -14.9,-9.52 -28.5,-20.2 -43.39,-29.72 -35.19,-22.49 -73.12,-40.92 -114.2,-56.38"
         style="fill:#000000;fill-opacity:1;fill-rule:nonzero;stroke:none"
         id="path28" /><path
         d="m 1361.36,3410.45 c -32.98,-3.65 -65.32,1.62 -97.64,6.9 -3.01,0.49 -7.17,0.44 -7.68,4.21 -0.72,5.43 4.18,5.19 7.72,5.74 4.94,0.78 9.45,4.45 14.6,3.04 30.71,-8.42 62.31,-5.24 93.5,-7.35 2.52,-0.17 4.89,-1.2 7,-4.6 -5.04,-6.23 -11.19,-7.24 -17.5,-7.94 z m 2810.77,156.61 c -17.54,1.6 -35.18,2.52 -52.59,4.93 -28.7,3.98 -57.6,-0.76 -86.26,2.78 -3.81,0.47 -7.39,-0.84 -10.88,-2.61 -2.73,-1.41 -6.72,-3.76 -8.67,-2.77 -11.25,5.7 -23.03,2.02 -34.09,1.52 -38.35,-1.73 -76.66,-3.49 -115.06,-3.4 -8.13,0.02 -16.38,-0.31 -24.36,-2.77 -18.41,-5.66 -37.26,-5.74 -56.16,-3.23 -7,0.93 -13.78,0.6 -20.7,-0.44 -31.09,-4.65 -62.13,-10.03 -93.35,-13.46 -28.9,-3.16 -57.49,-7.98 -85.78,-13.99 -44.42,-9.44 -88.63,-20.26 -133.79,-24.73 -49.73,-4.92 -98.19,-16.39 -147.31,-24.36 -22.37,-3.62 -44.59,-8.46 -67.07,-11.28 -51.89,-6.59 -104,-11.73 -155.86,-18.47 -55.75,-7.23 -111.66,-11.95 -167.8,-13.09 -49.8,-0.99 -99.5,-4.19 -149.43,-3.34 -8.59,0.16 -17.16,0.24 -25.74,0.32 -0.03,0.54 -0.05,1.08 -0.06,1.62 -21.67,16.08 -47.9,12.75 -72.34,16.7 -31.25,5.05 -62.96,1.23 -94.44,2.82 -12.57,0.63 -22.33,8.23 -34.43,9.1 -42.24,3.02 -84.18,9.91 -126.67,9.72 -26,4.5 -51.13,12.47 -77.45,16.21 -60.8,8.63 -121.93,14.98 -182.43,26.15 -45.01,8.32 -89.99,18 -135.78,21.33 -31.26,2.27 -62.41,6.86 -93.83,6.01 -18.22,-0.5 -36.34,-4.02 -54.66,-0.56 -4.04,0.75 -8.73,-0.87 -12.89,-2.18 -14.58,-4.64 -29.55,-6.38 -44.78,-6.66 -80.67,-1.47 -169.84,-6.75 -247.81,-27.47 -56.04,-14.89 -121.82,4.98 -184.69,5.67 -9.43,0.1 -18.73,-0.18 -28.24,0.78 -23.17,2.3 -46.52,3.22 -69.84,3.18 -10.09,-0.03 -20.26,-1.02 -30.1,0.87 -18.16,3.45 -36.38,2.89 -54.65,2.86 -13.88,-0.03 -27.86,-1.19 -41.64,-0.1 -40.99,3.3 -81.9,-2.16 -122.81,-0.74 -25.23,0.89 -50.163,-6.33 -75.252,-2.92 -20.883,2.86 -41.524,1.17 -62.297,0.27 -11.965,-0.52 -24.055,-2.04 -35.93,-1.12 -37.066,2.86 -74.082,0.33 -111.109,-0.1 -31.426,-0.36 -62.891,2.48 -94.317,4.29 -15.07,0.86 -30.062,3.57 -45.125,3.68 -21.387,0.17 -42.769,-0.55 -64.14,1.57 -14.407,1.42 -29.012,4 -43.313,2.93 -32.203,-2.37 -63.894,1.58 -95.801,4.11 -19.343,1.57 -38.633,4.36 -58.304,3.47 -23.157,-1.07 -46.575,-0.93 -69.653,1.25 -50.054,4.73 -99.894,11.35 -150.051,15.49 -23.8082,1.96 -47.6753,-0.04 -71.5425,3.96 -11.9336,1.98 -24.3399,5.44 -36.7344,4.41 C 9.41016,3564.88 4.69922,3564.74 0,3564.52 V 3323 c 14.582,-0.15 29.0156,4.43 43.4531,1.2 19.7852,-4.45 39.9024,-5.27 59.8749,-7.59 20.164,-2.34 40.277,-0.91 60.402,-2.3 15.27,-1.04 32.848,-5.45 46.461,2.83 18.332,11.19 37.829,7.6 56.602,8.31 9.668,0.37 19.531,5.09 29.621,0.96 12.039,-4.92 24.953,-4.51 37.426,-3.17 25.332,2.74 50.707,-0.19 75.476,-2.7 51.973,-5.25 103.727,-12.9 155.993,-14.54 23.121,-0.73 46.324,-4.16 69.679,1.45 11.938,2.87 24.481,5.8 37.348,4.23 16.324,-1.96 32.758,-0.74 49.164,-0.83 17.609,-0.08 35.543,-0.8 52.16,-7.25 22.258,-8.62 45.387,-7.34 68.445,-8.97 24.692,-1.71 49.786,11.87 74.055,-2 35.633,-2.84 70.985,-11.62 107.05,-4.23 12.23,2.53 23.92,0.61 33.87,-7.83 7.03,-5.99 15.22,-5.14 23.42,-3.78 4.98,0.8 9.82,2.53 14.79,2.82 30.79,1.73 61.69,2.1 92.35,5.09 19.62,1.91 39.13,1.48 58.4,0.04 60,-4.53 119.45,-1.8 178.13,11.13 26.6,5.86 53.59,7.62 80.35,10.94 37.97,4.73 76.56,2.42 114.84,3.48 7.99,0.22 16.01,-0.91 24.02,-1.46 4.24,-1.63 8.64,-2.32 13.39,-1.83 24.4,2.58 48.92,-3.32 73.36,1.63 14.18,2.87 28.63,5.77 43,5.91 31.53,0.33 62.41,8.01 94.14,6.92 10.72,-0.37 22.13,2.47 33.23,5.22 4.43,1.11 8.92,2.12 13.43,3.11 0.37,-0.07 0.76,-0.13 1.13,-0.21 12.5,-2.72 25.16,-1.62 37.75,-0.69 5.98,0.44 11.27,1.94 14.08,7.18 20.84,-0.23 41.76,-0.18 62.56,-0.92 19.32,-0.67 38.36,-2.51 57.95,-1.79 18.08,0.65 35.83,0.54 54.05,3.33 27.84,4.28 55.06,9.58 82.46,16.7 1.48,0.39 3.03,0.65 4.53,1.01 1.18,-0.08 2.37,-0.11 3.56,-0.2 22.59,-1.52 45.36,-0.25 67.89,-4.08 16.61,-2.82 33.26,-4.21 50.44,-3.84 16.73,0.35 33.94,2.5 50.77,-0.89 29.78,-5.98 59.82,-8.37 90.13,-7.76 8,0.16 15.71,0.68 18.98,9.13 2.92,7.51 8.7,7.8 15.2,8.56 11.48,1.36 22.69,-1.03 33.91,-2.18 34.79,-3.53 67.6,6.71 100.94,13.22 20.24,-0.25 40.47,0.39 60.63,4.31 13.56,2.64 27.57,2.51 41.49,0.72 31.84,-4.11 63.63,-8.99 95.88,-5.74 27.45,2.74 55.51,-1.62 82.44,6.98 22.09,-7.64 42.75,7.14 65.16,3.81 14.48,-2.14 29.61,3.6 44.27,7.46 36.67,9.66 74.46,12.18 112.13,14.08 11.83,0.62 24.06,3.73 35.56,1.29 29,-6.09 57.84,-12.58 87.15,-17.11 15.63,-2.42 31.01,-5.13 46.86,-2.6 29.08,4.67 59.35,-0.65 87.68,10.4 1.11,0.43 2.5,0.17 3.76,0.18 29.55,0.75 59,3.84 88.35,6.43 34.6,3.06 69.27,3.83 103.86,6.08 18.84,1.22 37.66,0.67 56.65,-0.9 14.08,-1.17 28.49,-2.51 43.12,-0.99 17.33,1.8 35.52,1.1 52.61,-2.25 20.63,-4.04 41.3,-4.56 61.99,-6.35 4.15,-0.37 8.9,1.57 12.3,-2.56 -6.3,-11.47 -5.51,-13.83 5.87,-16.02 6.69,-1.28 14.31,0.38 19.59,-5.3 19.59,-21.15 44.67,-27.4 72.01,-25.16 16.53,1.34 32.65,-3.72 49.05,-1.19 2.46,0.39 5.17,-0.26 6.02,-3.23 4.53,-15.79 19.19,-13.3 29.58,-13.75 25.76,-1.07 51.65,0.43 77.47,1.59 22.73,1.03 45.51,0 67.96,-2.45 26.44,-2.89 52.7,0.67 78.94,-1.04 1.11,-0.07 2.22,-0.05 3.33,-0.05 v 241.52 c -26.67,-1.24 -53.25,0.11 -79.84,2.54"
         style="fill:#000000;fill-opacity:1;fill-rule:nonzero;stroke:none"
         id="path30" /><path
         d="m 4180.31,3923.3 c -19.4,0.46 -38.58,-0.04 -57.96,-3.65 -19.38,-3.63 -40.01,-9.67 -58.31,5.08 -2.35,1.9 -4.46,-1.13 -6.56,-1.54 -8.01,-1.54 -15.46,-7.89 -24.15,-4.06 -8.95,3.95 -18.98,2.17 -27.65,4.92 -11.72,3.75 -27.26,-7.6 -35.67,8.89 -0.41,0.82 -3.56,0.47 -5.41,0.26 -18.62,-2.1 -37.25,-4.99 -54.67,5.79 -2.97,1.85 -7.39,1.54 -11.16,1.87 -26.77,2.23 -53.35,4.3 -80.45,2.66 -18.11,-1.11 -36.5,-0.48 -54.57,-2.99 -18.53,-2.58 -36.66,-3.28 -54.6,2.83 -10.99,3.73 -22.09,4.2 -33.73,3.32 -31.04,-2.36 -61.65,4.92 -92.73,5.23 -25.75,0.26 -51.41,4.43 -77.39,2.63 -30.75,-2.12 -61.68,-7.61 -92.37,-0.53 -28.75,6.61 -57.75,8.26 -87.05,7.53 -4.43,-0.11 -9.2,-0.43 -13.26,0.97 -9.94,3.41 -19.2,0.27 -27.75,-3.18 -42.32,-17.09 -85.79,-20.41 -130.68,-14.17 -17.54,2.43 -35.47,2.35 -53.08,-2.06 -29.59,-7.4 -60.75,-2.56 -90.25,-11.6 -5.81,-1.78 -12.93,-1.32 -18.95,0.13 -11.94,2.89 -23.93,2.7 -35.96,2.81 -8.33,0.06 -16.31,1.53 -24.33,3.87 -27.44,8.03 -55.64,13.26 -84.03,14.59 -24.5,1.17 -49.18,5.96 -73.85,0.66 -2.99,-0.64 -6.32,0.35 -9.48,0.43 -29.07,0.78 -57.89,7.3 -87.19,3.62 -12.15,-1.52 -24.06,-0.25 -35.15,5.93 -7.06,3.96 -14.72,2.9 -22.35,1.57 -18.65,-3.27 -36.07,-2.55 -54.76,-2.95 -15.44,-0.34 -22.34,-6.77 -37.64,-10.67 -26.19,-6.68 -53.99,0.97 -80.37,2.14 -37.74,1.65 -75.51,2.86 -113.23,0.46 -100.32,-6.38 -201.49,-1.04 -301.98,-2.09 -83.66,-0.86 -167.09,-7.73 -250.56,-12.79 -78.31,-4.75 -155.6,-3.3 -233.8,-4.23 -47.42,-0.57 -95.04,4.41 -142.32,2.02 -33.67,-1.7 -64.83,11.68 -97.87,9.88 -2.36,-0.14 -4.92,1.25 -7.21,2.32 -7.06,3.35 -14.68,3.6 -22.27,4.63 -25.75,3.46 -51.81,3.42 -77.65,6.88 -23.63,3.18 -47.75,2.81 -71.66,3.95 -29.12,1.37 -58.46,-3.12 -87.38,3.46 -3.16,0.72 -6.84,0.66 -9.06,-1.65 -10.14,-10.57 -23.27,-8.47 -35.826,-9.09 -8.882,-0.43 -17.871,-0.52 -26.382,-3.56 -12.684,-4.51 -26.196,-6.23 -39.188,-6.87 -67.07,-3.36 -133.59,-12.58 -200.601,-16.77 -46.157,-2.89 -92.34,-4.92 -138.489,-6.66 -40.394,-1.53 -80.91,1.16 -121.375,1.52 -17.023,0.14 -34.152,-2.3 -51.066,-1.14 -38.535,2.63 -76.543,-2.08 -114.766,-5.04 -18.203,-1.41 -36.414,-5.09 -54.902,-2.9 -37.164,4.43 -74.442,6.96 -111.918,7.35 -27.231,0.29 -54.5079,-0.75 -81.6759,2.72 -6.207,0.79 -12.6758,0.04 -19,-0.52 C 24.418,3924.41 12.2188,3923.8 0,3923.39 v -197.03 c 40.0703,-0.55 80.1328,-0.19 120.211,-3.01 44.918,-3.15 90.004,-2.4 133.805,11.24 7.82,2.43 16.187,2.34 24.531,2.55 44.926,1.13 89.301,-7.57 134.219,-6.82 23.347,0.37 46.714,-2.74 70.078,-3.24 62.144,-1.34 124.281,-1.55 186.344,2.62 24.714,1.66 49.496,2.12 74.164,4.11 24.253,1.96 48.472,2 72.847,5.82 23.992,3.76 49.133,4.35 73.727,4.93 68,1.6 133.284,17.26 197.854,36.35 46.8,13.84 93.73,27.34 139.68,44.14 31.16,11.41 64.07,15.79 97.3,15.29 24.7,-0.38 49.31,2.23 73.92,3.02 37.77,1.23 75.41,8.5 113.01,13.93 40.89,5.91 82.09,7.73 123.23,9.66 29.22,1.38 58.52,0.37 87.71,1.94 7.78,0.41 15.53,1.04 23.31,1.72 10.32,-4.71 20.8,-9.14 32.23,-11.4 36.37,-7.17 72.47,-11.64 109.04,-0.86 7.07,2.09 15.11,0.95 22.73,1.07 3.76,0.06 8.57,-2.01 11.09,-0.37 10.19,6.65 16.27,0.52 23.35,-5.39 25.41,-21.21 53.21,-35.2 88,-32.4 12.94,1.05 26.76,-1.6 39.41,-5.21 25.91,-7.39 52.31,-7.8 78.73,-7.97 20.11,-0.12 40.28,-5.24 60.38,0.19 15.27,-7.85 30.35,1.05 45.58,0.81 16.25,-0.26 32.52,3.07 48.82,4.22 24.75,1.75 49.09,-3.07 73.4,-6.27 19.97,-2.61 39.96,-7.47 57.35,-18.85 3.5,-2.3 6.69,-2.72 10.71,-1.91 10.21,2.04 20.16,-0.17 30.12,-2.46 26.49,-6.11 54.42,-4.52 80.1,-15.07 2.21,-0.9 5.07,-0.06 7.58,-0.45 33.27,-5.19 66.87,-7.09 100.35,-9.89 30.21,-2.51 60.24,-5.62 90.8,-2.22 17.43,1.94 35.09,6.82 53.01,2.89 38.65,-8.49 77.82,-10.78 117.3,-10.98 20.05,-0.11 40.34,-2.45 59.79,3.17 23.89,6.89 47.91,12.37 72.66,14.4 8.93,0.72 17.33,3.42 25.97,5.31 32.76,7.19 64.74,17.92 98.36,21.11 37.12,3.55 72,14.69 104.66,32.56 9,4.93 18.27,8.85 28.01,11.94 41.97,13.28 85.1,19.74 129.02,20.93 13.41,0.36 26.45,2.85 39.68,4.28 13.99,1.51 27.2,9.35 40.76,8.26 26.11,-2.11 51.51,4.08 77.56,3.55 31.66,-0.66 62.98,-0.71 93.86,-8.75 7.3,-1.9 15.36,-3.4 22.64,-2.32 14.97,2.22 27.24,-3.67 40.01,-9.57 31.68,-14.6 62.62,-31.66 95.58,-42.46 47.03,-15.41 92.65,-34.95 140.49,-47.82 26.95,-7.24 53.76,-15.7 81.19,-20.35 31.79,-5.37 64.1,-8.38 96.34,-10.07 25.95,-1.38 51.63,-5.51 77.69,-5.88 0.56,0 1.13,0 1.68,-0.02 v 197.03 c -23.86,-0.82 -47.76,-0.65 -71.66,-0.09"
         style="fill:#000000;fill-opacity:1;fill-rule:nonzero;stroke:none"
         id="path32" /><path
         d="m 4111.41,3156.4 c -16.74,-1.81 -33.84,0.45 -49.92,4.09 -23.82,5.39 -47.86,4.89 -71.77,7.31 -12.02,1.24 -24.33,0 -36.04,1.64 -18.09,2.54 -36.17,4.68 -54.36,6.04 -31.91,2.39 -62.97,10.45 -94.8,13.55 -21.15,2.02 -42.16,5.52 -63.27,7.93 -8.62,0.99 -17.68,2.49 -26.02,0.91 -17.89,-3.38 -35.47,-6.86 -53.96,-6.91 -14.81,-0.02 -29.77,-0.69 -44.61,-0.69 -28.37,0 -56.73,1.22 -85.04,-1.45 -5.64,-0.54 -11.19,0.27 -16.78,0.55 -9.66,0.44 -20.05,0.96 -28.43,-4.29 -6.97,-4.35 -14.23,-5.23 -20.89,-3.44 -12.97,3.47 -25.6,0.07 -38.34,0.25 -9.53,0.16 -19.05,-2.7 -28.81,-2.37 -7.51,0.26 -15.03,0.4 -22.6,-0.4 -9.76,-1.04 -19.73,-2.23 -29.46,-1.43 -32.85,2.73 -65.82,2.19 -98.7,4.1 -25.18,1.46 -50.37,2.6 -75.55,4.18 -19.21,1.23 -38.47,1.16 -57.68,1.94 -16.85,0.66 -33.86,0.56 -50.92,-2.07 -23.28,-3.6 -46.86,-1.08 -70.33,1 -26.41,2.31 -53.05,2.27 -79.44,4.71 -46.68,4.33 -93.61,1.37 -140.27,6.42 -25.13,2.71 -50.69,1.34 -75.57,7.21 -1.89,0.45 -3.88,0.78 -5.83,0.75 -34.22,-0.59 -68.29,1.64 -102.23,5.77 -21.41,2.59 -42.77,3.67 -64.38,3.05 -16.03,-0.44 -31.85,-1.61 -47.75,-3.64 -20.17,-2.58 -40.56,-3.56 -60.89,-3.11 -26.33,0.59 -52.81,-0.91 -78.96,3.2 -9.02,1.4 -17.96,0.71 -26.8,1.56 -8.26,0.79 -16.6,-3.97 -24.58,0.69 -73.08,-5.28 -146.18,-10.59 -219.27,-15.86 -2.43,-2.16 -5.65,-3.09 -8.59,-3.17 -22.9,-0.55 -44.86,-8.1 -67.75,-8.75 -18.34,-0.55 -36.58,-2.79 -53.19,-10.93 -8.11,-3.98 -16.66,-8.07 -22.99,-15.08 -3.32,-3.69 -7.3,-6.51 -12.06,-7.29 -14.09,-2.34 -26.47,-10.29 -41.07,-11.36 -15.25,-1.14 -30.04,-5.84 -45.8,-2.33 -15.14,3.37 -30.58,3.23 -44.73,-4.98 -1.61,-0.93 -3.16,-0.77 -4.87,-0.51 -7.37,1.14 -14.76,0.64 -21.53,-2.33 -12.59,-5.56 -26.12,-5.68 -39.34,-7.44 -27.89,-3.74 -55.8,-7.78 -83.99,-8.01 -27.53,-0.26 -55.03,-0.78 -82.57,-0.29 -23.85,0.4 -47.79,-1.39 -71.68,-2.38 -24.48,-0.97 -48.85,-3.06 -73.32,-3.9 -10.06,-0.34 -20.17,0.93 -30.25,0.83 -10.4,-0.09 -20.63,-2.05 -30.94,-3.38 -13.77,-1.82 -27.85,0.18 -41.74,-1.64 -12.17,-1.63 -24.53,-1.57 -36.63,-4.12 -4.92,-1.02 -10.03,-0.65 -15.13,-0.46 -20.98,0.78 -41.97,0.77 -62.96,1.47 -11.45,0.37 -22.88,-0.39 -34.37,1.31 -10.19,1.49 -20.63,-0.44 -30.9,-1.65 -7.72,-0.92 -15.46,-2.19 -23.17,-2.18 -3.54,0.02 -6.29,-0.54 -9.51,-1.81 -4.89,-1.93 -10.22,-3.61 -15.44,-3.78 -10.93,-0.38 -21.52,-1.52 -31.26,-5.1 -12.41,0.02 -24.85,-0.83 -37.118,1.45 -24.719,4.6 -49.606,4.44 -74.582,4.27 -10.332,-0.05 -20.68,1.4 -31.004,2.45 -24.024,2.43 -46.559,11.55 -70.215,15.95 -18.219,3.4 -35.793,10.38 -53.434,16.44 -26.734,9.2 -54.289,15.3 -81.535,22.59 -13.32,3.58 -26.797,7.3 -40.996,7.58 -14.055,0.28 -28.172,-0.66 -42.074,0.57 -32.313,2.87 -64.176,-1.21 -95.766,-5.89 -30.929,-4.56 -62.039,-6.44 -93.039,-9.37 -25.355,-2.39 -50.472,-5.96 -75.679,-9.03 -17.864,-2.18 -35.747,-4.13 -53.665,-5.52 -27.468,-2.11 -54.976,2.25 -82.472,0.16 -2.528,-0.21 -5.16,-0.63 -7.582,-0.16 -16.567,3.23 -33.41,3.09 -50.133,4.33 -18.438,1.38 -36.914,1.58 -55.3282,3.85 -12.7344,1.58 -25.5469,2.68 -38.3047,4.33 -16.0117,2.04 -32.4101,2.63 -48.316381,4.78 -0.0507815,0 -0.0937502,0.01 -0.136719,0.01 v -123.49 c 17.0156,0.29 33.9844,2.17 50.957,-0.41 12.2266,-1.87 24.25,2.71 36.836,0.85 28.297,-4.16 56.98,-0.79 85.586,-3.14 31.57,-2.6 63.586,0.09 95.41,1.11 17.262,0.55 34.492,2.46 51.734,3.65 24.336,1.72 48.61,3.66 72.895,6.38 26.582,2.96 53.301,4.77 79.895,7.91 17.093,1.99 33.972,6.09 51.542,4.11 11.708,-1.32 23.266,2.75 34.918,3.99 7.821,0.84 15.946,0.03 23.426,1.94 18.41,4.71 37.426,4.48 56.016,6.36 21.289,2.16 42.848,3.54 64.39,3.83 15.157,0.21 30.336,1.26 45.493,0.92 32.687,-0.77 65.148,-4.66 97.726,-7.31 25.117,-2.07 50.219,-4.89 75.516,-5.38 23.23,-0.5 46.476,-2.8 69.715,-1.18 23.885,1.64 47.665,-1.26 71.555,-0.8 26.97,0.53 53.73,4.1 80.75,3.79 10.17,-0.12 20.64,0.85 30.97,1.16 25.78,0.78 51.59,0.54 77.39,1.33 17.72,0.57 35.41,3.25 53.13,3.19 20.06,-0.06 40,1.12 59.93,2.71 0.51,-0.04 1.04,-0.04 1.57,-0.08 11.69,-0.97 23.54,2.53 35.4,1.28 15.56,-1.64 31.19,-2.29 46.85,-2.47 14.31,-0.19 28.74,0.76 42.91,-0.82 21.31,-2.36 42.55,0.21 63.86,-0.79 17.66,-0.84 35.79,0.94 53.69,1.76 38.76,1.77 77.62,1.96 116.25,6.58 5.37,0.64 11.4,2.12 16.62,-0.89 16.49,-9.53 35.46,-6.95 53.09,-11.05 14.31,-3.29 29.1,-4.89 43.77,-6.36 7.43,-0.74 13.39,-6.49 20.64,-5.95 19.71,1.47 38.96,-2.8 58.33,-4.55 20.55,-1.87 41.2,-3.05 61.73,-4.91 21.26,-1.92 42.91,0.31 64.31,-2.46 14.23,-1.85 28.68,-0.07 42.79,-1.24 27.04,-2.27 54.12,-2.19 81.14,-3.68 20.4,-1.17 40.88,-1.3 61.26,-2.61 23.55,-1.49 47.23,-2.93 70.64,-1.03 24.16,1.92 48.15,-1.43 72.28,0.52 15.15,1.25 30.5,-3.25 46.03,-1.18 6.03,0.81 12.07,-0.87 15.47,-7.66 2.57,-5.12 7.98,-7.59 13.48,-7.12 22.36,1.91 44.98,1.58 67.03,4.39 16.14,2.03 31.45,-1.95 47.33,-0.61 14.01,1.2 28.47,-2.44 42.69,-0.52 13.09,1.79 26.18,0.08 39.39,2.13 16.16,2.5 32.59,-2.2 49.15,-2.2 16.81,0 33.73,-3.09 50.64,-1.24 5.79,0.62 11.36,3.23 17.35,1.61 2.9,-0.79 5.45,-2.37 8.8,-2.1 25.22,2.06 50.61,1.22 75.83,3.86 6.11,0.63 12.27,1.04 18.53,0.5 20.37,-1.72 40.9,-4.18 61.16,-4.17 21.68,0.02 42.84,-4.55 64.5,-3.76 18.67,0.69 37.27,-4.49 56.1,-1.93 2.18,0.32 4.48,-0.18 6.73,-0.4 16.46,-1.82 32.9,-4.89 49.39,-5.22 28.25,-0.55 56.36,-2.85 84.53,-4.14 25.77,-1.13 51.56,-1.91 77.39,-1.7 15,0.13 29.75,2.34 45.04,0.78 21.67,-2.23 43.77,-1.53 65.6,-0.56 25.31,1.12 50.66,0.98 75.96,3.01 7.74,0.62 15.51,2.12 23.3,1.86 21.4,-0.76 42.52,3.13 63.84,3.51 16.53,0.3 33.02,2.86 49.54,2.9 16.83,0.05 33.36,2.98 50.26,3.05 15.47,0.04 30.81,5.57 46.69,4.33 2.41,-0.18 4.94,0.86 7.4,1.34 16.6,3.21 33.53,3.82 50.23,5.01 14.67,1.04 29.54,2.71 44.44,1.83 10,-0.58 20.14,0.52 30.16,1.17 19.67,1.29 39.32,3.57 58.99,4.01 29.86,0.66 59.79,0.18 89.7,0 5.83,-0.03 11.6,1.14 17.51,0.22 24.79,-3.85 49.69,-1.11 74.54,-0.92 21.83,0.15 43.66,1.47 65.49,2.05 8.94,0.24 17.91,0.23 26.83,-0.26 12.79,-0.75 25.68,-2.6 38.23,0.33 15.3,3.52 30.92,3.42 45.97,2.05 5.95,-0.54 11.89,-0.63 17.82,-0.51 v 123.49 c -21.88,2.92 -43.99,4.47 -65.85,6.62 -24.56,2.42 -49.62,5.4 -74.71,2.66"
         style="fill:#000000;fill-opacity:1;fill-rule:nonzero;stroke:none"
         id="path34" /><path
         d="m 4072.92,1490.53 c -38.16,5.09 -75.82,13.31 -114.22,17.45 -48.07,5.16 -95.68,8.84 -144.16,4.13 -35.21,-3.44 -70.33,-8.32 -104.37,-16.27 -39,-9.14 -78.31,-8.74 -117.46,-12.52 -24.59,-2.37 -49.36,1.03 -74.05,2.75 -36.01,2.46 -72.17,2.41 -108.23,3.59 -38.19,1.25 -76.55,-1.65 -114.59,4.22 -15.5,2.38 -31.32,5.44 -43.76,14.42 -20.88,15.02 -44.59,21.97 -68.72,25.86 -43.47,6.99 -87.19,12.07 -131.3,14.59 -42.99,2.41 -86.01,3.08 -129.02,4.55 -55.48,1.93 -110.83,-4.4 -166.29,-5.77 -21.36,-0.52 -43.23,-4.15 -64.08,2.68 -20.03,6.56 -40.74,7.74 -61.24,9.17 -38.28,2.67 -76.64,2.06 -114.97,0.48 -34.02,-1.44 -67.62,3.04 -101.05,7.86 -20.84,3 -41.82,7.76 -62.58,7.57 -49.78,-0.48 -99.7,1.38 -149.25,-6.91 -25.86,-4.31 -51.73,-8.86 -76.75,-16.23 -23.96,-7.06 -47.93,-14.13 -72.05,-20.63 -36.55,-9.82 -71.99,-22.95 -108.11,-34.14 -21.44,-6.63 -43.24,-12.29 -64.99,-17.87 -33.32,-8.56 -65.79,-20.92 -99.21,-29 -20.17,-4.89 -40.25,-10.62 -60.52,-15.14 -50.36,-11.19 -99.21,-14.61 -150.5,-17.3 -46.08,-2.43 -92.07,-3.24 -138.34,-0.67 -34.23,1.89 -67.92,1.86 -101.78,7.87 -34.7,6.15 -68.49,-1.81 -103.57,2.62 -34.15,4.26 -68.39,1.83 -102.52,4.16 -21.47,1.44 -43.13,0 -64.56,1.74 -48.06,3.84 -96.176,7.27 -144.371,6.03 -94.317,-2.34 -188.649,-2.72 -282.954,-6.76 -34.796,-1.5 -70.113,-2.03 -105.246,0.98 -35.328,3.01 -70.902,1.33 -106.386,2.99 -61.696,2.93 -123.493,3.77 -185.176,6.58 -17.559,0.81 -35.293,-0.6 -52.531,1.76 -33.2,4.53 -66.633,5.65 -99.8832,9.18 -28.0312,2.97 -56.1289,5.38 -84.1328,8.49 v -52.1 c 3.12109,-0.69 6.25391,-1.33 9.375,-2.04 21.4102,-4.82 43.0313,-7.97 64.6563,-11.01 27.8237,-3.93 55.9137,-6.1 83.8517,-9.35 36.297,-4.25 72.254,-10.54 109.019,-11.72 20.907,-0.64 42.036,-2.49 62.996,-4.83 21.723,-2.44 43.497,-5.34 65.321,-6.05 36.679,-1.19 72.941,-6.67 109.531,-8.91 30.199,-1.86 60.453,-3.93 90.641,-6.12 32.949,-2.43 66.136,-3.84 98.984,-6.64 37.266,-3.2 74.438,-3.38 111.625,-3.81 60.973,-0.72 121.813,6.77 182.801,4.37 23.079,-0.91 45.399,6.47 68.509,3.67 6.22,-0.77 12.3,-2.53 18.9,-2.1 18.07,1.22 36.22,1.47 54.32,1.92 42.31,1.01 84.73,-5.68 126.91,2.21 1.12,0.22 2.43,0.23 3.5,-0.11 16.09,-5.37 32.49,-8.41 49.23,-4.35 14.31,3.48 28.38,-0.78 42.5,0.04 19.86,1.15 39.53,2.21 59.57,0.66 8.38,-0.66 17.14,-2.89 26.17,-1.42 11.7,1.89 23.11,6.14 35.3,5.05 10.07,-0.93 20.61,-7.91 30.14,1.78 0.61,0.62 2.34,0.42 3.47,0.19 28.44,-6.49 57.07,-0.74 85.6,-1.09 3.47,-0.03 7.15,0.9 10.39,2.23 3.46,1.44 7.01,2.52 10.58,3.55 15.84,-3.42 31.8,-4.23 48.39,-3.58 44.1,1.67 88.14,3.02 132.04,7.91 18.53,2.05 37.64,0.3 55.86,3.69 24.02,4.45 44.11,-3.48 65.03,-12.77 12.08,-5.4 24.65,-12.64 38.3,-11.29 33.05,3.28 64.81,-6.06 97.21,-8.68 35.94,-2.9 71.6,-8.94 107.9,-6.87 31.06,1.8 62.31,-1.1 93.18,0.41 32.55,1.56 65.08,4.68 97.68,6.75 66.46,4.18 132.76,10.31 199.16,14.97 48.53,3.41 97.28,-0.66 145.81,5.8 32.76,4.35 66.29,-0.92 98.52,12.69 18.97,8.02 40.65,8.58 61.72,4.63 21.97,-4.05 44.6,-0.24 66.54,-5.27 26.96,-6.16 54.71,-5.38 81.95,-7.05 33.97,-2.08 68.33,1.08 102.45,3.16 20.14,1.25 40.65,8.15 55.24,20.25 11.14,9.29 20.68,15.86 34.55,16.35 71.36,2.38 142.71,4.04 213.79,12.14 38.61,4.39 77.5,-0.79 116.42,8.8 42.08,10.38 86.09,10.7 129.63,10.97 18.63,0.06 36.99,2.34 55.41,6.82 31.21,7.64 63.16,13.37 94.67,18.6 40.84,6.8 82.65,13.4 124.77,8.73 29.65,-3.29 59.63,-2.15 89.14,-7.94 30.02,-5.91 60.47,-9.65 90.56,-15.32 31.23,-5.86 62.31,-12.7 93.36,-19.46 16.26,-3.53 32.55,-6.99 48.8,-10.57 v 52.11 c -11.92,1.33 -23.83,2.77 -35.69,4.48 -47.89,6.9 -95.37,16.59 -143.36,23.01"
         style="fill:#000000;fill-opacity:1;fill-rule:nonzero;stroke:none"
         id="path36" /><path
         d="m 3708.13,4251.97 c -14.79,-2.81 -29.58,-5.57 -44.3,-8.65 -33.26,-6.97 -67.14,-11.17 -99.46,-22.57 -18.04,-6.38 -35.79,-14.32 -55.88,-12.83 -12.28,0.92 -24.15,3.45 -36.1,5.82 -59.18,11.65 -118.25,13.85 -177.67,0.76 -27.01,-5.95 -54.57,-5.61 -82.23,-2.5 -17.76,1.98 -35.47,5.86 -53.61,4.24 -36.04,-3.22 -71.75,2.23 -107.57,4.54 -6.97,0.44 -14.01,0.32 -20.88,2.95 -14.79,5.66 -29.55,10.74 -46.01,10.52 -8.55,-0.12 -19.9,1.74 -25.25,7.29 -4.45,4.6 -9.21,7.9 -14.18,10.43 h -968.9 c -25.58,-4.88 -49.19,-14.77 -71.59,-27.02 -26.19,-14.32 -53.87,-24.17 -81.72,-33.94 -31.38,3.16 -62.87,5.31 -94.44,3.37 -33.42,-2.04 -66.65,2.48 -99.82,3.91 -33.85,1.46 -67.73,2.74 -101.6,3.21 -28.28,0.39 -56.56,-1.47 -84.86,-1.69 -40.48,-0.31 -80.6,6.31 -121.13,6.65 -13.94,0.12 -28.4,-0.32 -42.25,2.59 -35.4,7.45 -71.42,5.14 -107.16,6.86 -60.91,2.92 -121.86,-4.21 -182.832,0.23 -11.02,0.8 -21.602,1.74 -31.934,5.93 -7.082,2.88 -14.598,6.69 -22.352,3.93 -8.382,-2.99 -16.265,-1.46 -24.632,-0.69 -19.2,1.77 -38.524,3.84 -57.75,3.23 -40.668,-1.25 -80.704,5.71 -121.114,7.64 -28.742,1.37 -57.082,6.89 -86.301,4.36 -19.339,-1.65 -39.769,-0.16 -58.597,4.43 -9.602,2.35 -19.215,4.73 -28.852,7 L 0,4251.97 v -154.82 c 7.40234,0.25 14.7852,0.7 22.0859,1.53 24.4766,2.78 48.8047,1.9 72.875,1.38 54.3481,-1.18 108.5701,-8.57 163.1021,-3.38 12.789,1.22 26.339,0.02 38.187,4.03 14.898,5.07 28.98,3.73 43.629,1.94 16.566,-2 33.109,-4.22 49.73,-5.68 13.411,-1.17 27.594,-4.23 40.204,-1.26 17.582,4.16 35.417,6.48 53.078,8.56 24.3,2.87 47.359,11.23 71.656,13.83 26.105,2.79 52.34,5.63 77.965,11.11 17.769,3.8 35.957,0.63 53.246,5.72 15.156,4.46 30.492,4.27 45.926,3.58 4.464,-0.22 8.937,-0.31 13.41,-0.14 23.64,0.88 47.148,3.2 71.023,-0.45 23.332,-3.56 47.004,-7.35 70.879,-4.06 6.496,0.91 12.75,-0.65 19.125,-1.41 24.692,-2.97 49.617,-1.15 71.305,10.42 11.406,6.08 20.637,7.65 32.014,4.65 8.69,-2.27 17.58,-3.95 26.1,-6.78 35.3,-11.83 71.58,-14.11 108.38,-11.67 20.54,1.35 41.34,3.17 61.4,-2.08 11.56,-3.02 23.01,-4.4 34.28,-2.47 31.03,5.32 61.96,7.59 93.53,5.56 22.88,-1.46 46.13,-0.37 69.01,-1.28 29.11,-1.16 57.58,3.34 86.11,5.68 33.85,2.76 67.66,6.7 101.57,8.45 13.39,0.7 26.77,1.08 40.15,1.35 2.95,-0.88 5.82,-2.08 8.62,-3.57 24.65,-12.85 52.05,-17.05 78.56,-15.17 35.83,2.54 71.12,1.03 104.64,-9.61 47.81,-15.2 95.71,-14.59 144.38,-10.11 23.6,2.16 46.68,2.08 70.38,-3.51 31.11,-7.32 63.07,-10.58 95.51,-8.86 21.72,1.16 43.52,2.73 65.46,0.7 43.59,-4.02 87.11,-2.5 130.57,3.64 27.33,3.86 55.03,3.67 82.54,1.05 46.59,-4.44 93.13,-10.27 139.85,-2.15 10.15,1.77 20.23,3.5 30.54,4.06 34.78,1.84 69.54,-1.23 103.85,-5 34.44,-3.77 69.03,-5.5 103.42,-9.78 32.86,-4.09 65.79,-8.85 99,-8.91 23.48,-0.03 46.83,-2.39 69.65,9.4 10.83,5.6 23.32,9.08 34.71,14.93 12.39,6.33 27.27,6.72 39.73,13.78 2.86,1.63 6.2,-0.03 9.37,-0.41 19.53,-2.27 39.05,-5.19 58.66,-6 29.19,-1.21 58.35,0.69 87.44,-5.55 16.82,-3.6 35.42,-2.63 50.26,7.74 16.43,11.51 35.3,13.14 52.87,11.57 16.89,-1.51 34.34,-3.81 51.12,-7.93 32.38,-7.93 62.35,-2 89.93,16.05 5.7,3.72 11.92,6.71 17.89,6.11 31.07,-3.14 62.27,5.53 93.39,-2.79 22.15,-5.92 45.72,-6.8 67.65,-13.29 33.46,-9.9 66.19,-9.79 98.13,2.72 27.15,10.66 54.2,14.07 82.66,8.39 4.97,-1 10.33,-1.43 15.34,-0.75 19.53,2.61 39.23,-7.39 58.69,0.96 1.46,0.64 3.7,-0.63 5.6,-0.98 8.35,-1.51 16.49,-0.36 24.83,0.85 16.53,2.37 33.71,2.32 49.23,-3.22 24.55,-8.75 49.1,-17.59 73.57,-26.66 22.32,-8.28 45.09,-8.35 68.16,-7.14 30.12,1.6 60.28,2.38 90.28,6.23 5.58,0.72 11.47,-0.71 17.2,-1.33 19.38,-2.13 38.96,-3.24 58.32,-2.59 v 154.82 h -543.84"
         style="fill:#000000;fill-opacity:1;fill-rule:nonzero;stroke:none"
         id="path38" /><path
         d="m 4189.71,1804.26 c -28,8.96 -56.94,13.82 -86,18.72 -30.52,5.13 -61.12,4.91 -91.64,7.61 -19.11,1.7 -38.51,-2.57 -57.56,2.02 -29.59,-0.66 -59.19,-1.32 -88.78,-1.99 -24.04,-8.73 -49.32,-7.69 -74.18,-8.48 -35.88,-1.15 -71.86,-1.6 -107.37,-6.35 -38.1,-5.1 -76.58,-9.29 -113.67,-19.77 -23.99,-6.76 -46.55,-18.28 -71.37,-22.79 -36.5,-6.62 -72.84,-14.44 -109.53,-19.86 -28.57,-4.24 -54.66,-14.93 -79.3,-28.4 -26.18,-14.32 -53.85,-24.16 -81.72,-33.93 -31.36,3.16 -62.85,5.3 -94.43,3.36 -33.43,-2.04 -66.65,2.48 -99.82,3.91 -33.85,1.46 -67.74,2.76 -101.61,3.22 -28.29,0.4 -56.57,-1.46 -84.86,-1.69 -40.48,-0.32 -80.6,6.3 -121.14,6.65 -13.94,0.13 -28.38,-0.32 -42.23,2.58 -35.42,7.46 -71.43,5.17 -107.17,6.86 -60.9,2.92 -121.86,-4.19 -182.84,0.23 -11,0.8 -21.6,1.75 -31.93,5.94 -7.07,2.88 -14.59,6.7 -22.35,3.92 -8.37,-2.99 -16.25,-1.46 -24.62,-0.68 -19.2,1.76 -38.54,3.84 -57.75,3.22 -40.67,-1.25 -80.72,5.71 -121.12,7.65 -28.74,1.38 -57.09,6.89 -86.3,4.37 -19.33,-1.67 -39.76,-0.18 -58.6,4.42 -22.98,5.6 -46.07,11.63 -69.25,15.14 -31.65,4.78 -63.27,10.3 -95.12,13.86 -19.33,2.17 -38.32,11.89 -58.31,2.81 -2.01,-0.88 -5.03,0.29 -7.54,0.76 -26.37,5.02 -53.07,8.42 -79.28,13.67 -42.71,8.59 -85.76,9.61 -128.46,7.39 -29.51,-1.53 -58.79,2.31 -88.3,-0.91 -27.94,-3.04 -56.31,-2.61 -84.5,-3.04 -37.26,-0.52 -74.22,-5.53 -111.48,-6.7 -26.6,-0.84 -53.18,0.97 -79.98,-5.24 -31.01,-7.19 -63.54,-6.26 -95.36,-9.44 -36.35,-3.61 -73.2,-2 -109.783,-3.76 -16.57,-0.8 -33.269,-0.62 -49.734,-3.81 -38.993,-7.54 -78.153,-14.25 -117.004,-22.38 -33.278,-6.98 -67.137,-11.17 -99.465,-22.58 -18.039,-6.37 -35.777,-14.29 -55.891,-12.81 -12.261,0.89 -24.148,3.43 -36.086,5.8 -59.191,11.67 -118.257,13.85 -177.668,0.79 -27.007,-5.98 -54.57,-5.63 -82.226,-2.52 -17.778,1.98 -35.477,5.88 -53.613,4.25 -36.036,-3.23 -71.75,2.21 -107.571,4.54 -6.976,0.44 -14.015,0.31 -20.89,2.95 -14.789,5.65 -29.547,10.72 -45.996,10.49 -8.567,-0.1 -19.915,1.76 -25.254,7.3 -14.8988,15.46 -33.0902,17.34 -52.2777,18.23 -0.629,0.05 -1.2422,0.44 -1.8594,0.51 -21.8946,2.44 -39.1211,16.29 -58.9219,24.52 v -205.51 c 13.6914,-1.25 27.3945,-2.2 41.1758,-2.21 23.4805,-0.04 46.832,-2.41 69.6602,9.39 10.828,5.59 23.305,9.08 34.707,14.92 12.387,6.35 27.25,6.72 39.711,13.79 2.859,1.62 6.211,-0.04 9.375,-0.4 19.527,-2.28 39.059,-5.2 58.66,-5.99 29.199,-1.22 58.352,0.67 87.449,-5.56 16.813,-3.61 35.407,-2.64 50.258,7.74 16.442,11.5 35.293,13.13 52.871,11.57 16.891,-1.52 34.336,-3.81 51.121,-7.94 32.375,-7.93 62.352,-2 89.922,16.06 5.703,3.71 11.926,6.69 17.899,6.09 31.054,-3.13 62.257,5.55 93.39,-2.79 22.156,-5.91 45.703,-6.79 67.649,-13.29 33.441,-9.9 66.191,-9.79 98.125,2.74 27.16,10.65 54.187,14.07 82.668,8.37 4.964,-0.99 10.332,-1.41 15.343,-0.75 19.52,2.61 39.227,-7.39 58.666,0.97 1.46,0.63 3.72,-0.64 5.62,-0.97 8.34,-1.51 16.49,-0.37 24.84,0.83 16.51,2.39 33.68,2.33 49.22,-3.21 24.55,-8.73 49.11,-17.59 73.56,-26.67 22.32,-8.27 45.1,-8.34 68.16,-7.12 30.11,1.6 60.29,2.37 90.27,6.22 5.6,0.73 11.49,-0.7 17.21,-1.34 26.78,-2.96 53.96,-4.05 80.37,-1.05 24.5,2.78 48.82,1.9 72.9,1.38 54.34,-1.18 108.57,-8.57 163.07,-3.38 12.79,1.22 26.36,0.02 38.19,4.03 14.91,5.07 28.99,3.74 43.63,1.94 16.57,-2.01 33.12,-4.22 49.73,-5.68 13.42,-1.17 27.6,-4.24 40.21,-1.26 17.59,4.15 35.41,6.48 53.07,8.55 24.32,2.87 47.36,11.25 71.66,13.84 26.1,2.78 52.35,5.63 77.97,11.12 17.77,3.78 35.95,0.63 53.25,5.71 15.14,4.45 30.48,4.27 45.93,3.57 4.45,-0.2 8.93,-0.29 13.39,-0.13 23.66,0.87 47.15,3.2 71.03,-0.44 23.32,-3.57 47,-7.34 70.88,-4.06 6.5,0.89 12.74,-0.66 19.11,-1.43 24.7,-2.96 49.62,-1.13 71.32,10.44 11.42,6.07 20.64,7.63 32.01,4.65 8.69,-2.28 17.59,-3.96 26.1,-6.8 35.31,-11.83 71.57,-14.1 108.38,-11.67 20.55,1.36 41.34,3.18 61.4,-2.07 11.58,-3.02 23.02,-4.4 34.29,-2.46 31.03,5.32 61.94,7.59 93.52,5.54 22.89,-1.46 46.13,-0.36 69.01,-1.27 29.11,-1.17 57.58,3.35 86.12,5.67 33.84,2.77 67.66,6.7 101.58,8.46 13.37,0.69 26.74,1.07 40.13,1.34 2.95,-0.87 5.83,-2.09 8.63,-3.55 24.65,-12.87 52.05,-17.07 78.56,-15.18 35.83,2.55 71.11,1.04 104.64,-9.63 47.8,-15.18 95.71,-14.57 144.39,-10.08 23.59,2.15 46.66,2.07 70.36,-3.52 31.13,-7.32 63.08,-10.58 95.51,-8.86 21.73,1.16 43.54,2.73 65.47,0.71 43.59,-4.03 87.11,-2.51 130.57,3.64 27.34,3.84 55.03,3.65 82.55,1.04 46.58,-4.42 93.11,-10.28 139.85,-2.14 10.15,1.75 20.22,3.49 30.54,4.04 34.78,1.86 69.53,-1.23 103.84,-4.98 34.44,-3.77 69.04,-5.51 103.42,-9.78 19.26,-2.4 38.52,-4.92 57.86,-6.71 v 205.51 c -3.65,1.51 -7.36,2.89 -11.24,3.92 -16.98,4.48 -34.1,10.11 -51.02,15.53"
         style="fill:#000000;fill-opacity:1;fill-rule:nonzero;stroke:none"
         id="path40" /><path
         d="m 4111.88,2234.37 c -11.94,1.97 -24.33,5.44 -36.73,4.41 -31.39,-2.65 -62.66,-1.08 -93.93,1.77 -17.54,1.61 -35.18,2.55 -52.6,4.94 -28.69,3.99 -57.58,-0.75 -86.25,2.78 -3.81,0.49 -7.4,-0.84 -10.88,-2.62 -2.73,-1.38 -6.73,-3.74 -8.67,-2.75 -11.25,5.7 -23.03,2 -34.1,1.53 -38.36,-1.74 -76.66,-3.5 -115.06,-3.42 -8.12,0.02 -16.37,-0.32 -24.33,-2.78 -18.43,-5.64 -37.29,-5.72 -56.18,-3.22 -7.01,0.93 -13.78,0.61 -20.7,-0.43 -31.09,-4.66 -62.13,-10.04 -93.36,-13.45 -28.88,-3.17 -57.48,-8 -85.78,-14.01 -44.41,-9.43 -88.63,-20.27 -133.79,-24.73 -49.72,-4.92 -98.17,-16.39 -147.3,-24.36 -22.39,-3.61 -44.59,-8.46 -67.07,-11.27 -51.9,-6.6 -104,-11.72 -155.88,-18.46 -55.73,-7.23 -111.63,-11.97 -167.77,-13.09 -49.8,-1.02 -99.51,-4.2 -149.43,-3.34 -8.59,0.14 -17.17,0.23 -25.77,0.31 -0.01,0.53 -0.03,1.07 -0.05,1.61 -21.66,16.09 -47.9,12.76 -72.32,16.71 -31.25,5.03 -62.97,1.23 -94.44,2.81 -12.59,0.62 -22.34,8.24 -34.45,9.1 -42.23,3.03 -84.16,9.93 -126.66,9.71 -26,4.51 -51.14,12.49 -77.43,16.23 -60.81,8.63 -121.94,14.98 -182.44,26.15 -45.02,8.33 -90,18 -135.79,21.31 -31.25,2.29 -62.41,6.87 -93.83,6.02 -18.22,-0.5 -36.34,-4.02 -54.66,-0.57 -4.02,0.76 -8.74,-0.85 -12.88,-2.17 -14.6,-4.63 -29.56,-6.39 -44.8,-6.66 -80.67,-1.47 -169.83,-6.74 -247.8,-27.45 -56.05,-14.9 -121.81,4.97 -184.7,5.66 -9.42,0.08 -18.72,-0.18 -28.23,0.76 -23.17,2.32 -46.53,3.24 -69.84,3.2 -10.09,-0.02 -20.26,-1.01 -30.1,0.86 -18.17,3.46 -36.39,2.88 -54.65,2.85 -13.886,-0.01 -27.855,-1.17 -41.652,-0.08 -40.984,3.3 -81.879,-2.16 -122.801,-0.74 -25.234,0.88 -50.156,-6.33 -75.254,-2.91 -20.878,2.85 -41.535,1.15 -62.289,0.25 -11.976,-0.5 -24.074,-2.03 -35.921,-1.13 -37.086,2.87 -74.094,0.35 -111.133,-0.08 -31.426,-0.37 -62.879,2.48 -94.309,4.28 -15.055,0.86 -30.062,3.58 -45.117,3.69 -21.387,0.16 -42.774,-0.54 -64.141,1.57 -14.425,1.43 -29.027,4 -43.316,2.93 -32.207,-2.37 -63.883,1.58 -95.805,4.11 -19.336,1.56 -38.629,4.36 -58.301,3.47 -23.168,-1.06 -46.586,-0.95 -69.6519,1.24 -27.2032,2.57 -54.3633,5.69 -81.5391,8.68 v -237.78 c 6.82422,0.12 13.4063,1.28 19.2695,4.84 18.3594,11.17 37.8477,7.62 56.6133,8.31 9.6524,0.37 19.5352,5.1 29.6252,0.96 12.019,-4.92 24.937,-4.51 37.422,-3.16 25.332,2.72 50.699,-0.18 75.472,-2.7 51.965,-5.26 103.731,-12.91 155.985,-14.54 23.14,-0.72 46.332,-4.17 69.695,1.43 11.93,2.87 24.473,5.8 37.344,4.24 16.328,-1.96 32.746,-0.74 49.148,-0.83 17.625,-0.09 35.555,-0.81 52.176,-7.24 22.254,-8.63 45.391,-7.37 68.445,-8.98 24.688,-1.7 49.782,11.87 74.055,-1.99 35.617,-2.85 70.973,-11.63 107.051,-4.24 12.226,2.53 23.933,0.62 33.859,-7.83 7.047,-6 15.219,-5.14 23.43,-3.8 4.973,0.82 9.812,2.55 14.785,2.84 30.797,1.74 61.695,2.1 92.367,5.1 19.608,1.89 39.108,1.47 58.398,0.02 60,-4.52 119.44,-1.81 178.12,11.14 26.6,5.87 53.58,7.63 80.34,10.95 37.98,4.73 76.56,2.41 114.85,3.48 7.99,0.21 16.02,-0.91 24.03,-1.47 4.24,-1.63 8.64,-2.33 13.39,-1.82 24.39,2.58 48.91,-3.33 73.36,1.64 14.16,2.86 28.64,5.75 42.99,5.89 31.54,0.34 62.4,8.01 94.15,6.93 10.71,-0.37 22.12,2.45 33.22,5.21 4.43,1.1 8.92,2.13 13.43,3.13 0.37,-0.1 0.75,-0.14 1.13,-0.23 12.51,-2.73 25.16,-1.6 37.74,-0.68 6,0.43 11.27,1.94 14.09,7.2 20.85,-0.26 41.76,-0.21 62.57,-0.94 19.32,-0.66 38.36,-2.52 57.94,-1.8 18.09,0.65 35.83,0.55 54.04,3.34 27.87,4.28 55.08,9.58 82.49,16.7 1.47,0.38 3.02,0.64 4.51,0.99 1.19,-0.06 2.38,-0.11 3.56,-0.19 22.61,-1.52 45.38,-0.26 67.9,-4.08 16.61,-2.82 33.26,-4.23 50.41,-3.84 16.75,0.36 33.96,2.5 50.8,-0.88 29.76,-5.98 59.8,-8.38 90.13,-7.78 7.99,0.18 15.7,0.68 18.99,9.15 2.91,7.5 8.67,7.78 15.17,8.56 11.48,1.35 22.69,-1.03 33.91,-2.17 34.8,-3.55 67.62,6.69 100.95,13.2 20.24,-0.24 40.47,0.4 60.62,4.33 13.56,2.63 27.59,2.48 41.51,0.7 31.82,-4.1 63.62,-8.98 95.85,-5.74 27.46,2.75 55.51,-1.62 82.45,6.97 22.1,-7.62 42.75,7.15 65.17,3.84 14.48,-2.14 29.59,3.58 44.27,7.46 36.68,9.64 74.47,12.17 112.12,14.07 11.84,0.61 24.07,3.72 35.57,1.3 29,-6.1 57.85,-12.6 87.14,-17.13 15.63,-2.41 31,-5.12 46.86,-2.6 29.08,4.67 59.35,-0.65 87.7,10.41 1.09,0.43 2.5,0.14 3.75,0.18 29.54,0.75 58.98,3.82 88.35,6.43 34.59,3.07 69.26,3.83 103.85,6.09 18.85,1.2 37.68,0.65 56.67,-0.92 14.07,-1.16 28.47,-2.51 43.12,-0.99 17.32,1.8 35.5,1.11 52.59,-2.24 20.63,-4.04 41.31,-4.55 62,-6.36 4.16,-0.36 8.9,1.57 12.3,-2.54 -6.31,-11.48 -5.51,-13.84 5.86,-16.05 6.7,-1.28 14.32,0.4 19.59,-5.29 19.6,-21.15 44.67,-27.4 72.02,-25.15 16.53,1.35 32.65,-3.72 49.06,-1.2 2.45,0.38 5.15,-0.25 6.01,-3.23 4.54,-15.79 19.19,-13.29 29.58,-13.74 25.75,-1.07 51.65,0.42 77.47,1.59 22.73,1.02 45.51,0 67.95,-2.45 26.44,-2.89 52.7,0.67 78.96,-1.06 15.7,-0.99 31.22,4.62 46.73,1.16 19.79,-4.45 39.91,-5.27 59.9,-7.61 20.14,-2.34 40.27,-0.88 60.39,-2.27 8.71,-0.61 18.16,-2.23 27.21,-2.02 v 237.78 c -22.82,2.5 -45.64,4.93 -68.55,6.81 -23.8,1.95 -47.67,-0.03 -71.54,3.97"
         style="fill:#000000;fill-opacity:1;fill-rule:nonzero;stroke:none"
         id="path42" /><path
         d="m 4023.5,2472.9 c -26.95,7.26 -53.76,15.72 -81.19,20.34 -31.79,5.38 -64.12,8.41 -96.34,10.1 -25.96,1.35 -51.62,5.49 -77.7,5.86 -40.6,0.58 -81.23,0.18 -121.84,3.03 -44.94,3.16 -90.01,2.4 -133.82,-11.24 -7.82,-2.43 -16.19,-2.34 -24.53,-2.56 -44.92,-1.11 -89.29,7.58 -134.22,6.85 -23.34,-0.39 -46.72,2.72 -70.08,3.22 -62.15,1.35 -124.27,1.55 -186.35,-2.61 -24.7,-1.65 -49.49,-2.12 -74.16,-4.11 -24.26,-1.96 -48.48,-1.99 -72.85,-5.83 -23.97,-3.75 -49.11,-4.36 -73.73,-4.94 -67.98,-1.59 -133.28,-17.26 -197.85,-36.34 -46.8,-13.85 -93.73,-27.34 -139.66,-44.14 -31.18,-11.4 -64.08,-15.8 -97.3,-15.28 -24.71,0.36 -49.32,-2.23 -73.94,-3.03 -37.76,-1.23 -75.4,-8.49 -113,-13.93 -40.9,-5.9 -82.09,-7.73 -123.24,-9.65 -29.2,-1.38 -58.51,-0.39 -87.69,-1.94 -7.78,-0.42 -15.55,-1.04 -23.31,-1.73 -10.32,4.71 -20.81,9.14 -32.24,11.39 -36.38,7.18 -72.48,11.63 -109.05,0.88 -7.06,-2.09 -15.1,-0.97 -22.71,-1.08 -3.77,-0.05 -8.57,2.03 -11.1,0.37 -10.19,-6.64 -16.27,-0.5 -23.35,5.4 -25.41,21.21 -53.2,35.2 -88.01,32.4 -12.93,-1.05 -26.75,1.59 -39.4,5.2 -25.91,7.4 -52.3,7.8 -78.73,7.97 -20.12,0.12 -40.28,5.25 -60.38,-0.18 -15.27,7.84 -30.35,-1.06 -45.59,-0.82 -16.24,0.26 -32.51,-3.06 -48.82,-4.23 -24.75,-1.76 -49.1,3.09 -73.39,6.28 -19.97,2.61 -39.96,7.47 -57.36,18.85 -3.5,2.3 -6.68,2.71 -10.69,1.91 -10.22,-2.03 -20.18,0.17 -30.14,2.46 -26.47,6.11 -54.42,4.52 -80.09,15.07 -2.22,0.91 -5.08,0.07 -7.58,0.46 -33.27,5.18 -66.86,7.08 -100.36,9.87 -30.2,2.51 -60.23,5.63 -90.8,2.23 -17.433,-1.94 -35.094,-6.82 -53.012,-2.88 -38.636,8.47 -77.804,10.77 -117.277,10.97 -20.058,0.1 -40.355,2.45 -59.797,-3.16 -23.875,-6.9 -47.926,-12.36 -72.664,-14.39 -8.926,-0.75 -17.324,-3.44 -25.969,-5.33 -32.742,-7.21 -64.734,-17.91 -98.375,-21.11 -37.101,-3.54 -71.992,-14.68 -104.644,-32.57 -9.004,-4.91 -18.277,-8.85 -28.004,-11.92 -41.973,-13.27 -85.098,-19.75 -129.023,-20.93 -13.422,-0.35 -26.446,-2.85 -39.665,-4.28 -14.007,-1.52 -27.214,-9.36 -40.781,-8.27 -26.125,2.11 -51.488,-4.07 -77.539,-3.55 -31.687,0.67 -62.992,0.7 -93.8905,8.75 -7.2929,1.89 -15.3476,3.4 -22.6367,2.32 -14.9687,-2.22 -27.2265,3.68 -40.0078,9.55 -2.55469,1.19 -5.08984,2.4 -7.625,3.6 v -91.44 c 0.957031,0.11 1.92969,0.15 2.88672,0.29 18.51168,2.58 36.66408,3.28 54.59378,-2.84 10.9883,-3.71 22.1093,-4.19 33.7265,-3.31 31.055,2.36 61.66,-4.9 92.738,-5.22 25.739,-0.26 51.399,-4.43 77.383,-2.64 30.75,2.13 61.668,7.61 92.379,0.53 28.742,-6.6 57.746,-8.25 87.051,-7.52 4.437,0.11 9.191,0.43 13.262,-0.97 9.933,-3.42 19.199,-0.28 27.753,3.17 42.305,17.09 85.778,20.4 130.661,14.17 17.566,-2.42 35.492,-2.35 53.086,2.07 29.585,7.4 60.753,2.54 90.257,11.6 5.789,1.78 12.922,1.3 18.946,-0.14 11.933,-2.88 23.922,-2.7 35.976,-2.81 8.321,-0.07 16.281,-1.54 24.321,-3.88 27.437,-8.01 55.64,-13.23 84.011,-14.57 24.504,-1.16 49.184,-5.96 73.844,-0.67 3,0.65 6.324,-0.33 9.505,-0.43 29.07,-0.78 57.87,-7.29 87.17,-3.61 12.15,1.49 24.07,0.26 35.15,-5.94 7.06,-3.94 14.73,-2.88 22.37,-1.55 18.63,3.25 36.06,2.53 54.74,2.94 15.46,0.35 22.36,6.76 37.66,10.67 26.17,6.67 53.97,-0.97 80.35,-2.14 37.75,-1.65 75.52,-2.87 113.24,-0.46 100.31,6.38 201.5,1.03 301.98,2.08 83.67,0.88 167.09,7.74 250.56,12.8 78.32,4.75 155.59,3.28 233.79,4.21 47.42,0.57 95.04,-4.41 142.32,-2.02 33.67,1.71 64.83,-11.67 97.88,-9.85 2.35,0.12 4.91,-1.27 7.2,-2.35 7.08,-3.33 14.69,-3.58 22.27,-4.61 25.75,-3.46 51.82,-3.43 77.66,-6.88 23.63,-3.19 47.74,-2.82 71.66,-3.95 29.11,-1.37 58.46,3.12 87.37,-3.47 3.17,-0.71 6.84,-0.65 9.07,1.65 10.13,10.57 23.27,8.48 35.82,9.11 8.88,0.42 17.87,0.51 26.38,3.55 12.69,4.51 26.19,6.21 39.19,6.88 67.06,3.36 133.59,12.55 200.6,16.74 46.15,2.9 92.34,4.94 138.5,6.68 40.38,1.52 80.89,-1.15 121.36,-1.54 17.04,-0.13 34.17,2.31 51.08,1.15 38.53,-2.63 76.54,2.08 114.76,5.05 18.21,1.4 36.41,5.09 54.9,2.89 37.17,-4.43 74.44,-6.95 111.92,-7.35 27.22,-0.3 54.52,0.74 81.68,-2.71 6.22,-0.81 12.67,-0.07 19,0.51 36.03,3.26 72.13,3.04 108.24,2.2 19.41,-0.44 38.61,0.04 57.95,3.66 19.4,3.63 40.02,9.67 58.32,-5.08 2.36,-1.89 4.47,1.12 6.56,1.54 8.01,1.55 15.45,7.89 24.16,4.07 8.95,-3.94 18.99,-2.18 27.64,-4.95 11.72,-3.72 27.27,7.62 35.68,-8.87 0.41,-0.81 3.56,-0.47 5.4,-0.26 18.65,2.1 37.26,5 54.66,-5.79 2.99,-1.83 7.41,-1.54 11.17,-1.86 26.78,-2.24 53.36,-4.31 80.45,-2.67 17.15,1.03 34.58,0.62 51.73,2.71 v 91.41 c -29.05,13.76 -57.66,28.97 -87.98,38.9 -47.03,15.4 -92.65,34.96 -140.49,47.82"
         style="fill:#000000;fill-opacity:1;fill-rule:nonzero;stroke:none"
         id="path44" /></g></g></svg>
